<?xml version="1.0" encoding="UTF-8" standalone="no"?>
<svg width="19px" height="21px" viewBox="0 0 19 21" version="1.1" xmlns="http://www.w3.org/2000/svg" xmlns:xlink="http://www.w3.org/1999/xlink">
    <!-- Generator: Sketch 3.6.1 (26313) - http://www.bohemiancoding.com/sketch -->
    <title>@</title>
    <desc>Created with Sketch.</desc>
    <defs></defs>
    <g id="Page-1" stroke="none" stroke-width="1" fill="none" fill-rule="evenodd">
        <g id="if-pricing-page-configurator" transform="translate(-540.000000, -2179.000000)" fill="#9B9B9B">
            <g id="overlay" transform="translate(176.000000, 1930.000000)">
                <g id="name-input-copy-2" transform="translate(356.000000, 239.000000)">
                    <path d="M20.688,16.7 C20.5199992,16.6439997 20.2960014,16.5833337 20.016,16.518 C19.7359986,16.4526663 19.400002,16.42 19.008,16.42 C18.2986631,16.42 17.6313365,16.5786651 17.006,16.896 C16.3806635,17.2133349 15.834669,17.6379973 15.368,18.17 C14.901331,18.7020027 14.532668,19.3179965 14.262,20.018 C13.991332,20.7180035 13.856,21.4413296 13.856,22.188 C13.856,22.8786701 14.0333316,23.4433311 14.388,23.882 C14.7426684,24.3206689 15.2653299,24.54 15.956,24.54 C16.4413358,24.54 16.9033311,24.4000014 17.342,24.12 C17.7806689,23.8399986 18.1819982,23.4853355 18.546,23.056 C18.9100018,22.6266645 19.2133321,22.1600025 19.456,21.656 C19.6986679,21.1519975 19.8666662,20.6760022 19.96,20.228 L20.688,16.7 Z M21.584,29.16 C20.8746631,29.5893355 20.1186707,29.8926658 19.316,30.07 C18.5133293,30.2473342 17.6640045,30.336 16.768,30.336 C15.6479944,30.336 14.5886717,30.1353353 13.59,29.734 C12.5913283,29.3326647 11.7186704,28.7586704 10.972,28.012 C10.2253296,27.2653296 9.63733548,26.3600053 9.208,25.296 C8.77866452,24.2319947 8.564,23.0280067 8.564,21.684 C8.564,20.2279927 8.797331,18.83734 9.264,17.512 C9.730669,16.18666 10.3979957,15.0293383 11.266,14.04 C12.1340043,13.0506617 13.1839938,12.2620029 14.416,11.674 C15.6480062,11.0859971 17.0199924,10.792 18.532,10.792 C19.7266726,10.792 20.8046619,10.9926647 21.766,11.394 C22.7273381,11.7953353 23.5439966,12.3506631 24.216,13.06 C24.8880034,13.7693369 25.4059982,14.6139951 25.77,15.594 C26.1340018,16.5740049 26.316,17.6333276 26.316,18.772 C26.316,19.8733388 26.180668,20.8439958 25.91,21.684 C25.639332,22.5240042 25.2846689,23.2333304 24.846,23.812 C24.4073311,24.3906696 23.9033362,24.8293318 23.334,25.128 C22.7646638,25.4266682 22.1813363,25.576 21.584,25.576 C21.3413321,25.576 21.0986679,25.5246672 20.856,25.422 C20.6133321,25.3193328 20.3986676,25.1653344 20.212,24.96 C20.0253324,24.7546656 19.8853338,24.4840017 19.792,24.148 C19.6986662,23.8119983 19.6799997,23.410669 19.736,22.944 L19.624,22.944 C19.082664,23.8586712 18.4853366,24.5259979 17.832,24.946 C17.1786634,25.3660021 16.4040045,25.576 15.508,25.576 C15.1346648,25.576 14.7753351,25.5013341 14.43,25.352 C14.0846649,25.2026659 13.776668,24.9786682 13.506,24.68 C13.235332,24.3813318 13.0206675,24.0220021 12.862,23.602 C12.7033325,23.1819979 12.624,22.701336 12.624,22.16 C12.624,21.301329 12.7919983,20.4660041 13.128,19.654 C13.4640017,18.8419959 13.9259971,18.1186698 14.514,17.484 C15.1020029,16.8493302 15.8019959,16.3453352 16.614,15.972 C17.4260041,15.5986648 18.3079952,15.412 19.26,15.412 C19.8386696,15.412 20.3473311,15.4586662 20.786,15.552 C21.2246689,15.6453338 21.6306648,15.7666659 22.004,15.916 L20.968,20.984 C20.7066654,22.2160062 20.6599992,23.1073306 20.828,23.658 C20.9960008,24.2086694 21.3319975,24.4933332 21.836,24.512 C22.228002,24.512 22.619998,24.3860013 23.012,24.134 C23.404002,23.8819987 23.7493318,23.5180024 24.048,23.042 C24.3466682,22.5659976 24.5893324,21.9920034 24.776,21.32 C24.9626676,20.6479966 25.056,19.8920042 25.056,19.052 C25.056,17.9693279 24.9066682,16.9846711 24.608,16.098 C24.3093318,15.2113289 23.8753362,14.4506698 23.306,13.816 C22.7366638,13.1813302 22.0320042,12.6913351 21.192,12.346 C20.3519958,12.0006649 19.4000053,11.828 18.336,11.828 C17.1599941,11.828 16.0586718,12.0566644 15.032,12.514 C14.0053282,12.9713356 13.1046705,13.629329 12.33,14.488 C11.5553295,15.346671 10.9440022,16.377994 10.496,17.582 C10.0479978,18.786006 9.824,20.125326 9.824,21.6 C9.824,22.7573391 10.0013316,23.8073286 10.356,24.75 C10.7106684,25.6926714 11.2006635,26.4999966 11.826,27.172 C12.4513365,27.8440034 13.1979957,28.3619982 14.066,28.726 C14.9340043,29.0900018 15.8813282,29.272 16.908,29.272 C17.766671,29.272 18.5506631,29.1786676 19.26,28.992 C19.9693369,28.8053324 20.6133304,28.5440017 21.192,28.208 L21.584,29.16 Z" id="@"></path>
                </g>
            </g>
        </g>
    </g>
</svg>