<?xml version="1.0" encoding="UTF-8" standalone="no"?>
<svg width="58px" height="58px" viewBox="0 0 58 58" version="1.1" xmlns="http://www.w3.org/2000/svg" xmlns:xlink="http://www.w3.org/1999/xlink">
    <!-- Generator: Sketch 3.6 (26304) - http://www.bohemiancoding.com/sketch -->
    <title>btn-ok</title>
    <desc>Created with Sketch.</desc>
    <defs></defs>
    <g id="Page-1" stroke="none" stroke-width="1" fill="none" fill-rule="evenodd">
        <g id="if-pricing-page-attendance" transform="translate(-691.000000, -894.000000)" fill="#4990E2">
            <g id="organization-attendance" transform="translate(0.000000, 384.000000)">
                <path d="M719.672,510 C703.836,510 691,522.837 691,538.673 C691,554.508 703.836,567.345 719.672,567.345 C735.507,567.345 748.344,554.508 748.344,538.673 C748.344,522.837 735.507,510 719.672,510 Z M719.674,565.517 C704.872,565.517 692.77,553.475 692.77,538.673 C692.77,523.87 704.872,511.828 719.674,511.828 C734.476,511.828 746.518,523.87 746.518,538.673 C746.518,553.475 734.476,565.517 719.674,565.517 Z M734.53,529.85 L716.95,546.82 L705.95,535.39 C705.458467,534.881898 704.648102,534.868467 704.14,535.36 C703.631899,535.851534 703.618467,536.661898 704.11,537.17 L716,549.51 C716.209804,549.801566 716.564572,549.951957 716.92,549.9 C717.248965,549.898891 717.56458,549.769775 717.8,549.54 L736.29,531.68 C736.632043,531.369072 736.778138,530.896855 736.671439,530.447095 C736.564739,529.997334 736.222097,529.641064 735.776837,529.516913 C735.331578,529.392762 734.854025,529.520338 734.53,529.85 L734.53,529.85 Z" id="btn-ok"></path>
            </g>
        </g>
    </g>
</svg>