<?xml version="1.0" encoding="UTF-8" standalone="no"?>
<svg width="50px" height="50px" viewBox="0 0 50 50" version="1.1" xmlns="http://www.w3.org/2000/svg" xmlns:xlink="http://www.w3.org/1999/xlink">
    <!-- Generator: Sketch 3.6.1 (26313) - http://www.bohemiancoding.com/sketch -->
    <title>ico-callback</title>
    <desc>Created with Sketch.</desc>
    <defs></defs>
    <g id="Page-1" stroke="none" stroke-width="1" fill="none" fill-rule="evenodd" opacity="0.5">
        <g id="if-pricing-page-configurator" transform="translate(-658.000000, -2524.000000)" fill="#546475">
            <g id="overlay" transform="translate(176.000000, 1930.000000)">
                <path d="M507,594 C493.2,594 482,605.2 482,619 C482,632.8 493.2,644 507,644 C512.6,644 518,642.1 522.4,638.7 L522.4,641.2 L524.6,641.2 L524.6,634.6 L518,634.6 L518,636.8 L521.4,636.8 C517.3,640.1 512.3,641.9 507.1,641.9 C494.4,641.9 484.1,631.6 484.1,619 C484.1,606.4 494.4,596.2 507,596.2 C519.6,596.2 529.9,606.4 529.9,619 C529.9,624 528.3,628.7 525.3,632.7 L527,634 C530.3,629.6 532,624.4 532,619 C532.1,605.2 520.8,594 507,594 Z M503.7,607.2 C501.6,607.2 499.9,608.9 499.9,611 L499.9,627.1 C499.9,629.2 501.6,630.9 503.7,630.9 L510.4,630.9 C512.5,630.9 514.2,629.2 514.2,627.1 L514.2,611 C514.2,608.9 512.5,607.2 510.4,607.2 L503.7,607.2 Z M512,611 L512,627.1 C512,628 511.3,628.7 510.4,628.7 L503.7,628.7 C502.8,628.7 502.1,628 502.1,627.1 L502.1,611 C502.1,610.1 502.8,609.4 503.7,609.4 L510.4,609.4 C511.2,609.4 512,610.1 512,611 Z M507,627.3 C507.773199,627.3 508.4,626.673199 508.4,625.9 C508.4,625.126801 507.773199,624.5 507,624.5 C506.226801,624.5 505.6,625.126801 505.6,625.9 C505.6,626.673199 506.226801,627.3 507,627.3 Z" id="ico-callback"></path>
            </g>
        </g>
    </g>
</svg>