<?xml version="1.0" encoding="UTF-8" standalone="no"?>
<svg width="52px" height="52px" viewBox="0 0 52 52" version="1.1" xmlns="http://www.w3.org/2000/svg" xmlns:xlink="http://www.w3.org/1999/xlink">
    <!-- Generator: Sketch 3.6.1 (26313) - http://www.bohemiancoding.com/sketch -->
    <title>Combined Shape</title>
    <desc>Created with Sketch.</desc>
    <defs></defs>
    <g id="Page-1" stroke="none" stroke-width="1" fill="none" fill-rule="evenodd">
        <g id="if-pricing-page-configurator" transform="translate(-1271.000000, -1112.000000)" stroke="#546475" stroke-width="0.5" fill="#546475">
            <g id="ico-email" transform="translate(1272.000000, 1113.000000)">
                <path d="M34.9864496,16 L16.0135504,16 C14.3517436,16 13,17.3522404 13,19.0146579 L13,31.9853421 C13,33.6477596 14.3517436,35 16.0135504,35 L34.9864496,35 C36.6479265,35 38,33.6477596 38,31.9853421 L38,19.0146579 C37.9996701,17.3522404 36.6479265,16 34.9864496,16 L34.9864496,16 Z M36.7158766,31.9853421 C36.7158766,32.9396318 35.9400588,33.7157346 34.9861197,33.7157346 L16.0135504,33.7157346 C15.0599412,33.7157346 14.2837936,32.9396318 14.2837936,31.9853421 L14.2837936,19.0146579 C14.2837936,18.0606982 15.0596113,17.2842654 16.0135504,17.2842654 L34.9864496,17.2842654 C35.9400588,17.2842654 36.7162064,18.0603682 36.7162064,19.0146579 L36.7162064,31.9853421 L36.7158766,31.9853421 Z M25,50 C11.1928813,50 0,38.8071187 0,25 C0,11.1928813 11.1928813,0 25,0 C38.8071187,0 50,11.1928813 50,25 C50,38.8071187 38.8071187,50 25,50 Z M25,48 C37.7025492,48 48,37.7025492 48,25 C48,12.2974508 37.7025492,2 25,2 C12.2974508,2 2,12.2974508 2,25 C2,37.7025492 12.2974508,48 25,48 Z M34.8881529,31.1366447 C35.1451096,31.3808267 35.1556649,31.7873567 34.9112428,32.0444078 C34.7849085,32.177388 34.6156932,32.244373 34.4458181,32.244373 C34.2871581,32.244373 34.1281683,32.1859673 34.0038131,32.0678361 L27.7204154,26.0959361 L25.9299653,27.7032477 C25.9200697,27.712157 25.9088546,27.7184265 25.8986291,27.7266759 C25.8844454,27.7378951 25.8702616,27.7487843 25.8554182,27.7586836 C25.8336478,27.7732025 25.8112177,27.7854116 25.7881279,27.7969608 C25.7732844,27.8042202 25.7591007,27.8121396 25.7439274,27.8184092 C25.7172092,27.8292984 25.6898312,27.8372178 25.6624533,27.8444772 C25.6499189,27.847777 25.6377142,27.8523967 25.6248499,27.8547065 C25.583948,27.8626259 25.5427162,27.8675755 25.5014843,27.8675755 C25.5014843,27.8675755 25.5014843,27.8675755 25.5011545,27.8675755 C25.5008246,27.8675755 25.5011545,27.8675755 25.5008246,27.8675755 C25.4595928,27.8675755 25.418361,27.8629559 25.3777889,27.8550365 C25.3652544,27.8523967 25.3530498,27.848107 25.3405154,27.8448072 C25.3128076,27.8375478 25.2857595,27.8296283 25.2590413,27.8187391 C25.243868,27.8124696 25.2296843,27.8048802 25.2151707,27.7976207 C25.1920809,27.7860716 25.1696508,27.7738625 25.1478804,27.7593435 C25.1330369,27.7494443 25.1188532,27.7385551 25.1046694,27.7273359 C25.0944439,27.7190865 25.0832289,27.7131469 25.0733332,27.7042376 L23.3277434,26.1431226 L17.0057527,32.0602466 C16.8820572,32.1760681 16.7243868,32.2334838 16.5673761,32.2334838 C16.3958518,32.2334838 16.2249871,32.1651789 16.0986529,32.0298889 C15.8565397,31.7708579 15.8700637,31.3646579 16.1286696,31.1224557 L22.3672072,25.2835359 L16.1026111,19.6815387 C15.8383977,19.4452761 15.8156377,19.039406 16.0518135,18.7747655 C16.2879893,18.510125 16.6937103,18.4876867 16.9582536,18.7239493 L23.6866251,24.7410559 C23.7235688,24.766794 23.7588632,24.7961619 23.7908591,24.8301494 C23.7944875,24.8341091 23.7967965,24.8387287 23.8004249,24.8426884 L25.5004948,26.3628864 L34.0094206,18.7246092 C34.2733042,18.4880167 34.6790252,18.5097951 34.9158607,18.7737756 C35.1526962,19.0377562 35.130596,19.4436263 34.8667124,19.6805488 L28.6789724,25.2353595 L34.8881529,31.1366447 Z" id="Combined-Shape"></path>
            </g>
        </g>
    </g>
</svg>