<?xml version="1.0" encoding="UTF-8" standalone="no"?>
<svg width="13px" height="28px" viewBox="0 0 13 28" version="1.1" xmlns="http://www.w3.org/2000/svg" xmlns:xlink="http://www.w3.org/1999/xlink">
    <!-- Generator: Sketch 3.6.1 (26313) - http://www.bohemiancoding.com/sketch -->
    <title>$</title>
    <desc>Created with Sketch.</desc>
    <defs></defs>
    <g id="Page-1" stroke="none" stroke-width="1" fill="none" fill-rule="evenodd">
        <g id="if-pricing-page-configurator" transform="translate(-1196.000000, -419.000000)" fill="#FFFFFF">
            <g id="side-block" transform="translate(1140.000000, 327.000000)">
                <path d="M68.348,110.642 C68.348,112.092674 67.8776714,113.339328 66.937,114.382 C65.9963286,115.424672 64.7440078,116.081999 63.18,116.354 L63.18,119.89 L61.242,119.89 L61.242,116.456 C59.2019898,116.410666 57.5360065,115.912005 56.244,114.96 L57.026,112.988 C58.4086736,113.940005 59.9613247,114.416 61.684,114.416 C62.9080061,114.416 63.8996629,114.087337 64.659,113.43 C65.4183371,112.772663 65.798,111.922672 65.798,110.88 C65.798,109.089324 64.5286794,107.672672 61.99,106.63 C60.0179901,105.813996 58.6126709,104.958338 57.774,104.063 C56.9353291,103.167662 56.516,102.08534 56.516,100.816 C56.516,99.3879929 56.9693288,98.1980048 57.876,97.246 C58.7826712,96.2939952 59.9839925,95.6933346 61.48,95.444 L61.48,92.01 L63.384,92.01 L63.384,95.342 C65.0160082,95.3646668 66.4326607,95.7613295 67.634,96.532 L66.852,98.504 C65.5373268,97.7333295 64.1660071,97.348 62.738,97.348 C61.5819942,97.348 60.6810032,97.6426637 60.035,98.232 C59.3889968,98.8213363 59.066,99.5579956 59.066,100.442 C59.066,100.895336 59.1339993,101.297665 59.27,101.649 C59.4060007,102.000335 59.6326651,102.328998 59.95,102.635 C60.2673349,102.941002 60.6979973,103.241332 61.242,103.536 C61.7860027,103.830668 62.4546627,104.147998 63.248,104.488 C65.0613424,105.281337 66.3646627,106.153995 67.158,107.106 C67.9513373,108.058005 68.348,109.23666 68.348,110.642 L68.348,110.642 Z" id="$"></path>
            </g>
        </g>
    </g>
</svg>