<?xml version="1.0" encoding="UTF-8" standalone="no"?>
<svg width="19px" height="17px" viewBox="0 0 19 17" version="1.1" xmlns="http://www.w3.org/2000/svg" xmlns:xlink="http://www.w3.org/1999/xlink">
    <!-- Generator: Sketch 3.6 (26304) - http://www.bohemiancoding.com/sketch -->
    <title>Shape</title>
    <desc>Created with Sketch.</desc>
    <defs></defs>
    <g id="Page-1" stroke="none" stroke-width="1" fill="none" fill-rule="evenodd">
        <g id="if-pricing-page-configurator" transform="translate(-574.000000, -745.000000)" fill="#546475">
            <path d="M574,747.929444 L574,753.662946 C574,755.272768 575.393083,756.59239 577.092464,756.59239 L581.436352,756.59239 L577.032299,760.604702 C576.811969,760.801524 576.720099,761.095219 576.791663,761.373976 C576.863227,761.652733 577.087215,761.873663 577.378354,761.952657 C577.669493,762.031652 577.982989,761.956557 578.199493,761.755962 L582.663711,757.686657 L582.663711,760.410925 C582.660554,760.621779 582.748109,760.830689 582.90437,760.980856 C583.060625,761.130973 583.283455,761.220227 583.506016,761.220227 C583.728583,761.220227 583.951407,761.130973 584.107663,760.980856 C584.263924,760.830689 584.351472,760.621779 584.348322,760.410925 L584.348322,757.686657 L588.81254,761.755962 C589.027025,761.966467 589.345845,762.049036 589.643554,761.971179 C589.941262,761.893323 590.170207,761.667503 590.240306,761.382574 C590.310404,761.097645 590.210435,760.799213 589.979734,760.604702 L585.575681,756.59239 L589.907536,756.59239 C591.606911,756.59239 593,755.272768 593,753.662946 L593,750.870286 L591.315389,750.870286 L591.315389,753.662946 C591.315389,754.416133 590.70261,754.996584 589.907536,754.996584 L577.092464,754.996584 C576.297384,754.996584 575.684611,754.416133 575.684611,753.662946 L575.684611,747.929444 C575.684611,747.176257 576.297384,746.595806 577.092464,746.595806 L589.907536,746.595806 C590.70261,746.595806 591.315389,747.176257 591.315389,747.929444 L591.315389,750.813293 L593,750.813293 L593,747.929444 C593,746.319621 591.606911,745 589.907536,745 L577.092464,745 C575.393083,745 574,746.319621 574,747.929444 Z" id="Shape"></path>
        </g>
    </g>
</svg>