<?xml version="1.0" encoding="UTF-8" standalone="no"?>
<svg width="12px" height="12px" viewBox="0 0 12 12" version="1.1" xmlns="http://www.w3.org/2000/svg" xmlns:xlink="http://www.w3.org/1999/xlink">
    <!-- Generator: Sketch 3.6 (26304) - http://www.bohemiancoding.com/sketch -->
    <title>ico-hint</title>
    <desc>Created with Sketch.</desc>
    <defs></defs>
    <g id="Page-1" stroke="none" stroke-width="1" fill="none" fill-rule="evenodd">
        <g id="if-pricing-page-configurator" transform="translate(-919.000000, -365.000000)" fill="#86919A">
            <g id="ico-hint-copy-2" transform="translate(919.000000, 365.000000)">
                <path d="M0,6 C0,9.3137085 2.69303423,12 6,12 L6,12 C9.3137085,12 12,9.30696577 12,6 L12,6 C12,2.6862915 9.30696577,0 6,0 L6,0 C2.6862915,0 0,2.69303423 0,6 L0,6 Z M5,11 L5,6 L4,6 L4,4 L7,4 L7,11 L5,11 Z M7,3 L5,3 L5,1 L7,1 L7,3 L7,3 Z" id="ico-hint"></path>
            </g>
        </g>
    </g>
</svg>
