<?xml version="1.0" encoding="UTF-8" standalone="no"?>
<svg width="14px" height="25px" viewBox="0 0 14 25" version="1.1" xmlns="http://www.w3.org/2000/svg" xmlns:xlink="http://www.w3.org/1999/xlink">
    <!-- Generator: Sketch 3.6.1 (26313) - http://www.bohemiancoding.com/sketch -->
    <title>Combined Shape</title>
    <desc>Created with Sketch.</desc>
    <defs></defs>
    <g id="Page-1" stroke="none" stroke-width="1" fill="none" fill-rule="evenodd">
        <g id="if-affiliate-page" transform="translate(-505.000000, -1787.000000)" fill="#979797">
            <g id="overlay" transform="translate(220.000000, 1241.000000)">
                <g id="name-input-copy-4" transform="translate(274.000000, 539.000000)">
                    <path d="M22.070839,18.088279 C21.8476412,18.3118995 21.6014214,18.5196779 21.3471423,18.6994818 C21.182153,18.8063564 21.1099513,18.8548698 21.0153926,18.924473 C20.0673448,19.6441572 19.5256511,20.7339071 19.5256511,21.9142776 L19.5256511,22.3187038 C19.5256511,22.4180844 19.5405145,22.4852078 19.5710778,22.5823966 C19.5792157,22.6729288 19.6400551,22.8225447 19.7545466,22.9524694 L20.2494386,23.5170003 L20.62542,23.1873975 L20.1384519,23.3008086 C20.1390976,23.3035813 20.1408497,23.3175148 20.1408497,23.3245334 L20.1408497,23.6556542 C20.1408497,23.6654525 20.1394591,23.6771553 20.1403296,23.6736089 L20.6259177,23.7927901 L20.2493822,23.4638205 L19.7531419,24.0318125 C19.6366179,24.164901 19.5747849,24.3208036 19.5520133,24.4901134 C19.5472219,24.5135196 19.5472219,24.5135196 19.5467905,24.5508641 C19.5467498,24.5524751 19.5467498,24.5524751 19.5467349,24.5531193 C19.546468,24.5403653 19.546468,24.5403653 19.5557322,24.4733436 C19.5462393,24.5420411 19.5462393,24.5420411 19.5430781,24.5849346 C19.5410426,24.6375515 19.5410426,24.6375515 19.5459065,24.706672 C19.5541151,24.9412733 19.678142,25.1919768 19.9034859,25.3527529 L20.6612788,25.8941328 L20.9519332,25.4872912 L20.4603718,25.5787651 C20.4612338,25.5833973 20.4618878,25.5898367 20.4618878,25.5920132 L20.4618878,25.9231341 C20.4618878,25.9259954 20.4611942,25.9328729 20.4600997,25.9388543 L20.9519332,26.0288534 L20.6612788,25.6220118 L19.9032306,26.163574 C19.6476113,26.3453603 19.5207119,26.6452299 19.5469062,26.9494202 L20.0450627,26.9065232 L19.5517083,26.8252736 C19.5123643,27.0641737 19.569776,27.3103366 19.7231351,27.5060973 L20.177709,28.0838819 L20.5706693,27.7747181 L20.0865385,27.8996877 C20.0858626,27.8970693 20.0875922,27.9100169 20.0875922,27.9168408 L20.0875922,28.2479617 C20.0875922,28.253844 20.0858599,28.2667463 20.0865385,28.2641174 L20.5706693,28.389087 L20.1773204,28.0804178 L19.7233874,28.658882 C19.6743479,28.7202688 19.6514461,28.7659993 19.6211564,28.8401517 C19.6189734,28.8454974 19.6189734,28.8454974 19.6178132,28.8483052 C19.6172242,28.8497084 19.6172242,28.8497084 19.6173908,28.8493204 L19.6392532,28.8053851 C19.6370898,28.8091803 19.6370898,28.8091803 19.6299665,28.8217936 C19.6083596,28.8608718 19.6083596,28.8608718 19.5784663,28.9358178 C19.569761,28.9633327 19.569761,28.9633327 19.5715499,28.9580209 C19.5686411,28.9670728 19.5686411,28.9670728 19.5592163,29.0073059 C19.5435971,29.0408354 19.5256511,29.1232868 19.5256511,29.2258653 C19.5256511,29.6352384 19.3703108,30.0151869 19.0918793,30.2933997 L19.0038746,30.377284 C18.7376756,30.6149061 18.3769394,30.751986 17.9978846,30.751986 C17.1581295,30.751986 16.4745978,30.0672763 16.4745978,29.2258653 L16.4745978,21.9142776 C16.4745978,20.7368406 15.9336761,19.6469356 14.9961692,18.9337023 C14.8918621,18.8504776 14.7571995,18.7635873 14.6418279,18.7027899 C14.4098556,18.5322916 14.1660405,18.3268118 13.9287529,18.0886185 C11.68532,15.8400195 11.68532,12.1810843 13.9284144,9.93374254 C16.1741701,7.6855697 19.8275471,7.6852855 22.070767,9.93367033 C24.3144192,12.1811121 24.3144192,15.8399917 22.070803,18.0883151 L22.070839,18.088279 Z M22.7786504,18.7946805 C25.4118274,16.155979 25.4118274,11.8649655 22.7785783,9.22726879 C20.1448045,6.58743073 15.8573417,6.58776426 13.2207832,9.22716055 C10.5879358,11.8649934 10.5879358,16.1559512 13.220567,18.7946444 C13.4979719,19.0731083 13.784902,19.3149241 14.1188638,19.5525345 C14.2372439,19.619939 14.3194211,19.6729634 14.381949,19.7227592 C15.0797555,20.2537883 15.4745978,21.0493574 15.4745978,21.9142776 L15.4745978,29.2258653 C15.4745978,30.6191759 16.605459,31.751986 17.9978846,31.751986 C18.6222703,31.751986 19.220426,31.5246866 19.6824798,31.1116021 L19.7906504,31.0086564 C20.2660782,30.5337813 20.5256511,29.8988893 20.5256511,29.2258653 C20.5256511,29.2535854 20.5228983,29.2662327 20.5233567,29.2648726 C20.5313144,29.2395586 20.5313144,29.2395586 20.5295256,29.2448704 C20.5324343,29.2358185 20.5324343,29.2358185 20.5418591,29.1955854 C20.5079797,29.3009619 20.5079797,29.3009619 20.5031852,29.3091221 C20.5047998,29.3062765 20.5047998,29.3062765 20.5114101,29.2946111 L20.5115957,29.2942803 C20.5377294,29.240476 20.5377294,29.240476 20.5411127,29.2323859 C20.5445505,29.2240636 20.5445505,29.2240636 20.5469018,29.218299 C20.5422719,29.2296336 20.5338013,29.2465477 20.5074587,29.2795383 L20.9640182,28.6977561 L21.0548,28.5140566 C21.0746307,28.4372329 21.0875922,28.3406949 21.0875922,28.2479617 L21.0875922,27.9168408 C21.0875922,27.823412 21.0746828,27.7267741 21.0548,27.6497485 L20.9636296,27.4655544 L20.5096966,26.8885862 C20.5346507,26.9204381 20.5433578,26.9577716 20.538417,26.9877728 L20.5432191,26.8636262 C20.5463992,26.9005565 20.526598,26.9473478 20.4836616,26.9778827 L21.2425875,26.435695 L21.4073245,26.3180041 L21.4437666,26.1188525 C21.4551987,26.0563777 21.4618878,25.990053 21.4618878,25.9231341 L21.4618878,25.5920132 C21.4618878,25.5250973 21.4550821,25.4580869 21.4434945,25.3958174 L21.4066148,25.1976335 L21.2425875,25.0804497 L20.4845393,24.5388875 C20.522178,24.5657415 20.5415332,24.6048655 20.5426772,24.6336468 C20.5421145,24.6279436 20.5421145,24.6279436 20.5415722,24.6397937 C20.5413974,24.6419205 20.5413974,24.6419205 20.5432234,24.6243904 C20.5465823,24.5955311 20.5465823,24.5955311 20.5464628,24.5764454 C20.5464664,24.5762997 20.5464664,24.5762997 20.5464457,24.5771211 C20.5462631,24.6073595 20.5462631,24.6073595 20.5265392,24.7001866 C20.5414883,24.6353143 20.5312304,24.6611782 20.5058659,24.6901484 L21.0024532,24.1217598 L21.0825044,24.030134 L21.1115058,23.9119714 C21.1299501,23.8368228 21.1408497,23.7450925 21.1408497,23.6556542 L21.1408497,23.3245334 C21.1408497,23.237271 21.129623,23.1479903 21.112388,23.0739863 L21.0839755,22.9519879 L21.0014013,22.8577946 L20.5056587,22.292296 C20.5302329,22.3201803 20.5405776,22.3456198 20.5422146,22.3562412 C20.5232956,22.2769227 20.5256511,22.28756 20.5256511,22.3187038 L20.5256511,21.9142776 C20.5256511,21.0468224 20.920901,20.2516801 21.6141329,19.7253819 C21.682246,19.6753131 21.7433419,19.6342619 21.9084555,19.5268582 C22.2253088,19.3032674 22.515161,19.0586689 22.7786143,18.7947166 L22.7786504,18.7946805 Z M19.079229,13.8333087 C18.79331,14.120145 18.4078234,14.2805506 17.9908799,14.2847318 C17.5921985,14.2843316 17.2114484,14.1249196 16.9219722,13.8337653 C16.3272135,13.2375036 16.3272135,12.2675711 16.921063,11.6733478 C17.2088442,11.3842703 17.5898704,11.2264812 17.9998756,11.2264812 C18.4100513,11.2264812 18.7918047,11.3845479 19.0792302,11.6728936 C19.6739937,12.267657 19.6739937,13.2374176 19.0794605,13.8330766 L19.079229,13.8333087 Z M19.7872358,14.5395142 C20.7715134,13.5533728 20.7715134,11.9509626 19.7869013,10.966352 C19.3121752,10.4901052 18.675486,10.2264812 17.9998756,10.2264812 C17.3243078,10.2264812 16.6881201,10.4899367 16.2130506,10.9671485 C15.2297681,11.9510485 15.2297681,13.5532869 16.2133994,14.5394026 C16.689295,15.0180579 17.3246884,15.2840836 17.9954294,15.2847064 C18.6786448,15.2778851 19.3152986,15.0129657 19.7874673,14.5392821 L19.7872358,14.5395142 Z" id="Combined-Shape"></path>
                </g>
            </g>
        </g>
    </g>
</svg>