<svg xmlns="http://www.w3.org/2000/svg" width="19.168" height="51.943" viewBox="0 0 19.168 51.943">
  <title>man</title>
  <path d="M19.168,33.906a4.13,4.13,0,0,1-4.133,4.151H13.757V51.943H11.728V36.094h3.306a2.186,2.186,0,0,0,2.179-2.189V20.717a2.186,2.186,0,0,0-2.179-2.189H4.208a2.186,2.186,0,0,0-2.179,2.189V33.906a2.186,2.186,0,0,0,2.179,2.189H7.289V51.943H5.26V38.132H4.133A4.13,4.13,0,0,1,0,33.981V20.717a4.13,4.13,0,0,1,4.133-4.151H14.96a4.13,4.13,0,0,1,4.133,4.151V33.906h0.075ZM2.6,6.943a6.913,6.913,0,1,1,6.913,6.943A6.91,6.91,0,0,1,2.6,6.943Zm2.029,0A4.884,4.884,0,1,0,9.514,2.038,4.885,4.885,0,0,0,4.63,6.943Z" fill="#fff"/>
</svg>
