<svg xmlns="http://www.w3.org/2000/svg" width="52" height="60" viewBox="0 0 52 60">
  <title>people-3</title>
  <path d="M37.121,41.962a4.13,4.13,0,0,1-4.133,4.151H31.711V60H29.682V44.151h3.306a2.186,2.186,0,0,0,2.179-2.189V23.774a2.186,2.186,0,0,0-2.179-2.189H19.162a2.186,2.186,0,0,0-2.179,2.189V41.962a2.186,2.186,0,0,0,2.179,2.189h3.081V60H20.214V46.189H19.087a4.13,4.13,0,0,1-4.133-4.151V23.774a4.13,4.13,0,0,1,4.133-4.151H32.913a4.13,4.13,0,0,1,4.133,4.151V41.962h0.075ZM18.035,8A7.965,7.965,0,1,1,26,16a7.987,7.987,0,0,1-7.965-8h0Zm2.029,0a6.012,6.012,0,1,0,6.012-6.038A6.042,6.042,0,0,0,20.064,8h0ZM12.4,60h2.029V48.453h0.9V46.415H12.4V60h0ZM1.954,44.755v-15.4A1.671,1.671,0,0,1,3.607,27.7H12.7V25.66H3.682A3.7,3.7,0,0,0,0,29.358v15.4a3.7,3.7,0,0,0,3.682,3.7H4.434V60H6.462V46.415H3.682a1.688,1.688,0,0,1-1.728-1.66h0ZM2.555,16a6.913,6.913,0,1,1,6.913,6.943A6.91,6.91,0,0,1,2.555,16h0Zm2.029,0a4.884,4.884,0,1,0,4.884-4.906A4.885,4.885,0,0,0,4.584,16h0ZM36.671,48.453h0.9V60H39.6V46.415H36.671v2.038h0ZM48.318,25.66H39.3V27.7h9.092a1.671,1.671,0,0,1,1.653,1.66v15.4a1.671,1.671,0,0,1-1.653,1.66H45.538V60h2.029V48.453h0.751A3.7,3.7,0,0,0,52,44.755v-15.4a3.7,3.7,0,0,0-3.682-3.7h0ZM35.618,16a6.913,6.913,0,1,1,6.913,6.943A6.91,6.91,0,0,1,35.618,16h0Zm1.954,0a4.884,4.884,0,1,0,4.884-4.906A4.885,4.885,0,0,0,37.572,16h0Z" fill="#fff"/>
</svg>
