<svg xmlns="http://www.w3.org/2000/svg" width="77.699" height="60" viewBox="0 0 77.699 60">
  <title>people-5</title>
  <path d="M50.121,41.962a4.13,4.13,0,0,1-4.133,4.151H44.711V60H42.682V44.151h3.306a2.186,2.186,0,0,0,2.179-2.189V23.774a2.186,2.186,0,0,0-2.179-2.189H32.162a2.186,2.186,0,0,0-2.179,2.189V41.962a2.186,2.186,0,0,0,2.179,2.189h3.081V60H33.214V46.189H32.087a4.13,4.13,0,0,1-4.133-4.151V23.774a4.13,4.13,0,0,1,4.133-4.151H45.913a4.13,4.13,0,0,1,4.133,4.151V41.962h0.075ZM31.035,8A7.965,7.965,0,1,1,39,16a7.987,7.987,0,0,1-7.965-8h0Zm2.029,0a6.012,6.012,0,1,0,6.012-6.038A6.042,6.042,0,0,0,33.064,8h0ZM25.4,60h2.029V48.453h0.9V46.415H25.4V60h0ZM14.954,44.755v-15.4a1.671,1.671,0,0,1,1.653-1.66H25.7V25.66H16.682A3.7,3.7,0,0,0,13,29.358v15.4a3.7,3.7,0,0,0,3.682,3.7h0.751V60h2.029V46.415h-2.78a1.688,1.688,0,0,1-1.728-1.66h0ZM12.428,60V51.453h0.9V49.415H10.4V60h2.029ZM1.954,32.358A1.671,1.671,0,0,1,3.607,30.7H10.7V28.66H3.682A3.7,3.7,0,0,0,0,32.358v15.4a3.7,3.7,0,0,0,3.682,3.7H4.434V60H6.462V49.415H3.682a1.688,1.688,0,0,1-1.728-1.66v-15.4ZM15.555,16a6.913,6.913,0,1,1,6.913,6.943A6.91,6.91,0,0,1,15.555,16h0Zm2.029,0a4.884,4.884,0,1,0,4.884-4.906A4.885,4.885,0,0,0,17.584,16h0ZM3,21a5,5,0,1,1,5,5,4.987,4.987,0,0,1-5-5H3Zm2,0a3,3,0,1,0,3-3,2.994,2.994,0,0,0-3,3H5ZM65.3,60V51.453H64.4V49.415h2.931V60H65.3ZM75.746,32.358a1.672,1.672,0,0,0-1.653-1.66H67V28.66h7.017a3.7,3.7,0,0,1,3.682,3.7v15.4a3.7,3.7,0,0,1-3.682,3.7H73.266V60H71.237V49.415h2.78a1.688,1.688,0,0,0,1.728-1.66v-15.4ZM75,21a5,5,0,1,0-5,5,4.987,4.987,0,0,0,5-5h0Zm-2,0a3,3,0,1,1-3-3,2.994,2.994,0,0,1,3,3h0ZM49.671,48.453h0.9V60H52.6V46.415H49.671v2.038h0ZM61.318,25.66H52.3V27.7h9.092a1.672,1.672,0,0,1,1.653,1.66v15.4a1.672,1.672,0,0,1-1.653,1.66H58.538V60h2.029V48.453h0.751A3.7,3.7,0,0,0,65,44.755v-15.4a3.7,3.7,0,0,0-3.682-3.7h0ZM48.618,16a6.913,6.913,0,1,1,6.913,6.943A6.91,6.91,0,0,1,48.618,16h0Zm1.954,0a4.884,4.884,0,1,0,4.884-4.906A4.885,4.885,0,0,0,50.572,16h0Z" fill="#fff"/>
</svg>
