<?xml version="1.0" encoding="UTF-8" standalone="no"?>
<svg width="20px" height="20px" viewBox="0 0 20 20" version="1.1" xmlns="http://www.w3.org/2000/svg" xmlns:xlink="http://www.w3.org/1999/xlink">
    <!-- Generator: Sketch 3.6.1 (26313) - http://www.bohemiancoding.com/sketch -->
    <title>Imported Layers</title>
    <desc>Created with Sketch.</desc>
    <defs></defs>
    <g id="Page-1" stroke="none" stroke-width="1" fill="none" fill-rule="evenodd">
        <g id="if-pricing-page-configurator" transform="translate(-540.000000, -2240.000000)" fill="#9C9C9C">
            <g id="overlay" transform="translate(176.000000, 1930.000000)">
                <g id="name-input" transform="translate(356.000000, 299.000000)">
                    <path d="M26.5070968,26.5870968 L25.6126696,27.0343104 C25.9319356,27.6728425 26.1413512,28.3710543 26.258858,29.0758302 C26.3306237,29.506262 26.3548387,29.844174 26.3548387,30.0322581 C26.3548387,29.6579242 26.6575061,29.3548387 27.0322581,29.3548387 L8.32193548,29.3548387 C8.6974309,29.3548387 9,29.658665 9,30.0322581 C9,29.8429952 9.02404569,29.5059904 9.0956982,29.0755893 C9.21301639,28.3708845 9.42229907,27.6727602 9.74152397,27.0343104 C9.9408829,26.6351452 10.5618457,26.2053938 11.7633213,25.6893035 C12.3600751,25.4329696 12.9026244,25.226969 14.2831004,24.7216435 C14.6841959,24.5754116 15.0673113,24.434247 15.4457592,24.2930168 L16.096129,24.0503102 L16.096129,23.356129 L16.096129,21.1432258 L16.096129,20.7221203 L15.7948883,20.4278689 C15.432376,20.0737676 15.1423147,19.5245926 15.1046005,18.757355 L15.0817933,18.2933793 L14.7125265,18.011536 C14.7371056,18.030296 14.701538,17.965123 14.6670117,17.8182537 C14.5930941,17.5060344 14.6441305,17.238037 14.7158434,17.1756263 L15.1987467,16.7553621 L15.019234,16.1408762 C14.9988203,16.0720818 14.9988203,16.0720818 14.9795701,16.0086283 C14.9776154,16.0021613 14.9776154,16.0021613 14.9756911,15.9957845 C14.9686188,15.972292 14.9686188,15.972292 14.9621226,15.9504384 C14.8918247,15.718219 14.859256,15.6083568 14.8196723,15.4666908 C14.7026461,15.0478663 14.6254039,14.689546 14.5892911,14.3629264 C14.5340672,13.8634585 14.587141,13.5184272 14.7119997,13.3502164 C14.783202,13.2542321 14.8907324,13.1985105 15.1025809,13.1790205 L15.6550415,13.1281941 L15.9043305,12.632562 C16.0647872,12.3135447 17.0601094,12 18.236129,12 C19.7883691,12 20.9735525,12.5029113 21.0800645,13.035471 C21.1238018,13.254409 21.1220083,13.5328907 21.0732358,13.859931 C21.015334,14.2481864 20.8969734,14.6769521 20.7247209,15.159574 C20.6526409,15.3615295 20.5926003,15.5172842 20.4723986,15.8203031 C20.4589968,15.8545126 20.4589968,15.8545126 20.4470186,15.8849372 C20.4452935,15.8893147 20.4452935,15.8893147 20.4435619,15.8937071 C20.4083228,15.9829089 20.4083228,15.9829089 20.3735285,16.0721825 L20.1252157,16.7155383 L20.6383132,17.1762951 C20.710471,17.2410921 20.7601359,17.5088147 20.6873299,17.8176249 C20.6526556,17.965123 20.617088,18.030296 20.6416671,18.011536 L20.2724197,18.2933644 L20.249595,18.7573147 C20.2102663,19.5567387 19.898971,20.1811513 19.520083,20.5955016 L19.2580645,20.882044 L19.2580645,21.2703226 L19.2580645,23.356129 L19.2580645,24.0499176 L19.9079379,24.2928314 C20.2604077,24.4245798 20.6069943,24.5522085 21.0698489,24.721251 C22.4537756,25.2281806 22.9949832,25.4337897 23.5921875,25.6904962 C24.7922748,26.2063501 25.4130574,26.6359801 25.6130709,27.035112 L26.5070968,26.5870968 C25.9303226,25.436129 24.0354839,24.7425806 21.4129032,23.7819355 C21.0419355,23.6464516 20.6567742,23.5051613 20.2580645,23.356129 L20.2580645,21.2703226 C20.52,20.983871 21.1832258,20.1309677 21.2483871,18.8064516 C21.4309677,18.6670968 21.5767742,18.403871 21.6606452,18.0470968 C21.7941935,17.4806452 21.723871,16.8070968 21.3064516,16.4322581 C21.3348387,16.3587097 21.3696774,16.2716129 21.4019355,16.1890323 C21.7103226,15.4116129 22.2851613,13.9632258 22.0606452,12.8393548 C21.8064516,11.5683871 19.9567742,11 18.236129,11 C16.9780645,11 15.4477419,11.3148387 15.0109677,12.1832258 C14.5270968,12.2277419 14.1574194,12.4193548 13.9090323,12.7541935 C13.2270968,13.6729032 13.7322581,15.3393548 14.0032258,16.2341935 C14.0219355,16.2974194 14.0425806,16.363871 14.0593548,16.4212903 C13.6316129,16.7935484 13.5580645,17.4748387 13.6935484,18.0470968 C13.7774194,18.403871 13.9232258,18.6670968 14.1058065,18.8064516 C14.1696774,20.1058065 14.8180645,20.8716129 15.096129,21.1432258 L15.096129,23.356129 C14.6967742,23.5051613 14.3109677,23.6470968 13.9393548,23.7825806 C11.3167742,24.7425806 9.42193548,25.436129 8.84709677,26.5870968 C8.00903226,28.2632258 8,29.9606452 8,30.0322581 C8,30.2096774 8.14387097,30.3548387 8.32193548,30.3548387 L27.0322581,30.3548387 C27.2103226,30.3548387 27.3548387,30.2096774 27.3548387,30.0322581 C27.3548387,29.9606452 27.3451613,28.2632258 26.5070968,26.5870968 L26.5070968,26.5870968 Z" id="Imported-Layers"></path>
                </g>
            </g>
        </g>
    </g>
</svg>