<?xml version="1.0" encoding="UTF-8" standalone="no"?>
<svg width="21px" height="23px" viewBox="0 0 21 23" version="1.1" xmlns="http://www.w3.org/2000/svg" xmlns:xlink="http://www.w3.org/1999/xlink">
    <!-- Generator: Sketch 3.6.1 (26313) - http://www.bohemiancoding.com/sketch -->
    <title>Combined Shape</title>
    <desc>Created with Sketch.</desc>
    <defs></defs>
    <g id="Page-1" stroke="none" stroke-width="1" fill="none" fill-rule="evenodd">
        <g id="if-affiliate-page" transform="translate(-501.000000, -1727.000000)" fill="#9B9B9B">
            <g id="overlay" transform="translate(220.000000, 1241.000000)">
                <g id="name-input-copy-3" transform="translate(274.000000, 479.000000)">
                    <path d="M26.9541097,23.3630892 C26.5489184,22.5545193 25.6878937,21.9586232 24.1845512,21.3124159 C23.552471,21.0407181 22.9975962,20.8299168 21.5848778,20.3124414 C21.1248131,20.1444175 20.7814339,20.0179699 20.4331278,19.8877778 L20.2580645,20.356129 L20.7580645,20.356129 L20.7580645,18.2703226 L20.2580645,18.2703226 L20.6270553,18.607733 C21.2230274,17.9559802 21.68925,17.0208065 21.7477831,15.83102 L21.2483871,15.8064516 L21.5517471,16.2039094 C21.8406755,15.9833846 22.0400555,15.6180465 22.1473768,15.1615183 C22.334151,14.3693074 22.1814118,13.5459546 21.6405208,13.0602395 L21.3064516,13.4322581 L21.7729132,13.6122959 C21.8036069,13.5335456 21.8036069,13.5335456 21.8390156,13.443897 C21.8408012,13.4393677 21.8408012,13.4393677 21.8425895,13.4348298 C21.8551387,13.4029554 21.8551387,13.4029554 21.8676642,13.3709575 C21.9930316,13.0549349 22.0578139,12.8868795 22.137438,12.6637866 C22.3397225,12.0970202 22.4824297,11.5800581 22.5568284,11.0811839 C22.629305,10.5951981 22.632185,10.1480111 22.5509571,9.74140503 C22.2583862,8.27855011 20.4236198,7.5 18.236129,7.5 C16.5388725,7.5 15.0642532,7.96453209 14.5642864,8.95855769 L15.0109677,9.18322581 L14.9651612,8.68532847 C14.3453641,8.7423498 13.8445717,9.00185728 13.5074594,9.45630228 C13.1132204,9.98742459 13.005497,10.6877305 13.0983764,11.5277701 C13.1448123,11.9477551 13.2379739,12.3799247 13.3750073,12.870353 C13.418368,13.0255364 13.4531852,13.1429831 13.5246846,13.3791015 C13.5317079,13.4027482 13.5317079,13.4027482 13.5395938,13.4289409 C13.5416846,13.4358696 13.5416846,13.4358696 13.5437633,13.4427468 C13.5631705,13.5067548 13.5631705,13.5067548 13.5794153,13.5614974 L14.0593548,13.4212903 L13.7311106,13.0441223 C13.1758721,13.5273389 13.0171922,14.3605832 13.2069985,15.162289 C13.314138,15.6180465 13.5135181,15.9833846 13.8024464,16.2039094 L14.1058065,15.8064516 L13.6064094,15.8309999 C13.664587,17.0145305 14.133016,17.9014107 14.7467494,18.5009042 L15.096129,18.1432258 L14.596129,18.1432258 L14.596129,20.356129 L15.096129,20.356129 L14.9213139,19.8876851 C14.5465965,20.0275232 14.1669995,20.1673914 13.7680905,20.312827 C12.3591783,20.8285611 11.8028917,21.0397777 11.1713065,21.3110733 C9.6657649,21.9577743 8.8041304,22.554088 8.39978293,23.3636906 C7.72589566,24.711465 7.5,26.068371 7.5,27.0322581 C7.5,27.485703 7.86760824,27.8548387 8.32193548,27.8548387 L27.0322581,27.8548387 C27.4863971,27.8548387 27.8548387,27.4858882 27.8548387,27.0322581 C27.8548387,26.0702626 27.6282819,24.711433 26.9543104,23.36349 L26.0598832,23.8107036 C26.403402,24.4977412 26.6268708,25.2428079 26.75205,25.9936006 C26.8286869,26.4532487 26.8548387,26.8181886 26.8548387,27.0322581 C26.8548387,26.9339122 26.9338031,26.8548387 27.0322581,26.8548387 L8.32193548,26.8548387 C8.42082335,26.8548387 8.5,26.9343444 8.5,27.0322581 C8.5,26.974583 8.50337632,26.8732459 8.51323814,26.7350307 C8.5293103,26.5097764 8.55805137,26.2603905 8.6024862,25.9934802 C8.7274718,25.2427188 8.95081287,24.4976986 9.29431037,23.8107036 C9.5619654,23.2747928 10.2631521,22.7895206 11.565983,22.2298934 C12.1743473,21.9685723 12.7214757,21.7608331 14.1112276,21.2521121 C14.5117971,21.1060715 14.8937397,20.965339 15.2709441,20.8245729 L15.596129,20.7032196 L15.596129,20.356129 L15.596129,18.1432258 L15.596129,17.9326731 L15.4455087,17.7855474 C14.999256,17.3496486 14.6497388,16.6879052 14.6052035,15.7819033 L14.5937999,15.5499154 L14.4091665,15.4089938 C14.3292431,15.3479922 14.2390713,15.1827642 14.18028,14.9326752 C14.0677935,14.4575507 14.1547111,14.0011377 14.3875991,13.7984583 L14.6290508,13.5883262 L14.5392944,13.2810833 C14.5202704,13.2169728 14.5202704,13.2169728 14.5009679,13.1533345 C14.4989718,13.1467307 14.4989718,13.1467307 14.496992,13.14017 C14.4896485,13.1157774 14.4896485,13.1157774 14.4826742,13.092316 C14.4122782,12.8598071 14.37896,12.7474167 14.3381173,12.6012448 C14.214422,12.1585524 14.1318734,11.7756157 14.0923195,11.4178743 C14.0245438,10.8048825 14.0958341,10.3414263 14.310516,10.052205 C14.4703253,9.83677383 14.7089429,9.71312363 15.0567743,9.68112314 L15.3330046,9.65570995 L15.4576491,9.40789392 C15.7312758,8.86387386 16.8863638,8.5 18.236129,8.5 C20.0001193,8.5 21.4018304,9.09479089 21.5703548,9.93741291 C21.6265962,10.2189431 21.6244406,10.5536599 21.5677667,10.933682 C21.5043659,11.3588103 21.3778897,11.8169748 21.1956266,12.3276448 C21.1210319,12.5366462 21.0594107,12.6965011 20.937167,13.0046677 C20.9243774,13.0373269 20.9243774,13.0373269 20.9122089,13.0682347 C20.9104628,13.0726657 20.9104628,13.0726657 20.9087131,13.0771037 C20.8734175,13.1664544 20.8734175,13.1664544 20.83999,13.2522203 L20.7158337,13.5738982 L20.9723824,13.8042766 C21.2007846,14.0093796 21.2848076,14.4623122 21.1739875,14.9323609 C21.1151222,15.1827642 21.0249505,15.3479922 20.9450271,15.4089938 L20.7604034,15.549908 L20.7489911,15.7818832 C20.7032609,16.7114279 20.3403231,17.4394276 19.8890738,17.9329121 L19.7580645,18.0761833 L19.7580645,18.2703226 L19.7580645,20.356129 L19.7580645,20.7030233 L20.0830012,20.8244802 C20.4340831,20.9557099 20.7796006,21.0829448 21.241376,21.2515933 C22.6350491,21.7620927 23.1808124,21.9694325 23.7896421,22.2311361 C25.0908144,22.7904411 25.7916777,23.2754932 26.0600838,23.8111044 L26.9541097,23.3630892 Z M8.5,30 L26.6107712,30 L27.1107712,30 L27.1107712,29 L26.6107712,29 L8.5,29 L8,29 L8,30 L8.5,30 Z" id="Combined-Shape"></path>
                </g>
            </g>
        </g>
    </g>
</svg>