<?xml version="1.0" encoding="UTF-8" standalone="no"?>
<svg width="23px" height="19px" viewBox="0 0 23 19" version="1.1" xmlns="http://www.w3.org/2000/svg" xmlns:xlink="http://www.w3.org/1999/xlink">
    <!-- Generator: Sketch 3.6.1 (26313) - http://www.bohemiancoding.com/sketch -->
    <title>Shape</title>
    <desc>Created with Sketch.</desc>
    <defs></defs>
    <g id="Page-1" stroke="none" stroke-width="1" fill="none" fill-rule="evenodd">
        <g id="if-pricing-page-configurator" transform="translate(-539.000000, -2359.000000)" fill="#9B9B9B">
            <g id="overlay" transform="translate(176.000000, 1930.000000)">
                <g id="name-input-copy-3" transform="translate(356.000000, 419.000000)">
                    <path d="M29.5257732,20.6363636 C29.264,20.6363636 29.0515464,20.8481455 29.0515464,21.1090909 L29.0515464,26.0732 C29.0515464,27.1155636 28.2007835,27.9636364 27.1551134,27.9636364 L10.5562268,27.9636364 C9.5105567,27.9636364 8.65979381,27.1155636 8.65979381,26.0732 L8.65979381,21.1090909 C8.65979381,20.8481455 8.44734021,20.6363636 8.18556701,20.6363636 C7.92379381,20.6363636 7.71134021,20.8481455 7.71134021,21.1090909 L7.71134021,26.0732 C7.71134021,27.6369818 8.98748454,28.9090909 10.5562268,28.9090909 L27.1551134,28.9090909 C28.7238557,28.9090909 30,27.6369818 30,26.0732 L30,21.1090909 C30,20.8481455 29.7875464,20.6363636 29.5257732,20.6363636 Z M27.1551134,13.0727273 L23.5979381,13.0727273 L23.5979381,11.6547818 C23.5979381,10.7424182 22.8531649,10 21.9379072,10 L15.773433,10 C14.8581753,10 14.1134021,10.7424182 14.1134021,11.6547818 L14.1134021,13.0727273 L10.5562268,13.0727273 C8.98748454,13.0727273 7.71134021,14.3448364 7.71134021,15.9086182 L7.71134021,19.4545455 L7.77654639,19.4545455 C7.81045361,19.5131636 7.85621649,19.5658727 7.91573196,19.607 C8.02764948,19.6842909 10.6743093,21.4608 16.9587629,21.7713818 L16.9587629,22.7636364 C16.9587629,23.4152909 17.4906082,23.9454545 18.1443299,23.9454545 L19.5670103,23.9454545 C20.220732,23.9454545 20.7525773,23.4152909 20.7525773,22.7636364 L20.7525773,21.7713818 C27.037268,21.4608 29.6836907,19.6840545 29.7956082,19.6067636 C29.8551237,19.5656364 29.9008866,19.5129273 29.9347938,19.4543091 L30,19.4543091 L30,15.9086182 C30,14.3448364 28.7238557,13.0727273 27.1551134,13.0727273 Z M15.0618557,11.6547818 C15.0618557,11.2638364 15.3812474,10.9454545 15.773433,10.9454545 L21.9376701,10.9454545 C22.3300928,10.9454545 22.6494845,11.2638364 22.6494845,11.6547818 L22.6494845,13.0727273 L15.0618557,13.0727273 L15.0618557,11.6547818 Z M19.8041237,22.7636364 C19.8041237,22.8938727 19.6976598,23 19.5670103,23 L18.1443299,23 C18.0136804,23 17.9072165,22.8938727 17.9072165,22.7636364 L17.9072165,19.9272727 C17.9072165,19.7970364 18.0136804,19.6909091 18.1443299,19.6909091 L19.5670103,19.6909091 C19.6976598,19.6909091 19.8041237,19.7970364 19.8041237,19.9272727 L19.8041237,22.7636364 Z M19.5670103,18.7454545 L18.1443299,18.7454545 C17.4906082,18.7454545 16.9587629,19.2756182 16.9587629,19.9272727 L16.9587629,20.8249818 C11.9561443,20.5699455 9.36971134,19.3434545 8.65979381,18.9501455 L8.65979381,15.9086182 C8.65979381,14.8662545 9.5105567,14.0181818 10.5562268,14.0181818 L27.1551134,14.0181818 C28.2007835,14.0181818 29.0515464,14.8662545 29.0515464,15.9086182 L29.0515464,18.9503818 C28.3416289,19.3439273 25.7549588,20.5701818 20.7525773,20.8252182 L20.7525773,19.9272727 C20.7525773,19.2756182 20.220732,18.7454545 19.5670103,18.7454545 Z" id="Shape"></path>
                </g>
            </g>
        </g>
    </g>
</svg>