<?xml version="1.0" encoding="UTF-8" standalone="no"?>
<svg width="23px" height="23px" viewBox="0 0 23 23" version="1.1" xmlns="http://www.w3.org/2000/svg" xmlns:xlink="http://www.w3.org/1999/xlink">
    <!-- Generator: Sketch 3.6.1 (26313) - http://www.bohemiancoding.com/sketch -->
    <title>world clock</title>
    <desc>Created with Sketch.</desc>
    <defs></defs>
    <g id="Page-1" stroke="none" stroke-width="1" fill="none" fill-rule="evenodd">
        <g id="if-affiliate-page" transform="translate(-500.000000, -1549.000000)" fill="#929292">
            <g id="overlay" transform="translate(220.000000, 1241.000000)">
                <g id="name-input-copy-6" transform="translate(274.000000, 299.000000)">
                    <path d="M29,20.5 C29,14.1487251 23.8512749,9 17.5,9 C11.1487251,9 6,14.1487251 6,20.5 C6,26.8512749 11.1487251,32 17.5,32 C23.8512749,32 29,26.8512749 29,20.5 Z M16.9116795,10.0560804 L16.9116795,14.4929302 C15.6888297,14.4635151 14.4885598,14.34262 13.3175347,14.136828 C14.2181348,11.8945696 15.5420014,10.3616238 16.9116795,10.0560804 Z M21.5172111,14.1652723 C20.3421478,14.363292 19.1380847,14.4759159 17.9116795,14.4965403 L17.9116795,10.0560803 C19.2871416,10.3629137 20.6164045,11.9075382 21.5172111,14.1652723 Z M25.0449618,13.2900368 C24.2075253,13.5671344 23.3496565,13.7993632 22.4742009,13.9838773 C21.8829993,12.49221 21.1097392,11.25515 20.2446298,10.3866123 C22.1042969,10.9064545 23.755591,11.9254457 25.0449618,13.2900368 Z M14.5787297,10.3866121 C13.7203755,11.2483677 12.9524417,12.4729128 12.3630409,13.9489801 C11.497304,13.7601971 10.649025,13.5246911 9.82097739,13.2452357 C11.1040366,11.9031404 12.7394708,10.9007494 14.5787297,10.3866121 Z M18.0883205,30.9439196 L18.0883205,26.5070698 C19.3111703,26.5364849 20.5114402,26.65738 21.6824653,26.863172 C20.7818652,29.1054304 19.4579986,30.6383762 18.0883205,30.9439196 Z M13.4827889,26.8347277 C14.6578522,26.636708 15.8619153,26.5240841 17.0883205,26.5034597 L17.0883205,30.9439197 C15.7128584,30.6370863 14.3835955,29.0924618 13.4827889,26.8347277 Z M9.95503824,27.7099632 C10.7924747,27.4328656 11.6503435,27.2006368 12.5257991,27.0161227 C13.1170007,28.50779 13.8902608,29.74485 14.7553702,30.6133877 C12.8957031,30.0935455 11.244409,29.0745543 9.95503824,27.7099632 Z M20.4212703,30.6133879 C21.2796245,29.7516323 22.0475583,28.5270872 22.6369591,27.0510199 C23.502696,27.2398029 24.350975,27.4753089 25.1790226,27.7547643 C23.8959634,29.0968596 22.2605292,30.0992506 20.4212703,30.6133879 Z M9.20613187,14.0601272 C10.1489197,14.3955725 11.1177793,14.6760328 12.108852,14.8976495 C11.6148373,16.4188257 11.3042719,18.1529928 11.2564653,20 L7.0116951,20 C7.11640355,17.7665275 7.91891429,15.7155385 9.20613187,14.0601272 Z M12.2565156,21 L17,21 L17,25.5067864 C15.6587181,25.5377559 14.3434657,25.6743777 13.062325,25.9086524 C12.5984564,24.4627739 12.3032139,22.7899915 12.2565156,21 Z M22.7434844,21 C22.6971083,22.7776408 22.405606,24.4396842 21.9472527,25.8786906 C20.6626566,25.6528212 19.3442694,25.5250296 18,25.5033211 L18,21 L22.7434844,21 Z M13.0623252,15.0913476 C14.3434658,15.3256223 15.6587181,15.4622441 17,15.4932136 L17,20 L12.2565156,20 C12.3032139,18.2100084 12.5984564,16.5372261 13.0623252,15.0913476 Z M22.7434844,20 L18,20 L18,15.4966789 C19.3442694,15.4749704 20.6626567,15.3471788 21.9472528,15.1213094 C22.4056061,16.5603159 22.6971083,18.2223593 22.7434844,20 Z M27.9883049,20 L23.7435347,20 C23.6961078,18.167663 23.3900796,16.4463807 22.9028847,14.9339363 C23.9027436,14.7174789 24.8803215,14.4412082 25.8316856,14.1090574 C27.0967949,15.7558766 27.8846257,17.7884814 27.9883049,20 Z M25.8316856,26.8909426 C24.8803215,26.5587918 23.9027435,26.2825211 22.9028846,26.0660637 C23.3900796,24.5536193 23.6961078,22.8323371 23.7435347,21 L27.9883049,21 C27.8846257,23.2115186 27.0967949,25.2441234 25.8316856,26.8909426 Z M7.0116951,21 L11.2564653,21 C11.3042719,22.8470071 11.6148372,24.5811742 12.1088519,26.1023505 C11.1177792,26.3239672 10.1489196,26.6044275 9.20613187,26.9398728 C7.91891429,25.2844615 7.11640354,23.2334725 7.0116951,21 Z" id="world-clock"></path>
                </g>
            </g>
        </g>
    </g>
</svg>