<?xml version="1.0" encoding="UTF-8" standalone="no"?>
<svg width="51px" height="31px" viewBox="0 0 51 31" version="1.1" xmlns="http://www.w3.org/2000/svg" xmlns:xlink="http://www.w3.org/1999/xlink">
    <!-- Generator: Sketch 3.6.1 (26313) - http://www.bohemiancoding.com/sketch -->
    <title>Paypal-light</title>
    <desc>Created with Sketch.</desc>
    <defs></defs>
    <g id="Page-1" stroke="none" stroke-width="1" fill="none" fill-rule="evenodd">
        <g id="if-affiliate-page" transform="translate(-598.000000, -1041.000000)">
            <g id="why-partner" transform="translate(239.000000, 466.000000)">
                <g id="globally" transform="translate(329.000000, 398.000000)">
                    <g id="Paypal-light" transform="translate(55.500000, 192.500000) scale(1, -1) translate(-55.500000, -192.500000) translate(30.000000, 177.000000)">
                        <rect id="Rectangle" fill="#FFFFFF" x="0.0946782178" y="0.0776746174" width="50.4950495" height="30.4918033" rx="2"></rect>
                        <path d="M31.0702413,17.1518305 C30.9345871,16.2553936 30.2543963,16.2553936 29.5962814,16.2553936 L29.2219526,16.2553936 L29.4846227,17.9291289 C29.5002997,18.0302357 29.5870032,18.1046167 29.6887439,18.1046167 L29.8605512,18.1046167 C30.3084661,18.1046167 30.7314257,18.1046167 30.9496242,17.8479859 C31.0801594,17.6943938 31.1195119,17.4664206 31.0702413,17.1518305 M30.7838957,19.4908096 L28.3024473,19.4908096 C28.1325596,19.4908096 27.9882671,19.3665191 27.9617121,19.1977932 L26.9583828,12.7939364 C26.9385466,12.667714 27.0358081,12.5534054 27.162504,12.5534054 L28.435862,12.5534054 C28.5545594,12.5534054 28.6556602,12.6403443 28.6742167,12.7581949 L28.9589626,14.5739304 C28.9851976,14.7426563 29.1298101,14.8669468 29.2993779,14.8669468 L30.0845086,14.8669468 C31.719078,14.8669468 32.6625786,15.662921 32.9089318,17.2410234 C33.0199507,17.9307389 32.913411,18.4729802 32.592512,18.8526135 C32.239619,19.2699203 31.6141379,19.4908096 30.7838957,19.4908096" id="Shape" fill="#0079C1"></path>
                        <path d="M13.3713012,17.1518305 C13.235647,16.2553936 12.5554563,16.2553936 11.8973414,16.2553936 L11.5230125,16.2553936 L11.7856826,17.9291289 C11.8013596,18.0302357 11.8880631,18.1046167 11.9898038,18.1046167 L12.1616111,18.1046167 C12.609526,18.1046167 13.0324856,18.1046167 13.2506841,17.8479859 C13.3812193,17.6943938 13.4205719,17.4664206 13.3713012,17.1518305 M13.0849556,19.4908096 L10.6035073,19.4908096 C10.4336196,19.4908096 10.289327,19.3665191 10.262772,19.1977932 L9.25944274,12.7939364 C9.23960651,12.667714 9.33654808,12.5534054 9.46356394,12.5534054 L10.6486187,12.5534054 C10.8181865,12.5534054 10.9624791,12.6776959 10.989034,12.8460998 L11.2600225,14.5739304 C11.2862575,14.7426563 11.43087,14.8669468 11.6004378,14.8669468 L12.3855686,14.8669468 C14.0201379,14.8669468 14.9636386,15.662921 15.2099918,17.2410234 C15.3210106,17.9307389 15.2144709,18.4729802 14.8935719,18.8526135 C14.540679,19.2699203 13.9151978,19.4908096 13.0849556,19.4908096" id="Shape" fill="#00457C"></path>
                        <path d="M18.8458767,14.8528434 C18.7310185,14.1695678 18.1922409,13.7107235 17.5046916,13.7107235 C17.1601171,13.7107235 16.8840096,13.8224561 16.7067633,14.0336855 C16.5311167,14.2429829 16.4648892,14.5414732 16.5205587,14.8734511 C16.6274183,15.5509307 17.1751542,16.0242649 17.8521456,16.0242649 C18.1896814,16.0242649 18.4635494,15.9115663 18.644315,15.6984049 C18.8263604,15.4836336 18.8980268,15.1835333 18.8458767,14.8528434 M20.501882,17.1805526 L19.3136278,17.1805526 C19.2118871,17.1805526 19.1251836,17.1061715 19.1091867,17.0047428 L19.0570366,16.6705109 L18.9741723,16.7915814 C18.7166213,17.1673507 18.1429703,17.2932512 17.5702791,17.2932512 C16.2575686,17.2932512 15.1361818,16.2918436 14.9179833,14.8876189 C14.8044048,14.1869556 14.9656542,13.5175259 15.3604592,13.0503097 C15.7229503,12.621089 16.2402919,12.4423812 16.8568147,12.4423812 C17.9151736,12.4423812 18.5019421,13.1263007 18.5019421,13.1263007 L18.4488322,12.7940008 C18.4289959,12.6677784 18.5259375,12.5534698 18.6532733,12.5534698 L19.72315,12.5534698 C19.8930377,12.5534698 20.0373302,12.6774383 20.0638852,12.8461642 L20.7063231,16.9400216 C20.7261593,17.066244 20.6288978,17.1805526 20.501882,17.1805526" id="Shape" fill="#00457C"></path>
                        <path d="M36.5448488,14.8528434 C36.4299906,14.1695678 35.891213,13.7107235 35.2036637,13.7107235 C34.8590892,13.7107235 34.5829816,13.8224561 34.4057353,14.0336855 C34.2297688,14.2429829 34.1638613,14.5414732 34.2195307,14.8734511 C34.3263904,15.5509307 34.8741263,16.0242649 35.5511176,16.0242649 C35.8886535,16.0242649 36.1625214,15.9115663 36.3432871,15.6984049 C36.5253325,15.4836336 36.5969988,15.1835333 36.5448488,14.8528434 M38.200854,17.1805526 L37.0125999,17.1805526 C36.9108592,17.1805526 36.8241557,17.1061715 36.8081587,17.0047428 L36.7560086,16.6705109 L36.6728244,16.7915814 C36.4155933,17.1673507 35.8419424,17.2932512 35.2692512,17.2932512 C33.9565407,17.2932512 32.8351538,16.2918436 32.6169553,14.8876189 C32.5033769,14.1869556 32.6646262,13.5175259 33.0594312,13.0503097 C33.4219223,12.621089 33.939264,12.4423812 34.5557868,12.4423812 C35.6141456,12.4423812 36.2009141,13.1263007 36.2009141,13.1263007 L36.1478042,12.7940008 C36.127968,12.6677784 36.2249096,12.5534698 36.3522454,12.5534698 L37.422122,12.5534698 C37.5920097,12.5534698 37.7363023,12.6774383 37.7628573,12.8461642 L38.4052951,16.9400216 C38.4251314,17.066244 38.3278699,17.1805526 38.200854,17.1805526" id="Shape" fill="#0079C1"></path>
                        <path d="M26.8305031,17.1805204 L25.6361701,17.1805204 C25.5219518,17.1805204 25.4150921,17.1235271 25.3511043,17.0282163 L23.7034175,14.5861985 L23.0053101,16.9329054 C22.9614785,17.0797356 22.827104,17.1805204 22.674813,17.1805204 L21.5009561,17.1805204 C21.359223,17.1805204 21.259402,17.0401301 21.3051533,16.9052138 L22.6201034,13.0200098 L21.3832184,11.2635216 C21.2862769,11.1257073 21.3841783,10.9350856 21.5521463,10.9350856 L22.7451996,10.9350856 C22.8581381,10.9350856 22.964038,10.990791 23.0286657,11.0841698 L27.0003908,16.8536944 C27.0954128,16.9918307 26.9975114,17.1805204 26.8305031,17.1805204" id="Shape" fill="#00457C"></path>
                        <path d="M39.6013558,19.3148388 L38.5829894,12.7937754 C38.5631531,12.667553 38.6600947,12.5532444 38.7871106,12.5532444 L39.8115559,12.5532444 C39.9811236,12.5532444 40.1257362,12.6775349 40.1519712,12.8462608 L41.1562603,19.2501176 C41.1760965,19.37634 41.0791549,19.4906486 40.9518191,19.4906486 L39.805797,19.4906486 C39.7037364,19.4906486 39.6170328,19.4162675 39.6013558,19.3148388" id="Shape" fill="#0079C1"></path>
                    </g>
                </g>
            </g>
        </g>
    </g>
</svg>