<?xml version="1.0" encoding="UTF-8" standalone="no"?>
<svg width="106px" height="105px" viewBox="0 0 106 105" version="1.1" xmlns="http://www.w3.org/2000/svg" xmlns:xlink="http://www.w3.org/1999/xlink">
    <!-- Generator: Sketch 3.6.1 (26313) - http://www.bohemiancoding.com/sketch -->
    <title>ico-integration</title>
    <desc>Created with Sketch.</desc>
    <defs></defs>
    <g id="Page-1" stroke="none" stroke-width="1" fill="none" fill-rule="evenodd">
        <g id="if-affiliate-page" transform="translate(-667.000000, -544.000000)">
            <g id="why-partner" transform="translate(239.000000, 466.000000)">
                <g id="integration" transform="translate(328.000000, 78.000000)">
                    <g id="ico-integration" transform="translate(100.000000, 0.000000)">
                        <path d="M53,105 C23.776,105 0,81.595 0,52.825 C0,24.056 23.776,0.65 53,0.65 C82.224,0.65 106,24.056 106,52.825 C106,81.595 82.224,105 53,105" id="Fill-1" fill="#01C6DA"></path>
                        <path d="M26.0664,45.3208 L54.2454,29.0518 L82.4234,45.3208 L82.4234,77.8588 L54.2454,94.1268 L26.0664,77.8588 L26.0664,45.3208 Z" id="Fill-3" fill="#F4DA80"></path>
                        <path d="M54.2451,29.0517 L82.4241,45.3207 L82.4241,77.8597 L54.2451,94.1267 L54.2451,29.0517 Z" id="Fill-5" fill="#F3BD33"></path>
                        <path d="M18.6914,31.8486 L46.8684,15.3466 L54.2644,29.0586 L26.0854,45.3256 L18.6914,31.8486 Z" id="Fill-7" fill="#F0CA67"></path>
                        <path d="M89.835,31.8437 L61.658,15.3427 L54.262,29.0547 L82.441,45.3227 L89.835,31.8437 Z" id="Fill-9" fill="#F0CA67"></path>
                        <path d="M26.0664,45.3208 L54.2454,29.0518 L82.4234,45.3208 L82.4234,45.3218 L54.2454,61.5908 L26.0664,45.3218 L26.0664,45.3208 Z" id="Fill-11" fill="#F3BD33"></path>
                        <path d="M54.2632,55.1103 C49.9672,55.1103 46.4832,51.6303 46.4832,47.3313 C46.4832,43.0353 49.9672,39.5523 54.2632,39.5523 C58.5592,39.5523 62.0422,43.0353 62.0422,47.3313 C62.0422,51.6303 58.5592,55.1103 54.2632,55.1103 M54.2632,29.1803 C44.2382,29.1803 36.1112,37.3083 36.1112,47.3313 C36.1112,57.3563 44.2382,65.4833 54.2632,65.4833 C64.2872,65.4833 72.4152,57.3563 72.4152,47.3313 C72.4152,37.3083 64.2872,29.1803 54.2632,29.1803" id="Fill-13" fill="#30363D"></path>
                        <path d="M54.2632,56.8632 C48.9992,56.8632 44.7322,52.5972 44.7322,47.3332 C44.7322,42.0712 48.9992,37.8032 54.2632,37.8032 C59.5272,37.8032 63.7922,42.0712 63.7922,47.3332 C63.7922,52.5972 59.5272,56.8632 54.2632,56.8632 M54.2632,35.3072 C47.6202,35.3072 42.2372,40.6892 42.2372,47.3332 C42.2372,53.9742 47.6202,59.3592 54.2632,59.3592 C60.9042,59.3592 66.2872,53.9742 66.2872,47.3332 C66.2872,40.6892 60.9042,35.3072 54.2632,35.3072" id="Fill-15" fill="#484F59"></path>
                        <path d="M58.2354,32.9238 L49.8394,32.9238 L51.2014,26.5698 L56.8734,26.5698 L58.2354,32.9238 Z" id="Fill-17" fill="#30363D"></path>
                        <path d="M50.4986,32.8686 L43.2276,37.0666 L41.2296,30.8836 L46.1426,28.0486 L50.4986,32.8686 Z" id="Fill-19" fill="#30363D"></path>
                        <path d="M43.771,36.6904 L39.573,43.9604 L34.751,39.6044 L37.588,34.6914 L43.771,36.6904 Z" id="Fill-21" fill="#30363D"></path>
                        <path d="M39.854,43.3623 L39.854,51.7573 L33.501,50.3943 L33.501,44.7223 L39.854,43.3623 Z" id="Fill-23" fill="#30363D"></path>
                        <path d="M39.7988,51.0986 L43.9968,58.3676 L37.8128,60.3646 L34.9778,55.4526 L39.7988,51.0986 Z" id="Fill-25" fill="#30363D"></path>
                        <path d="M43.6182,57.8252 L50.8902,62.0232 L46.5332,66.8452 L41.6212,64.0082 L43.6182,57.8252 Z" id="Fill-27" fill="#30363D"></path>
                        <path d="M50.291,61.7407 L58.687,61.7407 L57.325,68.0957 L51.651,68.0947 L50.291,61.7407 Z" id="Fill-29" fill="#30363D"></path>
                        <path d="M58.0274,61.7978 L65.2974,57.5988 L67.2954,63.7818 L62.3824,66.6168 L58.0274,61.7978 Z" id="Fill-31" fill="#30363D"></path>
                        <path d="M64.7554,57.9765 L68.9534,50.7065 L73.7744,55.0615 L70.9364,59.9725 L64.7554,57.9765 Z" id="Fill-33" fill="#30363D"></path>
                        <path d="M68.6724,51.3056 L68.6714,42.9076 L75.0244,44.2696 L75.0244,49.9436 L68.6724,51.3056 Z" id="Fill-35" fill="#30363D"></path>
                        <path d="M68.7276,43.5683 L64.5286,36.2973 L70.7116,34.2993 L73.5476,39.2133 L68.7276,43.5683 Z" id="Fill-37" fill="#30363D"></path>
                        <path d="M64.9063,36.8388 L57.6353,32.6438 L61.9903,27.8218 L66.9043,30.6588 L64.9063,36.8388 Z" id="Fill-39" fill="#30363D"></path>
                        <path d="M26.064,45.3857 L54.244,61.5377 L82.421,45.3857 L82.421,77.9237 L54.244,94.1917 L26.064,77.9237 L26.064,45.3857 Z" id="Fill-41" fill="#F4DA80"></path>
                        <path d="M54.2437,61.8857 L82.4217,45.3857 L82.4217,77.9237 L54.2437,94.1917 L54.2437,61.8857 Z" id="Fill-43" fill="#F3BD33"></path>
                        <path d="M54.2437,61.8857 L82.4217,45.3857 L89.8157,59.0957 L61.6367,75.3657 L54.2437,61.8857 Z" id="Fill-45" fill="#F0CA67"></path>
                        <path d="M54.2837,61.916 L26.1057,45.414 L18.7107,59.125 L46.8887,75.395 L54.2837,61.916 Z" id="Fill-47" fill="#F0CA67"></path>
                    </g>
                </g>
            </g>
        </g>
    </g>
</svg>