<?xml version="1.0" encoding="UTF-8" standalone="no"?>
<svg width="106px" height="105px" viewBox="0 0 106 105" version="1.1" xmlns="http://www.w3.org/2000/svg" xmlns:xlink="http://www.w3.org/1999/xlink">
    <!-- Generator: Sketch 3.6.1 (26313) - http://www.bohemiancoding.com/sketch -->
    <title>Page 1</title>
    <desc>Created with Sketch.</desc>
    <defs>
        <path id="path-1" d="M0,0.65 L106,0.65 L106,105 L0,105 L0,0.65 Z"></path>
    </defs>
    <g id="Page-1" stroke="none" stroke-width="1" fill="none" fill-rule="evenodd">
        <g id="if-affiliate-page" transform="translate(-994.000000, -544.000000)">
            <g id="why-partner" transform="translate(239.000000, 466.000000)">
                <g id="365" transform="translate(655.000000, 78.000000)">
                    <g id="Page-1" transform="translate(100.000000, 0.000000)">
                        <path d="M53,105 C23.776,105 0,81.594 0,52.825 C0,24.056 23.776,0.65 53,0.65 C82.224,0.65 106,24.056 106,52.825 C106,81.594 82.224,105 53,105" id="Fill-1" fill="#82CF8F"></path>
                        <path d="M78.9761,23.3121 L84.5591,17.7371 L87.2721,42.2681 L62.7511,39.5461 L69.8721,32.4221 C59.8521,23.1111 44.1541,23.3121 34.4071,33.0561 C29.5781,37.8891 26.9171,44.3131 26.9171,51.1411 C26.9171,51.1921 26.9221,51.2391 26.9221,51.2921 L14.0421,51.2921 C14.0421,51.2391 14.0381,51.1921 14.0381,51.1411 C14.0381,40.8711 18.0401,31.2101 25.3031,23.9491 C40.0661,9.1831 63.9361,8.9961 78.9761,23.3121" id="Fill-3" fill="#484F59"></path>
                        <path d="M38.1869,100.6292 L35.5069,98.2172 L38.1869,75.4282 L51.3189,53.9812 L87.9439,53.9812 L87.9439,67.5442 L87.9439,85.4322 L87.9439,100.6292 L38.1869,100.6292 Z" id="Fill-5" fill="#CDD5D8"></path>
                        <path d="M38.1869,100.6292 L35.5069,98.2172 L82.7999,95.9442 L87.9439,100.6292 L38.1869,100.6292 Z" id="Fill-7" fill="#E5E8EC"></path>
                        <path d="M87.9437,65.2385 L87.9437,53.9765 L85.2627,51.5645 L85.2627,62.8265 L87.9437,65.2385 Z" id="Fill-9" fill="#989EA0"></path>
                        <path d="M35.5072,98.2175 L35.5072,83.0175 L35.5072,51.5675 L48.6372,51.5675 L85.2632,51.5675 L85.2632,65.1305 L85.2632,83.0175 L85.2632,98.2175 L35.5072,98.2175 Z" id="Fill-11" fill="#F8F9FC"></path>
                        <mask id="mask-2" fill="white">
                            <use xlink:href="#path-1"></use>
                        </mask>
                        <g id="Clip-14"></g>
                        <path d="M85.263,51.565 L35.507,51.565 L35.507,62.827 L85.263,62.827 L85.263,51.565 Z" id="Fill-13" fill="#B7BEC0" mask="url(#mask-2)"></path>
                        <path d="M45.5248,58.3137 C45.5248,59.5717 46.5428,60.5917 47.8068,60.5917 C49.0628,60.5917 50.0828,59.5717 50.0828,58.3137 C50.0828,57.0517 49.0628,56.0307 47.8068,56.0307 C46.5428,56.0307 45.5248,57.0517 45.5248,58.3137" id="Fill-15" fill="#989EA0" mask="url(#mask-2)"></path>
                        <path d="M47.5375,57.1941 L46.7985,57.1941 C46.0595,57.1941 45.4585,56.5921 45.4585,55.8551 L45.4585,51.2941 C45.4585,50.5541 46.0595,49.9541 46.7985,49.9541 L47.5375,49.9541 C48.2285,49.9541 48.7765,50.4871 48.8495,51.1601 L51.0115,51.1601 C50.9355,49.2991 49.4115,47.8091 47.5375,47.8091 L45.1215,47.8091 C43.2005,47.8091 41.6375,49.3731 41.6375,51.2941 L41.6375,55.8551 C41.6375,57.7781 43.2005,59.3421 45.1215,59.3421 L47.5375,59.3421 C48.1295,59.3421 48.6065,58.8621 48.6065,58.2661 C48.6065,57.6741 48.1295,57.1941 47.5375,57.1941" id="Fill-16" fill="#E5E8EC" mask="url(#mask-2)"></path>
                        <path d="M47.6253,47.8181 C45.7483,47.8681 44.2303,49.3991 44.2303,51.2941 L44.2303,55.8551 C44.2303,57.7351 45.7323,59.2631 47.5973,59.3271 C48.1593,59.2951 48.6073,58.8401 48.6073,58.2661 C48.6073,57.6741 48.1293,57.1941 47.5373,57.1941 L46.7983,57.1941 C46.0603,57.1941 45.4583,56.5921 45.4583,55.8551 L45.4583,51.2941 C45.4583,50.5541 46.0603,49.9541 46.7983,49.9541 L47.5373,49.9541 C48.2293,49.9541 48.7763,50.4871 48.8493,51.1601 L51.0113,51.1601 C50.9363,49.3311 49.4613,47.8681 47.6253,47.8181" id="Fill-17" fill="#CDD5D8" mask="url(#mask-2)"></path>
                        <path d="M71.0003,58.3137 C71.0003,59.5717 72.0213,60.5917 73.2793,60.5917 C74.5393,60.5917 75.5623,59.5717 75.5623,58.3137 C75.5623,57.0517 74.5393,56.0307 73.2793,56.0307 C72.0213,56.0307 71.0003,57.0517 71.0003,58.3137" id="Fill-18" fill="#989EA0" mask="url(#mask-2)"></path>
                        <path d="M73.015,57.1941 L72.274,57.1941 C71.536,57.1941 70.933,56.5921 70.933,55.8551 L70.933,51.2941 C70.933,50.5541 71.536,49.9541 72.274,49.9541 L73.015,49.9541 C73.706,49.9541 74.255,50.4871 74.327,51.1601 L76.485,51.1601 C76.414,49.2991 74.891,47.8091 73.015,47.8091 L70.599,47.8091 C68.676,47.8091 67.113,49.3731 67.113,51.2941 L67.113,55.8551 C67.113,57.7781 68.676,59.3421 70.599,59.3421 L73.015,59.3421 C73.605,59.3421 74.082,58.8621 74.082,58.2661 C74.082,57.6741 73.605,57.1941 73.015,57.1941" id="Fill-19" fill="#E5E8EC" mask="url(#mask-2)"></path>
                        <path d="M73.1029,47.8181 C71.2219,47.8681 69.7049,49.3991 69.7049,51.2941 L69.7049,55.8551 C69.7049,57.7351 71.2069,59.2631 73.0719,59.3271 C73.6359,59.2951 74.0819,58.8401 74.0819,58.2661 C74.0819,57.6741 73.6049,57.1941 73.0149,57.1941 L72.2739,57.1941 C71.5369,57.1941 70.9329,56.5921 70.9329,55.8551 L70.9329,51.2941 C70.9329,50.5541 71.5369,49.9541 72.2739,49.9541 L73.0149,49.9541 C73.7069,49.9541 74.2549,50.4871 74.3279,51.1601 L76.4849,51.1601 C76.4139,49.3311 74.9349,47.8681 73.1029,47.8181" id="Fill-20" fill="#CDD5D8" mask="url(#mask-2)"></path>
                        <path d="M43.252,71.45 L38.394,71.45 L38.394,67.266 L43.252,67.266 L43.252,71.45 Z" id="Fill-21" fill="#E5E8EC" mask="url(#mask-2)"></path>
                        <path d="M49.595,71.45 L44.737,71.45 L44.737,67.266 L49.595,67.266 L49.595,71.45 Z" id="Fill-22" fill="#E5E8EC" mask="url(#mask-2)"></path>
                        <path d="M55.938,71.45 L51.08,71.45 L51.08,67.266 L55.938,67.266 L55.938,71.45 Z" id="Fill-23" fill="#CDD5D8" mask="url(#mask-2)"></path>
                        <path d="M62.28,71.45 L57.423,71.45 L57.423,67.266 L62.28,67.266 L62.28,71.45 Z" id="Fill-24" fill="#CDD5D8" mask="url(#mask-2)"></path>
                        <path d="M68.622,71.45 L63.765,71.45 L63.765,67.266 L68.622,67.266 L68.622,71.45 Z" id="Fill-25" fill="#CDD5D8" mask="url(#mask-2)"></path>
                        <path d="M74.965,71.45 L70.107,71.45 L70.107,67.266 L74.965,67.266 L74.965,71.45 Z" id="Fill-26" fill="#CDD5D8" mask="url(#mask-2)"></path>
                        <path d="M81.307,71.45 L76.449,71.45 L76.449,67.266 L81.307,67.266 L81.307,71.45 Z" id="Fill-27" fill="#CDD5D8" mask="url(#mask-2)"></path>
                        <path d="M43.252,77.145 L38.394,77.145 L38.394,72.963 L43.252,72.963 L43.252,77.145 Z" id="Fill-28" fill="#CDD5D8" mask="url(#mask-2)"></path>
                        <path d="M49.595,77.145 L44.737,77.145 L44.737,72.963 L49.595,72.963 L49.595,77.145 Z" id="Fill-29" fill="#CDD5D8" mask="url(#mask-2)"></path>
                        <path d="M55.938,77.145 L51.08,77.145 L51.08,72.963 L55.938,72.963 L55.938,77.145 Z" id="Fill-30" fill="#CDD5D8" mask="url(#mask-2)"></path>
                        <path d="M62.28,77.145 L57.423,77.145 L57.423,72.963 L62.28,72.963 L62.28,77.145 Z" id="Fill-31" fill="#CDD5D8" mask="url(#mask-2)"></path>
                        <path d="M68.622,77.145 L63.765,77.145 L63.765,72.963 L68.622,72.963 L68.622,77.145 Z" id="Fill-32" fill="#CDD5D8" mask="url(#mask-2)"></path>
                        <path d="M74.965,77.145 L70.107,77.145 L70.107,72.963 L74.965,72.963 L74.965,77.145 Z" id="Fill-33" fill="#CDD5D8" mask="url(#mask-2)"></path>
                        <path d="M81.307,77.145 L76.449,77.145 L76.449,72.963 L81.307,72.963 L81.307,77.145 Z" id="Fill-34" fill="#CDD5D8" mask="url(#mask-2)"></path>
                        <path d="M43.252,82.84 L38.394,82.84 L38.394,78.658 L43.252,78.658 L43.252,82.84 Z" id="Fill-35" fill="#CDD5D8" mask="url(#mask-2)"></path>
                        <path d="M49.595,82.84 L44.737,82.84 L44.737,78.658 L49.595,78.658 L49.595,82.84 Z" id="Fill-36" fill="#CDD5D8" mask="url(#mask-2)"></path>
                        <path d="M55.938,82.84 L51.08,82.84 L51.08,78.658 L55.938,78.658 L55.938,82.84 Z" id="Fill-37" fill="#CDD5D8" mask="url(#mask-2)"></path>
                        <path d="M62.28,82.84 L57.423,82.84 L57.423,78.658 L62.28,78.658 L62.28,82.84 Z" id="Fill-38" fill="#FF876C" mask="url(#mask-2)"></path>
                        <path d="M68.622,82.84 L63.765,82.84 L63.765,78.658 L68.622,78.658 L68.622,82.84 Z" id="Fill-39" fill="#CDD5D8" mask="url(#mask-2)"></path>
                        <path d="M74.965,82.84 L70.107,82.84 L70.107,78.658 L74.965,78.658 L74.965,82.84 Z" id="Fill-40" fill="#CDD5D8" mask="url(#mask-2)"></path>
                        <path d="M81.307,82.84 L76.449,82.84 L76.449,78.658 L81.307,78.658 L81.307,82.84 Z" id="Fill-41" fill="#CDD5D8" mask="url(#mask-2)"></path>
                        <path d="M43.252,88.536 L38.394,88.536 L38.394,84.352 L43.252,84.352 L43.252,88.536 Z" id="Fill-42" fill="#FF876C" mask="url(#mask-2)"></path>
                        <path d="M49.595,88.536 L44.737,88.536 L44.737,84.352 L49.595,84.352 L49.595,88.536 Z" id="Fill-43" fill="#CDD5D8" mask="url(#mask-2)"></path>
                        <path d="M55.938,88.536 L51.08,88.536 L51.08,84.352 L55.938,84.352 L55.938,88.536 Z" id="Fill-44" fill="#CDD5D8" mask="url(#mask-2)"></path>
                        <path d="M62.28,88.536 L57.423,88.536 L57.423,84.352 L62.28,84.352 L62.28,88.536 Z" id="Fill-45" fill="#CDD5D8" mask="url(#mask-2)"></path>
                        <path d="M68.622,88.536 L63.765,88.536 L63.765,84.352 L68.622,84.352 L68.622,88.536 Z" id="Fill-46" fill="#CDD5D8" mask="url(#mask-2)"></path>
                        <path d="M74.965,88.536 L70.107,88.536 L70.107,84.352 L74.965,84.352 L74.965,88.536 Z" id="Fill-47" fill="#CDD5D8" mask="url(#mask-2)"></path>
                        <path d="M81.307,88.536 L76.449,88.536 L76.449,84.352 L81.307,84.352 L81.307,88.536 Z" id="Fill-48" fill="#CDD5D8" mask="url(#mask-2)"></path>
                        <path d="M43.252,94.231 L38.394,94.231 L38.394,90.048 L43.252,90.048 L43.252,94.231 Z" id="Fill-49" fill="#CDD5D8" mask="url(#mask-2)"></path>
                        <path d="M49.595,94.231 L44.737,94.231 L44.737,90.048 L49.595,90.048 L49.595,94.231 Z" id="Fill-50" fill="#CDD5D8" mask="url(#mask-2)"></path>
                        <path d="M55.938,94.231 L51.08,94.231 L51.08,90.048 L55.938,90.048 L55.938,94.231 Z" id="Fill-51" fill="#CDD5D8" mask="url(#mask-2)"></path>
                        <path d="M62.28,94.231 L57.423,94.231 L57.423,90.048 L62.28,90.048 L62.28,94.231 Z" id="Fill-52" fill="#CDD5D8" mask="url(#mask-2)"></path>
                        <path d="M68.622,94.231 L63.765,94.231 L63.765,90.048 L68.622,90.048 L68.622,94.231 Z" id="Fill-53" fill="#E5E8EC" mask="url(#mask-2)"></path>
                        <path d="M74.965,94.231 L70.107,94.231 L70.107,90.048 L74.965,90.048 L74.965,94.231 Z" id="Fill-54" fill="#E5E8EC" mask="url(#mask-2)"></path>
                        <path d="M81.307,94.231 L76.449,94.231 L76.449,90.048 L81.307,90.048 L81.307,94.231 Z" id="Fill-55" fill="#E5E8EC" mask="url(#mask-2)"></path>
                        <path d="M44.0314,68.0815 C44.0314,76.5065 37.2044,83.3405 28.7754,83.3405 C20.3444,83.3405 13.5114,76.5065 13.5114,68.0815 C13.5114,59.6545 20.3444,52.8225 28.7754,52.8225 C37.2044,52.8225 44.0314,59.6545 44.0314,68.0815" id="Fill-56" fill="#F4DA80" mask="url(#mask-2)"></path>
                        <path d="M43.5656,68.0815 C43.5656,76.2495 36.9436,82.8745 28.7756,82.8745 C20.6056,82.8745 13.9786,76.2495 13.9786,68.0815 C13.9786,59.9095 20.6056,53.2905 28.7756,53.2905 C36.9436,53.2905 43.5656,59.9095 43.5656,68.0815" id="Fill-57" fill="#F0BF41" mask="url(#mask-2)"></path>
                        <path d="M40.4235,68.0815 C40.4235,74.5125 35.2065,79.7295 28.7755,79.7295 C22.3405,79.7295 17.1235,74.5125 17.1235,68.0815 C17.1235,61.6495 22.3405,56.4335 28.7755,56.4335 C35.2065,56.4335 40.4235,61.6495 40.4235,68.0815" id="Fill-58" fill="#F4DA80" mask="url(#mask-2)"></path>
                        <path d="M31.7321,70.9008 C31.7321,70.5828 31.6691,70.3048 31.5491,70.0728 C31.4351,69.8428 31.2701,69.6468 31.0661,69.4798 C30.8621,69.3108 30.6211,69.1698 30.3451,69.0488 C30.0711,68.9248 29.7801,68.8118 29.4621,68.7118 L29.1381,73.4888 C29.5541,73.4538 29.9211,73.3608 30.2451,73.2138 C30.5681,73.0748 30.8401,72.8888 31.0601,72.6628 C31.2781,72.4418 31.4481,72.1818 31.5631,71.8838 C31.6731,71.5828 31.7321,71.2558 31.7321,70.9008 L31.7321,70.9008 Z M26.4031,64.5258 C26.4031,64.8328 26.4581,65.1008 26.5651,65.3248 C26.6701,65.5528 26.8201,65.7518 27.0161,65.9258 C27.2121,66.1018 27.4301,66.2508 27.6861,66.3808 C27.9451,66.5028 28.2211,66.6218 28.5211,66.7258 L28.8141,62.3938 C28.3941,62.4358 28.0371,62.5178 27.7291,62.6458 C27.4271,62.7718 27.1751,62.9288 26.9801,63.1258 C26.7881,63.3138 26.6411,63.5308 26.5461,63.7738 C26.4471,64.0108 26.4031,64.2628 26.4031,64.5258 L26.4031,64.5258 Z M27.9521,74.9238 C27.1821,74.8528 26.4761,74.6598 25.8431,74.3468 C25.2021,74.0408 24.6551,73.6428 24.1911,73.1648 L24.6971,72.3778 C24.7451,72.3048 24.8151,72.2488 24.8961,72.2048 C24.9751,72.1588 25.0651,72.1368 25.1541,72.1368 C25.2761,72.1368 25.4101,72.1988 25.5651,72.3218 C25.7201,72.4418 25.9101,72.5818 26.1341,72.7378 C26.3561,72.8938 26.6231,73.0458 26.9361,73.1928 C27.2421,73.3408 27.6161,73.4378 28.0511,73.4888 L28.4081,68.3918 C27.9611,68.2558 27.5201,68.1078 27.0901,67.9358 C26.6561,67.7668 26.2721,67.5458 25.9241,67.2758 C25.5841,66.9988 25.3081,66.6598 25.1011,66.2438 C24.8961,65.8308 24.7881,65.3138 24.7881,64.6908 C24.7881,64.2218 24.8801,63.7628 25.0631,63.3138 C25.2441,62.8718 25.5071,62.4728 25.8591,62.1278 C26.2051,61.7828 26.6371,61.4968 27.1521,61.2758 C27.6571,61.0578 28.2531,60.9438 28.9181,60.9438 L29.0091,59.5458 C29.0261,59.4208 29.0741,59.3118 29.1531,59.2178 C29.2401,59.1218 29.3521,59.0748 29.4911,59.0748 L30.1241,59.0748 L29.9931,60.9758 C30.6661,61.0578 31.2431,61.2298 31.7321,61.4948 C32.2151,61.7558 32.6511,62.0718 33.0351,62.4438 L32.6211,63.0758 C32.4911,63.2698 32.3431,63.3638 32.1791,63.3638 C32.0901,63.3638 31.9831,63.3248 31.8461,63.2448 C31.7161,63.1628 31.5631,63.0728 31.3731,62.9618 C31.1861,62.8578 30.9741,62.7558 30.7311,62.6498 C30.4861,62.5438 30.2051,62.4688 29.8971,62.4268 L29.5761,67.0698 C30.0371,67.2108 30.4941,67.3668 30.9411,67.5328 C31.3911,67.6988 31.7911,67.9128 32.1471,68.1808 C32.5111,68.4418 32.8021,68.7718 33.0171,69.1658 C33.2421,69.5568 33.3531,70.0518 33.3531,70.6438 C33.3531,71.2208 33.2541,71.7648 33.0631,72.2718 C32.8711,72.7798 32.5881,73.2268 32.2251,73.6108 C31.8571,73.9968 31.4011,74.3098 30.8701,74.5468 C30.3371,74.7918 29.7251,74.9128 29.0411,74.9128 L28.9291,76.6298 C28.9141,76.7508 28.8631,76.8598 28.7751,76.9538 C28.6901,77.0448 28.5791,77.0878 28.4501,77.0878 L27.8141,77.0878 L27.9521,74.9238 Z" id="Fill-59" fill="#F0BF41" mask="url(#mask-2)"></path>
                    </g>
                </g>
            </g>
        </g>
    </g>
</svg>