<?xml version="1.0" encoding="UTF-8" standalone="no"?>
<svg width="112px" height="105px" viewBox="0 0 112 105" version="1.1" xmlns="http://www.w3.org/2000/svg" xmlns:xlink="http://www.w3.org/1999/xlink">
    <!-- Generator: Sketch 3.6.1 (26313) - http://www.bohemiancoding.com/sketch -->
    <title>ico-anione</title>
    <desc>Created with Sketch.</desc>
    <defs>
        <path id="path-1" d="M0,0.148 L111.411,0.148 L111.411,106 L0,106"></path>
        <path id="path-3" d="M53,0.148 C23.776,0.148 0,23.553 0,52.323 L0,52.323 C0,81.092 23.776,104.498 53,104.498 L53,104.498 C82.224,104.498 106,81.092 106,52.323 L106,52.323 C106,23.553 82.224,0.148 53,0.148"></path>
        <path id="path-5" d="M53,0.148 C23.776,0.148 0,23.553 0,52.323 L0,52.323 C0,81.092 23.776,104.498 53,104.498 L53,104.498 C82.224,104.498 106,81.092 106,52.323 L106,52.323 C106,23.553 82.224,0.148 53,0.148"></path>
        <path id="path-7" d="M53,0.148 C23.776,0.148 0,23.553 0,52.323 L0,52.323 C0,81.092 23.776,104.498 53,104.498 L53,104.498 C82.224,104.498 106,81.092 106,52.323 L106,52.323 C106,23.553 82.224,0.148 53,0.148"></path>
        <path id="path-9" d="M53,0.148 C23.776,0.148 0,23.553 0,52.323 L0,52.323 C0,81.092 23.776,104.498 53,104.498 L53,104.498 C82.224,104.498 106,81.092 106,52.323 L106,52.323 C106,23.553 82.224,0.148 53,0.148"></path>
        <path id="path-11" d="M53,0.148 C23.776,0.148 0,23.553 0,52.323 L0,52.323 C0,81.092 23.776,104.498 53,104.498 L53,104.498 C82.224,104.498 106,81.092 106,52.323 L106,52.323 C106,23.553 82.224,0.148 53,0.148"></path>
        <path id="path-13" d="M53,0.148 C23.776,0.148 0,23.553 0,52.323 L0,52.323 C0,81.092 23.776,104.498 53,104.498 L53,104.498 C82.224,104.498 106,81.092 106,52.323 L106,52.323 C106,23.553 82.224,0.148 53,0.148"></path>
    </defs>
    <g id="Page-1" stroke="none" stroke-width="1" fill="none" fill-rule="evenodd">
        <g id="if-affiliate-page" transform="translate(-336.000000, -544.000000)">
            <g id="why-partner" transform="translate(239.000000, 466.000000)">
                <g id="anyone" transform="translate(0.000000, 78.000000)">
                    <g id="ico-anione" transform="translate(97.000000, 0.000000)">
                        <mask id="mask-2" fill="white">
                            <use xlink:href="#path-1"></use>
                        </mask>
                        <g id="Clip-2"></g>
                        <path d="M53,104.4976 C23.776,104.4976 0,81.0926 0,52.3226 C0,23.5536 23.776,0.1476 53,0.1476 C82.224,0.1476 106,23.5536 106,52.3226 C106,81.0926 82.224,104.4976 53,104.4976" id="Fill-1" fill="#F4DA80" mask="url(#mask-2)"></path>
                        <path d="M91.2232,2.3115 C80.0702,2.3115 71.0322,11.3475 71.0322,22.5015 C71.0322,27.4835 72.8422,32.0345 75.8362,35.5585 L71.1312,44.4795 L79.6902,39.0555 C82.9592,41.3395 86.9302,42.6915 91.2232,42.6915 C102.3712,42.6915 111.4102,33.6495 111.4102,22.5015 C111.4102,11.3475 102.3712,2.3115 91.2232,2.3115" id="Fill-4" fill="#FF876C" mask="url(#mask-2)"></path>
                        <path d="M91.2232,2.3115 C91.1572,2.3115 91.0902,2.3155 91.0202,2.3155 L91.0202,42.6875 C91.0902,42.6875 91.1572,42.6915 91.2232,42.6915 C102.3712,42.6915 111.4102,33.6495 111.4102,22.5015 C111.4102,11.3475 102.3712,2.3115 91.2232,2.3115" id="Fill-6" fill="#E67A61" mask="url(#mask-2)"></path>
                        <path d="M89.4126,36.4444 L89.4126,33.1964 C87.1216,33.0924 84.9006,32.4444 83.6036,31.7264 L84.6296,27.7304 C86.0606,28.5134 88.0746,29.2344 90.2996,29.2344 C92.2836,29.2344 93.6136,28.4464 93.6136,27.1164 C93.6136,25.8164 92.5206,24.9934 89.9556,24.1404 C86.3006,22.9104 83.8076,21.2054 83.8076,17.8904 C83.8076,14.8474 85.9256,12.4884 89.5806,11.8104 L89.5806,8.5604 L92.9276,8.5604 L92.9276,11.5684 C95.1856,11.6374 96.7236,12.1504 97.9206,12.6974 L96.8926,16.5554 C96.0376,16.1464 94.4376,15.3604 91.9736,15.3604 C89.7566,15.3604 89.0356,16.3504 89.0356,17.3054 C89.0356,18.4004 90.2326,19.1524 93.1706,20.2124 C97.2336,21.6464 98.8386,23.5284 98.8386,26.6354 C98.8386,29.6764 96.7236,32.2754 92.7916,32.9234 L92.7916,36.4444 L89.4126,36.4444 Z" id="Fill-8" fill="#FFFFFF" mask="url(#mask-2)"></path>
                        <path d="M93.1705,20.2119 C92.3055,19.8999 91.5965,19.6169 91.0205,19.3419 L91.0205,24.5279 C92.8245,25.2539 93.6135,26.0139 93.6135,27.1169 C93.6135,28.2769 92.6005,29.0249 91.0205,29.1959 L91.0205,36.4439 L92.7915,36.4439 L92.7915,32.9239 C96.7235,32.2759 98.8385,29.6759 98.8385,26.6359 C98.8385,23.5279 97.2335,21.6469 93.1705,20.2119" id="Fill-10" fill="#E5E8EC" mask="url(#mask-2)"></path>
                        <path d="M91.0201,8.5606 L91.0201,15.4366 C91.3031,15.3906 91.6141,15.3606 91.9731,15.3606 C94.4381,15.3606 96.0371,16.1466 96.8931,16.5556 L97.9201,12.6976 C96.7231,12.1506 95.1861,11.6376 92.9281,11.5686 L92.9281,8.5606 L91.0201,8.5606 Z" id="Fill-12" fill="#E5E8EC" mask="url(#mask-2)"></path>
                        <path d="M20.1997,25.4483 C27.2097,25.4483 32.8907,31.1283 32.8907,38.1373 C32.8907,41.2683 31.7527,44.1303 29.8707,46.3443 L32.8277,51.9513 L27.4487,48.5433 C25.3937,49.9783 22.8977,50.8273 20.1997,50.8273 C13.1927,50.8273 7.5117,45.1453 7.5117,38.1373 C7.5117,31.1283 13.1927,25.4483 20.1997,25.4483" id="Fill-14" fill="#E67A61" mask="url(#mask-2)"></path>
                        <path d="M20.1997,25.4483 C20.2417,25.4483 20.2837,25.4503 20.3277,25.4503 L20.3277,50.8243 C20.2837,50.8243 20.2417,50.8273 20.1997,50.8273 C13.1927,50.8273 7.5117,45.1453 7.5117,38.1373 C7.5117,31.1283 13.1927,25.4483 20.1997,25.4483" id="Fill-16" fill="#FF876C" mask="url(#mask-2)"></path>
                        <path d="M19.065,46.9014 L19.065,44.8604 C17.625,44.7944 16.23,44.3874 15.414,43.9364 L16.059,41.4244 C16.958,41.9174 18.224,42.3704 19.622,42.3704 C20.869,42.3704 21.705,41.8754 21.705,41.0394 C21.705,40.2214 21.018,39.7044 19.406,39.1684 C17.109,38.3954 15.542,37.3234 15.542,35.2404 C15.542,33.3274 16.874,31.8444 19.17,31.4194 L19.17,29.3764 L21.275,29.3764 L21.275,31.2664 C22.693,31.3094 23.66,31.6324 24.412,31.9754 L23.767,34.4014 C23.229,34.1434 22.224,33.6504 20.674,33.6504 C19.281,33.6504 18.828,34.2724 18.828,34.8734 C18.828,35.5604 19.581,36.0334 21.427,36.6994 C23.98,37.6004 24.989,38.7834 24.989,40.7364 C24.989,42.6474 23.66,44.2814 21.189,44.6884 L21.189,46.9014 L19.065,46.9014 Z" id="Fill-18" fill="#FFFFFF" mask="url(#mask-2)"></path>
                        <path d="M21.4268,36.6992 C20.8828,36.5032 20.4378,36.3252 20.0748,36.1522 L20.0748,39.4122 C21.2098,39.8682 21.7048,40.3452 21.7048,41.0392 C21.7048,41.7682 21.0688,42.2382 20.0748,42.3452 L20.0748,46.9012 L21.1888,46.9012 L21.1888,44.6882 C23.6598,44.2812 24.9898,42.6472 24.9898,40.7362 C24.9898,38.7832 23.9808,37.6002 21.4268,36.6992" id="Fill-20" fill="#E5E8EC" mask="url(#mask-2)"></path>
                        <path d="M20.0752,29.376 L20.0752,33.698 C20.2532,33.669 20.4482,33.65 20.6742,33.65 C22.2232,33.65 23.2282,34.144 23.7662,34.401 L24.4122,31.976 C23.6602,31.632 22.6932,31.31 21.2742,31.267 L21.2742,29.376 L20.0752,29.376 Z" id="Fill-22" fill="#E5E8EC" mask="url(#mask-2)"></path>
                        <mask id="mask-4" fill="white">
                            <use xlink:href="#path-3"></use>
                        </mask>
                        <g id="Clip-26"></g>
                        <path d="M37.1744,78.6162 C34.1684,77.1852 30.9534,76.2812 27.6784,75.8922 C27.7894,75.1152 27.9004,74.3392 28.0104,73.5602 C28.7384,73.0952 29.2614,72.4082 29.3064,71.8372 C29.3924,71.1152 29.4774,70.3952 29.5614,69.6732 C29.6624,69.7782 29.7974,69.8532 29.9534,69.8712 C30.2964,69.9062 30.6074,69.6532 30.6434,69.3082 L30.9864,65.9762 C31.0254,65.6342 30.7704,65.3252 30.4254,65.2902 C30.2964,65.2762 30.1684,65.3032 30.0604,65.3642 C30.1354,64.7282 30.2104,64.0982 30.2794,63.4632 C30.3414,62.5952 30.7704,60.2782 29.0954,58.7832 C26.6764,56.4082 21.3524,56.4082 18.9324,58.7832 C17.2584,60.2782 17.6884,62.5952 17.7474,63.4632 C17.8214,64.0982 17.8954,64.7282 17.9664,65.3642 C17.8614,65.3032 17.7334,65.2762 17.6034,65.2902 C17.2584,65.3252 17.0064,65.6342 17.0434,65.9762 L17.3884,69.3082 C17.4204,69.6532 17.7304,69.9062 18.0764,69.8712 C18.2324,69.8532 18.3654,69.7782 18.4674,69.6732 C18.5494,70.3952 18.6364,71.1152 18.7204,71.8372 C18.7724,72.4082 19.2934,73.0952 20.0204,73.5602 C20.1284,74.3392 20.2404,75.1142 20.3464,75.8922 C17.0764,76.2812 13.8604,77.1852 10.8554,78.6162 C9.8854,79.1272 9.2064,80.4442 9.3114,81.4642 C9.4234,82.6322 9.5384,97.8032 9.6604,98.9732 C9.7644,99.9932 10.6414,101.0012 11.6084,101.1892 C19.8374,102.5162 28.1914,102.5162 36.4204,101.1892 C37.3874,101.0012 38.2644,99.9932 38.3694,98.9732 C38.4894,97.8032 38.6034,82.6322 38.7174,81.4642 C38.8194,80.4442 38.1424,79.1252 37.1744,78.6162" id="Fill-25" fill="#01BACC" mask="url(#mask-4)"></path>
                        <mask id="mask-6" fill="white">
                            <use xlink:href="#path-5"></use>
                        </mask>
                        <g id="Clip-29"></g>
                        <path d="M14.3663,101.5811 C15.1523,101.6791 15.9403,101.7651 16.7293,101.8401 C16.8253,101.8491 16.9203,101.8561 17.0143,101.8651 C18.7163,102.0171 20.4183,102.1191 22.1273,102.1591 C23.3973,102.1901 24.6713,102.1891 25.9433,102.1571 C25.9083,101.3871 25.8493,100.5771 25.7593,99.7421 C25.3643,96.0381 24.5273,78.9231 23.6753,77.6691 L23.6753,74.8301 C23.7203,74.8441 23.7653,74.8601 23.8103,74.8601 C24.8923,74.8601 25.7713,70.8661 25.7713,65.9381 C25.7713,61.0111 24.8923,57.0151 23.8103,57.0151 C23.7653,57.0151 23.7203,57.0321 23.6753,57.0461 L23.6753,57.0151 C23.4493,57.0241 23.2213,57.0401 22.9973,57.0641 L22.9953,57.0641 C22.7733,57.0901 22.5553,57.1201 22.3403,57.1601 C22.3263,57.1621 22.3133,57.1651 22.3003,57.1681 C22.0983,57.2061 21.8963,57.2501 21.6993,57.3031 C21.6693,57.3121 21.6383,57.3221 21.6073,57.3311 C21.4283,57.3801 21.2523,57.4331 21.0823,57.4941 C21.0283,57.5131 20.9773,57.5361 20.9243,57.5551 C20.7763,57.6121 20.6283,57.6711 20.4863,57.7381 C20.4103,57.7701 20.3393,57.8111 20.2643,57.8511 C20.1493,57.9081 20.0323,57.9661 19.9253,58.0301 C19.8233,58.0901 19.7303,58.1581 19.6343,58.2231 C19.5583,58.2751 19.4763,58.3241 19.4023,58.3801 C19.2383,58.5071 19.0803,58.6401 18.9323,58.7831 C17.2593,60.2781 17.6883,62.5951 17.7473,63.4631 C17.8213,64.0991 17.8953,64.7281 17.9663,65.3641 C17.8613,65.3031 17.7333,65.2761 17.6033,65.2901 C17.2593,65.3251 17.0063,65.6341 17.0433,65.9761 L17.3883,69.3081 C17.4213,69.6531 17.7303,69.9061 18.0763,69.8711 C18.2323,69.8531 18.3653,69.7781 18.4683,69.6731 C18.5503,70.3951 18.6363,71.1151 18.7203,71.8371 C18.7723,72.4081 19.2933,73.0951 20.0203,73.5601 C20.1293,74.3391 20.2403,75.1141 20.3463,75.8921 C17.0763,76.2811 13.8613,77.1851 10.8553,78.6161 C9.8863,79.1271 9.2063,80.4441 9.3113,81.4641 C9.4243,82.6321 9.5383,97.8041 9.6603,98.9741 C9.7643,99.9931 10.6413,101.0011 11.6083,101.1891 C12.4073,101.3171 13.2083,101.4311 14.0093,101.5341 C14.1283,101.5511 14.2473,101.5661 14.3663,101.5811" id="Fill-28" fill="#01C6DA" mask="url(#mask-6)"></path>
                        <mask id="mask-8" fill="white">
                            <use xlink:href="#path-7"></use>
                        </mask>
                        <g id="Clip-32"></g>
                        <path d="M97.1744,78.6162 C94.1684,77.1852 90.9534,76.2812 87.6784,75.8922 C87.7894,75.1152 87.9004,74.3392 88.0104,73.5602 C88.7384,73.0952 89.2614,72.4082 89.3064,71.8372 C89.3924,71.1152 89.4774,70.3952 89.5614,69.6732 C89.6624,69.7782 89.7974,69.8532 89.9534,69.8712 C90.2964,69.9062 90.6074,69.6532 90.6434,69.3082 L90.9864,65.9762 C91.0254,65.6342 90.7704,65.3252 90.4254,65.2902 C90.2964,65.2762 90.1684,65.3032 90.0604,65.3642 C90.1354,64.7282 90.2104,64.0982 90.2794,63.4632 C90.3414,62.5952 90.7704,60.2782 89.0954,58.7832 C86.6764,56.4082 81.3524,56.4082 78.9324,58.7832 C77.2584,60.2782 77.6884,62.5952 77.7474,63.4632 C77.8214,64.0982 77.8954,64.7282 77.9664,65.3642 C77.8614,65.3032 77.7334,65.2762 77.6034,65.2902 C77.2584,65.3252 77.0064,65.6342 77.0434,65.9762 L77.3884,69.3082 C77.4204,69.6532 77.7304,69.9062 78.0764,69.8712 C78.2324,69.8532 78.3654,69.7782 78.4674,69.6732 C78.5494,70.3952 78.6364,71.1152 78.7204,71.8372 C78.7724,72.4082 79.2934,73.0952 80.0204,73.5602 C80.1284,74.3392 80.2404,75.1142 80.3464,75.8922 C77.0764,76.2812 73.8604,77.1852 70.8554,78.6162 C69.8854,79.1272 69.2064,80.4442 69.3114,81.4642 C69.4234,82.6322 69.5384,97.8032 69.6604,98.9732 C69.7644,99.9932 70.6414,101.0012 71.6084,101.1892 C79.8374,102.5162 88.1924,102.5162 96.4204,101.1892 C97.3874,101.0012 98.2644,99.9932 98.3694,98.9732 C98.4894,97.8032 98.6034,82.6322 98.7174,81.4642 C98.8194,80.4442 98.1424,79.1252 97.1744,78.6162" id="Fill-31" fill="#E67A61" mask="url(#mask-8)"></path>
                        <mask id="mask-10" fill="white">
                            <use xlink:href="#path-9"></use>
                        </mask>
                        <g id="Clip-35"></g>
                        <path d="M74.3663,101.5811 C75.1523,101.6791 75.9403,101.7651 76.7293,101.8401 C76.8253,101.8491 76.9203,101.8561 77.0143,101.8651 C78.7163,102.0171 80.4183,102.1191 82.1273,102.1591 C83.3973,102.1901 84.6713,102.1891 85.9433,102.1571 C85.9083,101.3871 85.8493,100.5771 85.7593,99.7421 C85.3643,96.0381 84.5273,78.9231 83.6753,77.6691 L83.6753,74.8301 C83.7203,74.8441 83.7653,74.8601 83.8103,74.8601 C84.8923,74.8601 85.7713,70.8661 85.7713,65.9381 C85.7713,61.0111 84.8923,57.0151 83.8103,57.0151 C83.7653,57.0151 83.7203,57.0321 83.6753,57.0461 L83.6753,57.0151 C83.4493,57.0241 83.2213,57.0401 82.9973,57.0641 L82.9953,57.0641 C82.7733,57.0901 82.5553,57.1201 82.3403,57.1601 C82.3263,57.1621 82.3133,57.1651 82.3003,57.1681 C82.0983,57.2061 81.8963,57.2501 81.6993,57.3031 C81.6693,57.3121 81.6383,57.3221 81.6073,57.3311 C81.4283,57.3801 81.2523,57.4331 81.0823,57.4941 C81.0283,57.5131 80.9773,57.5361 80.9243,57.5551 C80.7763,57.6121 80.6283,57.6711 80.4863,57.7381 C80.4103,57.7701 80.3393,57.8111 80.2643,57.8511 C80.1493,57.9081 80.0323,57.9661 79.9253,58.0301 C79.8233,58.0901 79.7303,58.1581 79.6343,58.2231 C79.5583,58.2751 79.4763,58.3241 79.4023,58.3801 C79.2383,58.5071 79.0803,58.6401 78.9323,58.7831 C77.2593,60.2781 77.6883,62.5951 77.7473,63.4631 C77.8213,64.0991 77.8953,64.7281 77.9663,65.3641 C77.8613,65.3031 77.7333,65.2761 77.6033,65.2901 C77.2593,65.3251 77.0063,65.6341 77.0433,65.9761 L77.3883,69.3081 C77.4213,69.6531 77.7303,69.9061 78.0763,69.8711 C78.2323,69.8531 78.3653,69.7781 78.4683,69.6731 C78.5503,70.3951 78.6373,71.1151 78.7203,71.8371 C78.7723,72.4081 79.2933,73.0951 80.0203,73.5601 C80.1293,74.3391 80.2403,75.1141 80.3463,75.8921 C77.0763,76.2811 73.8613,77.1851 70.8553,78.6161 C69.8863,79.1271 69.2063,80.4441 69.3113,81.4641 C69.4243,82.6321 69.5383,97.8041 69.6603,98.9741 C69.7643,99.9931 70.6413,101.0011 71.6083,101.1891 C72.4073,101.3171 73.2083,101.4311 74.0093,101.5341 C74.1283,101.5511 74.2473,101.5661 74.3663,101.5811" id="Fill-34" fill="#FF876C" mask="url(#mask-10)"></path>
                        <mask id="mask-12" fill="white">
                            <use xlink:href="#path-11"></use>
                        </mask>
                        <g id="Clip-38"></g>
                        <path d="M82.3995,84.9883 C75.7975,81.8443 68.7405,79.8563 61.5455,79.0053 C61.7915,77.3003 62.0345,75.5923 62.2745,73.8833 C63.8715,72.8613 65.0215,71.3563 65.1215,70.0983 C65.3115,68.5143 65.4975,66.9333 65.6785,65.3483 C65.8985,65.5803 66.1975,65.7433 66.5415,65.7793 C67.2985,65.8553 67.9765,65.3033 68.0545,64.5473 L68.8125,57.2313 C68.8925,56.4743 68.3385,55.8003 67.5815,55.7203 C67.2925,55.6873 67.0195,55.7503 66.7785,55.8833 C66.9455,54.4883 67.1045,53.1033 67.2595,51.7083 C67.3915,49.8023 68.3355,44.7143 64.6595,41.4323 C59.3435,36.2173 47.6525,36.2173 42.3375,41.4323 C38.6675,44.7143 39.6105,49.8023 39.7375,51.7083 C39.8975,53.1033 40.0605,54.4883 40.2205,55.8833 C39.9895,55.7503 39.7045,55.6873 39.4195,55.7203 C38.6675,55.8003 38.1105,56.4743 38.1905,57.2313 L38.9485,64.5473 C39.0205,65.3033 39.6985,65.8553 40.4585,65.7793 C40.8025,65.7433 41.0985,65.5803 41.3195,65.3483 C41.5035,66.9333 41.6875,68.5143 41.8765,70.0983 C41.9835,71.3563 43.1305,72.8613 44.7265,73.8833 C44.9685,75.5923 45.2105,77.2973 45.4485,79.0053 C38.2655,79.8563 31.2025,81.8443 24.6035,84.9883 C22.4715,86.1083 20.9815,88.9983 21.2085,91.2393 C21.4585,93.8063 21.7115,96.3803 21.9775,98.9493 C22.2045,101.1873 24.1285,103.4023 26.2575,103.8143 C44.3305,106.7283 62.6725,106.7283 80.7455,103.8143 C82.8695,103.4023 84.7925,101.1873 85.0245,98.9493 C85.2885,96.3803 85.5395,93.8063 85.7915,91.2393 C86.0095,88.9983 84.5265,86.1043 82.3995,84.9883" id="Fill-37" fill="#30363D" mask="url(#mask-12)"></path>
                        <mask id="mask-14" fill="white">
                            <use xlink:href="#path-13"></use>
                        </mask>
                        <g id="Clip-41"></g>
                        <path d="M32.3086,104.6748 C34.0406,104.8908 35.7696,105.0788 37.5046,105.2418 C37.7116,105.2608 37.9216,105.2798 38.1296,105.2968 C41.8646,105.6368 45.6056,105.8518 49.3506,105.9448 C52.1456,106.0128 54.9386,106.0098 57.7346,105.9408 C57.6576,104.2458 57.5276,102.4698 57.3326,100.6328 C56.4646,92.5038 54.6246,85.6608 52.7566,82.9068 L52.7566,76.6738 C52.8536,76.7018 52.9516,76.7378 53.0496,76.7378 C55.4296,76.7378 57.3536,67.9658 57.3536,57.1448 C57.3536,46.3248 55.4296,37.5488 53.0496,37.5488 C52.9516,37.5488 52.8536,37.5868 52.7566,37.6178 L52.7566,37.5488 C52.2566,37.5678 51.7586,37.6038 51.2656,37.6558 C51.2626,37.6558 51.2606,37.6588 51.2606,37.6588 C50.7766,37.7098 50.2946,37.7808 49.8226,37.8668 C49.7936,37.8728 49.7666,37.8808 49.7356,37.8848 C49.2896,37.9698 48.8486,38.0688 48.4186,38.1828 C48.3496,38.1988 48.2816,38.2198 48.2136,38.2388 C47.8226,38.3518 47.4366,38.4678 47.0576,38.6028 C46.9416,38.6438 46.8286,38.6928 46.7146,38.7358 C46.3886,38.8608 46.0656,38.9898 45.7516,39.1328 C45.5856,39.2098 45.4256,39.3018 45.2646,39.3858 C45.0136,39.5148 44.7576,39.6378 44.5186,39.7788 C44.2956,39.9088 44.0926,40.0568 43.8816,40.2018 C43.7126,40.3178 43.5366,40.4238 43.3726,40.5458 C43.0076,40.8238 42.6606,41.1188 42.3376,41.4328 C38.6666,44.7138 39.6106,49.8018 39.7376,51.7078 C39.8976,53.1038 40.0606,54.4878 40.2206,55.8828 C39.9896,55.7498 39.7036,55.6878 39.4196,55.7208 C38.6666,55.7998 38.1106,56.4748 38.1906,57.2318 L38.9486,64.5468 C39.0206,65.3038 39.6986,65.8558 40.4586,65.7788 C40.8026,65.7428 41.0986,65.5798 41.3196,65.3488 C41.5026,66.9338 41.6876,68.5148 41.8756,70.0988 C41.9836,71.3568 43.1306,72.8608 44.7266,73.8828 C44.9686,75.5918 45.2096,77.2968 45.4486,79.0048 C38.2656,79.8568 31.2026,81.8448 24.6036,84.9878 C22.4716,86.1088 20.9816,88.9978 21.2086,91.2388 C21.4576,93.8068 21.7116,96.3798 21.9776,98.9488 C22.2036,101.1878 24.1286,103.4028 26.2576,103.8148 C28.0086,104.0958 29.7656,104.3418 31.5226,104.5708 C31.7866,104.6048 32.0486,104.6408 32.3086,104.6748" id="Fill-40" fill="#484F59" mask="url(#mask-14)"></path>
                    </g>
                </g>
            </g>
        </g>
    </g>
</svg>