<?xml version="1.0" encoding="UTF-8" standalone="no"?>
<svg width="106px" height="105px" viewBox="0 0 106 105" version="1.1" xmlns="http://www.w3.org/2000/svg" xmlns:xlink="http://www.w3.org/1999/xlink">
    <!-- Generator: Sketch 3.6.1 (26313) - http://www.bohemiancoding.com/sketch -->
    <title>Page 1</title>
    <desc>Created with Sketch.</desc>
    <defs>
        <path id="path-1" d="M53,0.315 C23.775,0.315 0,23.72 0,52.49 L0,52.49 C0,81.259 23.775,104.665 53,104.665 L53,104.665 C82.225,104.665 106,81.259 106,52.49 L106,52.49 C106,23.72 82.225,0.315 53,0.315 L53,0.315 Z"></path>
    </defs>
    <g id="Page-1" stroke="none" stroke-width="1" fill="none" fill-rule="evenodd">
        <g id="if-affiliate-page" transform="translate(-339.000000, -864.000000)">
            <g id="why-partner" transform="translate(239.000000, 466.000000)">
                <g id="comission" transform="translate(1.000000, 398.000000)">
                    <g id="Page-1" transform="translate(99.000000, 0.000000)">
                        <path d="M53,104.6641 C23.775,104.6641 0,81.2591 0,52.4891 C0,23.7201 23.775,0.3141 53,0.3141 C82.225,0.3141 106,23.7201 106,52.4891 C106,81.2591 82.225,104.6641 53,104.6641" id="Fill-1" fill="#484F59"></path>
                        <g id="Group-15">
                            <mask id="mask-2" fill="white">
                                <use xlink:href="#path-1"></use>
                            </mask>
                            <use id="Clip-5" xlink:href="#path-1"></use>
                            <path d="M16.372,107 L92.026,107 L92.026,56.185 L16.372,56.185 L16.372,107 Z" id="Fill-4" fill="#82CF8F" mask="url(#mask-2)"></path>
                            <path d="M16.3721,81.8135 L16.3721,83.9155 L49.3131,81.8135 L16.3721,81.8135 Z" id="Fill-6" fill="#7AC286" mask="url(#mask-2)"></path>
                            <path d="M16.3721,91.4678 L16.3721,93.5688 L85.6851,91.4678 L16.3721,91.4678 Z" id="Fill-7" fill="#7AC286" mask="url(#mask-2)"></path>
                            <path d="M21.3868,76.6211 L92.0268,78.7231 L92.0268,76.6211 L21.3868,76.6211 Z" id="Fill-8" fill="#7AC286" mask="url(#mask-2)"></path>
                            <path d="M60.3467,86.6202 L92.0267,88.7202 L92.0267,86.6202 L60.3467,86.6202 Z" id="Fill-9" fill="#7AC286" mask="url(#mask-2)"></path>
                            <path d="M16.372,73.158 L92.026,73.158 L92.026,31.592 L16.372,31.592 L16.372,73.158 Z" id="Fill-10" fill="#7AC286" mask="url(#mask-2)"></path>
                            <path d="M53.5098,57.354 C51.8728,57.354 50.3758,56.824 49.3138,56.24 L48.5578,59.198 C49.5208,59.731 51.1608,60.207 52.8548,60.287 L52.8548,62.685 L55.3568,62.685 L55.3568,60.082 C58.2668,59.603 59.8268,57.684 59.8268,55.433 C59.8268,53.136 58.6438,51.747 55.6338,50.684 C53.4618,49.898 52.5768,49.342 52.5768,48.534 C52.5768,47.823 53.1088,47.094 54.7518,47.094 C56.5708,47.094 57.7568,47.677 58.3908,47.978 L59.1518,45.123 C58.2668,44.72 57.1258,44.341 55.4608,44.286 L55.4608,42.064 L52.9828,42.064 L52.9828,44.464 C50.2748,44.966 48.7108,46.713 48.7108,48.961 C48.7108,51.413 50.5518,52.682 53.2598,53.59 C55.1528,54.22 55.9668,54.826 55.9668,55.788 C55.9668,56.775 54.9768,57.354 53.5098,57.354" id="Fill-11" fill="#AFD7A6" mask="url(#mask-2)"></path>
                            <path d="M75.9903,56.0694 C78.0273,56.0694 79.6833,54.4114 79.6833,52.3724 C79.6833,50.3344 78.0273,48.6824 75.9903,48.6824 C73.9543,48.6824 72.2953,50.3344 72.2953,52.3724 C72.2953,54.4114 73.9543,56.0694 75.9903,56.0694" id="Fill-12" fill="#AFD7A6" mask="url(#mask-2)"></path>
                            <path d="M32.3965,56.0694 C34.4355,56.0694 36.0895,54.4114 36.0895,52.3724 C36.0895,50.3344 34.4355,48.6824 32.3965,48.6824 C30.3625,48.6824 28.7055,50.3344 28.7055,52.3724 C28.7055,54.4114 30.3625,56.0694 32.3965,56.0694" id="Fill-13" fill="#AFD7A6" mask="url(#mask-2)"></path>
                            <path d="M32.3965,46.8111 C35.4685,46.8111 37.9635,49.3071 37.9635,52.3721 C37.9635,55.4411 35.4685,57.9431 32.3965,57.9431 C29.3315,57.9431 26.8365,55.4411 26.8365,52.3721 C26.8365,49.3071 29.3315,46.8111 32.3965,46.8111 M54.1895,39.0001 C61.5835,39.0001 67.5695,44.9901 67.5695,52.3721 C67.5695,59.7661 61.5835,65.7481 54.1895,65.7481 C46.8075,65.7481 40.8225,59.7661 40.8225,52.3721 C40.8225,44.9901 46.8075,39.0001 54.1895,39.0001 M75.9905,46.8111 C79.0555,46.8111 81.5495,49.3071 81.5495,52.3721 C81.5495,55.4411 79.0555,57.9431 75.9905,57.9431 C72.9225,57.9431 70.4285,55.4411 70.4285,52.3721 C70.4285,49.3071 72.9225,46.8111 75.9905,46.8111 M20.5105,65.3051 C22.5925,65.0191 24.6065,66.7881 24.6065,68.9511 C24.6065,68.9571 24.5785,69.2211 24.5785,69.2281 C24.5645,69.4821 24.6565,69.7331 24.8325,69.9181 C25.0115,70.1031 25.2565,70.2091 25.5095,70.2091 L82.8815,70.2091 C83.1385,70.2091 83.3705,69.9791 83.5495,69.7891 C83.7275,69.5961 83.8025,69.2211 83.7825,68.9611 C83.7825,66.9251 85.4415,65.2691 87.4805,65.2691 C87.6175,65.2691 87.7475,65.2891 88.0225,65.3261 C88.2945,65.3611 88.5595,65.2771 88.7585,65.0991 C88.9625,64.9221 89.0735,64.6671 89.0735,64.3971 L89.0735,40.3501 C89.0735,40.0791 88.9585,39.8191 88.7515,39.6421 C88.5425,39.4661 88.2655,39.3801 88.0005,39.4291 C85.8605,39.7371 83.7825,38.0031 83.7825,35.8001 L82.8815,35.7411 L83.8115,35.5381 C83.8315,35.2791 83.7395,35.0251 83.5655,34.8351 C83.3875,34.6461 83.1385,34.5371 82.8815,34.5371 L25.5095,34.5371 C25.2565,34.5371 25.0255,34.7791 24.8495,34.9651 C24.6715,35.1491 24.5935,35.5371 24.6065,35.7911 C24.6065,38.0041 22.5045,39.7371 20.3895,39.4291 C20.1265,39.3801 19.8485,39.4661 19.6415,39.6421 C19.4345,39.8191 19.3185,40.0791 19.3185,40.3501 L19.3185,64.3971 C19.3185,64.6671 19.5015,64.9181 19.7035,65.0931 C19.9095,65.2691 20.2455,65.3411 20.5105,65.3051" id="Fill-14" fill="#AFD7A6" mask="url(#mask-2)"></path>
                        </g>
                    </g>
                </g>
            </g>
        </g>
    </g>
</svg>