<?xml version="1.0" encoding="UTF-8" standalone="no"?>
<svg width="106px" height="105px" viewBox="0 0 106 105" version="1.1" xmlns="http://www.w3.org/2000/svg" xmlns:xlink="http://www.w3.org/1999/xlink">
    <!-- Generator: Sketch 3.6.1 (26313) - http://www.bohemiancoding.com/sketch -->
    <title>Group 72</title>
    <desc>Created with Sketch.</desc>
    <defs>
        <path id="path-1" d="M53,0.062 C23.776,0.062 0,23.468 0,52.237 L0,52.237 C0,81.007 23.776,104.412 53,104.412 L53,104.412 C82.224,104.412 106,81.007 106,52.237 L106,52.237 C106,23.468 82.224,0.062 53,0.062 L53,0.062 Z"></path>
    </defs>
    <g id="Page-1" stroke="none" stroke-width="1" fill="none" fill-rule="evenodd">
        <g id="if-affiliate-page" transform="translate(-667.000000, -864.000000)">
            <g id="why-partner" transform="translate(239.000000, 466.000000)">
                <g id="globally" transform="translate(329.000000, 398.000000)">
                    <g id="Page-1" transform="translate(99.000000, 0.000000)">
                        <g id="Group-72">
                            <mask id="mask-2" fill="white">
                                <use xlink:href="#path-1"></use>
                            </mask>
                            <use id="Clip-5" fill="#E5E8EC" xlink:href="#path-1"></use>
                            <path d="M17.114,81.114 L90.78,81.114 L90.78,40.641 L17.114,40.641 L17.114,81.114 Z" id="Fill-4" fill="#82CF8F" mask="url(#mask-2)"></path>
                            <path d="M17.1143,65.5971 L17.1143,67.6431 L49.1913,65.5971 L17.1143,65.5971 Z" id="Fill-6" fill="#7AC286" mask="url(#mask-2)"></path>
                            <path d="M17.1143,74.998 L17.1143,77.043 L84.6063,74.998 L17.1143,74.998 Z" id="Fill-7" fill="#7AC286" mask="url(#mask-2)"></path>
                            <path d="M21.999,60.542 L90.78,62.587 L90.78,60.542 L21.999,60.542 Z" id="Fill-8" fill="#7AC286" mask="url(#mask-2)"></path>
                            <path d="M59.9336,70.2773 L90.7806,72.3213 L90.7806,70.2773 L59.9336,70.2773 Z" id="Fill-9" fill="#7AC286" mask="url(#mask-2)"></path>
                            <path d="M17.114,57.169 L90.78,57.169 L90.78,16.695 L17.114,16.695 L17.114,57.169 Z" id="Fill-10" fill="#7AC286" mask="url(#mask-2)"></path>
                            <path d="M53.2783,41.7812 C51.6833,41.7812 50.2263,41.2642 49.1893,40.6952 L48.4553,43.5762 C49.3913,44.0952 50.9883,44.5582 52.6373,44.6372 L52.6373,46.9712 L55.0743,46.9712 L55.0743,44.4362 C57.9083,43.9702 59.4263,42.1022 59.4263,39.9102 C59.4263,37.6752 58.2763,36.3212 55.3443,35.2852 C53.2313,34.5202 52.3683,33.9782 52.3683,33.1922 C52.3683,32.5002 52.8853,31.7902 54.4873,31.7902 C56.2563,31.7902 57.4133,32.3572 58.0283,32.6502 L58.7683,29.8712 C57.9083,29.4782 56.7993,29.1092 55.1773,29.0562 L55.1773,26.8922 L52.7623,26.8922 L52.7623,29.2302 C50.1253,29.7182 48.6043,31.4192 48.6043,33.6082 C48.6043,35.9952 50.3973,37.2302 53.0343,38.1172 C54.8773,38.7282 55.6683,39.3192 55.6683,40.2552 C55.6683,41.2162 54.7043,41.7812 53.2783,41.7812" id="Fill-11" fill="#AFD7A6" mask="url(#mask-2)"></path>
                            <path d="M75.165,40.5293 C77.149,40.5293 78.761,38.9153 78.761,36.9293 C78.761,34.9453 77.149,33.3373 75.165,33.3373 C73.184,33.3373 71.569,34.9453 71.569,36.9293 C71.569,38.9153 73.184,40.5293 75.165,40.5293" id="Fill-12" fill="#AFD7A6" mask="url(#mask-2)"></path>
                            <path d="M32.7197,40.5293 C34.7047,40.5293 36.3147,38.9153 36.3147,36.9293 C36.3147,34.9453 34.7047,33.3373 32.7197,33.3373 C30.7397,33.3373 29.1227,34.9453 29.1227,36.9293 C29.1227,38.9153 30.7397,40.5293 32.7197,40.5293" id="Fill-13" fill="#AFD7A6" mask="url(#mask-2)"></path>
                            <path d="M32.7197,31.5137 C35.7107,31.5137 38.1387,33.9437 38.1387,36.9297 C38.1387,39.9177 35.7107,42.3537 32.7197,42.3537 C29.7317,42.3537 27.3037,39.9177 27.3037,36.9297 C27.3037,33.9437 29.7317,31.5137 32.7197,31.5137 M53.9387,23.9097 C61.1397,23.9097 66.9657,29.7417 66.9657,36.9297 C66.9657,44.1287 61.1397,49.9527 53.9387,49.9527 C46.7497,49.9527 40.9207,44.1287 40.9207,36.9297 C40.9207,29.7417 46.7497,23.9097 53.9387,23.9097 M75.1647,31.5137 C78.1527,31.5137 80.5787,33.9437 80.5787,36.9297 C80.5787,39.9177 78.1527,42.3537 75.1647,42.3537 C72.1807,42.3537 69.7497,39.9177 69.7497,36.9297 C69.7497,33.9437 72.1807,31.5137 75.1647,31.5137 M21.1457,49.5207 C23.1717,49.2437 25.1317,50.9667 25.1317,53.0717 C25.1317,53.0777 25.1067,53.3347 25.1067,53.3427 C25.0937,53.5887 25.1827,53.8337 25.3537,54.0137 C25.5277,54.1957 25.7667,54.2967 26.0137,54.2967 L81.8757,54.2967 C82.1277,54.2967 82.3537,54.0747 82.5267,53.8907 C82.6987,53.7017 82.7727,53.3347 82.7547,53.0827 C82.7547,51.0997 84.3697,49.4877 86.3547,49.4877 C86.4897,49.4877 86.6147,49.5067 86.8837,49.5417 C87.1477,49.5767 87.4047,49.4957 87.6007,49.3207 C87.7977,49.1487 87.9067,48.9017 87.9067,48.6387 L87.9067,25.2217 C87.9067,24.9587 87.7917,24.7057 87.5917,24.5337 C87.3887,24.3627 87.1177,24.2797 86.8617,24.3257 C84.7787,24.6267 82.7547,22.9377 82.7547,20.7917 L81.8757,20.7347 L82.7827,20.5377 C82.8017,20.2857 82.7127,20.0377 82.5407,19.8527 C82.3677,19.6707 82.1277,19.5617 81.8757,19.5617 L26.0137,19.5617 C25.7667,19.5617 25.5417,19.7987 25.3677,19.9797 C25.1977,20.1587 25.1207,20.5377 25.1317,20.7847 C25.1317,22.9397 23.0857,24.6267 21.0267,24.3257 C20.7717,24.2797 20.5007,24.3627 20.2987,24.5337 C20.0957,24.7057 19.9827,24.9587 19.9827,25.2217 L19.9827,48.6387 C19.9827,48.9017 20.1607,49.1447 20.3567,49.3167 C20.5597,49.4897 20.8847,49.5557 21.1457,49.5207" id="Fill-14" fill="#AFD7A6" mask="url(#mask-2)"></path>
                            <path d="M51.4917,39.5864 C24.6297,39.5864 2.7737,61.4404 2.7737,88.2944 C2.7737,115.1544 24.6297,137.0004 51.4917,137.0004 C78.3497,137.0004 100.1987,115.1544 100.1987,88.2944 C100.1987,61.4404 78.3497,39.5864 51.4917,39.5864" id="Fill-15" fill="#01B0C1" mask="url(#mask-2)"></path>
                            <path d="M53.6294,39.6401 C69.9974,47.4971 81.3264,64.2421 81.3264,83.5761 C81.3264,110.4411 59.4774,132.2831 32.6194,132.2831 C31.9044,132.2831 31.1894,132.2631 30.4734,132.2301 C36.8404,135.2871 43.9704,137.0001 51.4914,137.0001 C78.3494,137.0001 100.1984,115.1551 100.1984,88.2941 C100.1984,62.1591 79.4934,40.7621 53.6294,39.6401" id="Fill-16" fill="#0197A6" mask="url(#mask-2)"></path>
                            <path d="M98.0859,101.5356 C97.4399,101.5516 96.6119,101.8516 96.5979,102.0706 C96.5869,102.2916 95.7009,102.6906 95.4109,102.8056 C95.1199,102.9236 94.5459,103.8296 94.4269,104.1246 C94.3029,104.4236 93.5809,104.3376 93.3129,104.4546 C93.0479,104.5736 92.4959,105.0176 92.4919,105.2816 C92.4919,105.5476 92.3389,105.5176 92.1659,105.2176 L91.8099,105.5866 L91.3959,106.0456 C91.1599,106.7966 90.3609,107.7346 90.0929,107.8256 C89.8199,107.8936 89.7699,109.2116 89.7699,109.7386 C89.7699,110.2716 89.9799,110.9276 90.2269,111.1906 L90.2809,111.6126 L90.3759,112.4466 C90.2269,113.0976 90.7169,113.6716 90.8619,113.7896 C91.0039,113.8966 92.2089,113.5706 92.6729,113.4596 C92.8659,113.4176 93.1019,113.3126 93.3229,113.1926 C95.4799,109.5936 97.1749,105.6836 98.3469,101.5646 C98.2529,101.5426 98.1659,101.5336 98.0859,101.5356" id="Fill-17" fill="#CDD5D7" mask="url(#mask-2)"></path>
                            <path d="M17.6602,102.7812 C17.5872,102.9162 18.4582,103.8082 18.8002,104.1102 C19.1372,104.4222 19.8522,105.8852 19.9972,106.3602 C20.1422,106.8432 20.0592,107.6242 20.0122,107.8142 C19.9652,107.9942 20.1722,108.4022 20.2082,108.5702 C20.2372,108.7392 19.9112,110.1712 20.0302,110.7442 C20.1542,111.3212 19.3592,113.1222 19.3812,114.0132 C19.4022,114.9072 19.8022,116.0742 19.9652,115.9842 C20.1282,115.8952 20.1862,116.7982 19.9112,116.9012 C19.6382,117.0132 19.3232,117.7222 19.4782,117.7572 C19.6272,117.7972 19.4642,118.4962 19.5082,118.7752 C19.5442,119.0592 19.7842,120.9182 19.8342,121.3742 C19.8892,121.8392 20.5462,122.9622 20.6832,123.3452 C20.8252,123.7302 20.9672,124.4522 21.0212,124.5592 C21.0692,124.6742 21.1412,124.7862 21.1452,124.7922 C21.1562,124.7992 21.6892,124.9932 21.8422,125.1082 C22.0052,125.2282 23.0432,125.1502 23.3882,125.0842 C23.7252,125.0102 23.4102,124.7002 23.2542,124.5322 C23.1052,124.3612 22.9712,123.5382 22.7932,123.4522 C22.6152,123.3762 22.5422,122.3252 22.6952,122.0972 C22.8512,121.8602 23.4742,121.4932 23.5442,121.2962 C23.6092,121.1032 23.6312,120.1852 23.4612,120.0582 C23.2972,119.9352 23.5082,118.8302 23.3882,118.2782 C23.2542,117.7282 24.3392,117.2302 24.4052,116.7922 C24.4662,116.3532 25.6392,115.8852 25.9042,115.6682 C26.1722,115.4492 26.3972,114.1992 26.2742,113.9272 C26.1472,113.6602 26.7022,113.4432 26.9602,113.4432 C27.2002,113.4432 27.4862,113.2662 27.5802,113.2662 C27.6752,113.2582 27.9732,112.7112 28.1322,112.5792 C28.2922,112.4562 28.6222,111.1312 28.9132,110.9142 C29.2102,110.6972 29.4472,109.9012 29.4472,109.6682 C29.4472,109.4332 29.8922,108.7392 30.0382,108.5292 C30.1832,108.3172 31.2762,107.8162 31.4722,107.7352 C31.6642,107.6612 31.9622,105.9052 32.0462,105.2722 C32.1152,104.6392 32.4412,103.7922 32.4672,103.5892 C32.4852,103.3812 32.8412,103.2082 32.9022,103.1392 C32.9712,103.0692 33.2292,102.2672 33.3992,102.0862 C33.5662,101.8982 34.1762,101.1282 34.1912,100.9582 C34.2022,100.7912 34.2922,100.3502 34.3902,99.9852 L34.3902,99.5542 L34.3982,98.8732 C34.2022,98.3402 33.6142,97.6812 33.4692,97.8272 C33.3122,97.9692 32.6372,97.3592 32.2922,97.2252 C31.9482,97.1002 31.0832,96.9922 30.8692,96.9922 C30.6522,96.9922 29.8972,96.3722 29.5582,96.2682 C29.2292,96.1692 28.3652,95.9992 28.2052,95.8972 C28.0532,95.7992 27.8382,94.5152 27.1452,94.0972 C26.4552,93.6792 25.2362,92.7012 25.0982,92.3432 C24.9672,91.9872 23.6352,91.2312 23.2212,91.0082 C22.8142,90.7792 22.1902,90.7282 22.1212,90.8102 C22.0342,90.8892 21.5182,90.1182 21.2572,89.8942 C20.9922,89.6772 20.1972,89.4962 20.1542,89.6932 C20.1212,89.8942 19.5942,89.7892 19.4642,89.6172 C19.3482,89.4542 18.9332,89.6882 18.7412,89.7502 C18.5492,89.8122 17.8852,90.8212 17.5842,91.0682 C17.2752,91.3082 16.9122,90.8442 16.7132,90.7542 C16.5132,90.6712 15.7502,90.9052 15.5402,91.0522 C15.3332,91.2012 14.8462,89.9812 14.9632,89.4222 C15.0752,88.8602 14.4582,87.7432 13.9862,87.7162 C13.5072,87.6902 13.3622,86.5202 13.4562,86.0832 C13.5512,85.6542 12.5992,85.3832 12.3682,85.3592 C12.1242,85.3212 11.5322,85.9302 11.4312,86.2212 C11.3252,86.5132 9.1732,85.8232 9.4272,84.5312 C9.6812,83.2402 10.7052,81.9082 10.9592,81.7402 C11.2092,81.5892 12.5992,81.5062 12.9012,81.6822 C13.2062,81.8612 13.4892,81.6822 13.5402,81.6012 C13.5872,81.5232 14.7162,81.6152 15.0572,81.7522 C15.3982,81.8882 15.8782,83.1972 16.2252,83.3612 C16.5822,83.5172 16.7052,82.5092 16.7602,82.2692 C16.8182,82.0242 16.5932,81.4032 16.5092,81.2272 C16.4222,81.0532 17.0682,79.4722 17.5982,79.2082 C18.1212,78.9322 18.6832,78.0492 18.6392,77.8962 C18.5892,77.7392 19.0572,77.6202 19.1842,77.5522 C19.3152,77.4892 19.1632,76.2102 19.3772,75.9282 C19.5872,75.6532 20.5752,75.0672 20.8942,74.9362 C21.2032,74.8032 21.4392,73.9932 21.3302,73.8512 C21.2142,73.7082 22.1352,72.9232 22.6152,72.7672 C23.0972,72.6222 23.5082,73.0412 23.3912,73.1102 C23.4862,73.0622 24.1502,72.7132 24.4332,72.5302 C24.7642,72.3112 24.4332,71.7152 24.2232,71.5382 C24.0152,71.3662 24.1422,70.6682 24.3972,70.6062 C24.6512,70.5442 24.8692,69.9392 24.8072,69.8102 C24.7392,69.6792 25.8642,69.9152 26.2962,69.5982 C26.7172,69.2812 26.4192,70.3592 26.1072,70.7992 C25.7912,71.2262 26.3362,71.6422 26.5392,71.5582 C26.7352,71.4752 26.9522,71.7932 26.9932,71.9132 C27.0322,72.0362 27.4652,71.7882 27.7472,71.9082 C28.0312,72.0362 28.1982,71.5212 28.2232,71.2882 C28.2452,71.0482 27.5412,70.5602 27.4352,70.2742 C27.3232,69.9892 27.2792,68.3442 27.2642,68.0032 C27.2502,67.6642 26.7972,67.1152 26.6442,67.2172 C26.5032,67.3082 26.2052,66.3382 25.9732,66.1282 C25.7332,65.9142 25.6782,65.4492 25.6892,65.2892 C25.7002,65.1302 24.8912,64.2892 24.6982,63.8942 C24.5022,63.5072 24.2302,63.5862 24.2162,63.7602 C24.1942,63.9452 23.6352,63.9692 23.3992,63.9452 C23.1702,63.9242 22.9782,63.0312 22.9782,62.6942 C22.9782,62.3572 21.9322,62.2982 21.7622,62.0242 C21.5952,61.7552 20.9122,61.8812 20.8002,61.6982 C20.6952,61.5092 20.0922,61.3362 19.9752,61.4072 C19.8522,61.4732 19.9112,63.8942 19.8022,64.5492 C19.6812,65.2022 19.1302,65.7782 18.9232,65.7612 C18.7232,65.7472 18.8472,66.2302 18.9812,66.1862 C19.1262,66.1402 18.5892,66.9002 18.5162,67.3982 C18.4482,67.8902 17.9432,67.3732 17.8672,66.9212 C17.7842,66.4732 17.2902,65.8612 17.2022,66.0162 C17.1042,66.1712 16.7642,65.8322 16.6152,65.9292 C16.4692,66.0292 15.5402,65.3872 15.1622,65.1782 C14.7882,64.9852 14.5752,63.8302 14.3642,63.7232 C14.1422,63.6282 14.3312,63.4852 14.3242,63.3122 C14.3172,63.1382 15.0502,62.4692 15.2712,62.2022 C15.4892,61.9392 16.3022,60.8852 16.6152,60.6612 C16.9372,60.4372 17.1842,59.8372 17.1302,59.7252 C17.0722,59.6192 18.4952,59.1712 18.8832,59.0382 C19.2672,58.9072 19.6062,57.8292 19.6532,57.5212 C19.7032,57.2172 19.4092,56.6262 19.2392,56.5522 C19.0572,56.4812 19.7732,56.4482 20.0092,56.5732 C20.2522,56.6842 20.9812,56.3502 21.2752,56.5072 C21.5622,56.6582 22.1472,57.0042 22.5682,57.2742 L22.4772,58.0642 L22.3032,59.3982 C21.1842,59.8612 20.8652,60.6672 21.2542,60.6552 C21.6492,60.6342 23.4392,61.4282 23.9432,61.7882 C24.4482,62.1512 24.6082,61.2672 24.7532,60.9662 C24.9052,60.6762 24.8582,59.8162 24.7392,59.6502 C24.6152,59.4782 25.3232,59.5362 25.5192,59.7262 C25.7222,59.9192 25.9512,59.5322 26.1072,59.4622 C26.2592,59.3922 26.3362,58.6602 26.4192,58.5132 C26.4992,58.3672 26.0782,58.2132 26.0712,58.0312 C26.0532,57.8432 25.2502,57.4932 24.9932,57.3702 C24.7232,57.2432 24.6622,56.6902 24.7932,56.5942 C24.9242,56.4982 24.7062,55.7942 24.5782,55.5552 C24.4522,55.3262 23.6092,55.1332 23.3302,55.1332 C23.0512,55.1332 22.7602,54.4832 22.6042,54.3882 C22.4372,54.2982 21.3592,54.1762 21.0902,54.2572 C20.8252,54.3352 20.3392,53.4922 19.8892,53.7472 C19.4392,54.0052 18.9712,53.4472 18.7712,53.3362 C18.5642,53.2212 17.5112,54.3602 17.5182,55.1532 C17.5292,55.9482 17.9252,56.7172 18.0962,56.7392 C18.2622,56.7652 18.0592,57.4812 17.8742,57.6902 C17.6932,57.8912 17.2432,57.4682 17.4172,57.2872 C17.5802,57.1102 16.9562,56.2802 16.7412,55.9392 C16.5892,55.6922 16.0372,55.4822 15.6672,55.3272 C15.4492,55.5602 15.2432,55.8022 15.0282,56.0462 C15.1082,56.3352 15.2062,56.7122 15.1122,56.9952 C14.9552,57.4812 14.5452,57.5552 14.5242,57.3492 C14.5122,57.2552 14.3092,57.1792 14.0662,57.1492 C8.1672,64.2242 4.2402,72.9992 3.1152,82.6122 C3.3502,82.8772 3.6192,83.1972 3.6842,83.4252 C3.8232,83.8492 4.5632,84.1292 4.7082,84.2232 C4.8392,84.3012 4.8932,83.4012 4.7952,83.1682 C4.6972,82.9292 4.9732,82.7862 4.9692,82.9662 C4.9662,83.1382 5.6632,83.9352 5.8992,84.2232 C6.1272,84.5092 6.3712,86.3622 6.5962,86.7652 C6.8132,87.1642 8.9632,87.9912 9.6522,88.1342 C10.3382,88.2782 11.2092,89.0512 11.3482,89.2752 C11.4782,89.4962 12.4002,89.6102 12.5962,89.7012 C12.7922,89.7912 13.2602,90.4122 13.4562,90.5402 C13.6522,90.6732 13.8052,91.0412 13.8052,91.1362 C13.8052,91.2382 15.0172,91.6952 15.3152,92.0212 C15.6052,92.3422 16.0922,92.2552 16.1822,92.1182 C16.2732,91.9872 16.5132,92.7642 16.6392,93.0292 C16.7602,93.3032 16.7892,93.9612 16.6942,94.0682 C16.5992,94.1732 16.4262,95.3922 16.2252,95.6312 C16.0152,95.8762 15.5912,97.6492 15.6782,97.9962 C15.7722,98.3522 16.3422,99.0722 16.5892,99.1822 C16.8282,99.2822 16.7272,99.6622 16.5382,99.6882 C16.3422,99.7172 16.4322,101.4032 16.8902,101.6562 C17.3442,101.9052 17.7252,102.6542 17.6602,102.7812" id="Fill-18" fill="#CDD5D7" mask="url(#mask-2)"></path>
                            <path d="M23.3882,73.1143 L23.3912,73.1103 C23.3772,73.1223 23.3732,73.1233 23.3882,73.1143" id="Fill-19" fill="#CDD5D7" mask="url(#mask-2)"></path>
                            <path d="M20.063,52.5713 C20.648,52.4723 21.613,52.3083 21.678,52.1483 C21.73,52.0133 21.733,51.6133 21.627,51.4733 C21.715,51.4753 21.827,51.4863 21.911,51.4863 C22.125,51.4863 22.499,50.2683 22.735,49.9853 C22.963,49.7003 24.299,49.2813 24.615,49.0893 C24.931,48.8993 25.628,48.2303 25.896,48.1553 C26.165,48.0743 26.55,47.4483 26.492,47.3233 C26.434,47.1973 27.392,46.6153 27.762,46.4633 C28.126,46.3043 28.318,45.8773 28.176,45.8613 C28.089,45.8513 26.053,46.9133 24.194,47.9713 C22.064,49.4143 20.07,51.0293 18.197,52.7853 C18.782,52.7423 19.682,52.6333 20.063,52.5713" id="Fill-20" fill="#CDD5D7" mask="url(#mask-2)"></path>
                            <path d="M55.292,113.1968 C55.913,112.8258 56.973,111.2558 57.321,110.9308 C57.666,110.6048 57.92,109.4178 57.997,109.1578 C58.065,108.8998 58.595,108.4828 58.791,108.4248 C58.995,108.3648 59.615,105.7408 60.174,105.1688 C60.733,104.5938 61.383,101.8188 61.311,100.8198 C61.242,99.8238 61.666,97.9168 61.801,97.4608 C61.935,97.0038 62.632,96.1908 62.846,96.0268 C63.057,95.8518 64.396,93.8718 64.828,93.1628 C65.26,92.4518 65.666,90.8898 65.586,90.5298 C65.503,90.1608 64.57,89.9058 64.396,90.0838 C64.226,90.2648 63.347,90.4128 63.071,90.4128 C62.784,90.4128 62.142,88.9118 61.743,88.5998 C61.347,88.2948 60.987,86.5728 60.751,86.2468 C60.526,85.9228 59.88,85.0958 59.684,84.9068 C59.485,84.7178 59.448,83.8098 59.401,83.5558 C59.357,83.3068 59.786,83.7178 59.866,84.0798 C59.938,84.4448 60.969,85.9118 61.289,86.4058 C61.612,86.8998 62.45,88.4738 62.661,88.9628 C62.886,89.4568 64.752,89.2078 65.358,88.9208 C65.964,88.6358 66.727,88.1468 66.752,87.9788 C66.785,87.8138 67.747,87.3648 68.019,87.1518 C68.288,86.9338 68.527,85.8098 68.698,85.6308 C68.875,85.4448 68.563,84.3728 68.36,84.0518 C68.157,83.7308 67.184,83.4758 66.992,83.6018 C66.792,83.7308 66.374,82.8828 66.218,82.5718 C66.077,82.2588 65.332,81.8808 65.256,81.6668 C65.173,81.4538 65.452,81.1148 65.568,81.0408 C65.688,80.9678 67.053,81.9288 67.453,82.4148 C67.845,82.8878 68.298,83.7678 68.374,83.9188 C68.44,84.0728 69.521,84.1538 69.765,83.9678 C70.008,83.7958 70.284,83.8418 70.378,84.0728 L70.719,84.0138 L71.91,83.8248 C72.462,84.4378 72.629,84.9608 72.618,85.0838 C72.603,85.1978 72.963,85.6958 73.188,85.7458 C73.42,85.8048 73.587,86.5808 73.656,86.7668 C73.728,86.9628 74.4,88.1258 74.542,88.6138 C74.684,89.1068 75.257,90.0548 75.395,90.3108 C75.537,90.5688 75.649,91.3088 75.649,91.5138 C75.649,91.7088 76.084,92.1108 76.35,92.0938 C76.618,92.0728 77.166,90.3698 77.293,89.7418 C77.417,89.1078 77.859,88.5828 77.976,88.5828 C78.106,88.5828 78.201,88.2318 78.201,88.0978 C78.201,87.9648 78.887,87.9778 78.949,87.8058 C79.007,87.6358 79.21,86.5068 79.453,86.3418 C79.704,86.1698 80.575,85.5978 80.883,85.4918 C81.185,85.3838 81.961,86.0568 82.139,86.3738 C82.31,86.6848 82.47,87.4848 82.404,87.6128 C82.336,87.7438 82.814,88.4348 83.232,88.4258 C83.646,88.4098 83.776,88.9518 83.788,89.1458 C83.802,89.3398 84.35,89.8948 84.462,90.1458 C84.571,90.3918 84.539,91.0728 84.462,91.2238 C84.39,91.3788 84.441,92.2718 84.524,92.5218 C84.597,92.7668 85.871,94.0638 86.354,94.4588 C86.833,94.8488 87.058,93.6528 86.815,93.2808 C86.572,92.9078 85.733,92.0488 85.54,91.7948 C85.345,91.5308 85.308,90.4938 85.385,90.2068 C85.457,89.9188 86.118,90.3668 86.386,90.5778 C86.659,90.7868 87.015,91.2548 87.025,91.4068 C87.036,91.5678 88.746,90.6048 88.804,89.5668 C88.869,88.5238 89.439,87.3508 89.49,87.0778 C89.552,86.7988 89.323,86.4268 89.178,86.4148 C89.033,86.3988 89.436,85.6178 89.922,85.6308 C90.394,85.6488 91.548,84.3548 91.828,83.8458 C92.1,83.3358 92.648,82.9198 92.713,82.8548 C92.779,82.7898 93.16,81.5818 93.229,81.0828 C93.294,80.5888 92.949,79.8038 92.906,79.5448 C92.866,79.2888 92.449,78.6928 92.339,78.5048 C92.238,78.3178 92.133,77.6208 92.202,77.4898 C92.263,77.3578 92.695,77.2178 92.75,77.1028 C92.79,76.9828 93.29,76.4588 93.247,76.2208 C93.211,75.9888 93.556,76.5228 93.788,76.7168 C94.009,76.9088 94.256,78.1558 94.536,78.2868 C94.815,78.4268 95.952,76.9728 95.817,76.0338 C95.679,75.0938 96.144,73.8968 96.42,73.7898 C96.627,73.7058 97.157,72.9458 97.519,72.4058 C95.026,65.1878 90.877,58.7308 85.526,53.5008 C85.461,53.5038 85.396,53.5038 85.341,53.4918 L84.92,53.4028 C84.223,53.2548 83.816,52.5048 83.94,52.3328 C83.976,52.2768 83.969,52.1538 83.936,52.0078 C83.544,51.6568 83.141,51.3088 82.742,50.9708 C82.408,50.9608 82.06,50.9708 81.856,50.9628 C81.435,50.9468 80.531,50.6468 80.372,50.4868 C80.205,50.3248 79.656,50.6318 79.627,50.9338 C79.591,51.2348 78.636,51.3718 78.549,51.6038 C78.451,51.8388 77.965,51.8508 77.871,51.7198 C77.769,51.5878 76.891,52.0328 76.451,52.1018 C76.008,52.1578 75.184,52.5168 74.988,52.6028 C74.796,52.6938 74.328,53.1458 74.255,53.3358 C74.179,53.5268 73.616,53.8418 73.435,53.9158 C73.249,53.9828 73.29,54.8038 73.518,54.9238 C73.75,55.0388 73.086,54.8258 72.796,54.6718 C72.495,54.5248 72.168,55.0198 72.077,55.1948 C71.983,55.3668 71.714,55.0918 71.725,54.8478 C71.736,54.6018 70.995,54.4048 70.897,54.6018 C70.799,54.7958 70.284,54.5318 70.081,54.4258 C69.866,54.3148 68.948,55.2688 68.603,55.6098 C68.266,55.9548 66.639,56.2178 66.338,56.0888 C66.037,55.9648 65.735,56.8148 65.997,56.8648 C66.254,56.9168 65.332,56.8228 64.828,56.8738 C64.32,56.9218 62.853,57.5098 62.505,57.7688 C62.156,58.0328 61.873,57.7108 61.873,57.5138 C61.873,57.3118 61.311,57.1258 61.144,57.0688 C60.98,57.0108 60.657,58.1678 60.363,58.3858 C60.069,58.6128 59.724,57.4888 59.038,57.3008 C58.352,57.1148 57.281,56.4568 56.973,56.3788 C56.671,56.2968 56.062,55.6558 55.887,55.4738 C55.717,55.2898 54.838,55.1328 54.555,55.1328 C54.279,55.1328 53.372,55.6538 53.128,55.8608 C52.885,56.0668 52.515,56.0248 52.392,56.0998 C52.272,56.1698 51.252,57.1788 50.849,57.4908 C50.453,57.8058 49.756,59.1618 49.535,59.4838 C49.303,59.8058 48.972,59.8608 48.842,59.8758 C48.711,59.8808 48.598,60.2398 48.598,60.3758 C48.598,60.5078 47.426,61.1228 47.299,61.6548 C47.175,62.1898 47.418,63.4148 47.418,63.8478 C47.418,64.2818 47.851,65.1468 48.181,65.1618 C48.5,65.1728 48.333,65.8998 48.253,66.0978 C48.163,66.3008 48.46,66.5278 48.442,66.6978 C48.442,66.8698 47.618,67.1148 47.364,67.2108 C47.11,67.3038 46.707,67.8728 46.649,68.0898 C46.609,68.2698 45.818,68.4008 45.557,68.6558 C45.625,68.4758 45.709,68.2228 45.778,68.0898 C45.934,67.7988 45.724,67.3038 45.603,67.2008 C45.477,67.0998 45.418,65.6798 45.219,65.3798 C45.023,65.0718 44.529,64.5598 44.402,64.4588 C44.279,64.3598 44.489,63.9898 44.562,63.8298 C44.627,63.6748 43.897,63.5828 43.698,63.6978 C43.498,63.8088 43.393,65.2158 43.306,65.5978 C43.222,65.9798 43.669,66.5678 43.792,66.5958 C43.912,66.6258 43.876,67.3148 43.625,67.3408 C43.364,67.3638 43.132,68.3738 43.259,68.6028 C43.393,68.8358 43.074,69.2828 42.925,69.3888 C42.772,69.4908 43.912,69.4318 44.431,69.4218 C44.95,69.4048 45.353,69.6398 45.299,69.6788 C45.248,69.7258 44.304,69.8618 44.137,70.0868 C43.974,70.3078 43.331,70.7368 43.211,70.9088 C43.084,71.0788 43.418,71.4568 43.69,71.4368 C43.956,71.4208 44.271,72.3698 44.478,72.5508 C44.689,72.7228 44.613,73.2148 44.522,73.3538 C44.428,73.4828 43.153,73.2578 42.678,73.3808 C42.191,73.5008 41.585,74.5188 41.545,74.9028 C41.502,75.2918 41.622,76.3928 41.687,76.7008 C41.745,77.0038 42.754,77.1928 42.957,77.3448 C43.168,77.4928 44.13,77.3498 44.333,77.4438 C44.529,77.5378 45.179,76.4608 45.313,75.9678 C45.433,75.4658 46.468,74.5498 46.686,74.2088 C46.899,73.8748 48.007,73.9118 48.271,73.7388 C48.551,73.5588 48.399,74.5788 48.526,75.1368 C48.656,75.6958 49.72,75.6228 49.564,75.0988 C49.408,74.5788 49.669,74.3458 49.713,74.5408 C49.764,74.7238 50.78,75.1448 50.972,75.4368 C51.165,75.7348 51.106,76.3628 50.882,76.3538 C50.653,76.3468 50.649,77.0408 50.896,77.1188 C51.128,77.1888 51.448,76.3338 51.702,76.2058 C51.963,76.0758 52.174,75.5448 52.05,75.5058 C51.938,75.4628 52.268,74.9848 52.417,75.1408 C52.559,75.3018 51.869,74.0998 51.437,73.6648 C51.001,73.2238 51.306,73.4168 52.12,74.0968 L52.678,74.8788 C52.784,75.0178 52.936,75.4478 53.027,75.6068 L53.158,75.8368 C53.27,76.1118 53.372,76.8658 53.372,77.0658 C53.372,77.2748 53.804,77.6698 54.072,77.6538 C54.333,77.6308 54.54,77.7788 54.49,77.7888 C54.432,77.8008 54.664,78.3218 54.929,78.3318 C55.19,78.3428 55.307,77.6618 55.041,77.6398 C54.773,77.6288 54.816,76.6388 54.78,76.2108 C54.748,75.7788 54.973,75.4248 55.063,75.4248 C55.158,75.4248 55.056,76.3088 55.06,76.5178 C55.063,76.7168 55.176,77.1198 55.303,77.4058 L55.575,77.6158 L56.188,78.0858 C57.078,77.8258 58.254,78.0288 58.21,78.2058 C58.167,78.3898 58.864,78.4348 58.904,78.1428 C58.947,77.8498 58.98,78.1508 58.98,78.3518 C58.98,78.5468 58.399,79.3398 58.305,79.7008 C58.207,80.0618 56.174,79.8208 55.299,79.7508 C54.417,79.6838 53.128,79.9848 53.027,80.2458 C52.936,80.5068 51.564,79.6438 50.936,79.3758 C50.308,79.1138 49.822,78.1558 49.691,78.0358 C49.561,77.9078 49.8,77.6008 49.734,77.4088 C49.676,77.2178 48.246,77.1818 47.832,77.3378 C47.415,77.4898 45.269,77.7158 44.765,77.9428 C44.257,78.1668 43.487,77.9248 43.248,77.8808 C43.012,77.8428 42.442,78.5458 42.159,78.6658 C41.861,78.7968 41.505,79.7868 41.342,80.8788 L40.95,81.6358 L40.703,82.1278 C39.999,82.6618 39.211,84.4598 38.975,84.8238 C38.75,85.1818 38.562,87.7698 38.562,88.6438 C38.562,89.5158 39.324,91.3618 39.541,91.8648 C39.752,92.3748 41.066,93.5028 41.509,93.7728 C41.941,94.0338 43.371,94.0758 43.843,94.0678 C44.304,94.0678 44.841,93.6238 45.023,93.0858 L45.705,93.1558 L46.025,93.1858 C46.039,93.5678 47.052,93.8778 47.299,94.0118 C47.549,94.1428 48.213,94.0428 48.413,93.9868 C48.613,93.9248 48.838,95.7148 48.693,96.2348 C48.544,96.7488 49.041,98.5658 49.187,99.1098 C49.335,99.6558 49.952,101.1488 50.018,101.6828 C50.076,102.2248 49.655,104.0018 49.582,104.6258 C49.509,105.2548 50.359,106.9988 50.584,107.5998 C50.805,108.1978 50.991,109.4888 50.991,109.7878 C50.991,110.0878 51.913,111.8898 52.13,112.6348 C52.337,113.3818 54.664,113.5588 55.292,113.1968" id="Fill-21" fill="#CDD5D7" mask="url(#mask-2)"></path>
                            <path d="M95.4434,91.0825 C95.5124,91.2125 96.0894,90.7495 96.4414,90.6975 C96.7934,90.6395 97.0074,89.7015 96.7394,89.6335 C96.4634,89.5555 96.1144,88.8335 95.9154,88.7465 C95.7194,88.6605 95.3304,89.0605 95.3484,89.3395 C95.3634,89.6335 94.7134,89.7465 94.5864,89.9805 C94.4704,90.2195 94.4704,90.3915 94.6084,90.3675 C94.7384,90.3465 95.3854,90.9495 95.4434,91.0825" id="Fill-22" fill="#CDD5D7" mask="url(#mask-2)"></path>
                            <path d="M94.7319,96.1987 C94.9059,96.1317 94.7069,95.2027 94.3469,95.1287 C93.9769,95.0487 92.9679,96.3487 93.1599,97.0997 C93.3529,97.8467 93.5589,97.8027 93.6719,97.6417 C93.7739,97.4847 94.3759,97.7437 94.5499,97.8027 C94.7319,97.8667 94.7319,97.6817 94.5499,97.4077 C94.3759,97.1277 94.5499,96.2617 94.7319,96.1987" id="Fill-23" fill="#CDD5D7" mask="url(#mask-2)"></path>
                            <path d="M92.7354,95.2866 C92.7754,94.9576 92.8444,93.9156 92.8954,93.7146 C92.9494,93.5026 92.3324,92.9086 92.0274,92.8036 C91.7184,92.6946 90.7384,94.8286 90.0344,95.2026 C89.3234,95.5816 89.0724,96.8756 89.2574,97.1796 C89.4464,97.4806 90.9134,97.6366 91.1674,97.8666 C91.4314,98.0926 91.7154,97.8276 91.8674,97.7886 C92.0274,97.7526 91.9764,97.6536 91.9184,97.6166 C91.8494,97.5786 92.4304,96.9706 92.5134,96.5886 C92.5934,96.2066 92.6954,95.6216 92.7354,95.2866" id="Fill-24" fill="#CDD5D7" mask="url(#mask-2)"></path>
                            <path d="M88.7349,98.8359 C88.1829,98.6259 87.5299,98.9519 87.4829,99.1669 C87.4249,99.3769 89.6069,99.7269 90.3289,99.9259 C91.0509,100.1169 91.5049,100.1829 91.3379,100.0629 C91.1669,99.9379 89.2829,99.0479 88.7349,98.8359" id="Fill-25" fill="#CDD5D7" mask="url(#mask-2)"></path>
                            <path d="M93.1563,84.6685 C93.3303,84.4215 92.9093,83.2795 92.7023,83.5405 C92.4923,83.7955 92.6443,84.4595 92.7103,84.6965 C92.7753,84.9275 92.9783,84.9085 93.1563,84.6685" id="Fill-26" fill="#CDD5D7" mask="url(#mask-2)"></path>
                            <path d="M94.4702,87.1094 C94.5982,86.8184 94.3102,86.4924 93.8392,86.3954 C93.3702,86.2964 93.4362,87.7114 93.6422,87.8964 C93.8492,88.0714 94.3402,87.4074 94.4702,87.1094" id="Fill-27" fill="#CDD5D7" mask="url(#mask-2)"></path>
                            <path d="M96.9204,95.8975 C97.4834,96.2895 98.7424,96.1075 98.7824,95.3445 C98.2274,94.9805 96.8694,95.0425 96.9204,95.8975" id="Fill-28" fill="#CDD5D7" mask="url(#mask-2)"></path>
                            <path d="M96.6157,78.5156 C96.3797,78.6766 96.2597,79.0926 96.3327,79.2656 C96.2967,79.2656 96.2637,79.2566 96.2307,79.2566 C96.0457,79.2566 96.0237,80.0036 96.2237,80.1316 C96.4197,80.2606 96.8917,79.5516 97.1457,79.3816 C97.3927,79.2156 97.8897,79.1116 97.9657,79.1646 C98.0427,79.2176 98.4737,79.0856 98.9427,78.8746 C99.0227,78.8376 99.1167,78.7146 99.2107,78.5456 C99.1017,77.9996 98.9747,77.4676 98.8407,76.9296 C98.6087,77.1026 98.3467,77.2906 98.2197,77.3986 C97.9697,77.6236 96.9247,78.3036 96.6157,78.5156" id="Fill-29" fill="#CDD5D7" mask="url(#mask-2)"></path>
                            <path d="M83.7402,93.4653 C83.7432,93.4673 83.7512,93.4673 83.7512,93.4673 C83.6462,93.4003 83.6382,93.3893 83.7402,93.4653" id="Fill-30" fill="#CDD5D7" mask="url(#mask-2)"></path>
                            <path d="M87.2539,96.7407 C87.0509,96.2737 86.3679,95.4987 85.7509,94.9997 L85.5119,94.6147 L85.2569,94.1887 C85.0289,93.7227 84.3319,93.3607 84.2699,93.2207 C84.2049,93.0857 83.9869,93.6247 83.7509,93.4677 C83.8749,93.5577 84.1359,93.7437 84.5029,94.0007 C85.1559,94.4707 86.4189,97.6417 86.7019,97.8687 C86.9889,98.0927 87.4539,97.1977 87.2539,96.7407" id="Fill-31" fill="#CDD5D7" mask="url(#mask-2)"></path>
                            <path d="M77.1919,91.6103 C77.0179,91.9653 78.1249,92.7313 78.2149,92.5563 C78.3059,92.3803 78.0659,91.5013 77.8739,91.3083 C77.6779,91.1153 77.3729,91.2553 77.1919,91.6103" id="Fill-32" fill="#CDD5D7" mask="url(#mask-2)"></path>
                            <path d="M62.4795,108.5581 C62.5225,108.9321 63.2815,109.2321 63.5065,109.1741 C63.7315,109.1091 64.3525,107.9701 64.4395,107.6431 C64.5235,107.3081 64.5925,106.6081 64.5925,106.4361 C64.5925,106.2701 64.6935,105.8941 64.7845,105.8481 C64.8645,105.8041 65.0025,105.4161 65.0965,104.9891 C65.1765,104.5531 64.6245,102.5531 64.6175,102.2041 C64.6025,101.8491 64.2065,102.3861 64.1055,102.7401 C63.9935,103.0941 63.0055,103.8201 62.7845,104.1251 C62.5625,104.4231 62.3195,105.4461 62.4065,105.6251 C62.4825,105.7951 62.3195,106.4941 62.2185,106.6911 C62.1165,106.8801 62.4395,108.1761 62.4795,108.5581" id="Fill-33" fill="#CDD5D7" mask="url(#mask-2)"></path>
                            <path d="M44.4204,47.0327 C44.1334,47.0707 43.4034,46.9257 43.2844,46.7897 C43.1534,46.6557 42.0714,46.5387 41.7524,46.6717 C41.4404,46.8067 41.6574,45.9057 42.0934,45.8077 C42.5284,45.7117 42.1584,45.0927 41.6974,45.0917 C41.2294,45.0877 40.0824,44.9227 39.8104,44.9807 C39.5414,45.0377 39.0144,44.7907 38.8194,44.7627 C38.6274,44.7377 37.2434,45.1747 36.5944,45.1417 C35.9444,45.1147 34.3434,45.1797 33.9954,45.2807 C33.6464,45.3677 33.3924,46.0497 33.4434,46.2887 C33.4904,46.5317 31.8924,46.5267 31.3964,46.5337 C30.8844,46.5387 28.1974,47.1107 27.4974,47.4997 C26.7974,47.8807 26.2484,48.8667 26.4814,48.8857 C26.7164,48.9027 26.0924,49.4657 25.7114,49.5957 C25.3374,49.7217 24.4334,49.7837 24.2234,49.9977 C24.0154,50.2037 24.4514,50.3507 24.5394,50.4927 C24.6184,50.6347 24.8694,50.3667 25.1094,50.5087 C25.3414,50.6397 26.1254,50.7007 26.3364,50.7817 C26.5494,50.8647 25.6684,51.0327 25.2574,51.0577 C24.8474,51.0907 24.9414,51.8947 25.2754,52.0077 C25.6134,52.1187 26.4704,52.2387 26.5604,52.1017 C26.6444,51.9587 27.5804,52.2467 28.0054,52.3017 C28.4194,52.3447 28.7424,53.4017 28.8734,53.6257 C29.0044,53.8547 29.0294,54.6617 29.0044,54.8917 C28.9674,55.1247 29.7444,55.5487 29.8854,55.3997 C30.0204,55.2517 29.9844,55.7667 29.6724,55.7397 C29.3594,55.7127 29.5584,56.6017 29.9434,56.7327 C30.3284,56.8577 30.0634,57.4107 29.8454,57.5747 C29.6284,57.7397 29.7514,58.2697 29.5234,58.4577 C29.2944,58.6417 30.3184,60.4237 30.3064,61.3367 C30.3064,62.2507 30.8804,62.9917 31.0984,62.9917 C31.3124,62.9917 32.0674,63.1797 32.1614,63.3767 C32.2664,63.5667 32.6304,63.2337 32.7674,63.0817 C32.9094,62.9377 33.2184,62.4977 33.4434,62.1147 C33.6754,61.7237 34.1944,59.8917 34.2634,59.6937 C34.3324,59.4997 35.1964,59.6227 35.3924,59.5247 C35.5814,59.4227 36.1394,58.9767 36.3064,58.8497 C36.4664,58.7147 37.6944,58.1937 38.0314,57.9497 C38.3654,57.7107 38.9214,56.6747 39.1814,56.4487 C39.4404,56.2277 39.0484,56.2897 38.7214,56.0817 C38.3984,55.8637 38.5364,55.5997 38.6304,55.5037 C38.7284,55.3997 39.7154,55.6677 40.0604,55.7987 C40.4024,55.9337 41.0514,55.4617 40.8044,55.2807 C40.5504,55.1037 40.6854,55.1037 40.8044,55.1817 C40.9284,55.2567 41.0514,54.5777 40.9244,54.4537 C40.7904,54.3207 41.9194,53.5007 41.7194,52.7187 C41.5234,51.9347 42.0314,51.1367 42.3334,51.1307 C42.6414,51.1157 42.5474,50.2477 42.1834,50.1657 C41.8214,50.0837 42.1624,50.0027 42.3004,49.8787 C42.4344,49.7587 42.6054,48.9787 42.5284,48.8247 C42.4494,48.6767 43.0844,48.5107 43.1934,48.3317 C43.3094,48.1557 44.0394,47.8057 44.2974,47.7467 C44.5544,47.6907 44.6994,46.9997 44.4204,47.0327" id="Fill-34" fill="#CDD5D7" mask="url(#mask-2)"></path>
                            <path d="M50.7617,47.6753 C50.4137,47.5593 49.7127,47.9403 49.7997,48.1563 C49.8907,48.3763 49.2227,47.8763 48.7647,48.1183 C48.2967,48.3573 48.1737,49.1713 48.3847,49.2783 C48.5987,49.3833 48.7467,50.0303 48.7587,50.1493 C48.7647,50.2783 49.6547,50.1913 49.8837,49.9983 C50.1127,49.8123 50.0867,50.6593 49.8617,50.8853 C49.6327,51.1093 49.9417,51.5653 50.1887,51.6043 C50.4387,51.6373 50.7727,52.2253 51.0307,52.2183 C51.2917,52.2133 51.7237,51.2313 51.8247,50.8623 C51.9237,50.4923 52.7767,50.7823 53.1687,50.9003 C53.5607,51.0183 53.7027,49.5463 53.2777,49.3233 C52.8597,49.1013 52.3297,49.2113 52.1527,49.0473 C51.9777,48.8753 51.6767,48.7153 51.4767,48.6903 C51.2917,48.6653 51.1027,47.7853 50.7617,47.6753" id="Fill-35" fill="#CDD5D7" mask="url(#mask-2)"></path>
                            <path d="M54.167,48.376 C54.849,48.476 55.623,47.908 55.79,47.747 C55.96,47.592 53.884,47.169 53.096,47.144 C52.305,47.119 51.677,47.226 51.68,47.382 C51.695,47.538 53.477,48.279 54.167,48.376" id="Fill-36" fill="#CDD5D7" mask="url(#mask-2)"></path>
                            <path d="M41.6216,66.9668 C41.4436,66.8888 41.3426,67.5708 41.3856,67.8268 C41.4296,68.0898 42.0536,68.0628 42.3296,68.0138 C42.6016,67.9738 42.8116,67.7568 42.8016,67.5298 C42.7866,67.3078 42.4016,66.2948 42.2466,66.2948 C42.0936,66.2948 41.8066,67.0398 41.6216,66.9668" id="Fill-37" fill="#CDD5D7" mask="url(#mask-2)"></path>
                            <path d="M43.6616,59.0596 C43.5196,58.8126 42.4416,58.8416 42.1766,58.8216 C41.9196,58.8126 41.1056,58.5416 40.9536,58.3696 C40.8046,58.2006 40.6886,59.0276 40.4416,59.1416 C40.1916,59.2476 40.5616,59.4136 40.6626,59.3236 C40.7616,59.2366 40.6596,59.7506 40.5466,59.9306 C40.4376,60.1066 41.2586,60.2306 41.3606,60.4996 C41.4516,60.7726 41.7886,60.9446 42.1156,60.8896 C42.4416,60.8416 43.0956,60.4996 43.3246,60.4776 C43.5526,60.4566 43.8036,59.3106 43.6616,59.0596" id="Fill-38" fill="#CDD5D7" mask="url(#mask-2)"></path>
                            <path d="M66.2983,52.8848 C66.6613,52.5138 68.1933,52.0128 68.3633,51.6288 C68.5413,51.2468 68.2583,50.9338 68.1023,50.9338 C67.9493,50.9338 67.7613,51.1198 67.7243,51.1858 C67.6883,51.2468 65.9423,51.6628 65.4013,51.9208 C64.8643,52.1768 64.2433,52.5758 64.0143,52.8048 C63.7903,53.0358 63.4163,54.7668 63.2923,54.9608 C63.1613,55.1588 63.8733,55.8638 64.1853,56.0588 C64.5053,56.2558 64.9373,56.1518 65.0533,56.1168 C65.1803,56.0818 64.8973,54.8648 64.7333,54.4458 C64.5663,54.0228 65.9313,53.2588 66.2983,52.8848" id="Fill-39" fill="#CDD5D7" mask="url(#mask-2)"></path>
                            <path d="M64.4253,48.3686 C65.0023,48.9406 65.3143,48.1186 65.9533,48.1966 C65.9423,47.0326 64.3703,47.4356 64.4253,48.3686" id="Fill-40" fill="#CDD5D7" mask="url(#mask-2)"></path>
                            <path d="M75.6128,48.5845 C75.5978,48.7965 77.2098,48.9695 77.6778,48.8855 C78.1468,48.8055 77.5798,48.0745 76.8938,48.1185 C76.2078,48.1635 75.6338,48.3735 75.6128,48.5845" id="Fill-41" fill="#CDD5D7" mask="url(#mask-2)"></path>
                            <path d="M17.3408,60.5234 C17.1698,60.6794 17.3188,61.4654 17.6378,61.4894 C17.9618,61.5104 18.4728,60.3054 18.8728,60.5404 C19.2608,60.7864 19.5328,60.8804 19.4648,60.7504 C19.4018,60.6244 18.2738,60.1324 18.1358,60.0394 C17.9978,59.9574 17.5108,60.3674 17.3408,60.5234" id="Fill-42" fill="#CDD5D7" mask="url(#mask-2)"></path>
                            <path d="M21.457,87.248 C21.457,87.378 22.154,87.362 22.27,87.142 C22.379,86.925 22.321,86.753 22.132,86.753 C21.947,86.753 21.457,87.109 21.457,87.248" id="Fill-43" fill="#CDD5D7" mask="url(#mask-2)"></path>
                            <path d="M18.3315,86.0947 C18.6655,86.0317 18.5095,86.5727 18.5855,86.7667 C18.6655,86.9627 19.4785,87.1187 19.6345,87.2487 C19.8015,87.3787 20.2115,87.0037 20.5355,87.0447 C20.8545,87.0867 20.4265,85.9307 19.8885,85.9637 C19.3485,85.9957 18.9195,85.4737 18.7925,85.4067 C18.6655,85.3507 18.0415,84.9737 17.8595,84.8277 C17.6855,84.6847 16.3065,84.5647 15.8375,84.5647 C15.3775,84.5647 14.8575,85.0387 14.7885,85.1907 C14.7125,85.3507 15.5295,85.4577 15.7615,85.3347 C16.0015,85.2127 17.0865,85.4707 17.3005,85.7347 C17.5295,85.9937 17.9905,86.1567 18.3315,86.0947" id="Fill-44" fill="#CDD5D7" mask="url(#mask-2)"></path>
                            <path d="M16.8613,87.248 C16.8613,87.378 17.5693,87.295 17.7403,87.304 C17.9103,87.308 17.9063,87.193 17.7293,87.045 C17.5473,86.9 16.8613,87.109 16.8613,87.248" id="Fill-45" fill="#CDD5D7" mask="url(#mask-2)"></path>
                            <path d="M17.3623,83.602 C17.1773,83.526 17.0353,83.813 17.0353,83.954 C17.0353,84.088 17.1303,84.2 17.2573,84.2 C17.3803,84.2 17.5473,83.673 17.3623,83.602" id="Fill-46" fill="#CDD5D7" mask="url(#mask-2)"></path>
                            <path d="M18.8545,83.7148 C18.7895,83.5788 18.4835,83.4678 18.3965,83.4678 C18.2985,83.4678 18.2335,83.7028 18.2515,83.9828 C18.2655,84.2748 18.9125,83.8458 18.8545,83.7148" id="Fill-47" fill="#CDD5D7" mask="url(#mask-2)"></path>
                            <path d="M19.9141,85.3623 C20.2011,85.2203 20.2371,84.8803 20.0701,84.8963 C19.9001,84.9153 19.5871,84.4053 19.4021,84.3303 C19.2171,84.2583 19.0651,84.6393 19.0651,84.8033 C19.0651,84.9733 19.1741,85.0843 19.2931,85.0513 C19.4241,85.0203 19.6271,85.4923 19.9141,85.3623" id="Fill-48" fill="#CDD5D7" mask="url(#mask-2)"></path>
                            <path d="M99.0513,96.4858 C98.9063,96.5638 98.1913,96.6508 98.0933,96.5108 C98.0023,96.3708 97.8573,96.7978 97.7043,96.8678 C97.5523,96.9378 97.6353,97.3108 97.8613,97.1978 C98.0243,97.1168 98.7033,97.4898 99.2513,97.8358 C99.3603,97.2938 99.4543,96.7458 99.5483,96.1908 C99.3483,96.2958 99.1413,96.4408 99.0513,96.4858" id="Fill-49" fill="#CDD5D7" mask="url(#mask-2)"></path>
                            <path d="M21.6782,51.5801 C21.6312,51.5311 21.4282,51.6791 21.5182,51.7691 C21.5622,51.8271 21.7612,51.6831 21.6782,51.5801" id="Fill-50" fill="#D1ECFB" mask="url(#mask-2)"></path>
                            <path d="M27.0762,67.6582 C27.0362,67.6002 26.8292,67.7572 26.9062,67.8472 C26.9602,67.9052 27.1632,67.7572 27.0762,67.6582" id="Fill-51" fill="#D1ECFB" mask="url(#mask-2)"></path>
                            <path d="M33.3994,102.0864 C33.5664,101.8984 34.1764,101.1284 34.1914,100.9584 C34.2014,100.7914 34.2924,100.3504 34.3904,99.9844 L34.3904,99.5544 L34.3984,98.8734 C34.2014,98.3394 33.6134,97.6814 33.4684,97.8274 C33.3124,97.9694 32.6374,97.3594 32.2924,97.2254 C31.9474,97.1004 31.0834,96.9924 30.8694,96.9924 C30.6524,96.9924 29.8974,96.3724 29.5584,96.2684 C29.2294,96.1694 28.3644,95.9994 28.2054,95.8974 C28.0524,95.7984 27.8384,94.5154 27.1454,94.0974 C26.4554,93.6794 25.2354,92.7014 25.0984,92.3424 C24.9674,91.9874 23.6354,91.2314 23.2214,91.0074 C22.8144,90.7794 22.1904,90.7284 22.1214,90.8104 C22.0344,90.8894 21.5184,90.1184 21.2574,89.8944 C20.9924,89.6774 20.1974,89.4964 20.1534,89.6934 C20.1214,89.8944 19.5944,89.7894 19.4644,89.6174 C19.3484,89.4544 18.9334,89.6884 18.7414,89.7504 C18.5494,89.8124 17.8854,90.8214 17.5844,91.0684 C17.2754,91.3084 16.9124,90.8444 16.7134,90.7544 C16.5134,90.6714 15.7504,90.9054 15.5404,91.0524 C15.3334,91.2014 14.8464,89.9814 14.9634,89.4224 C15.0754,88.8594 14.4584,87.7434 13.9864,87.7154 C13.5074,87.6904 13.3624,86.5204 13.4564,86.0834 C13.5504,85.6534 12.5994,85.3834 12.3674,85.3594 C12.1244,85.3204 11.5324,85.9304 11.4314,86.2214 C11.3254,86.5134 9.1734,85.8234 9.4274,84.5314 C9.6814,83.2404 10.7054,81.9084 10.9594,81.7404 C11.2094,81.5894 12.5994,81.5064 12.9014,81.6824 C13.2064,81.8604 13.4894,81.6824 13.5404,81.6014 C13.5874,81.5234 14.7164,81.6154 15.0574,81.7524 C15.3984,81.8884 15.8784,83.1964 16.2254,83.3604 C16.5824,83.5174 16.7054,82.5094 16.7594,82.2694 C16.8184,82.0244 16.5924,81.4034 16.5094,81.2274 C16.4224,81.0534 17.0684,79.4724 17.5984,79.2084 C18.1214,78.9324 18.6834,78.0484 18.6394,77.8964 C18.5894,77.7394 19.0574,77.6204 19.1844,77.5524 C19.3154,77.4894 19.1634,76.2104 19.3774,75.9284 C19.5874,75.6534 20.5744,75.0664 20.8944,74.9364 C21.2034,74.8034 21.4394,73.9934 21.3304,73.8514 C21.2134,73.7084 22.1354,72.9234 22.6154,72.7674 C23.0974,72.6224 23.5074,73.0414 23.3914,73.1104 C23.4864,73.0624 24.1504,72.7124 24.4334,72.5294 C24.7644,72.3114 24.4334,71.7144 24.2234,71.5384 C24.0154,71.3664 24.1424,70.6684 24.3974,70.6064 C24.6514,70.5444 24.8694,69.9394 24.8074,69.8104 C24.7384,69.6794 25.8634,69.9154 26.2954,69.5984 C26.7164,69.2814 26.4194,70.3594 26.1074,70.7984 C25.7914,71.2264 26.3364,71.6424 26.5394,71.5584 C26.7344,71.4754 26.9524,71.7934 26.9924,71.9134 C27.0324,72.0364 27.4644,71.7884 27.7474,71.9084 C28.0304,72.0364 28.1974,71.5214 28.2234,71.2884 C28.2454,71.0474 27.5414,70.5604 27.4354,70.2744 C27.3234,69.9884 27.2794,68.3444 27.2644,68.0034 C27.2504,67.6644 26.7974,67.1154 26.6444,67.2174 C26.5034,67.3084 26.2054,66.3384 25.9724,66.1284 C25.7324,65.9144 25.6784,65.4494 25.6894,65.2894 C25.7004,65.1304 24.8914,64.2894 24.6984,63.8944 C24.5024,63.5074 24.2304,63.5864 24.2154,63.7594 C24.1934,63.9444 23.6354,63.9694 23.3984,63.9444 C23.1704,63.9234 22.9784,63.0314 22.9784,62.6944 C22.9784,62.3574 21.9324,62.2974 21.7614,62.0244 C21.5954,61.7554 20.9124,61.8804 20.7994,61.6974 C20.6944,61.5084 20.0924,61.3364 19.9754,61.4074 C19.8524,61.4734 19.9104,63.8944 19.8014,64.5494 C19.6814,65.2024 19.1304,65.7774 18.9234,65.7614 C18.7234,65.7474 18.8474,66.2304 18.9814,66.1864 C19.1264,66.1404 18.5894,66.9004 18.5164,67.3984 C18.4474,67.8904 17.9434,67.3734 17.8674,66.9214 C17.7834,66.4734 17.2904,65.8614 17.2024,66.0164 C17.1044,66.1714 16.7634,65.8324 16.6144,65.9294 C16.4694,66.0294 15.5404,65.3874 15.1624,65.1784 C14.7884,64.9844 14.5744,63.8304 14.3644,63.7234 C14.1424,63.6284 14.3314,63.4854 14.3244,63.3124 C14.3164,63.1384 15.0504,62.4694 15.2714,62.2024 C15.4894,61.9394 16.3024,60.8854 16.6144,60.6614 C16.9374,60.4374 17.1844,59.8374 17.1294,59.7254 C17.0724,59.6194 18.4954,59.1714 18.8834,59.0384 C19.2674,58.9074 19.6064,57.8294 19.6524,57.5214 C19.7034,57.2174 19.4094,56.6264 19.2394,56.5524 C19.0574,56.4814 19.7734,56.4484 20.0084,56.5724 C20.2524,56.6844 20.9814,56.3504 21.2754,56.5064 C21.5624,56.6584 22.1474,57.0044 22.5684,57.2744 L22.4774,58.0644 L22.3024,59.3984 C21.1844,59.8604 20.8654,60.6674 21.2544,60.6554 C21.6494,60.6344 23.4394,61.4284 23.9434,61.7884 C24.4484,62.1514 24.6074,61.2674 24.7534,60.9664 C24.9054,60.6754 24.8584,59.8164 24.7384,59.6504 C24.6154,59.4784 25.3224,59.5364 25.5194,59.7264 C25.7224,59.9194 25.9514,59.5324 26.1074,59.4624 C26.2594,59.3924 26.3364,58.6604 26.4194,58.5134 C26.4994,58.3674 26.0784,58.2124 26.0704,58.0314 C26.0524,57.8424 25.2504,57.4934 24.9924,57.3704 C24.7234,57.2434 24.6624,56.6904 24.7934,56.5944 C24.9234,56.4984 24.7064,55.7944 24.5784,55.5554 C24.4514,55.3264 23.6094,55.1324 23.3304,55.1324 C23.0504,55.1324 22.7604,54.4834 22.6044,54.3884 C22.4374,54.2974 21.3594,54.1754 21.0904,54.2574 C20.8254,54.3354 20.3384,53.4924 19.8884,53.7474 C19.4394,54.0054 18.9704,53.4464 18.7714,53.3354 C18.5644,53.2214 17.5114,54.3594 17.5184,55.1524 C17.5294,55.9484 17.9254,56.7174 18.0954,56.7394 C18.2624,56.7654 18.0594,57.4814 17.8744,57.6904 C17.6934,57.8914 17.2424,57.4684 17.4174,57.2874 C17.5804,57.1104 16.9564,56.2794 16.7414,55.9394 C16.5894,55.6914 16.0374,55.4824 15.6674,55.3274 C15.4494,55.5604 15.2424,55.8024 15.0284,56.0464 C15.1084,56.3354 15.2064,56.7124 15.1114,56.9954 C14.9554,57.4814 14.5454,57.5554 14.5234,57.3494 C14.5124,57.2554 14.3094,57.1794 14.0664,57.1494 C8.1674,64.2244 4.2404,72.9994 3.1144,82.6114 C3.3504,82.8764 3.6194,83.1964 3.6844,83.4244 C3.8224,83.8494 4.5634,84.1294 4.7084,84.2234 C4.8384,84.3004 4.8934,83.4014 4.7954,83.1684 C4.6974,82.9294 4.9734,82.7864 4.9694,82.9654 C4.9654,83.1384 5.6634,83.9354 5.8984,84.2234 C6.1274,84.5084 6.3714,86.3614 6.5954,86.7654 C6.8134,87.1644 8.9634,87.9914 9.6524,88.1334 C10.3384,88.2784 11.2094,89.0514 11.3474,89.2754 C11.4784,89.4964 12.4004,89.6104 12.5964,89.7014 C12.7924,89.7914 13.2604,90.4124 13.4564,90.5404 C13.6524,90.6724 13.8054,91.0414 13.8054,91.1364 C13.8054,91.2384 15.0174,91.6944 15.3144,92.0214 C15.6054,92.3414 16.0914,92.2554 16.1824,92.1184 C16.2734,91.9874 16.5134,92.7644 16.6394,93.0284 C16.7594,93.3034 16.7894,93.9604 16.6944,94.0684 C16.5994,94.1734 16.4254,95.3924 16.2254,95.6314 C16.0154,95.8764 15.5904,97.6494 15.6784,97.9964 C15.7724,98.3524 16.3424,99.0714 16.5894,99.1824 C16.8284,99.2824 16.7274,99.6624 16.5384,99.6884 C16.3424,99.7164 16.4324,101.4034 16.8904,101.6564 C17.3444,101.9054 17.7254,102.6534 17.6604,102.7814 C17.5874,102.9164 18.4584,103.8084 18.7994,104.1104 C19.1374,104.4224 19.8524,105.8854 19.9974,106.3594 C20.1424,106.8424 20.0594,107.6244 20.0124,107.8144 C19.9654,107.9944 20.1724,108.4024 20.2084,108.5694 C20.2374,108.7384 19.9104,110.1714 20.0304,110.7444 C20.1534,111.3214 19.3594,113.1224 19.3814,114.0134 C19.4024,114.9074 19.8014,116.0744 19.9654,115.9844 C20.1284,115.8954 20.1864,116.7974 19.9104,116.9004 C19.6384,117.0134 19.3224,117.7224 19.4784,117.7574 C19.6274,117.7974 19.4644,118.4964 19.5074,118.7754 C19.5444,119.0594 19.7834,120.9184 19.8344,121.3744 C19.8884,121.8394 20.5454,122.9624 20.6834,123.3454 C20.8254,123.7304 20.9664,124.4524 21.0214,124.5594 C21.0684,124.6744 21.1414,124.7864 21.1454,124.7924 C21.1554,124.7994 21.6894,124.9924 21.8414,125.1074 C22.0054,125.2284 23.0434,125.1504 23.3884,125.0844 C23.7254,125.0094 23.4104,124.6994 23.2544,124.5324 C23.1054,124.3604 22.9704,123.5384 22.7934,123.4524 C22.6154,123.3764 22.5424,122.3244 22.6944,122.0974 C22.8514,121.8594 23.4744,121.4924 23.5444,121.2964 C23.6094,121.1034 23.6314,120.1854 23.4614,120.0584 C23.2974,119.9354 23.5074,118.8304 23.3884,118.2784 C23.2544,117.7284 24.3394,117.2304 24.4044,116.7924 C24.4664,116.3534 25.6384,115.8854 25.9034,115.6684 C26.1724,115.4494 26.3974,114.1994 26.2734,113.9274 C26.1474,113.6604 26.7024,113.4434 26.9604,113.4434 C27.1994,113.4434 27.4864,113.2664 27.5804,113.2664 C27.6754,113.2574 27.9724,112.7104 28.1324,112.5794 C28.2924,112.4564 28.6224,111.1314 28.9134,110.9144 C29.2104,110.6964 29.4464,109.9014 29.4464,109.6684 C29.4464,109.4334 29.8924,108.7384 30.0384,108.5284 C30.1834,108.3174 31.2754,107.8164 31.4724,107.7344 C31.6644,107.6614 31.9624,105.9044 32.0454,105.2724 C32.1144,104.6394 32.4414,103.7924 32.4664,103.5894 C32.4854,103.3814 32.8404,103.2084 32.9024,103.1394 C32.9714,103.0684 33.2294,102.2674 33.3994,102.0864" id="Fill-52" fill="#E5E8EC" mask="url(#mask-2)"></path>
                            <path d="M23.3916,73.1103 L23.3886,73.1143" id="Fill-53" fill="#E5E8EC" mask="url(#mask-2)"></path>
                            <path d="M22.7349,49.9849 C22.9639,49.7009 24.2989,49.2809 24.6149,49.0889 C24.9309,48.8999 25.6279,48.2309 25.8969,48.1549 C26.1649,48.0749 26.5499,47.4479 26.4919,47.3229 C26.4339,47.1969 27.3919,46.6149 27.7619,46.4629 C28.1259,46.3049 28.3179,45.8779 28.1759,45.8609 C28.0889,45.8509 26.0529,46.9139 24.1939,47.9719 C22.0639,49.4139 20.0699,51.0289 18.1969,52.7859 C18.7819,52.7429 19.6819,52.6339 20.0629,52.5709 C20.6479,52.4719 21.6129,52.3079 21.6779,52.1479 C21.7299,52.0129 21.7329,51.6129 21.6279,51.4739 C21.7149,51.4759 21.8269,51.4859 21.9109,51.4859 C22.1249,51.4859 22.4989,50.2689 22.7349,49.9849" id="Fill-54" fill="#E5E8EC" mask="url(#mask-2)"></path>
                            <path d="M72.1172,55.125 C72.1022,55.153 72.0842,55.176 72.0772,55.195 C71.9832,55.367 71.7142,55.091 71.7242,54.848 C71.7362,54.602 70.9952,54.405 70.8972,54.602 C70.7992,54.795 70.2842,54.532 70.0802,54.425 C69.8662,54.314 68.9482,55.269 68.6032,55.609 C68.2652,55.955 66.6392,56.218 66.3382,56.088 C66.0362,55.965 65.7352,56.814 65.9972,56.865 C66.2542,56.917 65.3322,56.823 64.8282,56.873 C64.3202,56.921 62.8532,57.51 62.5052,57.769 C62.1562,58.033 61.8732,57.711 61.8732,57.514 C61.8732,57.312 61.3102,57.126 61.1432,57.069 C60.9802,57.011 60.6572,58.168 60.3632,58.385 C60.0692,58.613 59.7232,57.489 59.0382,57.301 C58.3522,57.114 57.2812,56.457 56.9722,56.379 C56.6712,56.296 56.0612,55.656 55.8872,55.474 C55.7172,55.289 54.8382,55.133 54.5552,55.133 C54.2792,55.133 53.3712,55.654 53.1282,55.861 C52.8852,56.066 52.5152,56.025 52.3912,56.1 C52.2722,56.169 51.2522,57.179 50.8482,57.491 C50.4532,57.806 49.7562,59.162 49.5342,59.483 C49.3032,59.806 48.9722,59.861 48.8422,59.876 C48.7112,59.881 48.5982,60.24 48.5982,60.376 C48.5982,60.507 47.4262,61.123 47.2992,61.654 C47.1752,62.189 47.4182,63.414 47.4182,63.848 C47.4182,64.282 47.8502,65.146 48.1812,65.162 C48.5002,65.173 48.3332,65.899 48.2532,66.098 C48.1622,66.301 48.4602,66.527 48.4422,66.698 C48.4422,66.87 47.6182,67.114 47.3642,67.21 C47.1102,67.304 46.7072,67.873 46.6492,68.089 C46.6092,68.27 45.8182,68.4 45.5562,68.656 C45.6252,68.476 45.7092,68.223 45.7782,68.089 C45.9332,67.799 45.7232,67.304 45.6032,67.201 C45.4762,67.1 45.4182,65.68 45.2192,65.379 C45.0232,65.072 44.5292,64.56 44.4022,64.458 C44.2792,64.359 44.4892,63.989 44.5622,63.83 C44.6272,63.674 43.8972,63.582 43.6982,63.698 C43.4982,63.809 43.3922,65.215 43.3052,65.598 C43.2222,65.98 43.6692,66.567 43.7922,66.596 C43.9122,66.626 43.8762,67.315 43.6252,67.341 C43.3642,67.363 43.1322,68.373 43.2592,68.603 C43.3922,68.836 43.0732,69.283 42.9252,69.389 C42.7722,69.491 43.9122,69.432 44.4312,69.421 C44.9502,69.405 45.3532,69.64 45.2992,69.679 C45.2482,69.726 44.3042,69.862 44.1372,70.086 C43.9732,70.308 43.3312,70.737 43.2112,70.909 C43.0842,71.079 43.4182,71.457 43.6902,71.437 C43.9552,71.421 44.2712,72.37 44.4782,72.55 C44.6892,72.723 44.6132,73.214 44.5222,73.354 C44.4282,73.482 43.1532,73.257 42.6782,73.381 C42.1912,73.501 41.5852,74.519 41.5452,74.903 C41.5022,75.292 41.6212,76.393 41.6872,76.701 C41.7452,77.003 42.7542,77.192 42.9572,77.345 C43.1682,77.493 44.1302,77.35 44.3332,77.444 C44.5292,77.538 45.1782,76.461 45.3132,75.967 C45.4322,75.465 46.4682,74.55 46.6852,74.208 C46.8992,73.874 48.0072,73.912 48.2712,73.738 C48.5512,73.559 48.3992,74.579 48.5262,75.137 C48.6562,75.696 49.7202,75.623 49.5642,75.099 C49.4072,74.579 49.6692,74.346 49.7132,74.54 C49.7632,74.724 50.7802,75.145 50.9722,75.437 C51.1642,75.735 51.1062,76.363 50.8822,76.354 C50.6532,76.347 50.6492,77.041 50.8962,77.119 C51.1282,77.188 51.4482,76.334 51.7022,76.206 C51.9632,76.076 52.1742,75.544 52.0502,75.505 C51.9382,75.462 52.2672,74.984 52.4172,75.141 C52.5582,75.301 51.8692,74.1 51.4372,73.665 C51.0012,73.224 51.3062,73.417 52.1192,74.097 L52.6782,74.878 C52.7842,75.018 52.9362,75.448 53.0272,75.606 L53.1572,75.836 C53.2702,76.111 53.3712,76.866 53.3712,77.065 C53.3712,77.274 53.8032,77.669 54.0722,77.653 C54.3332,77.631 54.5402,77.779 54.4902,77.789 C54.4312,77.801 54.6642,78.321 54.9292,78.332 C55.1902,78.343 55.3062,77.662 55.0412,77.64 C54.7732,77.629 54.8162,76.639 54.7802,76.21 C54.7472,75.778 54.9722,75.425 55.0632,75.425 C55.1572,75.425 55.0562,76.309 55.0592,76.518 C55.0632,76.717 55.1762,77.12 55.3032,77.406 L55.5752,77.616 L56.1882,78.085 C57.0782,77.826 58.2542,78.029 58.2102,78.206 C58.1672,78.39 58.8642,78.435 58.9042,78.143 C58.9472,77.85 58.9802,78.15 58.9802,78.352 C58.9802,78.546 58.3992,79.339 58.3042,79.701 C58.2072,80.062 56.1742,79.821 55.2992,79.751 C54.4172,79.684 53.1282,79.985 53.0272,80.246 C52.9362,80.506 51.5642,79.644 50.9362,79.376 C50.3072,79.113 49.8222,78.156 49.6912,78.036 C49.5602,77.908 49.8002,77.601 49.7342,77.409 C49.6762,77.218 48.2462,77.182 47.8322,77.337 C47.4152,77.489 45.2692,77.716 44.7652,77.942 C44.2572,78.167 43.4872,77.925 43.2472,77.88 C43.0122,77.842 42.4422,78.545 42.1592,78.666 C41.8612,78.797 41.5052,79.787 41.3422,80.878 L40.9502,81.635 L40.7032,82.127 C39.9992,82.662 39.2112,84.46 38.9742,84.824 C38.7502,85.182 38.5612,87.77 38.5612,88.644 C38.5612,89.516 39.3232,91.362 39.5412,91.864 C39.7522,92.374 41.0662,93.502 41.5092,93.772 C41.9412,94.034 43.3712,94.076 43.8432,94.068 C44.3042,94.068 44.8412,93.624 45.0232,93.085 L45.7052,93.155 L46.0252,93.186 C46.0392,93.567 47.0522,93.877 47.2992,94.012 C47.5492,94.143 48.2132,94.042 48.4132,93.986 C48.6132,93.925 48.8382,95.715 48.6932,96.234 C48.5442,96.749 49.0412,98.565 49.1862,99.109 C49.3352,99.656 49.9522,101.148 50.0172,101.683 C50.0752,102.225 49.6552,104.001 49.5822,104.626 C49.5092,105.255 50.3592,106.999 50.5842,107.6 C50.8052,108.198 50.9912,109.489 50.9912,109.788 C50.9912,110.088 51.9122,111.89 52.1302,112.634 C52.3372,113.381 54.6642,113.559 55.2922,113.197 C55.9122,112.826 56.9722,111.256 57.3212,110.931 C57.6662,110.604 57.9202,109.417 57.9962,109.158 C58.0652,108.899 58.5952,108.483 58.7912,108.425 C58.9942,108.364 59.6152,105.741 60.1742,105.169 C60.7332,104.594 61.3832,101.818 61.3102,100.82 C61.2412,99.824 61.6662,97.917 61.8012,97.46 C61.9352,97.004 62.6322,96.19 62.8462,96.027 C63.0562,95.852 64.3962,93.872 64.8282,93.163 C65.2602,92.452 65.6662,90.89 65.5862,90.53 C65.5032,90.161 64.5702,89.906 64.3962,90.084 C64.2252,90.265 63.3472,90.413 63.0712,90.413 C62.7842,90.413 62.1412,88.912 61.7432,88.6 C61.3462,88.294 60.9872,86.573 60.7512,86.247 C60.5262,85.923 59.8802,85.096 59.6832,84.907 C59.4852,84.717 59.4482,83.81 59.4012,83.556 C59.3572,83.307 59.7862,83.718 59.8662,84.08 C59.9382,84.445 60.9692,85.912 61.2882,86.406 C61.6122,86.9 62.4502,88.474 62.6612,88.962 C62.8852,89.457 64.7522,89.208 65.3582,88.921 C65.9642,88.635 66.7262,88.146 66.7522,87.979 C66.7842,87.813 67.7462,87.365 68.0182,87.151 C68.2872,86.934 68.5272,85.81 68.6982,85.63 C68.8752,85.445 68.5632,84.373 68.3602,84.051 C68.1572,83.731 67.1832,83.476 66.9912,83.602 C66.7922,83.731 66.3742,82.882 66.2182,82.572 C66.0772,82.259 65.3322,81.88 65.2562,81.667 C65.1732,81.454 65.4522,81.115 65.5682,81.041 C65.6882,80.967 67.0532,81.929 67.4522,82.415 C67.8452,82.888 68.2982,83.768 68.3742,83.919 C68.4402,84.073 69.5212,84.154 69.7652,83.968 C70.0082,83.795 70.2842,83.841 70.3782,84.073 L70.7192,84.014 L71.9102,83.825 C72.4622,84.438 72.6292,84.96 72.6182,85.084 C72.6032,85.198 72.9632,85.695 73.1882,85.746 C73.4202,85.805 73.5872,86.581 73.6562,86.767 C73.7282,86.962 74.4002,88.126 74.5422,88.613 C74.6832,89.106 75.2572,90.055 75.3952,90.311 C75.5362,90.569 75.6492,91.309 75.6492,91.514 C75.6492,91.708 76.0842,92.111 76.3492,92.094 C76.6182,92.073 77.1662,90.37 77.2932,89.742 C77.4172,89.108 77.8592,88.583 77.9752,88.583 C78.1062,88.583 78.2002,88.232 78.2002,88.098 C78.2002,87.965 78.8872,87.978 78.9482,87.806 C79.0072,87.636 79.2102,86.506 79.4532,86.342 C79.7032,86.169 80.5752,85.598 80.8832,85.492 C80.9772,85.458 81.1192,85.507 81.2792,85.593 C81.3052,84.925 81.3262,84.252 81.3262,83.576 C81.3262,72.961 77.8992,63.134 72.1172,55.125" id="Fill-55" fill="#E5E8EC" mask="url(#mask-2)"></path>
                            <path d="M78.2153,92.5561 C78.3063,92.3801 78.0663,91.5011 77.8743,91.3091 C77.6783,91.1151 77.3733,91.2551 77.1923,91.6101 C77.0173,91.9651 78.1243,92.7311 78.2153,92.5561" id="Fill-56" fill="#E5E8EC" mask="url(#mask-2)"></path>
                            <path d="M62.4795,108.5581 C62.5225,108.9321 63.2815,109.2321 63.5065,109.1741 C63.7315,109.1091 64.3525,107.9701 64.4395,107.6431 C64.5235,107.3081 64.5925,106.6081 64.5925,106.4361 C64.5925,106.2701 64.6935,105.8941 64.7845,105.8481 C64.8645,105.8041 65.0025,105.4161 65.0965,104.9891 C65.1765,104.5531 64.6245,102.5531 64.6175,102.2041 C64.6025,101.8491 64.2065,102.3861 64.1055,102.7401 C63.9935,103.0941 63.0055,103.8201 62.7845,104.1251 C62.5625,104.4231 62.3195,105.4461 62.4065,105.6251 C62.4825,105.7951 62.3195,106.4941 62.2185,106.6911 C62.1165,106.8801 62.4395,108.1761 62.4795,108.5581" id="Fill-57" fill="#E5E8EC" mask="url(#mask-2)"></path>
                            <path d="M31.396,46.5337 C30.884,46.5387 28.198,47.1107 27.498,47.4997 C26.797,47.8807 26.249,48.8667 26.481,48.8857 C26.717,48.9027 26.092,49.4657 25.711,49.5957 C25.337,49.7217 24.434,49.7837 24.223,49.9977 C24.016,50.2037 24.452,50.3507 24.539,50.4927 C24.619,50.6347 24.869,50.3667 25.109,50.5087 C25.341,50.6397 26.125,50.7007 26.336,50.7827 C26.55,50.8647 25.668,51.0327 25.258,51.0577 C24.848,51.0907 24.942,51.8947 25.276,52.0077 C25.613,52.1187 26.47,52.2387 26.561,52.1017 C26.644,51.9587 27.581,52.2467 28.005,52.3017 C28.419,52.3457 28.742,53.4017 28.873,53.6257 C29.004,53.8547 29.029,54.6617 29.004,54.8917 C28.967,55.1247 29.744,55.5487 29.886,55.3997 C30.02,55.2517 29.984,55.7667 29.672,55.7397 C29.359,55.7127 29.559,56.6017 29.944,56.7327 C30.329,56.8577 30.064,57.4107 29.846,57.5757 C29.628,57.7397 29.751,58.2697 29.523,58.4577 C29.294,58.6417 30.318,60.4237 30.307,61.3367 C30.307,62.2507 30.88,62.9917 31.098,62.9917 C31.313,62.9917 32.067,63.1797 32.162,63.3767 C32.267,63.5667 32.63,63.2337 32.768,63.0817 C32.91,62.9377 33.218,62.4977 33.443,62.1147 C33.675,61.7237 34.195,59.8917 34.264,59.6937 C34.333,59.4997 35.196,59.6227 35.393,59.5247 C35.581,59.4227 36.14,58.9767 36.307,58.8497 C36.467,58.7147 37.694,58.1937 38.032,57.9497 C38.365,57.7107 38.921,56.6747 39.182,56.4487 C39.44,56.2277 39.048,56.2897 38.721,56.0817 C38.398,55.8637 38.536,55.5997 38.63,55.5037 C38.729,55.3997 39.716,55.6677 40.061,55.7987 C40.402,55.9337 41.052,55.4617 40.805,55.2807 C40.551,55.1037 40.685,55.1037 40.805,55.1817 C40.928,55.2567 41.052,54.5777 40.925,54.4537 C40.791,54.3207 41.919,53.5007 41.72,52.7197 C41.523,51.9347 42.032,51.1367 42.333,51.1307 C42.642,51.1167 42.547,50.2477 42.184,50.1657 C41.821,50.0837 42.163,50.0027 42.3,49.8787 C42.435,49.7587 42.606,48.9787 42.529,48.8257 C42.449,48.6767 43.085,48.5107 43.193,48.3317 C43.31,48.1557 44.039,47.8057 44.297,47.7467 C44.555,47.6907 44.7,46.9997 44.42,47.0327 C44.133,47.0707 43.404,46.9257 43.284,46.7897 C43.153,46.6557 42.072,46.5387 41.752,46.6717 C41.44,46.8067 41.658,45.9057 42.093,45.8077 C42.529,45.7117 42.159,45.0927 41.698,45.0917 C41.23,45.0877 40.083,44.9227 39.81,44.9807 C39.542,45.0377 39.015,44.7907 38.819,44.7637 C38.627,44.7377 37.244,45.1747 36.594,45.1417 C35.944,45.1147 34.343,45.1797 33.995,45.2807 C33.647,45.3687 33.393,46.0497 33.443,46.2887 C33.49,46.5317 31.893,46.5267 31.396,46.5337" id="Fill-58" fill="#E5E8EC" mask="url(#mask-2)"></path>
                            <path d="M50.1885,51.604 C50.4385,51.637 50.7725,52.226 51.0305,52.218 C51.2925,52.213 51.7235,51.231 51.8255,50.862 C51.9235,50.492 52.7765,50.782 53.1685,50.9 C53.5605,51.019 53.7025,49.546 53.2775,49.323 C52.8595,49.102 52.3305,49.211 52.1525,49.047 C51.9775,48.875 51.6765,48.715 51.4775,48.69 C51.2925,48.665 51.1025,47.786 50.7615,47.675 C50.4135,47.559 49.7125,47.94 49.7995,48.156 C49.8905,48.376 49.2225,47.877 48.7645,48.118 C48.2965,48.357 48.1735,49.171 48.3845,49.278 C48.5985,49.384 48.7475,50.03 48.7585,50.149 C48.7645,50.278 49.6545,50.191 49.8835,49.998 C50.1125,49.813 50.0865,50.659 49.8615,50.885 C49.6325,51.109 49.9415,51.565 50.1885,51.604" id="Fill-59" fill="#E5E8EC" mask="url(#mask-2)"></path>
                            <path d="M55.7896,47.7471 C55.9596,47.5921 53.8836,47.1691 53.0956,47.1441 C52.3046,47.1181 51.6766,47.2261 51.6806,47.3821 C51.6946,47.5371 53.4766,48.2791 54.1666,48.3761 C54.8486,48.4761 55.6226,47.9081 55.7896,47.7471" id="Fill-60" fill="#E5E8EC" mask="url(#mask-2)"></path>
                            <path d="M41.6216,66.9668 C41.4436,66.8888 41.3426,67.5708 41.3856,67.8268 C41.4296,68.0898 42.0536,68.0628 42.3296,68.0138 C42.6016,67.9738 42.8116,67.7568 42.8016,67.5298 C42.7866,67.3078 42.4016,66.2948 42.2466,66.2948 C42.0936,66.2948 41.8066,67.0398 41.6216,66.9668" id="Fill-61" fill="#E5E8EC" mask="url(#mask-2)"></path>
                            <path d="M43.6616,59.0596 C43.5196,58.8126 42.4416,58.8416 42.1766,58.8216 C41.9196,58.8126 41.1056,58.5416 40.9536,58.3696 C40.8046,58.2006 40.6886,59.0276 40.4416,59.1416 C40.1916,59.2476 40.5616,59.4136 40.6626,59.3236 C40.7616,59.2366 40.6596,59.7506 40.5466,59.9306 C40.4376,60.1066 41.2586,60.2306 41.3606,60.4996 C41.4516,60.7726 41.7886,60.9446 42.1156,60.8896 C42.4416,60.8416 43.0956,60.4996 43.3246,60.4776 C43.5526,60.4566 43.8036,59.3106 43.6616,59.0596" id="Fill-62" fill="#E5E8EC" mask="url(#mask-2)"></path>
                            <path d="M64.0147,52.8052 C63.7897,53.0352 63.4157,54.7672 63.2927,54.9602 C63.1617,55.1592 63.8737,55.8632 64.1857,56.0582 C64.5047,56.2552 64.9367,56.1522 65.0527,56.1172 C65.1797,56.0822 64.8967,54.8652 64.7337,54.4452 C64.5667,54.0232 65.9317,53.2582 66.2987,52.8852 C66.6607,52.5142 68.1927,52.0132 68.3637,51.6292 C68.5417,51.2472 68.2587,50.9332 68.1017,50.9332 C67.9497,50.9332 67.7607,51.1202 67.7247,51.1852 C67.6887,51.2472 65.9427,51.6622 65.4017,51.9202 C64.8647,52.1772 64.2437,52.5762 64.0147,52.8052" id="Fill-63" fill="#E5E8EC" mask="url(#mask-2)"></path>
                            <path d="M64.4253,48.3686 C65.0023,48.9406 65.3143,48.1186 65.9533,48.1966 C65.9533,48.1556 65.9353,48.1256 65.9313,48.0886 C65.7243,47.8936 65.5143,47.6906 65.3033,47.4926 C64.8713,47.4996 64.3923,47.8426 64.4253,48.3686" id="Fill-64" fill="#E5E8EC" mask="url(#mask-2)"></path>
                            <path d="M17.3408,60.5234 C17.1698,60.6794 17.3188,61.4654 17.6378,61.4894 C17.9618,61.5104 18.4728,60.3054 18.8728,60.5404 C19.2608,60.7864 19.5328,60.8804 19.4648,60.7504 C19.4018,60.6244 18.2738,60.1324 18.1358,60.0394 C17.9978,59.9574 17.5108,60.3674 17.3408,60.5234" id="Fill-65" fill="#E5E8EC" mask="url(#mask-2)"></path>
                            <path d="M21.457,87.248 C21.457,87.378 22.154,87.362 22.27,87.142 C22.379,86.925 22.321,86.753 22.132,86.753 C21.947,86.753 21.457,87.109 21.457,87.248" id="Fill-66" fill="#E5E8EC" mask="url(#mask-2)"></path>
                            <path d="M18.3315,86.0947 C18.6655,86.0317 18.5095,86.5727 18.5855,86.7667 C18.6655,86.9627 19.4785,87.1187 19.6345,87.2487 C19.8015,87.3787 20.2115,87.0037 20.5355,87.0447 C20.8545,87.0867 20.4265,85.9307 19.8885,85.9637 C19.3485,85.9957 18.9195,85.4737 18.7925,85.4067 C18.6655,85.3507 18.0415,84.9737 17.8595,84.8277 C17.6855,84.6847 16.3065,84.5647 15.8375,84.5647 C15.3775,84.5647 14.8575,85.0387 14.7885,85.1907 C14.7125,85.3507 15.5295,85.4577 15.7615,85.3347 C16.0015,85.2127 17.0865,85.4707 17.3005,85.7347 C17.5295,85.9937 17.9905,86.1567 18.3315,86.0947" id="Fill-67" fill="#E5E8EC" mask="url(#mask-2)"></path>
                            <path d="M16.8613,87.248 C16.8613,87.378 17.5693,87.295 17.7403,87.304 C17.9103,87.308 17.9063,87.193 17.7293,87.045 C17.5473,86.9 16.8613,87.109 16.8613,87.248" id="Fill-68" fill="#E5E8EC" mask="url(#mask-2)"></path>
                            <path d="M17.3623,83.602 C17.1773,83.526 17.0353,83.813 17.0353,83.954 C17.0353,84.088 17.1303,84.2 17.2573,84.2 C17.3803,84.2 17.5473,83.673 17.3623,83.602" id="Fill-69" fill="#E5E8EC" mask="url(#mask-2)"></path>
                            <path d="M18.8545,83.7148 C18.7895,83.5788 18.4835,83.4678 18.3965,83.4678 C18.2985,83.4678 18.2335,83.7028 18.2515,83.9828 C18.2655,84.2748 18.9125,83.8458 18.8545,83.7148" id="Fill-70" fill="#E5E8EC" mask="url(#mask-2)"></path>
                            <path d="M19.9141,85.3623 C20.2011,85.2203 20.2371,84.8803 20.0701,84.8963 C19.9001,84.9153 19.5871,84.4053 19.4021,84.3303 C19.2171,84.2583 19.0651,84.6393 19.0651,84.8033 C19.0651,84.9733 19.1741,85.0843 19.2931,85.0513 C19.4241,85.0203 19.6271,85.4923 19.9141,85.3623" id="Fill-71" fill="#E5E8EC" mask="url(#mask-2)"></path>
                        </g>
                    </g>
                </g>
            </g>
        </g>
    </g>
</svg>