<?xml version="1.0" encoding="UTF-8" standalone="no"?>
<svg width="146px" height="147px" viewBox="0 0 146 147" version="1.1" xmlns="http://www.w3.org/2000/svg" xmlns:xlink="http://www.w3.org/1999/xlink" xmlns:sketch="http://www.bohemiancoding.com/sketch/ns">
    <!-- Generator: Sketch 3.5.2 (25235) - http://www.bohemiancoding.com/sketch -->
    <title>illustartion</title>
    <desc>Created with Sketch.</desc>
    <defs></defs>
    <g id="Page-1" stroke="none" stroke-width="1" fill="none" fill-rule="evenodd" sketch:type="MSPage">
        <g id="if-pricing-page-attendance" sketch:type="MSArtboardGroup" transform="translate(-639.000000, -68.000000)">
            <g id="illustartion" sketch:type="MSLayerGroup" transform="translate(639.000000, 67.000000)">
                <g id="web" transform="translate(31.000000, 28.000000)" sketch:type="MSShapeGroup">
                    <path d="M107.702,65.995 L107.702,3.732 C107.702,2.117 106.387,0.803 104.771,0.803 L3.662,0.803 C2.047,0.803 0.734,2.117 0.734,3.732 L0.734,65.995 L107.702,65.995" id="Fill-17" fill="#3F464E"></path>
                    <path d="M0.522,66.113 L0.522,75.115 C0.522,76.849 1.927,78.255 3.662,78.255 L104.771,78.255 C106.505,78.255 107.913,76.849 107.913,75.115 L107.913,66.113 L0.522,66.113" id="Fill-18" fill="#EAEDF0"></path>
                    <path d="M72.713,91.516 C72.713,91.516 71.935,91.134 71.041,90.797 C70.087,90.437 68.941,89.988 68.265,89.665 C67.082,89.096 66.981,88.723 66.539,86.787 C66.054,84.67 65.6,80.203 65.419,78.255 L43.019,78.255 C42.835,80.203 42.383,84.67 41.899,86.787 C41.457,88.723 41.359,89.096 40.172,89.665 C39.504,89.984 38.375,90.428 37.428,90.785 C36.52,91.127 35.778,91.39 35.778,91.39 C35.778,91.39 35.058,91.791 36.215,91.848 L72.225,91.848 C73.311,91.868 72.713,91.516 72.713,91.516" id="Fill-19" fill="#EAEDF0"></path>
                    <path d="M65.654,80.608 C65.553,79.681 65.472,78.85 65.416,78.255 L43.017,78.255 C42.962,78.85 42.879,79.681 42.781,80.608 L65.654,80.608" id="Fill-20" fill="#D6DDDF"></path>
                    <path d="M19.947,65.995 L42.209,65.995 L82.903,0.803 L60.641,0.803 L19.947,65.995" id="Fill-21" fill="#5A626C"></path>
                    <path d="M48.568,65.995 L56.694,65.995 L97.387,0.803 L89.262,0.803 L48.568,65.995" id="Fill-22" fill="#5A626C"></path>
                    <path d="M5.703,5.826 L102.73,5.826 L102.73,60.462 L5.703,60.462 L5.703,5.826 Z" id="Fill-23" fill="#FF9B7F"></path>
                    <path d="M23.401,60.462 L45.66,60.462 L79.766,5.826 L57.504,5.826 L23.401,60.462" id="Fill-24" fill="#FFB4A0"></path>
                    <path d="M60.15,60.462 L94.251,5.826 L86.126,5.826 L52.022,60.462 L60.15,60.462" id="Fill-25" fill="#FFB4A0"></path>
                </g>
                <g id="Group" transform="translate(33.000000, 112.000000)" sketch:type="MSShapeGroup">
                    <path d="M23.247,24.19 L0.542,24.19 C0.265,24.19 0.042,23.967 0.042,23.69 L0.042,0.985 C0.042,0.709 0.265,0.485 0.542,0.485 L11.807,0.485 C12.084,0.485 12.307,0.709 12.307,0.985 C12.307,1.262 12.084,1.485 11.807,1.485 L1.042,1.485 L1.042,23.19 L22.747,23.19 L22.747,12.422 C22.747,12.146 22.97,11.922 23.247,11.922 C23.523,11.922 23.747,12.146 23.747,12.422 L23.747,23.69 C23.747,23.967 23.523,24.19 23.247,24.19" id="Fill-45" fill="#C4CACB"></path>
                    <path d="M23.247,7.651 C22.971,7.651 22.747,7.427 22.747,7.151 L22.746,1.49 L17.085,1.488 C16.808,1.488 16.585,1.264 16.585,0.988 C16.585,0.711 16.808,0.488 17.085,0.488 L23.246,0.49 C23.522,0.49 23.746,0.714 23.746,0.99 L23.747,7.151 C23.747,7.427 23.523,7.651 23.247,7.651" id="Fill-46" fill="#C4CACB"></path>
                    <path d="M13.487,11.248 C13.359,11.248 13.231,11.199 13.133,11.102 C12.938,10.906 12.938,10.59 13.133,10.395 L22.053,1.476 C22.249,1.28 22.565,1.28 22.76,1.476 C22.956,1.671 22.956,1.987 22.76,2.183 L13.84,11.102 C13.743,11.199 13.615,11.248 13.487,11.248" id="Fill-47" fill="#C4CACB"></path>
                    <path d="M27.422,23.19 L37.741,23.19 L37.741,12.871 L27.422,12.871 L27.422,23.19 Z M38.241,24.19 L26.922,24.19 C26.646,24.19 26.422,23.967 26.422,23.69 L26.422,12.371 C26.422,12.095 26.646,11.871 26.922,11.871 L38.241,11.871 C38.517,11.871 38.741,12.095 38.741,12.371 L38.741,23.69 C38.741,23.967 38.517,24.19 38.241,24.19 L38.241,24.19 Z" id="Fill-48" fill="#00CFE1"></path>
                    <path d="M27.422,34.823 L34.597,34.823 L34.597,27.649 L27.422,27.649 L27.422,34.823 Z M35.097,35.823 L26.922,35.823 C26.646,35.823 26.422,35.6 26.422,35.323 L26.422,27.149 C26.422,26.873 26.646,26.649 26.922,26.649 L35.097,26.649 C35.374,26.649 35.597,26.873 35.597,27.149 L35.597,35.323 C35.597,35.6 35.374,35.823 35.097,35.823 L35.097,35.823 Z" id="Fill-49" fill="#C4CACB"></path>
                    <path d="M18.933,31.464 L22.749,31.464 L22.749,27.649 L18.933,27.649 L18.933,31.464 Z M23.249,32.464 L18.433,32.464 C18.157,32.464 17.933,32.24 17.933,31.964 L17.933,27.149 C17.933,26.873 18.157,26.649 18.433,26.649 L23.249,26.649 C23.525,26.649 23.749,26.873 23.749,27.149 L23.749,31.964 C23.749,32.24 23.525,32.464 23.249,32.464 L23.249,32.464 Z" id="Fill-50" fill="#FF9B7F"></path>
                </g>
                <g id="mob" transform="translate(98.000000, 62.000000)" sketch:type="MSShapeGroup">
                    <path d="M41.604,56.6011136 C41.604,57.8106136 40.6266667,58.7921591 39.4226667,58.7921591 L2.80933333,58.7921591 C1.60533333,58.7921591 0.632,57.8106136 0.632,56.6011136 L0.632,2.92452273 C0.632,1.71502273 1.60533333,0.736159091 2.80933333,0.736159091 L39.4226667,0.736159091 C40.6266667,0.736159091 41.604,1.71502273 41.604,2.92452273 L41.604,56.6011136" id="Fill-26" fill="#6C7686"></path>
                    <path d="M2.80933333,58.4582727 C1.79066667,58.4582727 0.962666667,57.6269091 0.962666667,56.6011136 L0.962666667,2.92452273 C0.962666667,1.90275 1.79066667,1.06870455 2.80933333,1.06870455 L39.4226667,1.06870455 C40.444,1.06870455 41.2733333,1.90275 41.2733333,2.92452273 L41.2733333,56.6011136 C41.2733333,57.6269091 40.444,58.4582727 39.4226667,58.4582727 L2.80933333,58.4582727" id="Fill-27" fill="#3F464E"></path>
                    <path d="M21.484,3.32679545 C21.484,3.53329545 21.3173333,3.69420455 21.1146667,3.69420455 C20.9146667,3.69420455 20.748,3.53329545 20.748,3.32679545 C20.748,3.12029545 20.9146667,2.95670455 21.1146667,2.95670455 C21.3173333,2.95670455 21.484,3.12029545 21.484,3.32679545" id="Fill-28" fill="#6C7686"></path>
                    <path d="M23.0306667,56.3905909 C23.0306667,56.6185455 22.8466667,56.80225 22.62,56.80225 L19.612,56.80225 C19.3893333,56.80225 19.2053333,56.6185455 19.2053333,56.3905909 L19.2053333,55.5672727 C19.2053333,55.3406591 19.3893333,55.1515909 19.612,55.1515909 L22.62,55.1515909 C22.8466667,55.1515909 23.0306667,55.3406591 23.0306667,55.5672727 L23.0306667,56.3905909" id="Fill-29" fill="#6C7686"></path>
                    <path d="M3.29466667,5.50845455 L38.9413333,5.50845455 L38.9413333,53.3386818 L3.29466667,53.3386818 L3.29466667,5.50845455 Z" id="Fill-30" fill="#00C5D6"></path>
                    <path d="M3.29466667,20.7478864 L3.29466667,36.0583864 L21.9893333,5.50845455 L12.6186667,5.50845455 L3.29466667,20.7478864" id="Fill-31" fill="#00CFE1"></path>
                    <path d="M3.29466667,44.5463409 L27.18,5.50845455 L23.616,5.50845455 L3.29466667,38.7227727 L3.29466667,44.5463409" id="Fill-32" fill="#00CFE1"></path>
                    <path d="M47.5373333,56.2310227 C47.5373333,57.6403182 46.392,58.7921591 44.9933333,58.7921591 L29.7826667,58.7921591 C28.3826667,58.7921591 27.2386667,57.6403182 27.2386667,56.2310227 L27.2386667,19.9916136 C27.2386667,18.5836591 28.3826667,17.4318182 29.7826667,17.4318182 L44.9933333,17.4318182 C46.392,17.4318182 47.5373333,18.5836591 47.5373333,19.9916136 L47.5373333,56.2310227" id="Fill-33" fill="#59626C"></path>
                    <path d="M30.176,58.3979318 C28.7746667,58.3979318 27.628,57.24475 27.628,55.8381364 L27.628,20.3871818 C27.628,18.9805682 28.7746667,17.8273864 30.176,17.8273864 L44.6,17.8273864 C46.0026667,17.8273864 47.148,18.9805682 47.148,20.3871818 L47.148,55.8381364 C47.148,57.24475 46.0026667,58.3979318 44.6,58.3979318 L30.176,58.3979318" id="Fill-34" fill="#3F464E"></path>
                    <path d="M34.9706667,19.9607727 C34.9706667,20.1498409 34.8173333,20.3067273 34.6266667,20.3067273 C34.4413333,20.3067273 34.2866667,20.1498409 34.2866667,19.9607727 C34.2866667,19.7717045 34.4413333,19.6148182 34.6266667,19.6148182 C34.8173333,19.6148182 34.9706667,19.7717045 34.9706667,19.9607727" id="Fill-35" fill="#6C7686"></path>
                    <path d="M37.5746667,18.7646818 C37.5746667,18.8853636 37.4773333,18.9845909 37.352,18.9845909 L37.132,18.7646818 C37.132,18.6413182 37.2333333,18.54075 37.352,18.54075 C37.4773333,18.54075 37.5746667,18.6413182 37.5746667,18.7646818" id="Fill-36" fill="#6C7686"></path>
                    <path d="M38.708,19.92725 L38.548,20.0908409 L36.196,20.0908409 L36.032,19.92725 L36.196,19.765 L38.548,19.765 L38.708,19.92725" id="Fill-37" fill="#6C7686"></path>
                    <path d="M38.7893333,56.5917273 C38.7893333,56.7566591 38.66,56.8867273 38.4986667,56.8867273 L36.3426667,56.8867273 C36.18,56.8867273 36.0493333,56.7566591 36.0493333,56.5917273 L36.0493333,56.0030682 C36.0493333,55.8381364 36.18,55.7040455 36.3426667,55.7040455 L38.4986667,55.7040455 C38.66,55.7040455 38.7893333,55.8381364 38.7893333,56.0030682 L38.7893333,56.5917273" id="Fill-38" fill="#6C7686"></path>
                    <path d="M27.124,22.2993182 L27.6026667,22.2993182 L27.6026667,23.8762273 L27.124,23.8762273 L27.124,22.2993182 Z" id="Fill-39" fill="#3F464E"></path>
                    <path d="M27.124,25.3498864 L27.6026667,25.3498864 L27.6026667,28.0142727 L27.124,28.0142727 L27.124,25.3498864 Z" id="Fill-40" fill="#3F464E"></path>
                    <path d="M27.124,28.6270682 L27.6026667,28.6270682 L27.6026667,31.1627273 L27.124,31.1627273 L27.124,28.6270682 Z" id="Fill-41" fill="#3F464E"></path>
                    <path d="M28.46,22.1290227 L46.2813333,22.1290227 L46.2813333,53.9327045 L28.46,53.9327045 L28.46,22.1290227 Z" id="Fill-42" fill="#F4D27A"></path>
                    <path d="M28.46,32.3494318 L28.46,42.6248182 L41.004,22.1290227 L34.716,22.1290227 L28.46,32.3494318" id="Fill-43" fill="#F7E092"></path>
                    <path d="M28.46,48.3169773 L44.4853333,22.1290227 L42.0946667,22.1290227 L28.46,44.4095682 L28.46,48.3169773" id="Fill-44" fill="#F7E092"></path>
                </g>
                <g id="icon" sketch:type="MSShapeGroup">
                    <path d="M30.974,1.298 C48.088,1.298 61.956,15.164 61.956,32.278 C61.956,39.918 59.176,46.906 54.582,52.312 L61.802,66 L48.67,57.676 C43.654,61.182 37.562,63.254 30.974,63.254 C13.868,63.254 0,49.386 0,32.278 C0,15.164 13.868,1.298 30.974,1.298" id="Fill-1" fill="#F4D27A"></path>
                    <path d="M30.97412,1.298 L31.28612,1.306 L31.28612,63.248004 L30.97412,63.254004 C13.868124,63.254004 0.00012304688,49.386004 0.00012304688,32.278 C0.00012304688,15.164 13.868124,1.298 30.97412,1.298" id="Fill-2" fill="#F7E092"></path>
                    <path d="M28.20402,53.670002 L28.20402,48.690002 C24.68802,48.528002 21.28202,47.534002 19.290018,46.434002 L20.86402,40.302 C23.06002,41.502 26.15002,42.61 29.56402,42.61 C32.60802,42.61 34.64802,41.398 34.64802,39.362 C34.64802,37.364 32.97202,36.1 29.03602,34.794 C23.43002,32.906 19.604018,30.288 19.604018,25.202 C19.604018,20.534 22.85602,16.916 28.46002,15.876 L28.46002,10.888 L33.59802,10.888 L33.59802,15.502 C37.06202,15.61 39.42002,16.394 41.25802,17.232 L39.68202,23.156 C38.36802,22.528 35.91402,21.32 32.13202,21.32 C28.73002,21.32 27.62402,22.84 27.62402,24.306 C27.62402,25.984 29.46202,27.138 33.97002,28.766 C40.20202,30.966 42.66602,33.852 42.66602,38.622 C42.66602,43.284 39.42002,47.274002 33.38802,48.268002 L33.38802,53.670002 L28.20402,53.670002" id="Fill-3" fill="#FFFFFF"></path>
                    <path d="M33.9701,28.766 C32.6421,28.286 31.5541,27.852 30.6701,27.43 L30.6701,35.388 C33.4381,36.5 34.6481,37.666 34.6481,39.362 C34.6481,41.14 33.0941,42.288 30.6701,42.55 L30.6701,53.670002 L33.3881,53.670002 L33.3881,48.268002 C39.4201,47.274002 42.6661,43.284 42.6661,38.622 C42.6661,33.852 40.2021,30.966 33.9701,28.766" id="Fill-4" fill="#EAEDF0"></path>
                </g>
            </g>
        </g>
    </g>
</svg>