<svg xmlns="http://www.w3.org/2000/svg" width="136.251" height="137" viewBox="0 0 136.251 137">
  <title>illustration2</title>
  <g>
    <g>
      <path d="M68.126,0h0a68.314,68.314,0,0,1,68.125,68.5h0A68.314,68.314,0,0,1,68.126,137h0A68.314,68.314,0,0,1,0,68.5H0A68.314,68.314,0,0,1,68.126,0Z" transform="translate(-0.001 0)" fill="#eaeef3" fill-opacity="0"/>
      <path d="M33.015,109.525A14.754,14.754,0,1,1,47.688,94.69v0.081a14.738,14.738,0,0,1-14.673,14.754h0Zm0-28.83A14,14,0,1,0,46.94,94.77V94.695a13.985,13.985,0,0,0-13.925-14h0Z" transform="translate(-0.001 0)" fill="#b6c1cd"/>
      <path d="M74.14,37A13,13,0,1,1,87.069,23.929V24A12.986,12.986,0,0,1,74.14,37h0Zm0-25.4A12.337,12.337,0,1,0,86.409,24q0-.035,0-0.071A12.322,12.322,0,0,0,74.14,11.6h0Z" transform="translate(-0.001 0)" fill="#b6c1cd"/>
      <rect x="40.569" y="75.355" width="31.443" height="0.753" transform="matrix(0.819, -0.574, 0.574, 0.819, -33.288, 46.072)" fill="#b6c1cd"/>
      <rect x="64.31" y="54.13" width="48.063" height="0.753" transform="translate(-15.396 50.791) rotate(-29.623)" fill="#b6c1cd"/>
      <rect x="74.417" y="66.63" width="0.749" height="34.553" transform="translate(-22.195 27.093) rotate(-17.926)" fill="#b6c1cc"/>
      <rect x="89.753" y="45.512" width="0.749" height="45.768" transform="translate(14.409 152.467) rotate(-85.187)" fill="#b6c1cc"/>
      <ellipse cx="32.864" cy="94.545" rx="11.754" ry="11.818" fill="#fec45d"/>
      <path d="M41.025,44.337a7.979,7.979,0,1,1,7.936-8.022v0.043a7.961,7.961,0,0,1-7.936,7.979h0Zm0-15.13a7.226,7.226,0,1,0,7.187,7.265V36.433a7.307,7.307,0,0,0-7.187-7.226h0Z" transform="translate(-0.001 0)" fill="#b6c1cc"/>
      <path d="M13.251,77.382a2.032,2.032,0,1,1,2.021-2.043V75.35a2.018,2.018,0,0,1-2,2.032H13.251Zm0-3.387a1.28,1.28,0,1,0,1.244,1.244,1.28,1.28,0,0,0-1.244-1.244h0Z" transform="translate(-0.001 0)" fill="#b6c1cc"/>
      <path d="M116.113,95.3a2.032,2.032,0,1,1,2.021-2.043v0.011a2.018,2.018,0,0,1-2,2.032h-0.017Zm0-3.312a1.265,1.265,0,0,0-1.273,1.257q0,0.012,0,.023a1.273,1.273,0,0,0,2.545.071q0-.036,0-0.071a1.265,1.265,0,0,0-1.25-1.28h-0.022Z" transform="translate(-0.001 0)" fill="#b6c1cc"/>
      <path d="M16.769,52.015a4.366,4.366,0,1,1,4.342-4.39v0.024a4.357,4.357,0,0,1-4.342,4.366h0Zm0-7.979a3.613,3.613,0,1,0,3.593,3.633v-0.02a3.557,3.557,0,0,0-3.5-3.613H16.769Z" transform="translate(-0.001 0)" fill="#b6c1cc"/>
      <path d="M112.22,44.788a4.366,4.366,0,1,1,4.342-4.39v0.024a4.357,4.357,0,0,1-4.342,4.366h0Zm0-7.979a3.613,3.613,0,1,0,3.593,3.633v-0.02a3.654,3.654,0,0,0-3.593-3.613h0Z" transform="translate(-0.001 0)" fill="#b6c1cc"/>
      <rect x="48.96" y="40.174" width="0.749" height="8.506" transform="translate(-16.848 49.692) rotate(-46.552)" fill="#b6c1cd"/>
      <rect x="68.866" y="39.905" width="7.187" height="0.753" transform="translate(25.767 108.786) rotate(-84.792)" fill="#b6c1cd"/>
      <g>
        <g>
          <rect x="40.65" y="34.175" width="0.749" height="4.516" fill="#484f59"/>
          <rect x="38.778" y="35.981" width="4.492" height="0.753" fill="#484f59"/>
        </g>
        <path d="M41.025,42.907a6.439,6.439,0,0,1-4.567-1.882,6.569,6.569,0,0,1,0-9.184,6.476,6.476,0,1,1,9.133,9.184,6.571,6.571,0,0,1-4.567,1.882h0Zm0-12.27a5.769,5.769,0,0,0-4.043,1.656,5.84,5.84,0,0,0,0,8.13,5.733,5.733,0,0,0,8.085-8.13,5.9,5.9,0,0,0-4.043-1.656h0Z" transform="translate(-0.001 0)" fill="#484f59"/>
      </g>
      <g>
        <rect x="29.72" y="58.79" width="0.749" height="4.441" fill="#484f59"/>
        <rect x="27.848" y="60.596" width="4.492" height="0.753" fill="#484f59"/>
      </g>
      <g>
        <rect x="66.627" y="108.245" width="0.749" height="4.441" fill="#484f59"/>
        <rect x="64.756" y="110.127" width="4.417" height="0.753" fill="#484f59"/>
      </g>
      <g>
        <path d="M55.4,51.714A19.906,19.906,0,1,0,83.184,80.229q0.184-.179.363-0.363h0A19.986,19.986,0,0,0,69.473,45.842,19.341,19.341,0,0,0,55.4,51.714h0Z" transform="translate(-0.001 0)" fill="#22d0a9"/>
        <path d="M76.151,85.877s-0.288-.143-0.619-0.268c-0.354-.134-0.779-0.3-1.029-0.421a1.109,1.109,0,0,1-.641-1.07c-0.179-.786-0.347-2.446-0.414-3.169h-8.3c-0.068.723-.236,2.383-0.415,3.169a1.108,1.108,0,0,1-.64,1.07c-0.247.119-.667,0.283-1.018,0.416-0.336.127-.611,0.225-0.611,0.225S62.2,85.978,62.627,86H75.97c0.4,0.007.181-.123,0.181-0.123" transform="translate(-0.001 0)" fill="#eaedf0"/>
        <path d="M86.692,48.326a24.517,24.517,0,1,0-17.219,42A24.1,24.1,0,0,0,86.767,83.1a24.72,24.72,0,0,0-.075-34.777h0v0Zm-3.219,31.54A19.465,19.465,0,0,1,69.4,85.738a19.992,19.992,0,1,1,14.074-5.871h0Z" transform="translate(-0.001 0)" fill="#30363d"/>
        <path d="M60.415,81.523a19.338,19.338,0,0,1,0-27.249,18.791,18.791,0,0,1,13.55-5.646h0a18.475,18.475,0,0,1,5.764.9A19.057,19.057,0,0,0,69.4,46.52h0A19.223,19.223,0,0,0,50.233,65.79a19.442,19.442,0,0,0,5.615,13.625,18.655,18.655,0,0,0,7.786,4.742,22.336,22.336,0,0,1-3.219-2.635h0Z" transform="translate(-0.001 0)" fill="#fff" opacity="0.2" style="isolation: isolate"/>
        <path d="M69.4,86.867a21.152,21.152,0,0,1,0-42.3h0V42.53H69.323A22.823,22.823,0,0,0,53,49.38a23.234,23.234,0,0,0,16.32,39.6l0.08-2.108h0Z" transform="translate(-0.001 0)" fill="#474f59"/>
      </g>
      <path d="M60.415,81.523a19.338,19.338,0,0,1,0-27.249,18.791,18.791,0,0,1,13.55-5.646h0a18.475,18.475,0,0,1,5.764.9A19.057,19.057,0,0,0,69.4,46.52h0A19.223,19.223,0,0,0,50.233,65.79a19.442,19.442,0,0,0,5.615,13.625,18.655,18.655,0,0,0,7.786,4.742,22.336,22.336,0,0,1-3.219-2.635h0Z" transform="translate(-0.001 0)" fill="#fff" opacity="0.2" style="isolation: isolate"/>
      <ellipse cx="116.722" cy="70.457" rx="12.278" ry="12.345" fill="#f4da80"/>
      <circle cx="80.4" cy="104" r="10" fill="#ff876c"/>
      <circle cx="74.4" cy="24" r="10" fill="#ff876c"/>
      <rect x="66.4" y="19" width="16" height="15" fill="#8b572a"/>
      <path d="M68.125,30.164A1.313,1.313,0,0,1,69.358,28H79.876c1.375,0,1.806.882,0.959,1.976l-0.812,1.048A5.76,5.76,0,0,1,75.993,33H72.272a4.8,4.8,0,0,1-3.756-2.164Z" transform="translate(-0.001 0)" fill="#452d17"/>
      <g>
        <path d="M67.925,29a0.525,0.525,0,0,1-.524-0.526h0V19.616a0.525,0.525,0,0,1,.523-0.527H80.752a0.525,0.525,0,0,1,.524.526h0v8.857a0.525,0.525,0,0,1-.523.527H67.925" transform="translate(-0.001 0)" fill="#d6dddf"/>
        <path d="M67.481,19.616a0.446,0.446,0,0,1,.444-0.447H80.752a0.446,0.446,0,0,1,.445.447h0v8.857a0.446,0.446,0,0,1-.445.447H67.925a0.446,0.446,0,0,1-.444-0.447V19.616" transform="translate(-0.001 0)" fill="#eaedf0"/>
        <path d="M80.657,24.133a0.089,0.089,0,1,1,.088-0.09h0a0.089,0.089,0,0,1-.088.089" transform="translate(-0.001 0)" fill="#6c7686"/>
        <path d="M67.975,24.507a0.1,0.1,0,0,1-.1-0.1V23.681a0.1,0.1,0,0,1,.1-0.1h0.2a0.1,0.1,0,0,1,.1.1v0.727a0.1,0.1,0,0,1-.1.1h-0.2" transform="translate(-0.001 0)" fill="#d6dddf"/>
        <path d="M68.7,28.482V19.718l11.433-.01v8.763l-11.432.01" transform="translate(-0.001 0)" fill="#01bacc"/>
        <path d="M68.731,24.248V21.987l3.615-2.247h3.63l-7.245,4.508" transform="translate(-0.001 0)" fill="#fff" fill-opacity="0.2"/>
        <path d="M68.73,25.5V24.641l7.878-4.9h1.381L68.73,25.5" transform="translate(-0.001 0)" fill="#fff" fill-opacity="0.2"/>
      </g>
      <g>
        <ellipse cx="74.395" cy="20.162" rx="2.995" ry="3.011" fill="#f4da80"/>
        <ellipse cx="74.395" cy="20.162" rx="2.92" ry="2.936" fill="#f0ca67"/>
        <ellipse cx="74.395" cy="20.162" rx="2.321" ry="2.334" fill="#f4da80"/>
        <path d="M74.246,21.516a1.06,1.06,0,0,1-.449-0.151,1.034,1.034,0,0,1-.3-0.226l0.075-.151H73.8l0.075,0.075c0.075,0,.075.075,0.15,0.075s0.15,0.075.225,0.075l0.075-.979c-0.075,0-.15-0.075-0.225-0.075a0.69,0.69,0,0,1-.374-0.376,0.365,0.365,0,0,1-.075-0.3,0.572,0.572,0,0,1,.075-0.3,0.69,0.69,0,0,1,.374-0.376,0.559,0.559,0,0,1,.374-0.075V18.355H74.7v0.376c0.15,0,.225.075,0.374,0.075a0.4,0.4,0,0,0,.225.151l-0.075.151a0.073,0.073,0,0,1-.071.075H75.069a0.073,0.073,0,0,1-.075-0.071v0a0.261,0.261,0,0,0-.15-0.075,0.149,0.149,0,0,1-.15-0.075l-0.075.9a1.691,1.691,0,0,0,.3.075,0.69,0.69,0,0,1,.374.376,0.643,0.643,0,0,1,0,.6c-0.075.075-.075,0.226-0.15,0.3a0.388,0.388,0,0,1-.3.151,0.558,0.558,0,0,1-.374.075v0.452H74.246V21.516h0Zm-0.3-2.108v0.151c0,0.075.075,0.075,0.075,0.151,0.075,0,.075.075,0.15,0.075s0.075,0.075.15,0.075l0.075-.828a0.274,0.274,0,0,0-.225.075c-0.075,0-.075.075-0.15,0.075s-0.075.075-.075,0.151v0.075h0Zm1.048,1.28v-0.15c0-.075-0.075-0.075-0.075-0.151-0.075,0-.075-0.075-0.15-0.075s-0.075-.075-0.15-0.075l-0.075.979a0.274,0.274,0,0,0,.225-0.075,0.261,0.261,0,0,0,.15-0.075,0.151,0.151,0,0,0,.075-0.151V20.688h0Z" transform="translate(-0.001 0)" fill="#f0ca67"/>
      </g>
      <g>
        <g>
          <path d="M79.861,21.742l-1.572-.527-1.5-.527,0.449,1.581,0.524,1.581,0.524-1.129,0.823,0.828,0.524-.452-0.823-.828Z" transform="translate(-0.001 0)" fill="#30363d"/>
          <path d="M78.288,21.215l-1.5-.527v0.075l2.545,2.559,0.3-.226-0.823-.828,1.048-.527Z" transform="translate(-0.001 0)" fill="#484f59"/>
        </g>
        <g>
          <path d="M76.417,20.086c-0.075,0-.075-0.075,0,0l-0.075-.979c0-.075,0-0.075.075-0.075s0.075,0,.075.075l-0.075.979h0Z" transform="translate(-0.001 0)" fill="#f7f8fc"/>
          <path d="M75.893,20.312h0L75.07,19.86s-0.075-.075,0-0.075c0,0,.075-0.075.075,0l0.823,0.452-0.075.075h0Z" transform="translate(-0.001 0)" fill="#f7f8fc"/>
          <path d="M75.144,21.291h0c-0.075-.075-0.075-0.151,0-0.151l0.823-.452h0.075v0.075l-0.9.527h0Z" transform="translate(-0.001 0)" fill="#f7f8fc"/>
          <path d="M76.417,22.043h0l-0.075-.979c0-.075,0-0.075.075-0.075s0.075,0,.075.075l-0.075.979h0Z" transform="translate(-0.001 0)" fill="#f7f8fc"/>
          <path d="M76.866,20.312h0c-0.075-.075-0.075-0.151,0-0.151l0.823-.452h0.075v0.075l-0.9.527h0Z" transform="translate(-0.001 0)" fill="#f7f8fc"/>
        </g>
      </g>
      <g>
        <g>
          <path d="M37.132,102.75a1.155,1.155,0,0,1-1.123,1.129H29.346a1.155,1.155,0,0,1-1.123-1.129V86.867a1.155,1.155,0,0,1,1.123-1.129h6.663a1.155,1.155,0,0,1,1.123,1.129V102.75h0Z" transform="translate(-0.001 0)" fill="#474f59"/>
          <path d="M29.5,103.653a1.155,1.155,0,0,1-1.123-1.129V87.018a1.155,1.155,0,0,1,1.123-1.13H35.79a1.155,1.155,0,0,1,1.123,1.129v15.507a1.155,1.155,0,0,1-1.123,1.129H29.5Z" transform="translate(-0.001 0)" fill="#30363d"/>
          <g>
            <circle cx="31.442" cy="86.867" r="0.15" fill="#596273"/>
            <circle cx="32.639" cy="86.34" r="0.075" fill="#596273"/>
            <path d="M33.239,86.867h0l-1.123.075c-0.075,0-.075,0-0.075-0.075h0c0-.075,0-0.075.075-0.075l1.123,0.075h0Z" transform="translate(-0.001 0)" fill="#596273"/>
          </g>
          <path d="M33.314,102.9a0.161,0.161,0,0,1-.15.151H32.191a0.161,0.161,0,0,1-.15-0.151v-0.226a0.161,0.161,0,0,1,.15-0.151h0.973a0.161,0.161,0,0,1,.15.151V102.9h0Z" transform="translate(-0.001 0)" fill="#596273"/>
          <path d="M28.373,88.6h-0.15V87.921h0.15V88.6Z" transform="translate(-0.001 0)" fill="#30363d"/>
          <path d="M28.373,90.4h-0.15V89.2h0.15v1.2Z" transform="translate(-0.001 0)" fill="#30363d"/>
          <path d="M28.373,91.76h-0.15V90.631h0.15V91.76Z" transform="translate(-0.001 0)" fill="#30363d"/>
          <g>
            <rect x="28.747" y="87.846" width="7.786" height="13.926" fill="#01bacc"/>
            <path d="M28.747,92.287V96.8l5.54-8.958h-2.77Z" transform="translate(-0.001 0)" fill="#01c6da"/>
            <path d="M28.747,99.287l7.037-11.442H34.737l-5.989,9.71v1.731h0Z" transform="translate(-0.001 0)" fill="#01c6da"/>
          </g>
        </g>
        <g>
          <ellipse cx="32.639" cy="94.244" rx="2.995" ry="3.011" fill="#f4da80"/>
          <ellipse cx="32.639" cy="94.244" rx="2.92" ry="2.936" fill="#f0ca67"/>
          <ellipse cx="32.639" cy="94.244" rx="2.321" ry="2.334" fill="#f4da80"/>
          <path d="M32.491,95.6a1.06,1.06,0,0,1-.449-0.151,1.034,1.034,0,0,1-.3-0.226l0.075-.151h0.224l0.075,0.075c0.075,0,.075.075,0.15,0.075s0.15,0.075.225,0.075l0.075-.979c-0.075,0-.15-0.075-0.225-0.075a0.69,0.69,0,0,1-.374-0.376,0.365,0.365,0,0,1-.075-0.3,0.572,0.572,0,0,1,.075-0.3,0.69,0.69,0,0,1,.374-0.376,0.559,0.559,0,0,1,.374-0.075V92.437H32.94v0.376c0.15,0,.225.075,0.374,0.075a0.4,0.4,0,0,0,.225.151l-0.075.151a0.073,0.073,0,0,1-.071.075H33.314a0.073,0.073,0,0,1-.075-0.071v0a0.261,0.261,0,0,0-.15-0.075,0.149,0.149,0,0,1-.15-0.075l-0.075.9a1.691,1.691,0,0,0,.3.075,0.69,0.69,0,0,1,.374.376,0.643,0.643,0,0,1,0,.6c-0.075.075-.075,0.226-0.15,0.3a0.388,0.388,0,0,1-.3.151,0.558,0.558,0,0,1-.374.075v0.452H32.491V95.6h0Zm-0.3-2.108v0.151c0,0.075.075,0.075,0.075,0.151,0.075,0,.075.075,0.15,0.075s0.075,0.075.15,0.075l0.075-.828a0.274,0.274,0,0,0-.225.075c-0.075,0-.075.075-0.15,0.075s-0.075.075-.075,0.151v0.075h0Zm1.048,1.28V94.62c0-.075-0.075-0.075-0.075-0.151-0.075,0-.075-0.075-0.15-0.075s-0.075-.075-0.15-0.075l-0.075.979a0.274,0.274,0,0,0,.225-0.075,0.261,0.261,0,0,0,.15-0.075A0.151,0.151,0,0,0,33.239,95V94.771h0Z" transform="translate(-0.001 0)" fill="#f0ca67"/>
        </g>
        <g>
          <g>
            <path d="M38.031,95.825l-1.5-.527-1.572-.527,0.524,1.581,0.524,1.581L36.533,96.8l0.823,0.828L37.8,97.18l-0.823-.828Z" transform="translate(-0.001 0)" fill="#30363d"/>
            <path d="M36.533,95.3l-1.572-.527v0.075l2.62,2.559,0.22-.227-0.823-.828,1.048-.527Z" transform="translate(-0.001 0)" fill="#484f59"/>
          </g>
          <g>
            <path d="M34.587,94.169h0l-0.075-.979c0-.075,0-0.075.075-0.075s0.075,0,.075.075l-0.075.979c0.075-.075.075,0,0,0h0Z" transform="translate(-0.001 0)" fill="#f7f8fc"/>
            <path d="M34.138,94.394h0l-0.823-.452s-0.075-.075,0-0.075c0,0,.075-0.075.075,0l0.823,0.452-0.075.075h0Z" transform="translate(-0.001 0)" fill="#f7f8fc"/>
            <path d="M33.314,95.373h0c-0.075-.075-0.075-0.151,0-0.151l0.823-.452h0.075v0.075l-0.9.527h0Z" transform="translate(-0.001 0)" fill="#f7f8fc"/>
            <path d="M34.587,96.126h0l-0.075-.979c0-.075,0-0.075.075-0.075s0.075,0,.075.075l-0.075.979h0Z" transform="translate(-0.001 0)" fill="#f7f8fc"/>
            <path d="M35.036,94.394h0c-0.075-.075-0.075-0.151,0-0.151l0.823-.452h0.075v0.075l-0.9.527h0Z" transform="translate(-0.001 0)" fill="#f7f8fc"/>
          </g>
        </g>
      </g>
      <g>
        <g>
          <path d="M126.38,75.35V64.36a0.513,0.513,0,0,0-.5-0.527H108.188a0.513,0.513,0,0,0-.524.5q0,0.013,0,.025V75.35H126.38Z" transform="translate(-0.001 0)" fill="#30363d"/>
          <path d="M107.59,75.35v1.581a0.513,0.513,0,0,0,.5.527h17.692a0.513,0.513,0,0,0,.524-0.5q0-.013,0-0.025V75.35H107.59Z" transform="translate(-0.001 0)" fill="#e5e8ec"/>
          <path d="M120.241,79.866l-0.3-.151a2.487,2.487,0,0,1-.449-0.226c-0.225-.075-0.225-0.151-0.3-0.527s-0.15-1.129-.225-1.5h-3.893a5.242,5.242,0,0,1-.225,1.5,0.542,0.542,0,0,1-.3.527l-0.449.226h0a0.743,0.743,0,0,1-.3.075s-0.15.075,0.075,0.075h6.289c0.15,0.075.075,0,.075,0h0Z" transform="translate(-0.001 0)" fill="#e5e8ec"/>
          <path d="M118.969,77.909a0.959,0.959,0,0,0-.075-0.452H115a1.331,1.331,0,0,1-.075.452h4.043Z" transform="translate(-0.001 0)" fill="#cdd5d7"/>
          <path d="M110.958,75.35h3.893l7.187-11.442H118.07Z" transform="translate(-0.001 0)" fill="#484f59"/>
          <path d="M115.974,75.35H117.4l7.112-11.442h-1.422Z" transform="translate(-0.001 0)" fill="#484f59"/>
          <rect x="108.487" y="64.812" width="16.994" height="9.635" fill="#f7f8fc"/>
          <path d="M111.557,74.371h3.893l5.989-9.56h-3.893Z" transform="translate(-0.001 0)" fill="#fff"/>
          <path d="M118,74.371l5.989-9.56h-1.422l-5.989,9.56H118Z" transform="translate(-0.001 0)" fill="#fff"/>
        </g>
        <g>
          <ellipse cx="116.947" cy="69.403" rx="2.995" ry="3.011" fill="#f4da80"/>
          <ellipse cx="116.947" cy="69.403" rx="2.92" ry="2.936" fill="#f0ca67"/>
          <ellipse cx="116.947" cy="69.403" rx="2.321" ry="2.334" fill="#f4da80"/>
          <path d="M116.8,70.758a1.06,1.06,0,0,1-.449-0.151,1.034,1.034,0,0,1-.3-0.226l0.075-.151h0.225l0.075,0.075c0.075,0,.075.075,0.15,0.075s0.15,0.075.225,0.075l0.075-.979c-0.075,0-.15-0.075-0.225-0.075a0.69,0.69,0,0,1-.374-0.376,0.365,0.365,0,0,1-.075-0.3,0.572,0.572,0,0,1,.075-0.3,0.69,0.69,0,0,1,.374-0.376,0.559,0.559,0,0,1,.374-0.075V67.6h0.225v0.376c0.15,0,.225.075,0.374,0.075a0.4,0.4,0,0,0,.225.151l-0.075.151a0.073,0.073,0,0,1-.071.075h-0.083a0.073,0.073,0,0,1-.075-0.071v0a0.261,0.261,0,0,0-.15-0.075,0.149,0.149,0,0,1-.15-0.075l-0.075.9a1.691,1.691,0,0,0,.3.075,0.69,0.69,0,0,1,.374.376,0.643,0.643,0,0,1,0,.6c-0.075.075-.075,0.226-0.15,0.3a0.388,0.388,0,0,1-.3.151,0.558,0.558,0,0,1-.374.075v0.452H116.8V70.758h0Zm-0.3-2.108V68.8c0,0.075.075,0.075,0.075,0.151,0.075,0,.075.075,0.15,0.075s0.075,0.075.15,0.075l0.075-.828a0.274,0.274,0,0,0-.225.075c-0.075,0-.075.075-0.15,0.075s-0.075.075-.075,0.151v0.075h0Zm1.048,1.28V69.78c0-.075-0.075-0.075-0.075-0.151-0.075,0-.075-0.075-0.15-0.075s-0.075-.075-0.15-0.075l-0.075.979a0.274,0.274,0,0,0,.225-0.075,0.261,0.261,0,0,0,.15-0.075,0.151,0.151,0,0,0,.075-0.151V69.93h0Z" transform="translate(-0.001 0)" fill="#f0ca67"/>
        </g>
        <g>
          <g>
            <path d="M122.412,70.984l-1.572-.527-1.5-.527,0.449,1.581,0.524,1.581,0.524-1.129,0.823,0.828,0.524-.452-0.823-.828Z" transform="translate(-0.001 0)" fill="#30363d"/>
            <path d="M120.84,70.457l-1.5-.527V70l2.545,2.559,0.3-.226-0.823-.828,1.048-.527Z" transform="translate(-0.001 0)" fill="#484f59"/>
          </g>
          <g>
            <path d="M118.969,69.328c-0.075,0-.075-0.075,0,0l-0.075-.979c0-.075,0-0.075.075-0.075s0.075,0,.075.075l-0.075.979h0Z" transform="translate(-0.001 0)" fill="#f7f8fc"/>
            <path d="M118.445,69.554h0l-0.824-.454s-0.075-.075,0-0.075c0,0,.075-0.075.075,0l0.823,0.452-0.075.075h0v0Z" transform="translate(-0.001 0)" fill="#f7f8fc"/>
            <path d="M117.7,70.532h0c-0.075-.075-0.075-0.151,0-0.151l0.823-.452H118.6V70l-0.9.527h0Z" transform="translate(-0.001 0)" fill="#f7f8fc"/>
            <path d="M118.969,71.285h0l-0.075-.979c0-.075,0-0.075.075-0.075s0.075,0,.075.075l-0.075.979h0Z" transform="translate(-0.001 0)" fill="#f7f8fc"/>
            <path d="M119.418,69.554h0c-0.075-.075-0.075-0.151,0-0.151l0.823-.452h0.075v0.075l-0.9.527h0Z" transform="translate(-0.001 0)" fill="#f7f8fc"/>
          </g>
        </g>
      </g>
      <g>
        <g>
          <path d="M84.8,110.821a0.49,0.49,0,0,1-.5.536H76a0.49,0.49,0,0,1-.5-0.536V97.857a0.49,0.49,0,0,1,.5-0.536h8.3a0.49,0.49,0,0,1,.5.536v12.964h0Z" transform="translate(-0.001 0)" fill="#596273"/>
          <path d="M76,111.25a0.446,0.446,0,0,1-.4-0.429V97.857a0.446,0.446,0,0,1,.4-0.429h8.3a0.446,0.446,0,0,1,.4.429v12.964a0.446,0.446,0,0,1-.4.429H76Z" transform="translate(-0.001 0)" fill="#30363d"/>
          <ellipse cx="80.1" cy="97.964" rx="0.1" ry="0.107" fill="#596273"/>
          <path d="M80.6,110.714c0,0.107-.1.107,0,0l-0.8.107c-0.1,0-.1,0-0.1-0.107V110.5c0-.107,0-0.107.1-0.107h0.7c0.1,0,.1,0,0.1.107v0.214h0Z" transform="translate(-0.001 0)" fill="#596273"/>
          <rect x="76.1" y="98.5" width="8.1" height="11.571" fill="#01bacc"/>
          <g>
            <path d="M76.1,102.143v3.643L80.3,98.5H78.2Z" transform="translate(-0.001 0)" fill="#01c6da"/>
            <path d="M76.1,107.821L81.5,98.5H80.7l-4.6,7.929v1.393h0Z" transform="translate(-0.001 0)" fill="#01c6da"/>
          </g>
        </g>
        <g>
          <ellipse cx="80.4" cy="104.179" rx="2.6" ry="2.786" fill="#f4da80"/>
          <ellipse cx="80.4" cy="104.179" rx="2.5" ry="2.679" fill="#f0ca67"/>
          <ellipse cx="80.4" cy="104.179" rx="2" ry="2.143" fill="#f4da80"/>
          <path d="M80.3,105.464a0.57,0.57,0,0,1-.4-0.107c-0.1-.107-0.2-0.107-0.3-0.214l0.1-.107h0.1a0.1,0.1,0,0,1,.1.1v0.007L80,105.25h0.2l0.1-.964a0.2,0.2,0,0,1-.2-0.107c-0.1,0-.1-0.107-0.2-0.107s-0.1-.107-0.1-0.214-0.1-.214-0.1-0.321v-0.214c0-.107.1-0.107,0.1-0.214A0.2,0.2,0,0,1,80,103c0.1,0,.2-0.107.3-0.107v-0.321h0.2v0.321a0.352,0.352,0,0,1,.3.107,0.223,0.223,0,0,1,.2.214l-0.1.107H80.6a0.1,0.1,0,0,1-.1-0.1v-0.007H80.4l-0.1.857a0.343,0.343,0,0,1,.2.107c0.1,0,.1.107,0.2,0.107s0.1,0.107.1,0.214,0.1,0.214.1,0.321v0.321a0.383,0.383,0,0,1-.1.214l-0.2.214c-0.1,0-.2.107-0.3,0.107V106.1H80.1l0.2-.643h0v0ZM80,103.535v0.107a0.1,0.1,0,0,0,.093.107H80.1l0.1,0.107a0.1,0.1,0,0,1,.1.1v-0.743H80.1c-0.1,0-.1,0-0.1.107l-0.1.107a0.1,0.1,0,0,1,.1.1v0.007h0Zm0.9,1.179v-0.107a0.1,0.1,0,0,0-.093-0.107H80.8l-0.1-.107a0.1,0.1,0,0,1-.1-0.1v-0.007l-0.1.857h0.2a0.1,0.1,0,0,0,.1-0.1v-0.007l0.1-.107v-0.214h0Z" transform="translate(-0.001 0)" fill="#f0ca67"/>
        </g>
        <g>
          <g>
            <path d="M85.7,106.321l-1.3-.429-1.3-.536,0.4,1.5,0.4,1.393,0.5-.964,0.7,0.75,0.4-.429-0.7-.75Z" transform="translate(-0.001 0)" fill="#30363d"/>
            <path d="M84.4,105.893l-1.3-.536v0.107l2.2,2.357,0.2-.214-0.7-.75,0.9-.536Z" transform="translate(-0.001 0)" fill="#484f59"/>
          </g>
          <g>
            <path d="M82.7,104.821h0l-0.1-.964a0.1,0.1,0,0,1,.093-0.107H82.7a0.1,0.1,0,0,1,.1.1v0.007l-0.1.964c0.1-.107.1,0,0,0h0Z" transform="translate(-0.001 0)" fill="#f7f8fc"/>
            <path d="M82.3,105.036h0l-0.7-.429V104.5h0.1l0.7,0.429-0.1.107h0Z" transform="translate(-0.001 0)" fill="#f7f8fc"/>
            <path d="M81.6,106h0c-0.1-.107-0.1-0.107,0-0.107l0.7-.429h0.1v0.107L81.6,106h0Z" transform="translate(-0.001 0)" fill="#f7f8fc"/>
            <path d="M82.7,106.643h0l-0.1-.964a0.1,0.1,0,0,1,.093-0.107H82.7a0.1,0.1,0,0,1,.1.1v0.007l-0.1.964h0Z" transform="translate(-0.001 0)" fill="#f7f8fc"/>
            <path d="M83.1,105.036h0c-0.1-.107-0.1-0.107,0-0.107l0.7-.429h0.1v0.107l-0.8.429h0Z" transform="translate(-0.001 0)" fill="#f7f8fc"/>
          </g>
        </g>
      </g>
    </g>
    <g>
      <path d="M89.116,76.393V53.257a1.089,1.089,0,0,0-1.086-1.089H50.565a1.089,1.089,0,0,0-1.086,1.089V76.393H89.116" transform="translate(-0.001 0)" fill="#3f464e"/>
      <path d="M49.4,76.437v3.345a1.166,1.166,0,0,0,1.164,1.167H88.03a1.166,1.166,0,0,0,1.164-1.167V76.437H49.4" transform="translate(-0.001 0)" fill="#eaedf0"/>
      <path d="M73.535,81.823c-0.037-.344-0.067-0.653-0.088-0.873h-8.3c-0.021.22-.051,0.529-0.088,0.873h8.477" transform="translate(-0.001 0)" fill="#d6dddf"/>
      <path d="M51.321,54.035H87.273v20.3H51.321v-20.3Z" transform="translate(-0.001 0)" fill="#eaedf0"/>
      <path d="M66.127,74.337H57.878l12.637-20.3h8.249l-12.638,20.3" transform="translate(-0.001 0)" fill="#ebeef1"/>
      <path d="M71.5,74.337H68.484l12.637-20.3h3.012L71.5,74.337" transform="translate(-0.001 0)" fill="#ebeef1"/>
      <path d="M62.942,62.563h0.152c0.028-.164-0.16-0.137-0.152,0" transform="translate(-0.001 0)" fill="#d6dddf"/>
      <path d="M62.942,62.563h0.152c0.028-.164-0.16-0.137-0.152,0" transform="translate(-0.001 0)" fill="#eaedf0"/>
      <path d="M55.046,54H82.132V74.4H55.046V54Z" transform="translate(-0.001 0)" fill="#eaedf0"/>
      <path d="M51.4,54h35.87v1.95H51.4V54Z" transform="translate(-0.001 0)" fill="#d6dddf"/>
      <path d="M70.633,54.49H86.7v0.975H70.633V54.49Z" transform="translate(-0.001 0)" fill="#fff"/>
      <path d="M56.471,54.977a0.389,0.389,0,1,1-.389-0.39,0.389,0.389,0,0,1,.389.39" transform="translate(-0.001 0)" fill="#535b66"/>
      <path d="M53.893,54.977a0.389,0.389,0,1,1-.389-0.39,0.389,0.389,0,0,1,.389.39" transform="translate(-0.001 0)" fill="#ff9b7f"/>
      <path d="M55.139,54.963a0.389,0.389,0,1,1-.389-0.39,0.389,0.389,0,0,1,.389.39" transform="translate(-0.001 0)" fill="#00c5d6"/>
      <path d="M56.841,58.222h9.011v9.037H56.841V58.222Z" transform="translate(-0.001 0)" fill="#00cfe1"/>
      <path d="M58.36,68.694H61.8v3.453H58.36V68.694Z" transform="translate(-0.001 0)" fill="#c4cacb"/>
      <path d="M62.614,68.694h3.443v3.453H62.614V68.694Z" transform="translate(-0.001 0)" fill="#c4cacb"/>
      <path d="M66.867,68.694H70.31v3.453H66.867V68.694Z" transform="translate(-0.001 0)" fill="#c4cacb"/>
      <path d="M71.121,68.694h3.443v3.453H71.121V68.694Z" transform="translate(-0.001 0)" fill="#c4cacb"/>
      <path d="M75.374,68.694h3.444v3.453H75.374V68.694Z" transform="translate(-0.001 0)" fill="#c4cacb"/>
      <path d="M67.311,58.222H75.37v0.8H67.311v-0.8Z" transform="translate(-0.001 0)" fill="#ff9b7f"/>
      <path d="M67.311,60.3H79.846v0.8H67.311V60.3Z" transform="translate(-0.001 0)" fill="#c4cacb"/>
      <path d="M67.311,61.731H79.846v0.8H67.311v-0.8Z" transform="translate(-0.001 0)" fill="#c4cacb"/>
      <path d="M67.311,63.166h8.954v0.8H67.311v-0.8Z" transform="translate(-0.001 0)" fill="#c4cacb"/>
      <path d="M67.311,64.907h6.52v2.232h-6.52V64.907Z" transform="translate(-0.001 0)" fill="#ff9b7f"/>
      <path d="M68.5,65.774h4.134v0.5H68.5v-0.5Z" transform="translate(-0.001 0)" fill="#f9fafd"/>
      <path d="M56.841,70.42l0.289-.279,0.289-.279v1.116L57.13,70.7l-0.289-.28" transform="translate(-0.001 0)" fill="#a7a7a7"/>
      <path d="M80.427,70.42l-0.289.28-0.289.279V69.862l0.289,0.279,0.289,0.279" transform="translate(-0.001 0)" fill="#a7a7a7"/>
    </g>
  </g>
</svg>
