<svg width="106" height="105" viewBox="0 0 106 105" xmlns="http://www.w3.org/2000/svg" xmlns:xlink="http://www.w3.org/1999/xlink">
    <title>
        Page 1
    </title>
    <defs>
        <path id="a" d="M53 .315C23.775.315 0 23.72 0 52.49c0 28.77 23.775 52.175 53 52.175s53-23.406 53-52.175C106 23.72 82.225.315 53 .315z"/>
    </defs>
    <g fill="none" fill-rule="evenodd">
        <path d="M53 104.664c-29.225 0-53-23.405-53-52.175C0 23.72 23.775.313 53 .313s53 23.406 53 52.175c0 28.77-23.775 52.174-53 52.174" fill="#484F59"/>
        <g>
            <mask id="b" fill="#fff">
                <use xlink:href="#a"/>
            </mask>
            <use xlink:href="#a"/>
            <path d="M16.372 107h75.654V56.185H16.372V107z" fill="#82CF8F" mask="url(#b)"/>
            <path d="M16.372 81.814v2.102l32.94-2.102h-32.94z" fill="#7AC286" mask="url(#b)"/>
            <path d="M16.372 91.468v2.1l69.313-2.1H16.372z" fill="#7AC286" mask="url(#b)"/>
            <path d="M21.387 76.62l70.64 2.103V76.62h-70.64z" fill="#7AC286" mask="url(#b)"/>
            <path d="M60.347 86.62l31.68 2.1v-2.1h-31.68z" fill="#7AC286" mask="url(#b)"/>
            <path d="M16.372 73.158h75.654V31.592H16.372v41.566z" fill="#7AC286" mask="url(#b)"/>
            <path d="M53.51 57.354c-1.637 0-3.134-.53-4.196-1.114l-.756 2.958c.963.533 2.603 1.01 4.297 1.09v2.397h2.502v-2.603c2.91-.48 4.47-2.398 4.47-4.65 0-2.296-1.183-3.685-4.193-4.748-2.172-.786-3.057-1.342-3.057-2.15 0-.71.532-1.44 2.175-1.44 1.82 0 3.005.583 3.64.884l.76-2.855c-.885-.403-2.026-.782-3.69-.837v-2.222h-2.48v2.4c-2.707.502-4.27 2.25-4.27 4.497 0 2.453 1.84 3.722 4.548 4.63 1.893.63 2.707 1.236 2.707 2.198 0 .987-.99 1.566-2.457 1.566" fill="#AFD7A6" mask="url(#b)"/>
            <path d="M75.99 56.07a3.693 3.693 0 0 0 0-7.387 3.695 3.695 0 0 0-3.695 3.69 3.7 3.7 0 0 0 3.695 3.696" fill="#AFD7A6" mask="url(#b)"/>
            <path d="M32.397 56.07a3.697 3.697 0 0 0 3.693-3.698 3.692 3.692 0 0 0-7.385 0 3.7 3.7 0 0 0 3.692 3.697" fill="#AFD7A6" mask="url(#b)"/>
            <path d="M32.397 46.81a5.57 5.57 0 0 1 5.567 5.562c0 3.07-2.495 5.57-5.567 5.57-3.066 0-5.56-2.5-5.56-5.57a5.568 5.568 0 0 1 5.56-5.56M54.19 39c7.394 0 13.38 5.99 13.38 13.372 0 7.394-5.986 13.376-13.38 13.376-7.383 0-13.367-5.982-13.367-13.376C40.822 44.99 46.806 39 54.19 39m21.8 7.81a5.567 5.567 0 0 1 5.56 5.562c0 3.07-2.495 5.57-5.56 5.57-3.067 0-5.56-2.5-5.56-5.57a5.568 5.568 0 0 1 5.56-5.56M20.51 65.304c2.082-.286 4.096 1.483 4.096 3.646l-.028.278a.93.93 0 0 0 .93.98h57.373c.258 0 .49-.23.67-.42.178-.192.252-.567.233-.827a3.7 3.7 0 0 1 3.698-3.69c.138 0 .267.02.542.056a.92.92 0 0 0 .736-.227.922.922 0 0 0 .316-.703V40.35A.93.93 0 0 0 88 39.43c-2.14.307-4.218-1.427-4.218-3.63l-.9-.06.93-.202a.937.937 0 0 0-.246-.703.944.944 0 0 0-.684-.298H25.51c-.254 0-.485.242-.66.428-.178.184-.257.572-.244.826 0 2.214-2.102 3.947-4.216 3.64a.93.93 0 0 0-1.07.92l-.002 24.047c0 .27.183.52.385.696.207.176.543.248.808.212" fill="#AFD7A6" mask="url(#b)"/>
        </g>
    </g>
</svg>
