<svg width="106" height="105" viewBox="0 0 106 105" xmlns="http://www.w3.org/2000/svg">
    <title>
        ico-integration
    </title>
    <g fill="none" fill-rule="evenodd">
        <path d="M53 105C23.776 105 0 81.595 0 52.825 0 24.055 23.776.65 53 .65s53 23.406 53 52.175C106 81.595 82.224 105 53 105" fill="#01C6DA"/>
        <path d="M26.066 45.32l28.18-16.268 28.177 16.27v32.537L54.245 94.126 26.065 77.86V45.32z" fill="#F4DA80"/>
        <path d="M54.245 29.052l28.18 16.27V77.86l-28.18 16.267V29.052z" fill="#F3BD33"/>
        <path d="M18.69 31.85L46.87 15.346l7.396 13.712-28.18 16.266-7.393-13.477z" fill="#F0CA67"/>
        <path d="M89.835 31.844l-28.177-16.5-7.396 13.71 28.18 16.27 7.393-13.48z" fill="#F0CA67"/>
        <path d="M26.066 45.32l28.18-16.268 28.177 16.27-28.178 16.27-28.18-16.27z" fill="#F3BD33"/>
        <path d="M54.263 55.11a7.78 7.78 0 1 1 0-15.556 7.78 7.78 0 0 1 0 15.556m0-25.93c-10.025 0-18.152 8.128-18.152 18.15 0 10.026 8.128 18.153 18.153 18.153 10.024 0 18.152-8.127 18.152-18.152 0-10.022-8.128-18.15-18.152-18.15" fill="#30363D"/>
        <path d="M54.263 56.863c-5.264 0-9.53-4.266-9.53-9.53 0-5.262 4.266-9.53 9.53-9.53 5.264 0 9.53 4.268 9.53 9.53a9.528 9.528 0 0 1-9.53 9.53m0-21.556c-6.643 0-12.026 5.382-12.026 12.026 0 6.64 5.383 12.026 12.026 12.026 6.64 0 12.024-5.386 12.024-12.027 0-6.644-5.383-12.026-12.024-12.026" fill="#484F59"/>
        <path d="M58.235 32.924H49.84l1.36-6.354h5.673l1.362 6.354z" fill="#30363D"/>
        <path d="M50.5 32.87l-7.272 4.197-1.998-6.183 4.913-2.835 4.356 4.82z" fill="#30363D"/>
        <path d="M43.77 36.69l-4.197 7.27-4.822-4.356 2.838-4.913 6.183 2z" fill="#30363D"/>
        <path d="M39.854 43.362v8.395L33.5 50.394v-5.672l6.354-1.36z" fill="#30363D"/>
        <path d="M39.8 51.1l4.197 7.268-6.184 1.997-2.835-4.912 4.82-4.354z" fill="#30363D"/>
        <path d="M43.618 57.825l7.272 4.198-4.357 4.822-4.912-2.837 1.998-6.183z" fill="#30363D"/>
        <path d="M50.29 61.74h8.397l-1.362 6.356H51.65l-1.36-6.355z" fill="#30363D"/>
        <path d="M58.027 61.798l7.27-4.2 1.998 6.184-4.913 2.835-4.355-4.82z" fill="#30363D"/>
        <path d="M64.755 57.977l4.198-7.27 4.82 4.355-2.837 4.91-6.18-1.995z" fill="#30363D"/>
        <path d="M68.672 51.306v-8.398l6.352 1.362v5.674l-6.352 1.362z" fill="#30363D"/>
        <path d="M68.728 43.568l-4.2-7.27 6.184-2 2.836 4.915-4.82 4.355z" fill="#30363D"/>
        <path d="M64.906 36.84l-7.27-4.196 4.354-4.822 4.914 2.837-1.998 6.18z" fill="#30363D"/>
        <path d="M26.064 45.386l28.18 16.152L82.42 45.386v32.538L54.245 94.192l-28.18-16.268V45.386z" fill="#F4DA80"/>
        <path d="M54.244 61.886l28.178-16.5v32.538L54.244 94.192V61.886z" fill="#F3BD33"/>
        <path d="M54.244 61.886l28.178-16.5 7.394 13.71-28.18 16.27-7.392-13.48z" fill="#F0CA67"/>
        <path d="M54.284 61.916L26.106 45.414l-7.395 13.71 28.18 16.27 7.394-13.478z" fill="#F0CA67"/>
    </g>
</svg>
