<svg width="106" height="105" viewBox="0 0 106 105" xmlns="http://www.w3.org/2000/svg" xmlns:xlink="http://www.w3.org/1999/xlink">
    <title>
        Group 72
    </title>
    <defs>
        <path id="a" d="M53 .062C23.776.062 0 23.468 0 52.237c0 28.77 23.776 52.175 53 52.175s53-23.405 53-52.175C106 23.467 82.224.062 53 .062z"/>
    </defs>
    <g fill="none" fill-rule="evenodd">
        <mask id="b" fill="#fff">
            <use xlink:href="#a"/>
        </mask>
        <use fill="#E5E8EC" xlink:href="#a"/>
        <path d="M17.114 81.114H90.78V40.64H17.114v40.474z" fill="#82CF8F" mask="url(#b)"/>
        <path d="M17.114 65.597v2.046l32.077-2.046H17.115z" fill="#7AC286" mask="url(#b)"/>
        <path d="M17.114 74.998v2.045l67.492-2.045H17.114z" fill="#7AC286" mask="url(#b)"/>
        <path d="M22 60.542l68.78 2.045v-2.045H22z" fill="#7AC286" mask="url(#b)"/>
        <path d="M59.934 70.277L90.78 72.32v-2.043H59.935z" fill="#7AC286" mask="url(#b)"/>
        <path d="M17.114 57.17H90.78V16.694H17.114V57.17z" fill="#7AC286" mask="url(#b)"/>
        <path d="M53.278 41.78c-1.595 0-3.052-.516-4.09-1.085l-.733 2.88c.936.52 2.533.983 4.182 1.062v2.334h2.437v-2.534c2.834-.466 4.352-2.334 4.352-4.526 0-2.235-1.15-3.59-4.082-4.625-2.113-.765-2.976-1.307-2.976-2.093 0-.692.517-1.402 2.12-1.402 1.768 0 2.925.567 3.54.86l.74-2.78c-.86-.392-1.97-.76-3.59-.814v-2.164H52.76v2.338c-2.637.488-4.158 2.19-4.158 4.378 0 2.387 1.793 3.622 4.43 4.51 1.843.61 2.634 1.2 2.634 2.137 0 .96-.964 1.526-2.39 1.526" fill="#AFD7A6" mask="url(#b)"/>
        <path d="M75.165 40.53a3.595 3.595 0 0 0 0-7.192 3.597 3.597 0 0 0-3.595 3.59c0 1.987 1.614 3.6 3.595 3.6" fill="#AFD7A6" mask="url(#b)"/>
        <path d="M32.72 40.53a3.6 3.6 0 0 0 3.595-3.6 3.594 3.594 0 0 0-3.595-3.593 3.6 3.6 0 0 0-3.597 3.592c0 1.985 1.617 3.6 3.597 3.6" fill="#AFD7A6" mask="url(#b)"/>
        <path d="M32.72 31.514c2.99 0 5.42 2.43 5.42 5.416a5.428 5.428 0 0 1-5.42 5.424c-2.988 0-5.416-2.436-5.416-5.424a5.42 5.42 0 0 1 5.416-5.416m21.22-7.604c7.2 0 13.026 5.832 13.026 13.02 0 7.2-5.826 13.023-13.027 13.023-7.19 0-13.02-5.824-13.02-13.023 0-7.188 5.83-13.02 13.02-13.02m21.225 7.604a5.42 5.42 0 0 1 0 10.84c-2.984 0-5.415-2.436-5.415-5.424a5.423 5.423 0 0 1 5.415-5.416M21.145 49.52c2.027-.276 3.987 1.447 3.987 3.552l-.025.27a.908.908 0 0 0 .907.955h55.862c.252 0 .478-.222.65-.406.173-.188.247-.555.23-.807a3.6 3.6 0 0 1 3.6-3.595c.134 0 .26.02.528.054a.892.892 0 0 0 .717-.22.9.9 0 0 0 .307-.683V25.22a.902.902 0 0 0-1.045-.896c-2.083.3-4.107-1.388-4.107-3.534l-.88-.057.908-.197a.907.907 0 0 0-.242-.685.922.922 0 0 0-.664-.29H26.014c-.247 0-.472.236-.646.417-.17.18-.247.558-.236.805 0 2.155-2.046 3.842-4.105 3.54a.898.898 0 0 0-.728.21.9.9 0 0 0-.317.687V48.64c0 .262.178.505.374.677.203.173.528.24.79.204" fill="#AFD7A6" mask="url(#b)"/>
        <path d="M51.492 39.586c-26.862 0-48.718 21.854-48.718 48.708C2.774 115.154 24.63 137 51.492 137c26.858 0 48.707-21.846 48.707-48.706 0-26.854-21.85-48.708-48.708-48.708" fill="#01B0C1" mask="url(#b)"/>
        <path d="M53.63 39.64c16.367 7.857 27.696 24.602 27.696 43.936 0 26.865-21.85 48.707-48.707 48.707-.716 0-1.43-.02-2.147-.053A48.435 48.435 0 0 0 51.49 137c26.86 0 48.708-21.845 48.708-48.706 0-26.135-20.705-47.532-46.57-48.654" fill="#0197A6" mask="url(#b)"/>
        <path d="M98.086 101.536c-.646.016-1.474.316-1.488.535-.01.222-.897.62-1.187.736-.29.118-.864 1.024-.983 1.32-.124.298-.846.212-1.114.33-.265.118-.817.562-.82.826 0 .266-.154.236-.327-.064l-.356.37-.414.458c-.236.75-1.035 1.69-1.303 1.78-.273.068-.323 1.386-.323 1.913 0 .532.21 1.188.457 1.45l.054.423.096.834c-.15.65.34 1.225.486 1.343.142.107 1.347-.22 1.81-.33.194-.042.43-.147.65-.267a48.37 48.37 0 0 0 5.025-11.628 1.032 1.032 0 0 0-.26-.03" fill="#CDD5D7" mask="url(#b)"/>
        <path d="M17.66 102.78c-.073.136.798 1.028 1.14 1.33.337.312 1.052 1.775 1.197 2.25.145.483.062 1.264.015 1.454-.047.18.16.588.196.756.03.17-.297 1.6-.178 2.174.124.577-.67 2.378-.65 3.27.022.893.422 2.06.585 1.97.163-.09.22.814-.054.917-.272.113-.587.822-.432.857.15.04-.014.74.03 1.018.036.284.276 2.143.326 2.6.055.464.712 1.587.85 1.97.14.385.283 1.107.337 1.214.05.114.12.226.125.232.01.007.544.2.697.316.163.12 1.2.042 1.546-.024.337-.074.022-.384-.134-.552-.15-.17-.283-.994-.46-1.08-.18-.076-.252-1.127-.1-1.355.157-.237.78-.604.85-.8.065-.194.087-1.112-.083-1.24-.163-.122.048-1.227-.072-1.78-.134-.55.95-1.047 1.017-1.485.06-.44 1.234-.907 1.5-1.124.267-.22.492-1.47.37-1.74-.128-.268.427-.485.685-.485.24 0 .526-.177.62-.177.095-.008.393-.555.552-.687.16-.124.49-1.45.78-1.666.298-.217.535-1.013.535-1.246 0-.235.445-.93.59-1.14.146-.21 1.24-.712 1.435-.793.192-.074.49-1.83.574-2.463.07-.633.395-1.48.42-1.683.02-.21.375-.382.436-.45.07-.07.327-.873.497-1.054.166-.188.776-.958.79-1.128.012-.167.102-.608.2-.973v-.43l.008-.682c-.196-.533-.784-1.192-.93-1.046-.156.142-.83-.468-1.176-.602-.344-.125-1.21-.233-1.423-.233-.218 0-.973-.62-1.312-.724-.33-.1-1.193-.27-1.353-.37-.152-.1-.367-1.383-1.06-1.8-.69-.42-1.91-1.397-2.047-1.755-.13-.356-1.463-1.112-1.877-1.335-.406-.23-1.03-.28-1.1-.198-.086.08-.602-.692-.863-.916-.265-.217-1.06-.398-1.103-.2-.033.2-.56.095-.69-.077-.116-.163-.53.07-.723.133-.19.062-.855 1.07-1.156 1.318-.31.24-.672-.224-.87-.314-.2-.083-.964.15-1.174.298-.207.15-.694-1.07-.577-1.63.112-.562-.505-1.68-.977-1.706-.48-.026-.624-1.196-.53-1.633.095-.43-.857-.7-1.088-.724-.244-.04-.836.57-.937.86-.105.293-2.257-.397-2.003-1.69.254-1.29 1.278-2.622 1.532-2.79.25-.15 1.64-.234 1.94-.058.306.18.59 0 .64-.08.047-.08 1.176.013 1.517.15.34.136.82 1.445 1.168 1.61.357.155.48-.853.535-1.093.058-.246-.167-.867-.25-1.043-.088-.174.558-1.755 1.088-2.02.523-.275 1.085-1.158 1.04-1.31-.05-.158.42-.277.546-.345.13-.063-.02-1.342.193-1.624.21-.275 1.198-.86 1.517-.992.31-.133.545-.943.436-1.085-.116-.142.805-.927 1.285-1.083.482-.145.893.274.776.343.096-.048.76-.397 1.043-.58.33-.22 0-.815-.21-.992-.208-.172-.08-.87.174-.932.254-.062.472-.667.41-.796-.068-.13 1.057.105 1.49-.212.42-.317.122.76-.19 1.2-.316.428.23.844.432.76.195-.083.412.235.453.355.04.123.472-.125.754-.005.284.128.45-.387.476-.62.022-.24-.682-.728-.788-1.014-.112-.285-.156-1.93-.17-2.27-.015-.34-.468-.89-.62-.787-.142.09-.44-.88-.672-1.09-.24-.213-.295-.678-.284-.838.01-.16-.8-1-.992-1.396-.196-.387-.468-.308-.482-.134-.022.185-.58.21-.817.185-.23-.02-.422-.914-.422-1.25 0-.338-1.046-.397-1.216-.67-.167-.27-.85-.144-.962-.327-.105-.19-.708-.362-.825-.29-.123.065-.064 2.486-.173 3.14-.12.654-.672 1.23-.88 1.213-.2-.013-.075.47.06.426.144-.046-.393.714-.466 1.212-.068.492-.573-.025-.65-.477-.082-.447-.576-1.06-.664-.904-.098.155-.438-.184-.587-.087-.146.1-1.075-.543-1.453-.752-.374-.193-.587-1.348-.798-1.455-.222-.095-.033-.238-.04-.41-.007-.175.726-.844.947-1.11.22-.264 1.032-1.318 1.345-1.542.322-.223.57-.823.515-.935-.058-.106 1.365-.554 1.753-.687.384-.13.723-1.21.77-1.517.05-.303-.244-.894-.414-.968-.183-.07.533-.104.77.02.242.112.97-.222 1.265-.065.287.15.872.497 1.293.767l-.09.79-.175 1.334c-1.12.463-1.438 1.27-1.05 1.257.396-.02 2.186.773 2.69 1.133.505.363.665-.52.81-.822.152-.29.105-1.15-.014-1.316-.125-.172.583-.114.78.076.202.193.43-.194.587-.264.152-.07.23-.802.312-.95.08-.145-.342-.3-.35-.48-.017-.19-.82-.54-1.077-.662-.27-.127-.33-.68-.2-.776.13-.096-.087-.8-.215-1.04-.126-.228-.97-.42-1.248-.42-.28 0-.57-.65-.726-.746-.167-.09-1.245-.212-1.514-.13-.265.077-.75-.766-1.2-.51-.45.257-.92-.3-1.12-.412-.206-.115-1.26 1.024-1.252 1.817.01.795.407 1.564.578 1.586.166.025-.037.74-.222.95-.18.2-.63-.222-.457-.403.163-.177-.46-1.007-.676-1.348-.15-.248-.703-.458-1.073-.613-.218.233-.424.475-.64.72.08.288.18.665.085.948-.157.486-.567.56-.588.354-.012-.095-.215-.17-.458-.2A48.532 48.532 0 0 0 3.116 82.61c.234.265.503.585.568.813.14.424.88.704 1.024.798.13.078.185-.822.087-1.055-.098-.24.178-.382.174-.202-.004.172.693.97.93 1.257.227.286.47 2.14.696 2.542.217.4 2.367 1.226 3.056 1.37.686.143 1.557.916 1.696 1.14.13.22 1.052.335 1.248.426.196.09.664.712.86.84.196.133.35.5.35.596 0 .102 1.21.56 1.51.885.29.322.776.235.866.098.09-.13.33.646.457.91.12.275.15.933.054 1.04-.095.105-.268 1.324-.47 1.563-.21.246-.633 2.02-.546 2.366.094.356.664 1.076.91 1.186.24.1.14.48-.05.506-.196.03-.106 1.715.352 1.968.454.25.835.998.77 1.125" fill="#CDD5D7" mask="url(#b)"/>
        <path d="M23.388 73.114l.003-.004c-.013.012-.017.013-.002.004" fill="#CDD5D7" mask="url(#b)"/>
        <path d="M20.063 52.57c.585-.098 1.55-.262 1.615-.422.052-.135.055-.535-.05-.675.087.002.2.013.283.013.215 0 .59-1.218.825-1.5.228-.286 1.564-.705 1.88-.897.316-.19 1.013-.86 1.28-.935.27-.08.655-.707.597-.832-.058-.126.9-.708 1.27-.86.364-.16.556-.586.414-.602-.087-.01-2.123 1.053-3.982 2.11a48.754 48.754 0 0 0-5.997 4.815 27.748 27.748 0 0 0 1.866-.214" fill="#CDD5D7" mask="url(#b)"/>
        <path d="M55.292 113.197c.62-.37 1.68-1.94 2.03-2.266.344-.325.598-1.512.675-1.772.068-.258.598-.675.794-.733.205-.06.825-2.684 1.384-3.256.56-.576 1.21-3.35 1.137-4.35-.068-.996.356-2.903.49-3.36.135-.456.832-1.27 1.046-1.433.21-.175 1.55-2.155 1.982-2.864.432-.71.838-2.273.758-2.633-.083-.37-1.016-.624-1.19-.446-.17.18-1.05.33-1.325.33-.286 0-.928-1.502-1.327-1.814-.396-.305-.756-2.027-.992-2.353-.224-.324-.87-1.15-1.066-1.34-.2-.19-.236-1.097-.283-1.35-.043-.25.386.16.466.523.072.365 1.103 1.832 1.423 2.326.322.494 1.16 2.068 1.37 2.557.226.494 2.092.245 2.698-.042.606-.284 1.37-.773 1.394-.94.033-.166.995-.615 1.267-.828.268-.218.507-1.342.678-1.52.177-.187-.135-1.26-.338-1.58-.203-.32-1.176-.576-1.368-.45-.2.13-.618-.72-.774-1.03-.14-.313-.886-.69-.962-.905-.083-.213.196-.552.312-.626.12-.072 1.485.89 1.885 1.375.392.473.845 1.353.92 1.504.067.153 1.148.234 1.392.048.243-.172.52-.126.613.105l.34-.06 1.192-.188c.552.613.72 1.136.708 1.26-.015.113.345.61.57.66.232.06.4.836.468 1.022.072.196.744 1.36.886 1.847.142.493.715 1.44.853 1.697.142.26.254 1 .254 1.204 0 .195.434.597.7.58.268-.02.816-1.724.943-2.352.124-.634.566-1.16.683-1.16.13 0 .225-.35.225-.484 0-.133.687-.12.75-.292.057-.17.26-1.3.503-1.464.25-.172 1.122-.744 1.43-.85.302-.108 1.078.565 1.256.882.17.31.33 1.11.264 1.24-.068.13.41.82.828.812.414-.016.544.526.556.72.014.194.562.75.674 1 .11.246.077.927 0 1.078-.072.155-.02 1.048.062 1.298.073.245 1.347 1.542 1.83 1.937.48.39.704-.807.46-1.18-.242-.372-1.08-1.23-1.274-1.485-.195-.264-.232-1.3-.155-1.588.072-.288.733.16 1 .37.274.21.63.678.64.83.01.16 1.72-.802 1.78-1.84.064-1.043.634-2.216.685-2.49.062-.278-.167-.65-.312-.662-.145-.016.258-.797.744-.784.472.02 1.626-1.275 1.906-1.784.272-.51.82-.926.885-.99.066-.066.447-1.274.516-1.773.064-.494-.28-1.28-.324-1.538-.04-.256-.457-.852-.567-1.04-.102-.187-.207-.884-.138-1.015.06-.132.493-.272.548-.387.04-.12.54-.644.497-.882-.036-.23.31.303.54.497.222.192.47 1.44.75 1.57.278.14 1.415-1.314 1.28-2.253-.138-.94.327-2.137.603-2.244.207-.084.737-.844 1.1-1.384A48.685 48.685 0 0 0 85.525 53.5a.74.74 0 0 1-.185-.008l-.42-.09c-.697-.147-1.104-.897-.98-1.07.036-.055.03-.178-.004-.324-.392-.35-.795-.7-1.194-1.037-.334-.01-.682 0-.886-.007-.42-.016-1.325-.316-1.484-.476-.167-.162-.716.145-.745.447-.036.3-.99.438-1.078.67-.1.235-.585.247-.68.116-.1-.132-.98.313-1.42.382-.442.056-1.266.415-1.462.5-.192.092-.66.544-.733.734-.076.19-.64.506-.82.58-.186.067-.145.888.083 1.008.232.115-.432-.098-.722-.252-.3-.147-.628.348-.72.523-.093.172-.362-.103-.35-.347.01-.246-.73-.443-.83-.246-.097.194-.612-.07-.815-.176-.214-.11-1.132.843-1.477 1.184-.337.345-1.964.608-2.265.48-.3-.125-.603.725-.34.775.256.052-.666-.042-1.17.01-.508.047-1.975.635-2.323.894a.38.38 0 0 1-.632-.256c0-.202-.562-.388-.73-.445-.163-.06-.486 1.098-.78 1.316-.294.227-.64-.897-1.325-1.085-.686-.185-1.757-.843-2.065-.92-.302-.083-.91-.724-1.086-.906-.17-.184-1.05-.34-1.332-.34-.276 0-1.183.52-1.427.727-.243.207-.613.165-.736.24-.12.07-1.14 1.08-1.543 1.39-.397.316-1.094 1.672-1.315 1.994a.97.97 0 0 1-.693.392c-.13.005-.244.364-.244.5 0 .132-1.172.747-1.3 1.28-.123.534.12 1.76.12 2.192 0 .434.433 1.3.763 1.314.32.01.153.738.073.936-.09.203.207.43.19.6 0 .172-.825.417-1.08.513-.253.094-.656.663-.714.88-.04.18-.832.31-1.093.566.068-.18.152-.433.22-.566.157-.29-.053-.786-.174-.89-.126-.1-.185-1.52-.384-1.82-.197-.308-.69-.82-.818-.92-.123-.1.087-.47.16-.63.065-.155-.665-.247-.864-.132-.2.11-.305 1.518-.392 1.9-.084.382.363.97.486.998.12.03.084.72-.167.745-.26.024-.493 1.034-.366 1.263.133.233-.186.68-.335.786-.153.1.987.042 1.506.032.52-.017.923.218.87.257-.052.046-.996.182-1.163.407-.163.22-.806.65-.926.822-.126.17.208.547.48.527.266-.016.58.933.788 1.114.21.173.135.665.044.804-.094.13-1.37-.096-1.844.027-.487.12-1.093 1.14-1.133 1.523-.043.39.077 1.49.142 1.798.058.304 1.067.493 1.27.645.21.148 1.173.005 1.376.1.196.093.846-.984.98-1.477.12-.502 1.155-1.418 1.373-1.76.213-.333 1.32-.296 1.585-.47.28-.18.13.84.256 1.4.13.558 1.194.485 1.038-.04-.156-.52.105-.752.15-.557.05.184 1.066.605 1.258.897.193.298.134.926-.09.917-.23-.007-.233.687.014.765.232.07.552-.786.806-.914.26-.13.472-.66.348-.7-.112-.043.218-.52.367-.365.142.162-.548-1.04-.98-1.475-.436-.44-.13-.248.683.432l.558.782c.106.138.258.568.35.727l.13.23c.112.275.214 1.03.214 1.23 0 .208.432.603.7.587.26-.023.468.125.418.135-.058.01.174.532.44.542.26.01.377-.67.11-.692-.267-.01-.224-1-.26-1.43-.032-.43.193-.785.283-.785.095 0-.007.884-.003 1.093.003.2.116.602.243.888l.272.21.613.47c.89-.26 2.066-.057 2.022.12-.043.184.654.23.694-.063.043-.293.076.008.076.21 0 .194-.58.987-.675 1.348-.098.362-2.13.12-3.006.05-.883-.066-2.172.235-2.273.496-.09.26-1.463-.602-2.09-.87-.63-.262-1.115-1.22-1.246-1.34-.13-.128.11-.435.044-.627-.058-.192-1.488-.228-1.902-.072-.417.152-2.563.378-3.067.605-.508.224-1.278-.018-1.517-.062-.236-.037-.806.666-1.09.786-.297.13-.653 1.12-.816 2.213l-.392.756-.247.492c-.704.534-1.492 2.332-1.728 2.696-.225.358-.413 2.946-.413 3.82 0 .872.762 2.718.98 3.22.21.51 1.524 1.64 1.967 1.91.43.26 1.86.302 2.333.294.46 0 .998-.444 1.18-.982l.682.07.32.03c.014.382 1.027.692 1.274.826.25.13.913.03 1.113-.025.2-.062.425 1.728.28 2.248-.15.514.348 2.33.494 2.875.148.546.765 2.04.83 2.573.06.542-.362 2.32-.435 2.943-.073.63.777 2.373 1.002 2.974.22.598.407 1.89.407 2.188 0 .3.923 2.102 1.14 2.847.207.747 2.534.924 3.162.562" fill="#CDD5D7" mask="url(#b)"/>
        <path d="M95.443 91.082c.07.13.646-.332.998-.384.353-.058.567-.996.3-1.064-.277-.08-.626-.8-.825-.888-.196-.085-.585.315-.567.594.015.293-.635.406-.762.64-.116.24-.116.41.022.388.13-.02.777.582.835.715" fill="#CDD5D7" mask="url(#b)"/>
        <path d="M94.732 96.2c.174-.068-.025-.997-.385-1.07-.37-.08-1.38 1.22-1.187 1.97.193.747.4.703.512.542.102-.157.704.102.878.16.182.065.182-.12 0-.394-.174-.28 0-1.146.182-1.21" fill="#CDD5D7" mask="url(#b)"/>
        <path d="M92.735 95.287c.04-.33.11-1.37.16-1.572.054-.212-.563-.806-.868-.91-.31-.11-1.29 2.024-1.993 2.398-.71.38-.962 1.673-.777 1.977.19.3 1.656.457 1.91.687.264.226.548-.04.7-.078.16-.037.11-.136.05-.173-.068-.038.513-.646.596-1.028.08-.383.182-.968.222-1.303" fill="#CDD5D7" mask="url(#b)"/>
        <path d="M88.735 98.836c-.552-.21-1.205.116-1.252.33-.058.21 2.124.56 2.846.76.72.19 1.175.257 1.008.137-.17-.125-2.055-1.015-2.603-1.227" fill="#CDD5D7" mask="url(#b)"/>
        <path d="M93.156 84.668c.174-.247-.247-1.39-.454-1.128-.21.255-.058.92.008 1.156.065.23.268.213.446-.028" fill="#CDD5D7" mask="url(#b)"/>
        <path d="M94.47 87.11c.128-.292-.16-.618-.63-.715-.47-.1-.404 1.316-.198 1.5.207.176.698-.488.828-.786" fill="#CDD5D7" mask="url(#b)"/>
        <path d="M96.92 95.897c.563.392 1.822.21 1.862-.553-.555-.363-1.913-.3-1.862.553" fill="#CDD5D7" mask="url(#b)"/>
        <path d="M96.616 78.516c-.236.16-.356.577-.283.75-.036 0-.07-.01-.102-.01-.184 0-.206.748-.006.876.196.13.668-.58.922-.75.247-.166.744-.27.82-.217.077.053.508-.08.977-.29.08-.037.174-.16.268-.33a35.032 35.032 0 0 0-.37-1.615c-.23.173-.493.36-.62.47-.25.224-1.295.904-1.604 1.116" fill="#CDD5D7" mask="url(#b)"/>
        <path d="M83.74 93.465c.003.002.01.002.01.002-.104-.067-.112-.078-.01-.002" fill="#CDD5D7" mask="url(#b)"/>
        <path d="M87.254 96.74c-.203-.466-.886-1.24-1.503-1.74l-.238-.385-.255-.426c-.228-.467-.925-.83-.987-.97-.065-.134-.283.405-.52.248.125.09.386.276.753.533.653.47 1.916 3.642 2.2 3.87.286.223.75-.672.55-1.13" fill="#CDD5D7" mask="url(#b)"/>
        <path d="M77.192 91.61c-.174.355.933 1.12 1.023.946.09-.176-.15-1.055-.34-1.248-.197-.193-.502-.053-.683.302" fill="#CDD5D7" mask="url(#b)"/>
        <path d="M62.48 108.558c.043.374.802.674 1.027.616.224-.065.846-1.204.932-1.53a7.776 7.776 0 0 0 .153-1.208c0-.166.1-.542.19-.588.082-.044.22-.432.314-.86.08-.435-.472-2.435-.48-2.784-.014-.355-.41.182-.51.536-.114.354-1.102 1.08-1.322 1.385-.222.298-.465 1.32-.378 1.5.076.17-.087.87-.188 1.066-.103.19.22 1.486.26 1.868" fill="#CDD5D7" mask="url(#b)"/>
        <path d="M44.42 47.033c-.287.038-1.017-.107-1.136-.243-.13-.134-1.213-.25-1.532-.118-.312.135-.095-.766.34-.864.436-.096.066-.715-.395-.716-.468-.004-1.615-.17-1.887-.11-.27.056-.796-.19-.99-.22-.193-.024-1.577.413-2.226.38-.65-.027-2.25.038-2.6.14-.348.086-.602.768-.55 1.007.046.242-1.552.237-2.048.244-.512.005-3.2.577-3.9.966-.7.38-1.248 1.367-1.015 1.386.236.017-.388.58-.77.71-.373.126-1.277.188-1.487.402-.208.206.228.353.316.495.078.142.33-.126.57.016.23.13 1.015.19 1.226.272.213.083-.668.25-1.08.276-.41.033-.315.837.02.95.337.11 1.194.23 1.284.094.084-.143 1.02.145 1.445.2.414.043.737 1.1.868 1.324.13.23.156 1.036.13 1.266-.036.233.74.657.882.508.135-.148.1.367-.213.34-.313-.027-.114.862.27.993.386.125.12.678-.097.842-.217.165-.094.695-.322.883-.23.184.795 1.966.783 2.88 0 .913.574 1.654.792 1.654.214 0 .97.188 1.063.385.106.19.47-.143.607-.295.142-.144.45-.584.676-.967.232-.39.75-2.223.82-2.42.07-.195.933-.072 1.13-.17.188-.102.746-.548.913-.675.16-.135 1.388-.656 1.725-.9.335-.24.89-1.275 1.15-1.5.26-.222-.132-.16-.46-.368-.322-.218-.184-.482-.09-.578.098-.104 1.085.164 1.43.295.342.134.99-.338.744-.52-.254-.176-.12-.176 0-.098.124.075.247-.604.12-.728-.134-.133.995-.953.795-1.735-.197-.785.31-1.583.613-1.59.308-.014.214-.882-.15-.964-.362-.082-.02-.163.117-.287.134-.12.305-.9.228-1.055-.08-.148.556-.314.665-.493.116-.176.846-.526 1.104-.585.257-.056.402-.747.123-.714" fill="#CDD5D7" mask="url(#b)"/>
        <path d="M50.762 47.675c-.348-.116-1.05.265-.962.48.09.22-.577-.28-1.035-.037-.468.24-.59 1.053-.38 1.16.214.105.362.752.374.87.005.13.895.043 1.124-.15.23-.186.203.66-.022.887-.23.224.08.68.327.72.25.032.583.62.84.613.262-.005.694-.987.795-1.356.1-.37.952-.08 1.344.038.39.118.533-1.354.108-1.577-.418-.222-.948-.112-1.125-.276-.175-.172-.476-.332-.676-.357-.185-.025-.374-.905-.715-1.015" fill="#CDD5D7" mask="url(#b)"/>
        <path d="M54.167 48.376c.682.1 1.456-.468 1.623-.63.17-.154-1.906-.577-2.694-.602-.79-.025-1.42.082-1.416.238.015.156 1.797.897 2.487.994" fill="#CDD5D7" mask="url(#b)"/>
        <path d="M41.622 66.967c-.178-.078-.28.604-.236.86.044.263.668.236.944.187.272-.04.482-.257.472-.484-.015-.222-.4-1.235-.555-1.235-.153 0-.44.745-.625.672" fill="#CDD5D7" mask="url(#b)"/>
        <path d="M43.662 59.06c-.142-.247-1.22-.218-1.485-.238-.257-.01-1.07-.28-1.223-.452-.15-.17-.265.658-.512.772-.25.106.12.272.22.182.1-.087-.002.427-.115.607-.11.177.712.3.814.57.092.273.43.445.756.39.326-.048.98-.39 1.21-.412.227-.02.478-1.167.336-1.418" fill="#CDD5D7" mask="url(#b)"/>
        <path d="M66.298 52.885c.363-.37 1.895-.872 2.065-1.256.178-.383-.105-.696-.26-.696-.154 0-.342.186-.38.252-.035.06-1.78.477-2.322.735-.536.257-1.157.656-1.386.885-.224.23-.598 1.962-.722 2.156-.13.2.58.904.893 1.1.32.196.752.092.868.057.127-.035-.156-1.252-.32-1.67-.167-.424 1.198-1.188 1.565-1.562" fill="#CDD5D7" mask="url(#b)"/>
        <path d="M64.425 48.37c.577.57.89-.25 1.528-.173-.01-1.164-1.583-.76-1.528.172" fill="#CDD5D7" mask="url(#b)"/>
        <path d="M75.613 48.584c-.015.212 1.597.385 2.065.3.47-.078-.098-.81-.784-.766-.686.045-1.26.255-1.28.466" fill="#CDD5D7" mask="url(#b)"/>
        <path d="M17.34 60.523c-.17.156-.02.942.298.966.324.02.835-1.185 1.235-.95.388.246.66.34.592.21-.063-.126-1.19-.618-1.33-.71-.137-.083-.624.327-.794.483" fill="#CDD5D7" mask="url(#b)"/>
        <path d="M21.457 87.248c0 .13.697.114.813-.106.11-.217.05-.39-.138-.39-.185 0-.675.357-.675.496" fill="#CDD5D7" mask="url(#b)"/>
        <path d="M18.331 86.095c.336-.063.18.478.256.672.08.196.893.352 1.05.482.166.13.576-.246.9-.205.32.042-.11-1.114-.648-1.08-.54.03-.97-.49-1.096-.558a8.44 8.44 0 0 1-.933-.58c-.174-.142-1.553-.262-2.022-.262-.46 0-.98.474-1.05.626-.075.16.742.268.973.145.242-.122 1.327.136 1.54.4.23.26.69.422 1.03.36" fill="#CDD5D7" mask="url(#b)"/>
        <path d="M16.86 87.248c0 .13.71.047.88.056.17.004.166-.11-.01-.26-.183-.144-.87.065-.87.204" fill="#CDD5D7" mask="url(#b)"/>
        <path d="M17.362 83.602c-.185-.076-.327.21-.327.352 0 .134.095.246.222.246.123 0 .29-.527.105-.598" fill="#CDD5D7" mask="url(#b)"/>
        <path d="M18.855 83.715c-.066-.136-.372-.247-.46-.247-.096 0-.162.235-.143.515.014.292.66-.137.603-.268" fill="#CDD5D7" mask="url(#b)"/>
        <path d="M19.914 85.362c.287-.142.323-.482.156-.466-.17.02-.483-.49-.668-.566-.185-.072-.337.31-.337.473 0 .17.11.28.228.248.13-.03.334.442.62.312" fill="#CDD5D7" mask="url(#b)"/>
        <path d="M99.05 96.486c-.144.078-.86.165-.957.025-.09-.14-.236.288-.39.358-.15.07-.068.443.158.33.164-.08.843.292 1.39.638.11-.542.204-1.09.298-1.645-.2.106-.407.25-.497.296" fill="#CDD5D7" mask="url(#b)"/>
        <path d="M21.678 51.58c-.047-.05-.25.1-.16.19.044.057.243-.087.16-.19" fill="#D1ECFB" mask="url(#b)"/>
        <path d="M27.076 67.658c-.04-.058-.247.1-.17.19.054.057.257-.09.17-.19" fill="#D1ECFB" mask="url(#b)"/>
        <path d="M33.4 102.086c.166-.188.776-.958.79-1.128.01-.167.102-.608.2-.974v-.43l.008-.68c-.197-.535-.785-1.193-.93-1.047-.156.142-.83-.468-1.176-.602-.345-.125-1.21-.233-1.423-.233-.218 0-.973-.62-1.312-.724-.33-.1-1.194-.27-1.353-.37-.153-.1-.367-1.383-1.06-1.8-.69-.42-1.91-1.397-2.047-1.756-.13-.355-1.463-1.11-1.877-1.335-.406-.228-1.03-.28-1.1-.197-.086.08-.602-.692-.863-.916-.265-.217-1.06-.398-1.104-.2-.032.2-.56.095-.69-.077-.115-.163-.53.07-.722.133-.19.062-.855 1.07-1.156 1.318-.31.24-.672-.224-.87-.314-.2-.083-.964.15-1.174.298-.207.15-.694-1.07-.577-1.63.112-.563-.505-1.68-.977-1.707-.48-.025-.624-1.195-.53-1.632.094-.43-.857-.7-1.09-.724-.242-.04-.834.57-.935.86-.105.293-2.257-.397-2.003-1.69.254-1.29 1.278-2.622 1.532-2.79.25-.15 1.64-.234 1.94-.058.306.178.59 0 .64-.08.047-.08 1.176.013 1.517.15.34.136.82 1.444 1.168 1.608.357.157.48-.85.534-1.09.058-.246-.168-.867-.25-1.043-.088-.174.558-1.755 1.088-2.02.523-.275 1.085-1.16 1.04-1.31-.05-.158.42-.277.546-.345.13-.063-.02-1.342.193-1.624.21-.275 1.197-.862 1.517-.992.31-.133.545-.943.436-1.085-.117-.142.805-.927 1.285-1.083.482-.145.892.274.776.343.096-.048.76-.398 1.043-.58.33-.22 0-.816-.21-.992-.208-.172-.08-.87.174-.932.254-.062.472-.667.41-.796-.07-.13 1.056.105 1.488-.212.42-.317.124.76-.188 1.2-.316.428.23.844.432.76.194-.083.412.235.452.355.04.123.472-.125.755-.005.283.128.45-.387.476-.62.022-.24-.682-.728-.788-1.014-.112-.286-.156-1.93-.17-2.27-.015-.34-.468-.89-.62-.787-.142.09-.44-.88-.673-1.09-.24-.213-.294-.678-.283-.838.01-.16-.8-1-.992-1.396-.196-.387-.468-.308-.483-.135-.022.184-.58.21-.817.184-.228-.02-.42-.913-.42-1.25 0-.337-1.046-.397-1.217-.67-.165-.27-.848-.144-.96-.327-.106-.19-.708-.36-.825-.29-.123.066-.065 2.487-.174 3.142-.12.652-.67 1.227-.877 1.21-.2-.013-.076.47.058.426.146-.046-.39.714-.464 1.212-.07.492-.573-.025-.65-.477-.083-.447-.576-1.06-.664-.904-.098.155-.44-.184-.588-.087-.145.1-1.074-.543-1.452-.752-.374-.194-.588-1.348-.798-1.455-.222-.095-.033-.238-.04-.41-.008-.175.726-.844.947-1.11.22-.264 1.032-1.318 1.344-1.542.323-.223.57-.823.515-.935-.058-.106 1.365-.554 1.753-.687.384-.13.723-1.21.77-1.517.05-.303-.244-.894-.414-.968-.183-.07.533-.104.768.02.244.112.973-.222 1.267-.066.287.152.872.498 1.293.768l-.09.79-.176 1.334c-1.118.462-1.437 1.27-1.048 1.257.395-.02 2.185.773 2.69 1.133.504.363.663-.52.81-.822.15-.29.104-1.15-.016-1.316-.123-.172.584-.114.78.076.204.193.433-.194.59-.264.15-.07.228-.802.31-.95.08-.145-.34-.3-.348-.48-.018-.19-.82-.54-1.078-.662-.27-.127-.33-.68-.2-.776.13-.096-.086-.8-.214-1.04-.127-.228-.97-.422-1.248-.422-.28 0-.57-.65-.726-.744-.167-.09-1.245-.213-1.514-.13-.265.077-.752-.766-1.202-.51-.45.257-.918-.302-1.117-.413-.206-.114-1.26 1.024-1.252 1.817.01.796.407 1.565.577 1.587.167.025-.036.74-.22.95-.182.2-.633-.222-.458-.403.163-.177-.46-1.008-.676-1.348-.15-.25-.703-.458-1.073-.613-.218.233-.425.475-.64.72.08.288.18.665.084.948-.155.486-.565.56-.587.354-.01-.095-.214-.17-.457-.2A48.54 48.54 0 0 0 3.114 82.61c.236.266.505.586.57.814.138.425.88.705 1.024.8.13.076.185-.823.087-1.056-.098-.24.178-.382.174-.203-.005.173.693.97.928 1.258.23.285.473 2.138.697 2.542.218.4 2.368 1.226 3.057 1.368.686.145 1.557.918 1.695 1.142.13.22 1.053.335 1.25.426.195.09.663.712.86.84.195.132.348.5.348.596 0 .102 1.212.558 1.51.885.29.32.776.235.867.098.09-.13.33.646.457.91.12.275.15.932.054 1.04-.095.105-.27 1.324-.47 1.563-.21.246-.634 2.02-.546 2.366.094.356.664 1.075.91 1.186.24.1.14.48-.05.506-.196.028-.106 1.715.352 1.968.454.25.835.997.77 1.125-.073.136.798 1.028 1.14 1.33.337.312 1.052 1.775 1.197 2.25.145.482.062 1.264.015 1.454-.047.18.16.588.196.755.03.168-.298 1.6-.178 2.174.123.577-.67 2.378-.65 3.27.022.893.42 2.06.585 1.97.163-.09.22.813-.055.916-.272.113-.588.822-.432.857.15.04-.014.74.03 1.018.036.284.275 2.143.326 2.6.054.464.71 1.587.85 1.97.14.385.282 1.107.337 1.214.048.114.12.226.125.232.01.007.544.2.696.315.165.12 1.203.043 1.548-.023.337-.075.022-.385-.134-.552-.15-.172-.284-.994-.46-1.08-.18-.076-.252-1.128-.1-1.355.157-.238.78-.605.85-.8.065-.194.087-1.112-.083-1.24-.163-.122.047-1.227-.072-1.78-.134-.55.95-1.047 1.016-1.485.062-.44 1.234-.907 1.5-1.124.268-.22.493-1.47.37-1.74-.127-.268.428-.485.686-.485.24 0 .526-.177.62-.177.095-.01.392-.556.552-.687.16-.124.49-1.45.78-1.666.298-.218.534-1.013.534-1.246 0-.235.446-.93.592-1.14.145-.21 1.237-.712 1.434-.794.192-.073.49-1.83.573-2.462.07-.633.396-1.48.42-1.683.02-.21.375-.382.437-.45.07-.072.327-.873.497-1.054" fill="#E5E8EC" mask="url(#b)"/>
        <path d="M23.392 73.11l-.003.004" fill="#E5E8EC" mask="url(#b)"/>
        <path d="M22.735 49.985c.23-.284 1.564-.704 1.88-.896.316-.19 1.013-.86 1.282-.935.268-.08.653-.707.595-.832-.058-.126.9-.708 1.27-.86.364-.158.556-.585.414-.602-.087-.01-2.123 1.054-3.982 2.112a48.567 48.567 0 0 0-5.997 4.814 27.046 27.046 0 0 0 1.866-.215c.585-.098 1.55-.262 1.615-.422.052-.135.055-.535-.05-.674.087.002.2.012.283.012.215 0 .59-1.217.825-1.5" fill="#E5E8EC" mask="url(#b)"/>
        <path d="M72.117 55.125c-.015.028-.033.05-.04.07-.094.172-.363-.104-.353-.347.012-.246-.73-.443-.827-.246-.098.193-.613-.07-.817-.177-.214-.11-1.132.844-1.477 1.184-.338.345-1.964.608-2.265.478-.302-.123-.603.726-.34.777.256.052-.666-.042-1.17.008-.508.048-1.975.637-2.323.896a.38.38 0 0 1-.632-.256c0-.202-.563-.388-.73-.445-.163-.06-.486 1.098-.78 1.315-.294.228-.64-.896-1.325-1.084-.686-.186-1.757-.843-2.066-.92-.3-.084-.91-.724-1.085-.906-.17-.185-1.05-.34-1.332-.34-.276 0-1.184.52-1.427.727-.243.206-.613.165-.737.24-.118.07-1.138 1.08-1.542 1.39-.395.316-1.092 1.672-1.314 1.993a.964.964 0 0 1-.692.393c-.13.005-.244.364-.244.5 0 .13-1.172.747-1.3 1.278-.123.535.12 1.76.12 2.194 0 .434.432 1.298.763 1.314.32.01.153.737.073.936-.09.203.207.43.19.6 0 .172-.825.416-1.08.512-.253.094-.656.663-.714.88-.04.18-.832.31-1.094.566.07-.18.153-.433.222-.567.155-.29-.055-.786-.175-.89-.127-.1-.185-1.52-.384-1.82-.197-.308-.69-.82-.818-.922-.123-.1.087-.47.16-.628.065-.156-.665-.248-.864-.132-.2.11-.306 1.517-.393 1.9-.083.382.364.97.487.998.12.03.084.72-.167.745-.26.023-.493 1.033-.366 1.263.132.233-.187.68-.335.786-.153.1.987.042 1.506.03.52-.015.923.22.87.26-.052.046-.996.182-1.163.406-.164.222-.806.65-.926.823-.126.17.208.547.48.527.265-.016.58.933.788 1.113.21.173.135.664.044.804-.094.128-1.37-.097-1.844.027-.487.12-1.093 1.14-1.133 1.523-.043.39.076 1.49.142 1.798.058.303 1.067.492 1.27.645.21.148 1.173.005 1.376.1.196.093.845-.984.98-1.478.12-.502 1.155-1.417 1.372-1.76.214-.333 1.322-.295 1.586-.47.28-.178.13.842.256 1.4.13.56 1.194.486 1.038-.038-.157-.52.105-.754.15-.56.05.184 1.066.605 1.258.897.192.298.134.926-.09.917-.23-.007-.233.687.014.765.232.068.552-.786.806-.914.26-.13.472-.662.348-.7-.112-.044.217-.522.367-.365.14.16-.548-1.04-.98-1.475-.436-.44-.13-.248.682.432l.558.78c.106.14.258.57.35.73l.13.23c.112.274.213 1.03.213 1.228 0 .21.433.604.702.588.26-.022.468.126.418.136-.06.01.174.53.44.542.26.01.376-.67.11-.692-.267-.01-.224-1-.26-1.43-.033-.432.192-.785.283-.785.094 0-.007.884-.004 1.093.003.2.116.602.243.888l.272.21.613.47c.89-.26 2.066-.057 2.022.12-.043.184.654.23.694-.063.043-.293.076.007.076.21 0 .193-.58.986-.676 1.348-.097.362-2.13.12-3.005.05-.883-.066-2.172.235-2.273.496-.09.26-1.463-.602-2.09-.87-.63-.263-1.115-1.22-1.246-1.34-.13-.128.11-.435.044-.627-.058-.192-1.488-.228-1.902-.073-.417.152-2.563.38-3.067.605-.508.225-1.278-.017-1.518-.062-.235-.038-.805.665-1.088.786-.3.13-.655 1.12-.818 2.212l-.392.757-.247.492c-.704.535-1.492 2.333-1.73 2.697-.223.358-.412 2.946-.412 3.82 0 .872.763 2.718.98 3.22.212.51 1.526 1.638 1.97 1.908.43.262 1.86.304 2.333.296.46 0 .998-.444 1.18-.983l.682.07.32.03c.014.382 1.027.692 1.274.827.25.13.913.03 1.113-.026.2-.06.425 1.73.28 2.248-.15.515.348 2.33.493 2.875.15.546.766 2.038.83 2.573.06.542-.36 2.318-.434 2.943-.073.63.777 2.373 1.002 2.974.22.598.407 1.89.407 2.188 0 .3.922 2.102 1.14 2.846.207.747 2.534.925 3.162.563.62-.37 1.68-1.94 2.03-2.266.344-.326.598-1.513.674-1.772.07-.26.6-.675.795-.733.204-.06.825-2.684 1.384-3.256.56-.576 1.21-3.352 1.136-4.35-.07-.996.356-2.903.49-3.36.135-.456.832-1.27 1.046-1.433.21-.175 1.55-2.155 1.982-2.864.432-.71.838-2.273.758-2.633-.083-.37-1.016-.624-1.19-.446-.17.18-1.05.33-1.325.33-.286 0-.93-1.502-1.327-1.814-.397-.306-.756-2.027-.992-2.353-.224-.324-.87-1.15-1.067-1.34-.198-.19-.235-1.097-.282-1.35-.043-.25.386.16.466.523.072.365 1.103 1.832 1.422 2.326.324.494 1.162 2.068 1.373 2.556.225.495 2.092.246 2.698-.04.606-.287 1.368-.776 1.394-.943.032-.167.994-.615 1.266-.83.27-.216.51-1.34.68-1.52.177-.185-.135-1.257-.338-1.58-.203-.32-1.177-.574-1.37-.448-.198.13-.616-.72-.772-1.03-.14-.313-.886-.692-.962-.905-.083-.213.196-.552.312-.626.12-.073 1.485.89 1.884 1.375.393.473.846 1.353.922 1.504.066.153 1.147.234 1.39.048.244-.173.52-.127.614.105l.34-.06 1.192-.188c.552.613.72 1.135.708 1.26-.015.113.345.61.57.66.232.06.4.836.468 1.022.072.195.744 1.36.886 1.846.14.493.715 1.442.853 1.698.14.26.254 1 .254 1.204 0 .194.434.597.7.58.268-.02.816-1.724.943-2.352.124-.634.566-1.16.682-1.16.13 0 .225-.35.225-.484 0-.133.687-.12.748-.292.06-.17.262-1.3.505-1.464.25-.173 1.122-.744 1.43-.85.094-.034.236.015.396.1.025-.667.046-1.34.046-2.016 0-10.615-3.427-20.442-9.21-28.45" fill="#E5E8EC" mask="url(#b)"/>
        <path d="M78.215 92.556c.09-.176-.15-1.055-.34-1.247-.197-.195-.502-.055-.683.3-.175.355.932 1.12 1.023.946" fill="#E5E8EC" mask="url(#b)"/>
        <path d="M62.48 108.558c.043.374.802.674 1.027.616.224-.065.846-1.204.932-1.53a7.776 7.776 0 0 0 .153-1.208c0-.166.1-.542.19-.588.082-.044.22-.432.314-.86.08-.435-.472-2.435-.48-2.784-.014-.355-.41.182-.51.536-.114.354-1.102 1.08-1.322 1.385-.222.298-.465 1.32-.378 1.5.076.17-.087.87-.188 1.066-.103.19.22 1.486.26 1.868" fill="#E5E8EC" mask="url(#b)"/>
        <path d="M31.396 46.534c-.512.005-3.198.577-3.898.966-.7.38-1.25 1.367-1.017 1.386.237.017-.388.58-.77.71-.373.126-1.276.188-1.487.402-.207.206.23.353.316.495.08.142.33-.126.57.016.23.13 1.015.19 1.226.273.214.082-.668.25-1.078.275-.41.033-.316.837.018.95.337.11 1.194.23 1.285.094.084-.143 1.02.145 1.445.2.414.044.737 1.1.868 1.324.13.23.156 1.036.13 1.266-.036.233.74.657.883.508.134-.148.098.367-.214.34-.313-.027-.113.862.272.993.385.125.12.678-.098.843-.218.164-.095.694-.323.882-.23.184.795 1.966.784 2.88 0 .913.573 1.654.79 1.654.216 0 .97.188 1.065.385.105.19.468-.143.606-.295.142-.144.45-.584.675-.967.232-.39.752-2.223.82-2.42.07-.195.933-.072 1.13-.17.188-.102.747-.548.914-.675.16-.135 1.387-.656 1.725-.9.333-.24.89-1.275 1.15-1.5.258-.222-.134-.16-.46-.368-.324-.218-.186-.482-.092-.578.1-.104 1.086.164 1.43.295.342.134.992-.338.745-.52-.254-.176-.12-.176 0-.098.123.075.247-.604.12-.728-.134-.133.994-.953.795-1.734-.197-.785.312-1.583.613-1.59.31-.013.214-.882-.15-.964-.362-.082-.02-.163.117-.287.135-.12.306-.9.23-1.054-.08-.15.555-.315.663-.494.117-.176.846-.526 1.104-.585.258-.056.403-.747.123-.714-.287.038-1.016-.107-1.136-.243-.13-.134-1.212-.25-1.532-.118-.312.135-.094-.766.34-.864.437-.096.067-.715-.394-.716-.468-.004-1.615-.17-1.888-.11-.268.056-.795-.19-.99-.218-.193-.026-1.576.41-2.226.378-.65-.027-2.25.038-2.6.14-.347.087-.6.768-.55 1.007.046.242-1.55.237-2.048.244" fill="#E5E8EC" mask="url(#b)"/>
        <path d="M50.188 51.604c.25.033.584.622.843.614.262-.005.694-.987.795-1.356.098-.37.95-.08 1.343.038.392.12.535-1.354.11-1.577-.42-.22-.947-.112-1.125-.276-.175-.172-.477-.332-.675-.357-.186-.025-.376-.904-.717-1.015-.346-.116-1.047.265-.96.48.09.22-.578-.278-1.035-.037-.468.24-.592 1.053-.38 1.16.214.106.363.752.373.87.006.13.896.043 1.125-.15.23-.185.203.66-.022.887-.227.224.08.68.328.72" fill="#E5E8EC" mask="url(#b)"/>
        <path d="M55.79 47.747c.17-.155-1.906-.578-2.694-.603-.79-.026-1.42.082-1.415.238.015.155 1.797.897 2.487.994.682.1 1.456-.468 1.623-.63" fill="#E5E8EC" mask="url(#b)"/>
        <path d="M41.622 66.967c-.178-.078-.28.604-.236.86.044.263.668.236.944.187.272-.04.482-.257.472-.484-.015-.222-.4-1.235-.555-1.235-.153 0-.44.745-.625.672" fill="#E5E8EC" mask="url(#b)"/>
        <path d="M43.662 59.06c-.142-.247-1.22-.218-1.485-.238-.257-.01-1.07-.28-1.223-.452-.15-.17-.265.658-.512.772-.25.106.12.272.22.182.1-.087-.002.427-.115.607-.11.177.712.3.814.57.092.273.43.445.756.39.326-.048.98-.39 1.21-.412.227-.02.478-1.167.336-1.418" fill="#E5E8EC" mask="url(#b)"/>
        <path d="M64.015 52.805c-.225.23-.6 1.962-.722 2.155-.13.2.58.903.893 1.098.32.197.75.094.867.06.127-.036-.156-1.253-.32-1.673-.166-.422 1.2-1.187 1.566-1.56.36-.37 1.893-.872 2.064-1.256.178-.383-.105-.697-.262-.697-.152 0-.34.187-.377.252-.036.062-1.782.477-2.323.735-.537.257-1.158.656-1.387.885" fill="#E5E8EC" mask="url(#b)"/>
        <path d="M64.425 48.37c.577.57.89-.25 1.528-.173 0-.04-.018-.07-.022-.108-.206-.196-.416-.4-.627-.597-.432.007-.91.35-.878.876" fill="#E5E8EC" mask="url(#b)"/>
        <path d="M17.34 60.523c-.17.156-.02.942.298.966.324.02.835-1.185 1.235-.95.388.246.66.34.592.21-.063-.126-1.19-.618-1.33-.71-.137-.083-.624.327-.794.483" fill="#E5E8EC" mask="url(#b)"/>
        <path d="M21.457 87.248c0 .13.697.114.813-.106.11-.217.05-.39-.138-.39-.185 0-.675.357-.675.496" fill="#E5E8EC" mask="url(#b)"/>
        <path d="M18.331 86.095c.336-.063.18.478.256.672.08.196.893.352 1.05.482.166.13.576-.246.9-.205.32.042-.11-1.114-.648-1.08-.54.03-.97-.49-1.096-.558a8.44 8.44 0 0 1-.933-.58c-.174-.142-1.553-.262-2.022-.262-.46 0-.98.474-1.05.626-.075.16.742.268.973.145.242-.122 1.327.136 1.54.4.23.26.69.422 1.03.36" fill="#E5E8EC" mask="url(#b)"/>
        <path d="M16.86 87.248c0 .13.71.047.88.056.17.004.166-.11-.01-.26-.183-.144-.87.065-.87.204" fill="#E5E8EC" mask="url(#b)"/>
        <path d="M17.362 83.602c-.185-.076-.327.21-.327.352 0 .134.095.246.222.246.123 0 .29-.527.105-.598" fill="#E5E8EC" mask="url(#b)"/>
        <path d="M18.855 83.715c-.066-.136-.372-.247-.46-.247-.096 0-.162.235-.143.515.014.292.66-.137.603-.268" fill="#E5E8EC" mask="url(#b)"/>
        <path d="M19.914 85.362c.287-.142.323-.482.156-.466-.17.02-.483-.49-.668-.566-.185-.072-.337.31-.337.473 0 .17.11.28.228.248.13-.03.334.442.62.312" fill="#E5E8EC" mask="url(#b)"/>
    </g>
</svg>
