<?xml version="1.0" encoding="UTF-8"?><!DOCTYPE svg PUBLIC "-//W3C//DTD SVG 1.1//EN" "http://www.w3.org/Graphics/SVG/1.1/DTD/svg11.dtd"><svg xmlns="http://www.w3.org/2000/svg"><symbol id="icon-btn-ok" viewBox="0 0 58 58">
    <title>
        btn-ok
    </title>
    <path d="M28.672 0C12.836 0 0 12.837 0 28.673c0 15.835 12.836 28.672 28.672 28.672 15.835 0 28.672-12.837 28.672-28.672C57.344 12.837 44.507 0 28.672 0zm.002 55.517c-14.802 0-26.904-12.042-26.904-26.844 0-14.803 12.102-26.845 26.904-26.845S55.518 13.87 55.518 28.673c0 14.802-12.042 26.844-26.844 26.844zM43.53 19.85L25.95 36.82l-11-11.43a1.28 1.28 0 0 0-1.84 1.78L25 39.51c.21.292.565.442.92.39.33 0 .645-.13.88-.36l18.49-17.86a1.27 1.27 0 1 0-1.76-1.83z" fill-rule="evenodd"/>
</symbol><symbol id="icon-chevron-down" viewBox="0 0 9.257 5.657">
    <title>
        chevron-down
    </title>
    <path d="M8.228 0l1.03 1.03-4.63 4.627L0 1.03 1.03 0l3.6 3.6L8.227 0z"/>
</symbol><symbol id="icon-man" viewBox="0 0 19.168 51.943">
    <title>
        man
    </title>
    <path d="M19.168 33.906a4.13 4.13 0 0 1-4.133 4.15h-1.278v13.887h-2.03v-15.85h3.307a2.186 2.186 0 0 0 2.18-2.188V20.717a2.186 2.186 0 0 0-2.18-2.19H4.208a2.186 2.186 0 0 0-2.18 2.19v13.19a2.186 2.186 0 0 0 2.18 2.188h3.08v15.848H5.26v-13.81H4.133A4.13 4.13 0 0 1 0 33.98V20.718a4.13 4.13 0 0 1 4.133-4.15H14.96a4.13 4.13 0 0 1 4.133 4.15v13.19h.075zM2.6 6.943a6.913 6.913 0 1 1 6.913 6.943A6.91 6.91 0 0 1 2.6 6.943zm2.03 0a4.884 4.884 0 1 0 4.884-4.905A4.885 4.885 0 0 0 4.63 6.943z"/>
</symbol><symbol id="icon-people-2" viewBox="0 0 39.168 51.943">
    <title>
        people-2
    </title>
    <path d="M19.168 33.906a4.13 4.13 0 0 1-4.133 4.15h-1.278v13.887h-2.03v-15.85h3.307a2.186 2.186 0 0 0 2.18-2.188V20.717a2.186 2.186 0 0 0-2.18-2.19H4.208a2.186 2.186 0 0 0-2.18 2.19v13.19a2.186 2.186 0 0 0 2.18 2.188h3.08v15.848H5.26v-13.81H4.133A4.13 4.13 0 0 1 0 33.98V20.718a4.13 4.13 0 0 1 4.133-4.15H14.96a4.13 4.13 0 0 1 4.133 4.15v13.19h.075zM22.6 6.943a6.913 6.913 0 1 1 6.913 6.943A6.91 6.91 0 0 1 22.6 6.943zm2.03 0a4.884 4.884 0 1 0 4.883-4.906 4.885 4.885 0 0 0-4.883 4.906zm-22.03 0a6.913 6.913 0 1 1 6.913 6.943A6.91 6.91 0 0 1 2.6 6.943zm2.03 0a4.884 4.884 0 1 0 4.884-4.905A4.885 4.885 0 0 0 4.63 6.943zm34.538 26.963a4.13 4.13 0 0 1-4.133 4.15h-1.278v13.887h-2.03v-15.85h3.307a2.186 2.186 0 0 0 2.18-2.188V20.717a2.186 2.186 0 0 0-2.18-2.19H24.208a2.186 2.186 0 0 0-2.18 2.19v13.19a2.186 2.186 0 0 0 2.18 2.188h3.08v15.848H25.26v-13.81h-1.127A4.13 4.13 0 0 1 20 33.98V20.718a4.13 4.13 0 0 1 4.133-4.15H34.96a4.13 4.13 0 0 1 4.133 4.15v13.19h.075z"/>
</symbol><symbol id="icon-people-3" viewBox="0 0 52 60">
    <title>
        people-3
    </title>
    <path d="M37.12 41.962a4.13 4.13 0 0 1-4.132 4.15H31.71V60h-2.028V44.15h3.306a2.186 2.186 0 0 0 2.18-2.188V23.774a2.186 2.186 0 0 0-2.18-2.19H19.162a2.186 2.186 0 0 0-2.18 2.19v18.188a2.186 2.186 0 0 0 2.18 2.19h3.08V60h-2.028V46.19h-1.127a4.13 4.13 0 0 1-4.133-4.152V23.774a4.13 4.13 0 0 1 4.133-4.15h13.826a4.13 4.13 0 0 1 4.133 4.15v18.188h.075zM18.036 8A7.965 7.965 0 1 1 26 16a7.987 7.987 0 0 1-7.965-8zm2.03 0a6.012 6.012 0 1 0 6.01-6.038A6.042 6.042 0 0 0 20.066 8zM12.4 60h2.03V48.453h.9v-2.038H12.4V60zM1.954 44.755v-15.4A1.67 1.67 0 0 1 3.607 27.7H12.7v-2.04H3.682A3.7 3.7 0 0 0 0 29.358v15.4a3.7 3.7 0 0 0 3.682 3.7h.752V60h2.028V46.415h-2.78a1.688 1.688 0 0 1-1.728-1.66zM2.554 16a6.913 6.913 0 1 1 6.914 6.943A6.91 6.91 0 0 1 2.555 16zm2.03 0a4.884 4.884 0 1 0 4.884-4.906A4.885 4.885 0 0 0 4.584 16zM36.67 48.453h.9V60h2.03V46.415h-2.93v2.038zM48.32 25.66H39.3v2.04h9.092a1.67 1.67 0 0 1 1.653 1.66v15.4a1.67 1.67 0 0 1-1.653 1.66h-2.854V60h2.03V48.453h.75A3.7 3.7 0 0 0 52 44.755v-15.4a3.7 3.7 0 0 0-3.682-3.7zM35.618 16a6.913 6.913 0 1 1 6.913 6.943A6.91 6.91 0 0 1 35.62 16zm1.954 0a4.884 4.884 0 1 0 4.884-4.906A4.885 4.885 0 0 0 37.572 16z"/>
</symbol><symbol id="icon-people-5" viewBox="0 0 77.699 60">
    <title>
        people-5
    </title>
    <path d="M50.12 41.962a4.13 4.13 0 0 1-4.132 4.15H44.71V60h-2.028V44.15h3.306a2.186 2.186 0 0 0 2.18-2.188V23.774a2.186 2.186 0 0 0-2.18-2.19H32.162a2.186 2.186 0 0 0-2.18 2.19v18.188a2.186 2.186 0 0 0 2.18 2.19h3.08V60h-2.028V46.19h-1.127a4.13 4.13 0 0 1-4.133-4.152V23.774a4.13 4.13 0 0 1 4.133-4.15h13.826a4.13 4.13 0 0 1 4.133 4.15v18.188h.075zM31.036 8A7.965 7.965 0 1 1 39 16a7.987 7.987 0 0 1-7.965-8zm2.03 0a6.012 6.012 0 1 0 6.01-6.038A6.042 6.042 0 0 0 33.066 8zM25.4 60h2.03V48.453h.9v-2.038H25.4V60zM14.954 44.755v-15.4a1.67 1.67 0 0 1 1.653-1.66H25.7V25.66h-9.018A3.7 3.7 0 0 0 13 29.358v15.4a3.7 3.7 0 0 0 3.682 3.7h.75V60h2.03V46.415h-2.78a1.688 1.688 0 0 1-1.728-1.66zM12.428 60v-8.547h.9v-2.038H10.4V60h2.03zM1.954 32.358A1.67 1.67 0 0 1 3.607 30.7H10.7v-2.04H3.682A3.7 3.7 0 0 0 0 32.358v15.4a3.7 3.7 0 0 0 3.682 3.7h.752V60h2.028V49.415h-2.78a1.688 1.688 0 0 1-1.728-1.66v-15.4zM15.554 16a6.913 6.913 0 1 1 6.914 6.943A6.91 6.91 0 0 1 15.555 16zm2.03 0a4.884 4.884 0 1 0 4.884-4.906A4.885 4.885 0 0 0 17.584 16zM3 21a5 5 0 1 1 5 5 4.987 4.987 0 0 1-5-5zm2 0a3 3 0 1 0 3-3 2.994 2.994 0 0 0-3 3zm60.3 39v-8.547h-.9v-2.038h2.93V60H65.3zm10.446-27.642a1.672 1.672 0 0 0-1.653-1.66H67V28.66h7.017a3.7 3.7 0 0 1 3.682 3.7v15.4a3.7 3.7 0 0 1-3.683 3.7h-.75V60h-2.03V49.415h2.78a1.688 1.688 0 0 0 1.728-1.66v-15.4zM75 21a5 5 0 1 0-5 5 4.987 4.987 0 0 0 5-5zm-2 0a3 3 0 1 1-3-3 2.994 2.994 0 0 1 3 3zM49.67 48.453h.9V60h2.03V46.415h-2.93v2.038zM61.32 25.66H52.3v2.04h9.092a1.672 1.672 0 0 1 1.653 1.66v15.4a1.672 1.672 0 0 1-1.653 1.66h-2.854V60h2.03V48.453h.75A3.7 3.7 0 0 0 65 44.755v-15.4a3.7 3.7 0 0 0-3.682-3.7zM48.618 16a6.913 6.913 0 1 1 6.913 6.943A6.91 6.91 0 0 1 48.62 16zm1.954 0a4.884 4.884 0 1 0 4.884-4.906A4.885 4.885 0 0 0 50.572 16z"/>
</symbol></svg>