<?xml version="1.0" encoding="UTF-8"?><!DOCTYPE svg PUBLIC "-//W3C//DTD SVG 1.1//EN" "http://www.w3.org/Graphics/SVG/1.1/DTD/svg11.dtd"><svg xmlns="http://www.w3.org/2000/svg"><symbol id="icon-at" viewBox="0 0 19 21">
    <title>
        @
    </title>
    <path d="M12.688 6.7a7.862 7.862 0 0 0-.672-.182 4.494 4.494 0 0 0-1.008-.098c-.71 0-1.377.16-2.002.476A5.43 5.43 0 0 0 7.368 8.17a6.122 6.122 0 0 0-1.106 1.848c-.27.7-.406 1.423-.406 2.17 0 .69.177 1.255.532 1.694.355.44.877.658 1.568.658.485 0 .947-.14 1.386-.42.44-.28.84-.635 1.204-1.064.364-.43.667-.896.91-1.4.243-.504.41-.98.504-1.428l.728-3.528zm.896 12.46a7.46 7.46 0 0 1-2.268.91c-.803.177-1.652.266-2.548.266-1.12 0-2.18-.2-3.178-.602-1-.4-1.87-.975-2.618-1.722-.747-.747-1.335-1.652-1.764-2.716-.43-1.064-.644-2.268-.644-3.612 0-1.456.233-2.847.7-4.172C1.73 6.187 2.398 5.03 3.266 4.04a9.69 9.69 0 0 1 3.15-2.366C7.648 1.086 9.02.792 10.532.792c1.195 0 2.273.2 3.234.602.96.4 1.778.957 2.45 1.666a7.363 7.363 0 0 1 1.554 2.534c.364.98.546 2.04.546 3.178 0 1.1-.135 2.072-.406 2.912-.27.84-.625 1.55-1.064 2.128-.44.58-.943 1.017-1.512 1.316-.57.3-1.153.448-1.75.448-.243 0-.485-.05-.728-.154a1.826 1.826 0 0 1-.644-.462c-.187-.205-.327-.476-.42-.812-.093-.336-.112-.737-.056-1.204h-.112c-.54.915-1.14 1.582-1.792 2.002-.653.42-1.428.63-2.324.63a2.672 2.672 0 0 1-2.002-.896c-.27-.3-.485-.658-.644-1.078-.16-.42-.238-.9-.238-1.442 0-.86.168-1.694.504-2.506a7.237 7.237 0 0 1 1.386-2.17 6.572 6.572 0 0 1 2.1-1.512 6.257 6.257 0 0 1 2.646-.56c.58 0 1.087.047 1.526.14.44.093.845.215 1.218.364l-1.036 5.068c-.26 1.232-.308 2.123-.14 2.674.168.55.504.835 1.008.854.392 0 .784-.126 1.176-.378.392-.252.737-.616 1.036-1.092.3-.476.54-1.05.728-1.722.187-.672.28-1.428.28-2.268 0-1.083-.15-2.067-.448-2.954-.3-.887-.733-1.647-1.302-2.282a5.71 5.71 0 0 0-2.114-1.47c-.84-.345-1.792-.518-2.856-.518-1.176 0-2.277.23-3.304.686A7.984 7.984 0 0 0 4.33 4.488c-.775.86-1.386 1.89-1.834 3.094-.448 1.204-.672 2.543-.672 4.018 0 1.157.177 2.207.532 3.15.355.943.845 1.75 1.47 2.422a6.403 6.403 0 0 0 2.24 1.554c.868.364 1.815.546 2.842.546.86 0 1.643-.093 2.352-.28a7.76 7.76 0 0 0 1.932-.784l.392.952z" fill-rule="evenodd"/>
</symbol><symbol id="icon-btn-callback" viewBox="0 0 50 50">
    <title>
        ico-callback
    </title>
    <path d="M25 0C11.2 0 0 11.2 0 25s11.2 25 25 25c5.6 0 11-1.9 15.4-5.3v2.5h2.2v-6.6H36v2.2h3.4c-4.1 3.3-9.1 5.1-14.3 5.1-12.7 0-23-10.3-23-22.9C2.1 12.4 12.4 2.2 25 2.2c12.6 0 22.9 10.2 22.9 22.8 0 5-1.6 9.7-4.6 13.7L45 40c3.3-4.4 5-9.6 5-15 .1-13.8-11.2-25-25-25zm-3.3 13.2c-2.1 0-3.8 1.7-3.8 3.8v16.1c0 2.1 1.7 3.8 3.8 3.8h6.7c2.1 0 3.8-1.7 3.8-3.8V17c0-2.1-1.7-3.8-3.8-3.8h-6.7zM30 17v16.1c0 .9-.7 1.6-1.6 1.6h-6.7c-.9 0-1.6-.7-1.6-1.6V17c0-.9.7-1.6 1.6-1.6h6.7c.8 0 1.6.7 1.6 1.6zm-5 16.3a1.4 1.4 0 1 0 0-2.8 1.4 1.4 0 0 0 0 2.8z" fill-rule="evenodd" opacity=".5"/>
</symbol><symbol id="icon-btn-ok" viewBox="0 0 58 58">
    <title>
        btn-ok
    </title>
    <path d="M28.672 0C12.836 0 0 12.837 0 28.673c0 15.835 12.836 28.672 28.672 28.672 15.835 0 28.672-12.837 28.672-28.672C57.344 12.837 44.507 0 28.672 0zm.002 55.517c-14.802 0-26.904-12.042-26.904-26.844 0-14.803 12.102-26.845 26.904-26.845S55.518 13.87 55.518 28.673c0 14.802-12.042 26.844-26.844 26.844zM43.53 19.85L25.95 36.82l-11-11.43a1.28 1.28 0 0 0-1.84 1.78L25 39.51c.21.292.565.442.92.39.33 0 .645-.13.88-.36l18.49-17.86a1.27 1.27 0 1 0-1.76-1.83z" fill-rule="evenodd"/>
</symbol><symbol id="icon-chevron-down" viewBox="0 0 9.257 5.657">
    <title>
        chevron-down
    </title>
    <path d="M8.228 0l1.03 1.03-4.63 4.627L0 1.03 1.03 0l3.6 3.6L8.227 0z"/>
</symbol><symbol id="icon-demo" viewBox="0 0 19 17">
    <title>
        Shape
    </title>
    <path d="M0 2.93v5.733c0 1.61 1.393 2.93 3.092 2.93h4.344l-4.404 4.012a.77.77 0 0 0-.24.77c.07.278.295.5.586.578.29.08.605.004.82-.197l4.466-4.07v2.725a.78.78 0 0 0 .24.57c.157.15.38.24.602.24.223 0 .445-.09.602-.24a.78.78 0 0 0 .24-.57v-2.723l4.465 4.07c.214.21.533.292.83.214a.82.82 0 0 0 .597-.587.773.773 0 0 0-.26-.778l-4.404-4.013h4.332c1.7 0 3.092-1.32 3.092-2.93V5.87h-1.685v2.793c0 .753-.612 1.334-1.407 1.334H3.092c-.795 0-1.407-.58-1.407-1.334V2.93c0-.754.612-1.334 1.407-1.334h12.816c.795 0 1.407.58 1.407 1.333v2.883H19V2.93C19 1.32 17.607 0 15.908 0H3.092C1.392 0 0 1.32 0 2.93z" fill-rule="evenodd"/>
</symbol><symbol id="icon-hint" viewBox="0 0 12 12">
    <title>
        ico-hint
    </title>
    <path d="M0 6c0 3.314 2.693 6 6 6 3.314 0 6-2.693 6-6 0-3.314-2.693-6-6-6-3.314 0-6 2.693-6 6zm5 5V6H4V4h3v7H5zm2-8H5V1h2v2z" fill-rule="evenodd"/>
</symbol><symbol id="icon-man" viewBox="0 0 19.168 51.943">
    <title>
        man
    </title>
    <path d="M19.168 33.906a4.13 4.13 0 0 1-4.133 4.15h-1.278v13.887h-2.03v-15.85h3.307a2.186 2.186 0 0 0 2.18-2.188V20.717a2.186 2.186 0 0 0-2.18-2.19H4.208a2.186 2.186 0 0 0-2.18 2.19v13.19a2.186 2.186 0 0 0 2.18 2.188h3.08v15.848H5.26v-13.81H4.133A4.13 4.13 0 0 1 0 33.98V20.718a4.13 4.13 0 0 1 4.133-4.15H14.96a4.13 4.13 0 0 1 4.133 4.15v13.19h.075zM2.6 6.943a6.913 6.913 0 1 1 6.913 6.943A6.91 6.91 0 0 1 2.6 6.943zm2.03 0a4.884 4.884 0 1 0 4.884-4.905A4.885 4.885 0 0 0 4.63 6.943z"/>
</symbol><symbol id="icon-people-2" viewBox="0 0 39.168 51.943">
    <title>
        people-2
    </title>
    <path d="M19.168 33.906a4.13 4.13 0 0 1-4.133 4.15h-1.278v13.887h-2.03v-15.85h3.307a2.186 2.186 0 0 0 2.18-2.188V20.717a2.186 2.186 0 0 0-2.18-2.19H4.208a2.186 2.186 0 0 0-2.18 2.19v13.19a2.186 2.186 0 0 0 2.18 2.188h3.08v15.848H5.26v-13.81H4.133A4.13 4.13 0 0 1 0 33.98V20.718a4.13 4.13 0 0 1 4.133-4.15H14.96a4.13 4.13 0 0 1 4.133 4.15v13.19h.075zM22.6 6.943a6.913 6.913 0 1 1 6.913 6.943A6.91 6.91 0 0 1 22.6 6.943zm2.03 0a4.884 4.884 0 1 0 4.883-4.906 4.885 4.885 0 0 0-4.883 4.906zm-22.03 0a6.913 6.913 0 1 1 6.913 6.943A6.91 6.91 0 0 1 2.6 6.943zm2.03 0a4.884 4.884 0 1 0 4.884-4.905A4.885 4.885 0 0 0 4.63 6.943zm34.538 26.963a4.13 4.13 0 0 1-4.133 4.15h-1.278v13.887h-2.03v-15.85h3.307a2.186 2.186 0 0 0 2.18-2.188V20.717a2.186 2.186 0 0 0-2.18-2.19H24.208a2.186 2.186 0 0 0-2.18 2.19v13.19a2.186 2.186 0 0 0 2.18 2.188h3.08v15.848H25.26v-13.81h-1.127A4.13 4.13 0 0 1 20 33.98V20.718a4.13 4.13 0 0 1 4.133-4.15H34.96a4.13 4.13 0 0 1 4.133 4.15v13.19h.075z"/>
</symbol><symbol id="icon-people-3" viewBox="0 0 52 60">
    <title>
        people-3
    </title>
    <path d="M37.12 41.962a4.13 4.13 0 0 1-4.132 4.15H31.71V60h-2.028V44.15h3.306a2.186 2.186 0 0 0 2.18-2.188V23.774a2.186 2.186 0 0 0-2.18-2.19H19.162a2.186 2.186 0 0 0-2.18 2.19v18.188a2.186 2.186 0 0 0 2.18 2.19h3.08V60h-2.028V46.19h-1.127a4.13 4.13 0 0 1-4.133-4.152V23.774a4.13 4.13 0 0 1 4.133-4.15h13.826a4.13 4.13 0 0 1 4.133 4.15v18.188h.075zM18.036 8A7.965 7.965 0 1 1 26 16a7.987 7.987 0 0 1-7.965-8zm2.03 0a6.012 6.012 0 1 0 6.01-6.038A6.042 6.042 0 0 0 20.066 8zM12.4 60h2.03V48.453h.9v-2.038H12.4V60zM1.954 44.755v-15.4A1.67 1.67 0 0 1 3.607 27.7H12.7v-2.04H3.682A3.7 3.7 0 0 0 0 29.358v15.4a3.7 3.7 0 0 0 3.682 3.7h.752V60h2.028V46.415h-2.78a1.688 1.688 0 0 1-1.728-1.66zM2.554 16a6.913 6.913 0 1 1 6.914 6.943A6.91 6.91 0 0 1 2.555 16zm2.03 0a4.884 4.884 0 1 0 4.884-4.906A4.885 4.885 0 0 0 4.584 16zM36.67 48.453h.9V60h2.03V46.415h-2.93v2.038zM48.32 25.66H39.3v2.04h9.092a1.67 1.67 0 0 1 1.653 1.66v15.4a1.67 1.67 0 0 1-1.653 1.66h-2.854V60h2.03V48.453h.75A3.7 3.7 0 0 0 52 44.755v-15.4a3.7 3.7 0 0 0-3.682-3.7zM35.618 16a6.913 6.913 0 1 1 6.913 6.943A6.91 6.91 0 0 1 35.62 16zm1.954 0a4.884 4.884 0 1 0 4.884-4.906A4.885 4.885 0 0 0 37.572 16z"/>
</symbol><symbol id="icon-people-5" viewBox="0 0 77.699 60">
    <title>
        people-5
    </title>
    <path d="M50.12 41.962a4.13 4.13 0 0 1-4.132 4.15H44.71V60h-2.028V44.15h3.306a2.186 2.186 0 0 0 2.18-2.188V23.774a2.186 2.186 0 0 0-2.18-2.19H32.162a2.186 2.186 0 0 0-2.18 2.19v18.188a2.186 2.186 0 0 0 2.18 2.19h3.08V60h-2.028V46.19h-1.127a4.13 4.13 0 0 1-4.133-4.152V23.774a4.13 4.13 0 0 1 4.133-4.15h13.826a4.13 4.13 0 0 1 4.133 4.15v18.188h.075zM31.036 8A7.965 7.965 0 1 1 39 16a7.987 7.987 0 0 1-7.965-8zm2.03 0a6.012 6.012 0 1 0 6.01-6.038A6.042 6.042 0 0 0 33.066 8zM25.4 60h2.03V48.453h.9v-2.038H25.4V60zM14.954 44.755v-15.4a1.67 1.67 0 0 1 1.653-1.66H25.7V25.66h-9.018A3.7 3.7 0 0 0 13 29.358v15.4a3.7 3.7 0 0 0 3.682 3.7h.75V60h2.03V46.415h-2.78a1.688 1.688 0 0 1-1.728-1.66zM12.428 60v-8.547h.9v-2.038H10.4V60h2.03zM1.954 32.358A1.67 1.67 0 0 1 3.607 30.7H10.7v-2.04H3.682A3.7 3.7 0 0 0 0 32.358v15.4a3.7 3.7 0 0 0 3.682 3.7h.752V60h2.028V49.415h-2.78a1.688 1.688 0 0 1-1.728-1.66v-15.4zM15.554 16a6.913 6.913 0 1 1 6.914 6.943A6.91 6.91 0 0 1 15.555 16zm2.03 0a4.884 4.884 0 1 0 4.884-4.906A4.885 4.885 0 0 0 17.584 16zM3 21a5 5 0 1 1 5 5 4.987 4.987 0 0 1-5-5zm2 0a3 3 0 1 0 3-3 2.994 2.994 0 0 0-3 3zm60.3 39v-8.547h-.9v-2.038h2.93V60H65.3zm10.446-27.642a1.672 1.672 0 0 0-1.653-1.66H67V28.66h7.017a3.7 3.7 0 0 1 3.682 3.7v15.4a3.7 3.7 0 0 1-3.683 3.7h-.75V60h-2.03V49.415h2.78a1.688 1.688 0 0 0 1.728-1.66v-15.4zM75 21a5 5 0 1 0-5 5 4.987 4.987 0 0 0 5-5zm-2 0a3 3 0 1 1-3-3 2.994 2.994 0 0 1 3 3zM49.67 48.453h.9V60h2.03V46.415h-2.93v2.038zM61.32 25.66H52.3v2.04h9.092a1.672 1.672 0 0 1 1.653 1.66v15.4a1.672 1.672 0 0 1-1.653 1.66h-2.854V60h2.03V48.453h.75A3.7 3.7 0 0 0 65 44.755v-15.4a3.7 3.7 0 0 0-3.682-3.7zM48.618 16a6.913 6.913 0 1 1 6.913 6.943A6.91 6.91 0 0 1 48.62 16zm1.954 0a4.884 4.884 0 1 0 4.884-4.906A4.885 4.885 0 0 0 50.572 16z"/>
</symbol><symbol id="icon-person" viewBox="0 0 20 20">
    <title>
        Imported Layers
    </title>
    <path d="M18.507 15.587l-.894.447c.32.64.528 1.337.646 2.042.07.43.095.768.095.956 0-.374.303-.677.677-.677H.322c.375 0 .678.304.678.677 0-.19.024-.526.096-.956a7.23 7.23 0 0 1 .646-2.042c.2-.4.82-.83 2.02-1.345.598-.257 1.14-.463 2.52-.968.402-.147.785-.288 1.164-.43l.65-.242V9.723l-.3-.295c-.364-.354-.654-.903-.69-1.67l-.024-.465-.37-.28c.025.017-.01-.048-.045-.195-.074-.312-.023-.58.05-.642l.482-.42-.18-.615-.04-.13-.004-.014-.014-.046c-.07-.232-.103-.342-.142-.483a6.996 6.996 0 0 1-.23-1.104c-.056-.5-.003-.845.122-1.013.07-.096.18-.15.39-.17l.553-.052.25-.495C8.064 1.313 9.06 1 10.234 1c1.553 0 2.74.503 2.845 1.035.044.22.042.498-.007.825a7.002 7.002 0 0 1-.348 1.3c-.072.202-.132.357-.253.66l-.025.065-.003.01c-.036.088-.036.088-.07.177l-.25.644.514.46c.072.065.122.333.05.642-.035.147-.07.212-.046.194l-.37.28-.022.465c-.04.8-.35 1.424-.73 1.84l-.262.285V13.05l.65.243c.352.132.7.26 1.162.428 1.384.508 1.925.714 2.522.97 1.2.516 1.82.946 2.02 1.345l.895-.448c-.577-1.15-2.472-1.844-5.094-2.805-.37-.136-.756-.277-1.155-.426V10.27c.262-.286.925-1.14.99-2.464.183-.14.33-.402.413-.76.134-.565.064-1.24-.354-1.614.03-.073.064-.16.096-.243.308-.778.883-2.227.66-3.35C13.805.567 11.956 0 10.235 0 8.978 0 7.448.315 7.01 1.183c-.483.045-.853.236-1.1.57-.683.92-.178 2.586.093 3.48.02.064.04.13.056.188-.428.374-.502 1.055-.366 1.627.083.357.23.62.412.76.064 1.3.712 2.065.99 2.336v2.213c-.4.15-.785.29-1.157.427-2.623.96-4.518 1.653-5.093 2.804A8.502 8.502 0 0 0 0 19.032c0 .178.144.323.322.323h18.71a.323.323 0 0 0 .323-.323c0-.07-.01-1.77-.848-3.445z" fill-rule="evenodd"/>
</symbol><symbol id="icon-portfolio" viewBox="0 0 23 19">
    <title>
        Shape
    </title>
    <path d="M22.526 10.636a.474.474 0 0 0-.474.473v4.963c0 1.043-.85 1.89-1.897 1.89h-16.6a1.896 1.896 0 0 1-1.895-1.89V11.11a.474.474 0 0 0-.95 0v4.963a2.844 2.844 0 0 0 2.846 2.836h16.6A2.844 2.844 0 0 0 23 16.072V11.11a.474.474 0 0 0-.474-.474zm-2.37-7.563h-3.558V1.655A1.66 1.66 0 0 0 14.938 0H8.773a1.66 1.66 0 0 0-1.66 1.655v1.418H3.556A2.844 2.844 0 0 0 .71 5.91v3.545h.067c.033.058.08.11.14.152.11.077 2.757 1.854 9.042 2.164v.994c0 .65.53 1.18 1.184 1.18h1.423c.654 0 1.186-.53 1.186-1.18v-.993c6.284-.31 8.93-2.086 9.043-2.163a.468.468 0 0 0 .14-.153H23V5.91a2.844 2.844 0 0 0-2.845-2.837zM8.06 1.655c0-.39.32-.71.71-.71h6.166c.392 0 .71.32.71.71v1.418H8.063V1.655zm4.742 11.11c0 .13-.106.235-.237.235h-1.423a.237.237 0 0 1-.237-.236V9.927c0-.13.107-.236.237-.236h1.423c.13 0 .237.107.237.237v2.837zm-.237-4.02h-1.423c-.653 0-1.185.53-1.185 1.182v.898c-5.004-.255-7.59-1.482-8.3-1.875V5.91c0-1.044.85-1.892 1.896-1.892h16.6c1.045 0 1.896.848 1.896 1.89V8.95c-.71.394-3.297 1.62-8.3 1.875v-.898c0-.65-.53-1.182-1.185-1.182z" fill-rule="evenodd"/>
</symbol></svg>