<svg width="50" height="30" viewBox="0 0 50 30" xmlns="http://www.w3.org/2000/svg">
    <title>
        AmericanExpress-light
    </title>
    <g fill="none" fill-rule="evenodd">
        <rect fill="#FFF" width="50" height="30" rx="2"/>
        <path d="M42.204 17.333h-1.767c-.176 0-.293.006-.392.073-.102.065-.142.163-.142.29 0 .153.087.257.212.302.102.035.212.046.374.046l.524.014c.53.013.884.104 1.1.325.04.03.063.066.09.1v-1.15zm0 2.666c-.236.342-.695.516-1.316.516h-1.87v-.867h1.863c.186 0 .315-.025.393-.1a.355.355 0 0 0 .115-.265.332.332 0 0 0-.12-.267c-.07-.062-.17-.09-.34-.09-.91-.03-2.046.028-2.046-1.252 0-.586.374-1.204 1.39-1.204h1.932v-.804H40.41c-.542 0-.935.13-1.213.33v-.33h-2.654c-.424 0-.922.105-1.157.33v-.33h-4.74v.33c-.376-.27-1.012-.33-1.306-.33h-3.125v.33c-.298-.288-.962-.33-1.366-.33h-3.5l-.8.863-.75-.862h-5.223v5.642h5.126l.825-.877.777.877 3.16.003v-1.327h.31c.42.006.914-.01 1.35-.2v1.524h2.607v-1.47h.126c.16 0 .176.006.176.166v1.304h7.918c.502 0 1.028-.128 1.32-.36v.36h2.51c.523 0 1.033-.073 1.422-.26V20zm-3.867-1.617c.19.195.29.44.29.857 0 .87-.545 1.276-1.522 1.276h-1.888v-.867h1.88c.184 0 .314-.025.396-.1a.358.358 0 0 0 .114-.265.347.347 0 0 0-.118-.267c-.075-.062-.177-.09-.346-.09-.906-.03-2.042.028-2.042-1.252 0-.586.37-1.204 1.386-1.204h1.943v.86h-1.777c-.176 0-.29.008-.388.074-.106.066-.146.163-.146.29 0 .154.09.257.21.302.104.036.214.046.38.046l.52.014c.527.013.888.104 1.107.325zm-8.746-.25c-.128.077-.29.084-.477.084h-1.178v-.908h1.194c.17 0 .344.002.46.072.127.065.202.19.202.363a.436.436 0 0 1-.2.39zm.587.504c.215.08.392.222.474.34.138.197.158.38.162.737v.802h-.973v-.506c0-.243.022-.603-.158-.79-.14-.146-.357-.18-.71-.18h-1.037v1.476h-.974v-4.044h2.24c.49 0 .847.022 1.165.19.306.185.5.438.5.9-.002.645-.433.974-.688 1.075zm1.224-2.165h3.236v.837h-2.27v.734h2.215v.825h-2.214v.803l2.27.004v.84H31.4V16.47zm-6.54 1.866h-1.25v-1.03h1.263c.35 0 .593.143.593.496 0 .35-.232.534-.605.534zm-2.216 1.81l-1.49-1.647 1.49-1.594v3.242zm-3.844-.475h-2.383v-.804h2.128v-.826h-2.128v-.735h2.43l1.06 1.177-1.107 1.186zm7.706-1.87c0 1.125-.84 1.357-1.688 1.357h-1.21v1.356h-1.883l-1.194-1.34-1.24 1.34h-3.838v-4.044h3.898l1.193 1.326 1.233-1.326h3.097c.77 0 1.633.213 1.633 1.332z" fill="#0072CE"/>
        <path d="M10.827 11.812l-.663-1.612-.66 1.612h1.323zm14.615-.642c-.133.08-.29.084-.48.084h-1.177v-.898h1.194c.168 0 .344.007.458.073.126.057.204.183.204.356 0 .177-.074.32-.2.384zm8.4.642l-.67-1.612-.668 1.612h1.338zm-15.658 1.745h-.994l-.003-3.167-1.406 3.167h-.85l-1.41-3.17v3.17h-1.97l-.373-.902H9.16l-.377.902H7.73l1.736-4.043h1.44l1.65 3.828V9.514h1.58l1.27 2.742 1.164-2.742h1.614v4.043zm3.96 0h-3.238V9.514h3.238v.842h-2.268v.728h2.214v.83h-2.214v.806h2.268v.837zm4.566-2.954c0 .644-.432.977-.683 1.077.212.08.393.223.48.34.136.202.16.38.16.742v.795h-.978l-.005-.51c0-.243.024-.593-.153-.788-.14-.143-.357-.174-.706-.174h-1.04v1.47h-.97V9.515h2.23c.495 0 .86.013 1.173.193.306.18.49.445.49.896zm1.55 2.954h-.988V9.514h.99v4.043zm11.474 0H38.36l-1.836-3.035v3.035H34.55l-.377-.902H32.16l-.367.902H30.66c-.472 0-1.07-.104-1.406-.448-.34-.344-.518-.81-.518-1.544 0-.6.106-1.148.522-1.58.314-.323.804-.472 1.472-.472h.94v.866h-.92c-.354 0-.554.052-.746.24-.165.17-.28.492-.28.915 0 .433.088.746.268.95.15.16.42.208.675.208h.436l1.366-3.18h1.45l1.642 3.825V9.514h1.476l1.704 2.816V9.514h.992v4.043zM7.72 14.35h1.655l.374-.897h.835l.372.898h3.258v-.686l.29.69H16.2l.29-.7v.697h8.1l-.005-1.473h.156c.11.003.14.014.14.194v1.28h4.19v-.342c.337.18.863.343 1.554.343h1.762l.377-.897h.836l.368.898h3.395V13.5l.515.853h2.72V8.713h-2.692v.666l-.377-.666h-2.764v.666l-.347-.666h-3.733c-.625 0-1.174.087-1.618.33v-.33h-2.576v.33c-.282-.25-.667-.33-1.095-.33h-9.41l-.632 1.456-.648-1.456h-2.964v.666l-.326-.666H8.893l-1.174 2.68v2.96z" fill="#0072CE"/>
    </g>
</svg>
