<svg width="50" height="30" viewBox="0 0 50 30" xmlns="http://www.w3.org/2000/svg">
    <title>
        Visa-light
    </title>
    <g fill="none" fill-rule="evenodd">
        <rect fill="#FFF" width="50" height="30" rx="2"/>
        <path d="M20.745 19.773l1.537-9.537h2.458l-1.537 9.537h-2.458" fill="#26337A"/>
        <path d="M32.116 10.47c-.485-.19-1.25-.4-2.202-.4-2.43 0-4.14 1.295-4.154 3.148-.015 1.37 1.22 2.135 2.152 2.59.958.468 1.28.767 1.276 1.184-.007.64-.764.932-1.47.932-.985 0-1.507-.144-2.316-.5l-.316-.152-.343 2.134c.573.266 1.635.497 2.737.51 2.583 0 4.26-1.28 4.28-3.26.01-1.086-.646-1.91-2.064-2.59-.86-.442-1.386-.735-1.38-1.183 0-.396.445-.82 1.408-.82a4.31 4.31 0 0 1 1.84.366l.22.108.332-2.068" fill="#26337A"/>
        <path d="M35.39 16.392l.978-2.666c-.015.026.202-.552.326-.91l.166.823.57 2.752h-2.04zm3.03-6.146h-1.9c-.588 0-1.03.17-1.287.79l-3.65 8.74h2.582s.42-1.175.517-1.433l3.147.005c.073.333.298 1.43.298 1.43h2.28l-1.988-9.532z" fill="#26337A"/>
        <path d="M18.683 10.244l-2.405 6.502-.258-1.32c-.448-1.524-1.843-3.175-3.404-4.002l2.2 8.34h2.602l3.87-9.52h-2.605" fill="#26337A"/>
        <path d="M14.045 10.238h-3.963l-.032.197c3.083.79 5.124 2.697 5.97 4.99l-.86-4.382c-.15-.605-.58-.784-1.115-.805" fill="#ED982D"/>
    </g>
</svg>
