<svg width="50" height="30" viewBox="0 0 50 30" xmlns="http://www.w3.org/2000/svg" xmlns:xlink="http://www.w3.org/1999/xlink">
    <title>
        Discover-light
    </title>
    <defs>
        <rect id="a" width="50" height="30" rx="2"/>
        <path id="b" d="M12.058 30H48c1.105 0 2-.904 2-1.997V16.85S36.6 25.933 12.058 30z"/>
    </defs>
    <g fill="none" fill-rule="evenodd">
        <g>
            <use fill="#FFF" xlink:href="#a"/>
            <use fill="#E7772F" xlink:href="#b"/>
        </g>
        <path d="M9.144 14.91c-.375.322-.853.462-1.617.462H7.21v-3.83h.317c.764 0 1.224.13 1.617.468.407.348.65.885.65 1.44 0 .56-.243 1.115-.65 1.46zm-1.38-4.35H6.03v5.794h1.723c.918 0 1.58-.21 2.16-.67a2.86 2.86 0 0 0 1.1-2.225c0-1.71-1.336-2.9-3.25-2.9z" fill="#1A1918"/>
        <path d="M11.557 10.56h1.176v5.794h-1.176V10.56z" fill="#1A1918"/>
        <path d="M15.622 12.78c-.71-.248-.917-.414-.917-.727 0-.364.37-.64.88-.64.354 0 .645.136.955.466l.615-.772a2.705 2.705 0 0 0-1.777-.643c-1.072 0-1.888.713-1.888 1.656 0 .802.38 1.208 1.487 1.594.463.154.7.26.818.33.236.146.353.355.353.597 0 .472-.39.82-.917.82-.56 0-1.015-.27-1.287-.775l-.76.705c.543.763 1.195 1.104 2.094 1.104 1.225 0 2.09-.785 2.09-1.904 0-.92-.402-1.34-1.745-1.81" fill="#1A1918"/>
        <path d="M17.737 13.46c0 1.702 1.397 3.022 3.196 3.022.507 0 .942-.095 1.477-.337v-1.33c-.473.454-.888.633-1.426.633-1.188 0-2.03-.823-2.03-1.997 0-1.11.87-1.988 1.98-1.988.56 0 .986.19 1.476.652v-1.33c-.517-.25-.942-.354-1.453-.354-1.79 0-3.22 1.346-3.22 3.03" fill="#1A1918"/>
        <path d="M31.974 14.45l-1.614-3.89h-1.287l2.566 5.94h.632l2.616-5.94H33.61l-1.636 3.89" fill="#1A1918"/>
        <path d="M35.424 16.354h3.347v-.982h-2.165V13.81h2.084v-.983h-2.085v-1.285h2.166v-.98h-3.346v5.792" fill="#1A1918"/>
        <path d="M41.077 13.225h-.343v-1.752h.362c.738 0 1.133.296 1.133.86 0 .58-.396.892-1.153.892zm2.368-.955c0-1.084-.778-1.71-2.14-1.71H39.55v5.794h1.184v-2.33h.154l1.63 2.33h1.453l-1.903-2.442c.89-.174 1.378-.755 1.378-1.642z" fill="#1A1918"/>
        <path d="M29.24 13.472c0 1.668-1.413 3.02-3.156 3.02s-3.156-1.352-3.156-3.02c0-1.667 1.413-3.02 3.156-3.02s3.155 1.353 3.155 3.02" fill="#E7772F"/>
    </g>
</svg>
