<svg width="51" height="31" viewBox="0 0 51 31" xmlns="http://www.w3.org/2000/svg">
    <title>
        Paypal-light
    </title>
    <g transform="matrix(1 0 0 -1 0 31)" fill="none" fill-rule="evenodd">
        <rect fill="#FFF" x=".095" y=".078" width="50.495" height="30.492" rx="2"/>
        <path d="M31.07 17.152c-.135-.897-.816-.897-1.474-.897h-.374l.263 1.674c.015.1.102.175.204.175h.17c.448 0 .87 0 1.09-.257.13-.154.17-.382.12-.696m-.286 2.34h-2.482a.346.346 0 0 1-.34-.294l-1.004-6.404a.208.208 0 0 1 .205-.24h1.273c.12 0 .22.086.238.204l.285 1.816c.025.17.17.293.34.293h.785c1.634 0 2.578.796 2.824 2.374.11.69.003 1.233-.317 1.613-.353.417-.98.638-1.81.638" fill="#0079C1"/>
        <path d="M13.37 17.152c-.134-.897-.815-.897-1.473-.897h-.374l.263 1.674c.015.1.102.175.204.175h.172c.448 0 .87 0 1.09-.257.13-.154.17-.382.12-.696m-.287 2.34h-2.48a.346.346 0 0 1-.342-.294L9.26 12.794a.208.208 0 0 1 .204-.24h1.185c.168 0 .312.124.34.292l.27 1.728c.026.17.17.293.34.293h.786c1.634 0 2.578.796 2.824 2.374.11.69.004 1.233-.316 1.613-.353.417-.98.638-1.81.638" fill="#00457C"/>
        <path d="M18.846 14.853c-.115-.683-.654-1.142-1.34-1.142-.346 0-.622.112-.8.324-.175.21-.24.507-.185.84.107.677.655 1.15 1.332 1.15.338 0 .612-.112.792-.326.182-.214.254-.514.202-.845m1.656 2.328h-1.188a.207.207 0 0 1-.205-.175l-.053-.334-.083.122c-.257.375-.83.5-1.404.5-1.312 0-2.434-1-2.652-2.404-.114-.7.048-1.37.442-1.838.363-.43.88-.608 1.497-.608 1.058 0 1.645.684 1.645.684l-.053-.332a.208.208 0 0 1 .203-.24h1.07c.17 0 .314.123.34.292l.643 4.094a.208.208 0 0 1-.204.24" fill="#00457C"/>
        <path d="M36.545 14.853c-.115-.683-.654-1.142-1.34-1.142-.346 0-.622.112-.8.324-.175.21-.24.507-.185.84.106.677.654 1.15 1.33 1.15.34 0 .613-.112.793-.326.182-.214.254-.514.202-.845M38.2 17.18h-1.187a.207.207 0 0 1-.205-.175l-.052-.334-.083.122c-.257.375-.83.5-1.404.5-1.313 0-2.435-1-2.653-2.404-.114-.7.048-1.37.442-1.838.362-.43.88-.608 1.496-.608 1.058 0 1.645.684 1.645.684l-.052-.332a.208.208 0 0 1 .204-.24h1.07c.17 0 .314.123.34.292l.643 4.094a.208.208 0 0 1-.204.24" fill="#0079C1"/>
        <path d="M26.83 17.18h-1.194a.343.343 0 0 1-.285-.152l-1.647-2.442-.698 2.347a.346.346 0 0 1-.33.248H21.5a.208.208 0 0 1-.195-.275l1.315-3.885-1.237-1.756a.208.208 0 0 1 .17-.33h1.192c.113 0 .22.057.284.15l3.97 5.77a.208.208 0 0 1-.17.327" fill="#00457C"/>
        <path d="M39.6 19.315l-1.017-6.52a.208.208 0 0 1 .204-.242h1.025c.17 0 .314.125.34.293l1.004 6.404a.208.208 0 0 1-.204.24h-1.146a.207.207 0 0 1-.205-.175" fill="#0079C1"/>
    </g>
</svg>
