<svg width="50" height="30" viewBox="0 0 50 30" xmlns="http://www.w3.org/2000/svg">
    <title>
        MasterCard-light
    </title>
    <g fill="none" fill-rule="evenodd">
        <rect fill="#FFF" width="50" height="30" rx="2"/>
        <path d="M28.064 15.243c0 5.39-4.368 9.757-9.757 9.757-5.39 0-9.758-4.368-9.758-9.757 0-5.39 4.368-9.758 9.757-9.758 5.39 0 9.757 4.37 9.757 9.758" fill="#C00"/>
        <path d="M31.407 5.485a9.723 9.723 0 0 0-7.536 3.56h1.973c.27.327.517.67.744 1.032h-3.46a9.803 9.803 0 0 0-.562 1.034h4.584c.155.335.293.68.412 1.034h-5.41c-.113.336-.208.68-.283 1.032h5.975a9.83 9.83 0 0 1-.283 5.166h-5.41c.12.354.257.7.413 1.034h4.584c-.17.356-.356.7-.564 1.033h-3.46c.227.36.476.704.745 1.032h1.972a9.75 9.75 0 0 1-.985 1.033A9.722 9.722 0 0 0 31.407 25c5.39 0 9.757-4.368 9.757-9.757 0-5.39-4.368-9.758-9.757-9.758" fill="#F90"/>
        <path d="M16.028 16.31a1.822 1.822 0 0 0-.236-.016c-.6 0-.904.206-.904.613 0 .25.148.41.38.41.43 0 .742-.41.76-1.006zm.77 1.794h-.877l.02-.417c-.267.33-.624.487-1.11.487-.573 0-.967-.448-.967-1.1 0-.98.685-1.55 1.86-1.55.12 0 .274.01.432.03a.994.994 0 0 0 .04-.26c0-.268-.183-.368-.678-.368a3.532 3.532 0 0 0-1.12.182l.146-.905c.527-.156.875-.213 1.267-.213.91 0 1.392.408 1.39 1.18.003.207-.032.46-.085.797-.092.583-.29 1.833-.316 2.137z" fill="#006"/>
        <path d="M13.42 18.104h-1.06l.608-3.804-1.356 3.804h-.72l-.09-3.783-.638 3.784h-.992l.828-4.95h1.524l.092 2.77.93-2.77h1.693l-.82 4.95" fill="#006"/>
        <path d="M32.716 16.31a1.814 1.814 0 0 0-.236-.016c-.6 0-.904.206-.904.613 0 .25.147.41.38.41.43 0 .742-.41.76-1.006zm.77 1.794h-.877l.02-.417c-.27.33-.626.487-1.11.487-.575 0-.97-.448-.97-1.1 0-.98.686-1.55 1.86-1.55.12 0 .275.01.433.03a.988.988 0 0 0 .04-.26c0-.268-.183-.368-.678-.368a3.54 3.54 0 0 0-1.122.182c.012-.067.148-.905.148-.905.528-.156.877-.213 1.268-.213.91 0 1.392.408 1.39 1.18.002.207-.032.46-.085.797-.092.583-.29 1.833-.316 2.137z" fill="#006"/>
        <path d="M21.507 18.043c-.29.092-.516.13-.76.13-.543 0-.838-.31-.838-.883-.01-.178.076-.646.144-1.073.06-.376.46-2.747.46-2.747h1.052l-.123.61h.636l-.145.967h-.638c-.122.765-.296 1.72-.298 1.845 0 .208.11.298.36.298.122 0 .216-.012.287-.038l-.14.89" fill="#006"/>
        <path d="M24.735 18.01a3.58 3.58 0 0 1-1.08.164c-1.18-.002-1.794-.617-1.794-1.796 0-1.375.783-2.388 1.844-2.388.868 0 1.423.567 1.423 1.456 0 .295-.038.583-.13.99H22.9c-.07.584.303.827.916.827.376 0 .716-.078 1.094-.253l-.175 1zm-.592-2.385c.006-.084.112-.72-.49-.72-.335 0-.575.257-.673.72h1.163z" fill="#006"/>
        <path d="M17.434 15.352c0 .51.247.86.807 1.124.43.202.496.26.496.444 0 .25-.19.364-.608.364-.316 0-.61-.05-.95-.16l-.145.93c.24.053.456.102 1.103.12 1.117 0 1.633-.426 1.633-1.345 0-.554-.216-.88-.747-1.123-.444-.204-.495-.25-.495-.437 0-.218.176-.33.518-.33.208 0 .492.023.76.06l.152-.932a7.152 7.152 0 0 0-.932-.078c-1.185 0-1.596.618-1.592 1.362" fill="#006"/>
        <path d="M29.887 14.096c.294 0 .57.076.947.267l.173-1.074c-.156-.062-.702-.42-1.164-.42-.71 0-1.31.352-1.73.932-.615-.204-.868.208-1.178.618l-.275.064c.02-.135.04-.27.034-.405h-.973c-.132 1.246-.367 2.507-.552 3.754l-.048.27h1.06a68.74 68.74 0 0 0 .332-2.383l.4-.22c.06-.222.245-.297.62-.288a4.51 4.51 0 0 0-.076.825c0 1.317.712 2.137 1.852 2.137.294 0 .546-.04.936-.145l.186-1.13c-.35.174-.64.255-.9.255-.615 0-.988-.455-.988-1.206 0-1.09.554-1.854 1.345-1.854" fill="#006"/>
        <path d="M38.856 13.155l-.236 1.43c-.29-.38-.6-.657-1.01-.657-.535 0-1.022.405-1.34 1.002-.444-.092-.903-.25-.903-.25v.005a5.96 5.96 0 0 0 .047-.606h-.973c-.132 1.246-.367 2.507-.55 3.754l-.05.27h1.06c.143-.928.252-1.7.333-2.312.362-.328.544-.613.91-.594a3.45 3.45 0 0 0-.258 1.306c0 1.006.51 1.67 1.28 1.67.388 0 .686-.134.976-.444l-.05.374h1.003l.807-4.95h-1.044zm-1.325 4.02c-.36 0-.542-.268-.542-.794 0-.79.34-1.35.82-1.35.365 0 .563.276.563.787 0 .798-.346 1.358-.84 1.358z" fill="#006"/>
        <path d="M13.725 17.81h-1.06l.608-3.804-1.355 3.805h-.723l-.09-3.782-.637 3.783h-.99l.827-4.948h1.523l.043 3.063 1.03-3.063h1.644l-.82 4.95" fill="#FFF"/>
        <path d="M16.333 16.018a1.76 1.76 0 0 0-.236-.017c-.6 0-.904.207-.904.614 0 .25.148.41.38.41.43 0 .742-.41.76-1.006zm.77 1.793h-.877l.02-.416c-.268.33-.625.487-1.11.487-.574 0-.968-.448-.968-1.1 0-.98.685-1.55 1.86-1.55.12 0 .274.01.432.03a1 1 0 0 0 .04-.26c0-.267-.183-.366-.678-.366a3.52 3.52 0 0 0-1.122.18c.012-.067.147-.905.147-.905.528-.156.876-.214 1.268-.214.91 0 1.392.41 1.39 1.18.002.207-.032.463-.085.798-.092.582-.29 1.833-.316 2.137z" fill="#FFF"/>
        <path d="M31.312 12.995l-.174 1.074c-.378-.19-.652-.268-.946-.268-.79 0-1.346.764-1.346 1.855 0 .75.373 1.204.99 1.204.26 0 .548-.08.9-.252l-.187 1.127c-.39.107-.644.146-.937.146-1.14 0-1.85-.82-1.85-2.136 0-1.77.98-3.006 2.385-3.006.462 0 1.008.196 1.164.257" fill="#FFF"/>
        <path d="M33.02 16.018a1.748 1.748 0 0 0-.235-.017c-.6 0-.904.207-.904.614 0 .25.15.41.38.41.432 0 .743-.41.76-1.006zm.772 1.793h-.878l.02-.416c-.268.33-.625.487-1.11.487-.575 0-.968-.448-.968-1.1 0-.98.684-1.55 1.86-1.55.12 0 .274.01.43.03a.994.994 0 0 0 .043-.26c0-.267-.185-.366-.68-.366a3.52 3.52 0 0 0-1.122.18l.147-.905c.528-.156.876-.214 1.268-.214.91 0 1.392.41 1.39 1.18.003.207-.032.463-.085.798-.092.582-.29 1.833-.316 2.137z" fill="#FFF"/>
        <path d="M21.81 17.75c-.288.09-.515.13-.76.13-.54 0-.837-.31-.837-.883-.007-.18.078-.646.146-1.073.06-.377.458-2.747.458-2.747h1.053l-.122.61h.54l-.144.966h-.542c-.122.766-.297 1.72-.3 1.846 0 .207.112.297.364.297.12 0 .214-.012.286-.038l-.14.89" fill="#FFF"/>
        <path d="M25.04 17.718c-.362.11-.71.163-1.08.163-1.18 0-1.794-.616-1.794-1.795 0-1.376.782-2.39 1.843-2.39.867 0 1.422.568 1.422 1.458 0 .295-.04.583-.13.99h-2.097c-.07.584.303.827.915.827.377 0 .717-.078 1.095-.254l-.175 1.002zm-.592-2.387c.006-.083.112-.718-.49-.718-.335 0-.575.257-.673.72h1.163z" fill="#FFF"/>
        <path d="M17.74 15.058c0 .51.246.86.806 1.124.43.202.495.262.495.445 0 .25-.188.364-.607.364-.316 0-.61-.048-.95-.158l-.145.93c.24.052.456.1 1.102.12 1.118 0 1.634-.427 1.634-1.347 0-.553-.216-.877-.746-1.12-.444-.205-.495-.25-.495-.44 0-.216.176-.328.518-.328.21 0 .493.023.762.06l.15-.932a7.21 7.21 0 0 0-.93-.08c-1.187 0-1.597.62-1.593 1.363" fill="#FFF"/>
        <path d="M39.398 17.81h-1.002l.05-.374c-.29.31-.588.445-.977.445-.77 0-1.28-.663-1.28-1.67 0-1.338.79-2.467 1.724-2.467.41 0 .722.168 1.01.55l.236-1.43h1.045l-.807 4.948zm-1.563-.93c.494 0 .84-.558.84-1.355 0-.512-.197-.79-.56-.79-.48 0-.822.56-.822 1.353 0 .526.182.793.542.793z" fill="#FFF"/>
        <path d="M34.746 13.786c-.133 1.246-.368 2.507-.553 3.754l-.048.27h1.06c.38-2.46.47-2.94 1.064-2.88.094-.505.27-.946.4-1.168-.442-.093-.69.158-1.015.634.026-.206.073-.406.064-.61h-.974" fill="#FFF"/>
        <path d="M26.026 13.786c-.133 1.246-.37 2.507-.553 3.754l-.048.27h1.06c.38-2.46.47-2.94 1.063-2.88.095-.505.272-.946.403-1.168-.442-.093-.69.158-1.015.634.026-.206.073-.406.064-.61h-.974" fill="#FFF"/>
    </g>
</svg>
