<svg width="106" height="105" viewBox="0 0 106 105" xmlns="http://www.w3.org/2000/svg" xmlns:xlink="http://www.w3.org/1999/xlink">
    <title>
        Page 1
    </title>
    <defs>
        <path id="a" d="M0 .65h106V105H0V.65z"/>
    </defs>
    <g fill="none" fill-rule="evenodd">
        <path d="M53 105C23.776 105 0 81.594 0 52.825 0 24.055 23.776.65 53 .65s53 23.406 53 52.175C106 81.595 82.224 105 53 105" fill="#82CF8F"/>
        <path d="M78.976 23.312l5.583-5.575 2.712 24.53-24.52-2.72 7.12-7.125c-10.02-9.31-25.718-9.11-35.465.634-4.83 4.833-7.49 11.257-7.49 18.085 0 .052.005.1.005.152h-12.88c0-.053-.004-.1-.004-.15 0-10.27 4.002-19.932 11.265-27.193C40.066 9.182 63.936 8.995 78.976 23.31" fill="#484F59"/>
        <path d="M38.187 100.63l-2.68-2.413 2.68-22.79L51.32 53.982h36.624v46.649H38.187z" fill="#CDD5D8"/>
        <path d="M38.187 100.63l-2.68-2.413L82.8 95.944l5.144 4.685H38.187z" fill="#E5E8EC"/>
        <path d="M87.944 65.24V53.976l-2.68-2.412v11.262l2.68 2.412z" fill="#989EA0"/>
        <path d="M35.507 98.218v-46.65h49.756V98.22H35.507z" fill="#F8F9FC"/>
        <mask id="b" fill="#fff">
            <use xlink:href="#a"/>
        </mask>
        <path d="M85.263 51.565H35.507v11.262h49.756V51.565z" fill="#B7BEC0" mask="url(#b)"/>
        <path d="M45.525 58.314a2.278 2.278 0 0 0 2.282 2.278 2.278 2.278 0 0 0 2.276-2.278 2.28 2.28 0 0 0-4.558 0" fill="#989EA0" mask="url(#b)"/>
        <path d="M47.538 57.194h-.74c-.74 0-1.34-.602-1.34-1.34v-4.56c0-.74.602-1.34 1.34-1.34h.74c.69 0 1.24.533 1.312 1.206h2.16c-.075-1.86-1.6-3.35-3.472-3.35h-2.416a3.49 3.49 0 0 0-3.484 3.484v4.56a3.49 3.49 0 0 0 3.483 3.488h2.418c.592 0 1.07-.48 1.07-1.076a1.07 1.07 0 0 0-1.07-1.072" fill="#E5E8EC" mask="url(#b)"/>
        <path d="M47.625 47.818a3.484 3.484 0 0 0-3.395 3.476v4.56a3.483 3.483 0 0 0 3.367 3.473 1.063 1.063 0 0 0 1.01-1.06 1.07 1.07 0 0 0-1.07-1.073h-.74c-.737 0-1.34-.602-1.34-1.34v-4.56c0-.74.603-1.34 1.34-1.34h.74c.692 0 1.24.533 1.312 1.206h2.16a3.483 3.483 0 0 0-3.385-3.342" fill="#CDD5D8" mask="url(#b)"/>
        <path d="M71 58.314a2.28 2.28 0 1 0 4.562-.006 2.28 2.28 0 0 0-4.562.006" fill="#989EA0" mask="url(#b)"/>
        <path d="M73.015 57.194h-.74c-.74 0-1.342-.602-1.342-1.34v-4.56c0-.74.603-1.34 1.34-1.34h.742c.69 0 1.24.533 1.312 1.206h2.158a3.478 3.478 0 0 0-3.47-3.35H70.6a3.49 3.49 0 0 0-3.487 3.484v4.56a3.49 3.49 0 0 0 3.486 3.488h2.415c.59 0 1.067-.48 1.067-1.076a1.07 1.07 0 0 0-1.067-1.072" fill="#E5E8EC" mask="url(#b)"/>
        <path d="M73.103 47.818a3.483 3.483 0 0 0-3.398 3.476v4.56a3.483 3.483 0 0 0 3.367 3.473 1.06 1.06 0 0 0 1.01-1.06 1.07 1.07 0 0 0-1.067-1.073h-.74c-.738 0-1.342-.602-1.342-1.34v-4.56c0-.74.604-1.34 1.34-1.34h.742c.692 0 1.24.533 1.313 1.206h2.157a3.48 3.48 0 0 0-3.382-3.342" fill="#CDD5D8" mask="url(#b)"/>
        <path d="M43.252 71.45h-4.858v-4.184h4.858v4.184z" fill="#E5E8EC" mask="url(#b)"/>
        <path d="M49.595 71.45h-4.858v-4.184h4.858v4.184z" fill="#E5E8EC" mask="url(#b)"/>
        <path d="M55.938 71.45H51.08v-4.184h4.858v4.184z" fill="#CDD5D8" mask="url(#b)"/>
        <path d="M62.28 71.45h-4.857v-4.184h4.857v4.184z" fill="#CDD5D8" mask="url(#b)"/>
        <path d="M68.622 71.45h-4.857v-4.184h4.857v4.184z" fill="#CDD5D8" mask="url(#b)"/>
        <path d="M74.965 71.45h-4.858v-4.184h4.858v4.184z" fill="#CDD5D8" mask="url(#b)"/>
        <path d="M81.307 71.45H76.45v-4.184h4.857v4.184z" fill="#CDD5D8" mask="url(#b)"/>
        <path d="M43.252 77.145h-4.858v-4.182h4.858v4.182z" fill="#CDD5D8" mask="url(#b)"/>
        <path d="M49.595 77.145h-4.858v-4.182h4.858v4.182z" fill="#CDD5D8" mask="url(#b)"/>
        <path d="M55.938 77.145H51.08v-4.182h4.858v4.182z" fill="#CDD5D8" mask="url(#b)"/>
        <path d="M62.28 77.145h-4.857v-4.182h4.857v4.182z" fill="#CDD5D8" mask="url(#b)"/>
        <path d="M68.622 77.145h-4.857v-4.182h4.857v4.182z" fill="#CDD5D8" mask="url(#b)"/>
        <path d="M74.965 77.145h-4.858v-4.182h4.858v4.182z" fill="#CDD5D8" mask="url(#b)"/>
        <path d="M81.307 77.145H76.45v-4.182h4.857v4.182z" fill="#CDD5D8" mask="url(#b)"/>
        <path d="M43.252 82.84h-4.858v-4.182h4.858v4.182z" fill="#CDD5D8" mask="url(#b)"/>
        <path d="M49.595 82.84h-4.858v-4.182h4.858v4.182z" fill="#CDD5D8" mask="url(#b)"/>
        <path d="M55.938 82.84H51.08v-4.182h4.858v4.182z" fill="#CDD5D8" mask="url(#b)"/>
        <path d="M62.28 82.84h-4.857v-4.182h4.857v4.182z" fill="#FF876C" mask="url(#b)"/>
        <path d="M68.622 82.84h-4.857v-4.182h4.857v4.182z" fill="#CDD5D8" mask="url(#b)"/>
        <path d="M74.965 82.84h-4.858v-4.182h4.858v4.182z" fill="#CDD5D8" mask="url(#b)"/>
        <path d="M81.307 82.84H76.45v-4.182h4.857v4.182z" fill="#CDD5D8" mask="url(#b)"/>
        <path d="M43.252 88.536h-4.858v-4.184h4.858v4.184z" fill="#FF876C" mask="url(#b)"/>
        <path d="M49.595 88.536h-4.858v-4.184h4.858v4.184z" fill="#CDD5D8" mask="url(#b)"/>
        <path d="M55.938 88.536H51.08v-4.184h4.858v4.184z" fill="#CDD5D8" mask="url(#b)"/>
        <path d="M62.28 88.536h-4.857v-4.184h4.857v4.184z" fill="#CDD5D8" mask="url(#b)"/>
        <path d="M68.622 88.536h-4.857v-4.184h4.857v4.184z" fill="#CDD5D8" mask="url(#b)"/>
        <path d="M74.965 88.536h-4.858v-4.184h4.858v4.184z" fill="#CDD5D8" mask="url(#b)"/>
        <path d="M81.307 88.536H76.45v-4.184h4.857v4.184z" fill="#CDD5D8" mask="url(#b)"/>
        <path d="M43.252 94.23h-4.858V90.05h4.858v4.183z" fill="#CDD5D8" mask="url(#b)"/>
        <path d="M49.595 94.23h-4.858V90.05h4.858v4.183z" fill="#CDD5D8" mask="url(#b)"/>
        <path d="M55.938 94.23H51.08V90.05h4.858v4.183z" fill="#CDD5D8" mask="url(#b)"/>
        <path d="M62.28 94.23h-4.857V90.05h4.857v4.183z" fill="#CDD5D8" mask="url(#b)"/>
        <path d="M68.622 94.23h-4.857V90.05h4.857v4.183z" fill="#E5E8EC" mask="url(#b)"/>
        <path d="M74.965 94.23h-4.858V90.05h4.858v4.183z" fill="#E5E8EC" mask="url(#b)"/>
        <path d="M81.307 94.23H76.45V90.05h4.857v4.183z" fill="#E5E8EC" mask="url(#b)"/>
        <path d="M44.03 68.082c0 8.425-6.826 15.26-15.255 15.26-8.43 0-15.264-6.835-15.264-15.26 0-8.427 6.834-15.26 15.265-15.26 8.43 0 15.256 6.832 15.256 15.26" fill="#F4DA80" mask="url(#b)"/>
        <path d="M43.566 68.082c0 8.168-6.622 14.793-14.79 14.793-8.17 0-14.797-6.626-14.797-14.793 0-8.172 6.626-14.79 14.796-14.79 8.168-.002 14.79 6.617 14.79 14.79" fill="#F0BF41" mask="url(#b)"/>
        <path d="M40.423 68.082c0 6.43-5.217 11.648-11.648 11.648-6.434 0-11.65-5.218-11.65-11.648-.002-6.432 5.215-11.648 11.65-11.648 6.431 0 11.648 5.216 11.648 11.648" fill="#F4DA80" mask="url(#b)"/>
        <path d="M31.732 70.9c0-.317-.063-.595-.183-.827a1.8 1.8 0 0 0-.484-.593 3.02 3.02 0 0 0-.72-.43 7.815 7.815 0 0 0-.884-.338l-.324 4.777a3.333 3.333 0 0 0 1.107-.276 2.51 2.51 0 0 0 .815-.55c.218-.222.388-.482.503-.78.11-.3.17-.628.17-.983zm-5.33-6.374c0 .307.056.575.163.8.105.227.255.426.45.6.197.176.415.325.67.455.26.123.536.242.836.346l.294-4.332c-.42.042-.777.124-1.085.252a2.263 2.263 0 0 0-.75.48 1.932 1.932 0 0 0-.577 1.4zm1.55 10.398a5.96 5.96 0 0 1-2.11-.577 5.707 5.707 0 0 1-1.65-1.182l.505-.787a.54.54 0 0 1 .2-.173.513.513 0 0 1 .257-.068c.122 0 .256.062.41.185.156.12.346.26.57.416.222.156.49.308.802.455.306.148.68.245 1.115.296l.358-5.098a16.388 16.388 0 0 1-1.318-.456 4.617 4.617 0 0 1-1.166-.66 3.08 3.08 0 0 1-.823-1.032c-.204-.413-.312-.93-.312-1.553a3.618 3.618 0 0 1 1.07-2.562 4.1 4.1 0 0 1 1.294-.852c.505-.218 1.1-.332 1.766-.332l.09-1.398a.63.63 0 0 1 .145-.328.433.433 0 0 1 .338-.143h.634l-.13 1.9c.672.083 1.25.255 1.738.52.483.26.92.577 1.303.95l-.414.63c-.13.195-.277.29-.44.29-.09 0-.197-.04-.334-.12a16.97 16.97 0 0 0-.473-.283 7.47 7.47 0 0 0-.642-.312 3.19 3.19 0 0 0-.833-.223l-.32 4.643c.46.14.917.297 1.364.463.45.166.85.38 1.207.648.364.262.655.592.87.986.225.39.336.886.336 1.478 0 .577-.1 1.12-.29 1.628a3.986 3.986 0 0 1-.838 1.34c-.368.385-.824.698-1.355.935-.533.245-1.145.366-1.83.366l-.11 1.717a.568.568 0 0 1-.155.324.427.427 0 0 1-.325.134h-.636l.138-2.164z" fill="#F0BF41" mask="url(#b)"/>
    </g>
</svg>
