<svg width="112" height="105" viewBox="0 0 112 105" xmlns="http://www.w3.org/2000/svg" xmlns:xlink="http://www.w3.org/1999/xlink">
    <title>
        ico-anione
    </title>
    <defs>
        <path id="a" d="M0 .148h111.41V106H0"/>
        <path id="c" d="M53 .148C23.776.148 0 23.553 0 52.323c0 28.77 23.776 52.175 53 52.175s53-23.406 53-52.175C106 23.553 82.224.148 53 .148"/>
        <path id="e" d="M53 .148C23.776.148 0 23.553 0 52.323c0 28.77 23.776 52.175 53 52.175s53-23.406 53-52.175C106 23.553 82.224.148 53 .148"/>
        <path id="g" d="M53 .148C23.776.148 0 23.553 0 52.323c0 28.77 23.776 52.175 53 52.175s53-23.406 53-52.175C106 23.553 82.224.148 53 .148"/>
        <path id="i" d="M53 .148C23.776.148 0 23.553 0 52.323c0 28.77 23.776 52.175 53 52.175s53-23.406 53-52.175C106 23.553 82.224.148 53 .148"/>
        <path id="k" d="M53 .148C23.776.148 0 23.553 0 52.323c0 28.77 23.776 52.175 53 52.175s53-23.406 53-52.175C106 23.553 82.224.148 53 .148"/>
        <path id="m" d="M53 .148C23.776.148 0 23.553 0 52.323c0 28.77 23.776 52.175 53 52.175s53-23.406 53-52.175C106 23.553 82.224.148 53 .148"/>
    </defs>
    <g fill="none" fill-rule="evenodd">
        <mask id="b" fill="#fff">
            <use xlink:href="#a"/>
        </mask>
        <path d="M53 104.498c-29.224 0-53-23.405-53-52.175C0 23.553 23.776.148 53 .148s53 23.406 53 52.175c0 28.77-23.776 52.175-53 52.175" fill="#F4DA80" mask="url(#b)"/>
        <path d="M91.223 2.312c-11.153 0-20.19 9.035-20.19 20.19a20.09 20.09 0 0 0 4.803 13.057l-4.705 8.92 8.56-5.424a20.066 20.066 0 0 0 11.533 3.636c11.148 0 20.187-9.042 20.187-20.19 0-11.154-9.04-20.19-20.187-20.19" fill="#FF876C" mask="url(#b)"/>
        <path d="M91.223 2.312c-.066 0-.133.004-.203.004v40.371c.07 0 .137.005.203.005 11.148 0 20.187-9.042 20.187-20.19 0-11.154-9.04-20.19-20.187-20.19" fill="#E67A61" mask="url(#b)"/>
        <path d="M89.413 36.444v-3.248c-2.29-.104-4.512-.752-5.81-1.47l1.027-3.996c1.43.783 3.445 1.504 5.67 1.504 1.984 0 3.314-.788 3.314-2.118 0-1.3-1.093-2.123-3.658-2.976-3.655-1.23-6.148-2.935-6.148-6.25 0-3.043 2.118-5.402 5.773-6.08V8.56h3.348v3.008c2.258.07 3.796.582 4.993 1.13l-1.027 3.857c-.855-.41-2.455-1.195-4.92-1.195-2.216 0-2.937.99-2.937 1.945 0 1.095 1.197 1.847 4.135 2.907 4.064 1.434 5.67 3.316 5.67 6.423 0 3.04-2.116 5.64-6.048 6.288v3.52h-3.38z" fill="#FFF" mask="url(#b)"/>
        <path d="M93.17 20.212a24.01 24.01 0 0 1-2.15-.87v5.186c1.805.726 2.594 1.486 2.594 2.59 0 1.16-1.014 1.907-2.594 2.078v7.248h1.772v-3.52c3.93-.648 6.046-3.248 6.046-6.288 0-3.108-1.604-4.99-5.667-6.424" fill="#E5E8EC" mask="url(#b)"/>
        <path d="M91.02 8.56v6.877c.283-.046.594-.076.953-.076 2.465 0 4.064.787 4.92 1.196l1.027-3.858c-1.197-.547-2.734-1.06-4.992-1.13V8.562H91.02z" fill="#E5E8EC" mask="url(#b)"/>
        <path d="M20.2 25.448c7.01 0 12.69 5.68 12.69 12.69 0 3.13-1.137 5.992-3.02 8.206l2.958 5.607-5.38-3.407a12.617 12.617 0 0 1-7.248 2.284c-7.007 0-12.688-5.682-12.688-12.69 0-7.01 5.68-12.69 12.688-12.69" fill="#E67A61" mask="url(#b)"/>
        <path d="M20.2 25.448l.128.002v25.374c-.044 0-.086.003-.128.003-7.007 0-12.688-5.682-12.688-12.69 0-7.01 5.68-12.69 12.688-12.69" fill="#FF876C" mask="url(#b)"/>
        <path d="M19.065 46.9v-2.04c-1.44-.066-2.835-.473-3.65-.924l.644-2.512c.898.493 2.164.946 3.562.946 1.247 0 2.083-.495 2.083-1.33 0-.82-.687-1.336-2.3-1.872-2.296-.773-3.863-1.845-3.863-3.928 0-1.913 1.332-3.396 3.628-3.82v-2.044h2.105v1.89c1.418.043 2.385.366 3.137.71l-.645 2.425c-.538-.257-1.543-.75-3.093-.75-1.393 0-1.846.622-1.846 1.223 0 .687.753 1.16 2.6 1.826 2.552.9 3.56 2.083 3.56 4.036 0 1.91-1.328 3.545-3.8 3.952V46.9h-2.123z" fill="#FFF" mask="url(#b)"/>
        <path d="M21.427 36.7a15.11 15.11 0 0 1-1.352-.548v3.26c1.135.456 1.63.933 1.63 1.627 0 .728-.636 1.198-1.63 1.305V46.9h1.114V44.69c2.47-.407 3.8-2.04 3.8-3.952 0-1.953-1.01-3.136-3.563-4.037" fill="#E5E8EC" mask="url(#b)"/>
        <path d="M20.075 29.376v4.322a3.67 3.67 0 0 1 .6-.048c1.548 0 2.553.494 3.09.75l.647-2.424c-.752-.344-1.72-.666-3.138-.71v-1.89h-1.2z" fill="#E5E8EC" mask="url(#b)"/>
        <mask id="d" fill="#fff">
            <use xlink:href="#c"/>
        </mask>
        <path d="M37.174 78.616a30.44 30.44 0 0 0-9.496-2.724l.332-2.332c.728-.465 1.25-1.152 1.296-1.723l.255-2.164c.102.105.237.18.393.198a.633.633 0 0 0 .69-.562l.343-3.332a.625.625 0 0 0-.926-.612c.075-.636.15-1.266.22-1.9.06-.87.49-3.186-1.185-4.68-2.42-2.376-7.743-2.376-10.163 0-1.674 1.494-1.244 3.81-1.185 4.68.074.634.148 1.264.22 1.9a.625.625 0 0 0-.923.612l.344 3.332a.627.627 0 0 0 .688.563.647.647 0 0 0 .39-.197c.083.722.17 1.442.254 2.164.052.57.573 1.258 1.3 1.723.108.78.22 1.554.326 2.332a30.443 30.443 0 0 0-9.49 2.724c-.97.51-1.65 1.828-1.545 2.848.113 1.168.228 16.34.35 17.51.104 1.02.98 2.027 1.948 2.215a77.82 77.82 0 0 0 24.812 0c.967-.19 1.844-1.197 1.95-2.217.12-1.17.233-16.34.347-17.51.102-1.02-.575-2.338-1.543-2.847" fill="#01BACC" mask="url(#d)"/>
        <mask id="f" fill="#fff">
            <use xlink:href="#e"/>
        </mask>
        <path d="M14.366 101.58a81.23 81.23 0 0 0 2.363.26c.095.01.19.016.284.025a77.933 77.933 0 0 0 8.93.292c-.036-.77-.095-1.58-.185-2.415-.396-3.704-1.233-20.82-2.085-22.073v-2.84c.045.014.09.03.135.03 1.082 0 1.96-3.994 1.96-8.922 0-4.927-.878-8.923-1.96-8.923-.045 0-.09.017-.135.03v-.03a10.2 10.2 0 0 0-.678.05h-.002c-.222.025-.44.055-.655.095l-.04.008a8.043 8.043 0 0 0-.6.135c-.03.01-.062.02-.093.028-.18.05-.355.103-.525.164-.054.02-.105.042-.158.06a6.51 6.51 0 0 0-.438.184c-.076.032-.147.073-.222.113a4.937 4.937 0 0 0-.34.18c-.1.06-.194.128-.29.193-.076.052-.158.1-.232.157-.164.127-.322.26-.47.403-1.673 1.495-1.244 3.812-1.185 4.68.074.636.148 1.265.22 1.9a.626.626 0 0 0-.923.612l.344 3.333a.627.627 0 0 0 .688.563.652.652 0 0 0 .392-.197c.082.722.168 1.442.252 2.164.052.57.573 1.258 1.3 1.723.11.78.22 1.554.326 2.332a30.45 30.45 0 0 0-9.49 2.724c-.97.51-1.65 1.828-1.545 2.848.114 1.168.228 16.34.35 17.51.104 1.02.98 2.027 1.948 2.215a78.36 78.36 0 0 0 2.758.39" fill="#01C6DA" mask="url(#f)"/>
        <mask id="h" fill="#fff">
            <use xlink:href="#g"/>
        </mask>
        <path d="M97.174 78.616a30.44 30.44 0 0 0-9.496-2.724l.332-2.332c.728-.465 1.25-1.152 1.296-1.723l.255-2.164c.102.105.237.18.393.198a.633.633 0 0 0 .69-.562l.343-3.332a.625.625 0 0 0-.926-.612c.075-.636.15-1.266.22-1.9.06-.87.49-3.186-1.185-4.68-2.42-2.376-7.743-2.376-10.163 0-1.674 1.494-1.244 3.81-1.185 4.68.074.634.148 1.264.22 1.9a.625.625 0 0 0-.923.612l.344 3.332a.627.627 0 0 0 .688.563.647.647 0 0 0 .39-.197c.083.722.17 1.442.254 2.164.052.57.573 1.258 1.3 1.723.108.78.22 1.554.326 2.332a30.443 30.443 0 0 0-9.49 2.724c-.97.51-1.65 1.828-1.545 2.848.113 1.168.228 16.34.35 17.51.104 1.02.98 2.027 1.948 2.215a77.82 77.82 0 0 0 24.812 0c.967-.19 1.844-1.197 1.95-2.217.12-1.17.233-16.34.347-17.51.102-1.02-.575-2.338-1.543-2.847" fill="#E67A61" mask="url(#h)"/>
        <mask id="j" fill="#fff">
            <use xlink:href="#i"/>
        </mask>
        <path d="M74.366 101.58a81.23 81.23 0 0 0 2.363.26c.095.01.19.016.284.025a77.933 77.933 0 0 0 8.93.292c-.036-.77-.095-1.58-.185-2.415-.396-3.704-1.233-20.82-2.085-22.073v-2.84c.045.014.09.03.135.03 1.082 0 1.96-3.994 1.96-8.922 0-4.927-.878-8.923-1.96-8.923-.045 0-.09.017-.135.03v-.03a10.2 10.2 0 0 0-.678.05h-.002a9.828 9.828 0 0 0-.695.103 8.043 8.043 0 0 0-.6.135c-.03.01-.062.02-.093.028-.18.05-.355.103-.525.164-.054.02-.105.042-.158.06a6.51 6.51 0 0 0-.438.184c-.076.032-.147.073-.222.113a4.937 4.937 0 0 0-.34.18c-.1.06-.194.128-.29.193-.076.052-.158.1-.232.157-.164.127-.322.26-.47.403-1.673 1.495-1.244 3.812-1.185 4.68.074.636.148 1.265.22 1.9a.626.626 0 0 0-.923.612l.344 3.333a.627.627 0 0 0 .688.563.652.652 0 0 0 .392-.197c.082.722.17 1.442.252 2.164.052.57.573 1.258 1.3 1.723.11.78.22 1.554.326 2.332a30.45 30.45 0 0 0-9.49 2.724c-.97.51-1.65 1.828-1.545 2.848.114 1.168.228 16.34.35 17.51.104 1.02.98 2.027 1.948 2.215a78.36 78.36 0 0 0 2.758.39" fill="#FF876C" mask="url(#j)"/>
        <mask id="l" fill="#fff">
            <use xlink:href="#k"/>
        </mask>
        <path d="M82.4 84.988c-6.603-3.144-13.66-5.132-20.855-5.983.246-1.705.49-3.413.73-5.122 1.596-1.022 2.747-2.527 2.846-3.785.19-1.584.377-3.165.558-4.75.22.232.52.395.864.43a1.383 1.383 0 0 0 1.513-1.23l.757-7.317a1.378 1.378 0 0 0-2.034-1.347c.167-1.395.326-2.78.48-4.175.133-1.906 1.078-6.994-2.6-10.276-5.315-5.215-17.005-5.215-22.32 0-3.67 3.282-2.727 8.37-2.6 10.276.16 1.395.322 2.78.483 4.175a1.316 1.316 0 0 0-.8-.163 1.38 1.38 0 0 0-1.23 1.51l.76 7.317c.07.756.748 1.308 1.508 1.232.345-.037.64-.2.86-.432.186 1.585.37 3.166.56 4.75.105 1.258 1.252 2.763 2.85 3.785.24 1.71.483 3.414.72 5.122-7.182.85-14.245 2.84-20.845 5.983-2.132 1.12-3.622 4.01-3.395 6.25.25 2.568.504 5.142.77 7.71.226 2.24 2.15 4.454 4.28 4.866a170.902 170.902 0 0 0 54.488 0c2.124-.412 4.047-2.627 4.28-4.865.263-2.57.514-5.144.766-7.71.218-2.242-1.266-5.136-3.392-6.252" fill="#30363D" mask="url(#l)"/>
        <mask id="n" fill="#fff">
            <use xlink:href="#m"/>
        </mask>
        <path d="M32.31 104.675a171.792 171.792 0 0 0 5.82.622c3.735.34 7.476.555 11.22.648 2.796.068 5.59.065 8.385-.004a88.306 88.306 0 0 0-.402-5.307c-.868-8.13-2.708-14.972-4.576-17.726v-6.233c.097.028.195.064.293.064 2.38 0 4.304-8.772 4.304-19.593 0-10.82-1.924-19.596-4.304-19.596-.098 0-.196.037-.293.068v-.07c-.5.02-.998.056-1.49.108-.004 0-.006.003-.006.003-.483.05-.965.12-1.437.207-.03.006-.056.014-.087.018-.446.085-.887.184-1.317.298-.07.016-.138.037-.206.056-.39.112-.777.228-1.156.363-.116.04-.23.09-.343.133-.326.125-.65.254-.963.397-.166.077-.326.17-.487.253-.25.13-.507.252-.746.393-.224.13-.427.277-.638.422-.17.116-.345.222-.51.344a11.34 11.34 0 0 0-1.034.887c-3.67 3.28-2.727 8.37-2.6 10.275.16 1.396.323 2.78.483 4.175a1.38 1.38 0 0 0-2.03 1.35l.76 7.315a1.374 1.374 0 0 0 2.37.802c.183 1.584.368 3.165.556 4.75.108 1.257 1.255 2.76 2.85 3.783.243 1.71.484 3.414.723 5.122-7.184.852-14.247 2.84-20.846 5.983-2.132 1.12-3.622 4.01-3.395 6.25.248 2.57.502 5.142.768 7.71.226 2.24 2.15 4.455 4.28 4.867 1.75.28 3.508.527 5.265.756l.786.105" fill="#484F59" mask="url(#n)"/>
    </g>
</svg>
