<svg width="106" height="105" viewBox="0 0 106 105" xmlns="http://www.w3.org/2000/svg" xmlns:xlink="http://www.w3.org/1999/xlink">
    <title>
        Page 1
    </title>
    <defs>
        <path id="a" d="M53 .65C23.775.65 0 24.056 0 52.825 0 81.595 23.775 105 53 105s53-23.405 53-52.175C106 24.055 82.225.65 53 .65z"/>
        <path id="c" d="M53 .65C23.775.65 0 24.056 0 52.825 0 81.595 23.775 105 53 105s53-23.405 53-52.175C106 24.055 82.225.65 53 .65z"/>
        <path id="e" d="M.83 11.197h48.757V.375H.83v10.822z"/>
        <path id="g" d="M.83 11.197h48.757V.375H.83v10.822z"/>
        <path id="i" d="M.83 11.197h48.757V.375H.83"/>
        <path id="k" d="M.83 11.197h48.757V.375H.83"/>
        <path id="m" d="M.83 11.197h48.757V.375H.83v10.822z"/>
        <path id="o" d="M.83 11.197h48.757V.375H.83"/>
        <path id="q" d="M.83 11.197h48.757V.375H.83"/>
        <path id="s" d="M.83 11.197h48.757V.375H.83"/>
        <path id="u" d="M.83 11.197h48.757V.375H.83"/>
        <path id="w" d="M.83 11.197h48.757V.375H.83v10.822z"/>
        <path id="y" d="M.83 11.197h48.757V.375H.83"/>
        <path id="A" d="M.83 11.197h48.757V.375H.83"/>
        <path id="C" d="M.83 11.197h48.757V.375H.83"/>
        <path id="E" d="M.83 11.197h48.757V.375H.83"/>
        <path id="G" d="M.83 11.197h48.757V.375H.83"/>
        <path id="I" d="M.83 11.197h48.757V.375H.83"/>
        <path id="K" d="M.83 11.197h48.757V.375H.83"/>
        <path id="M" d="M.83 11.197h48.757V.375H.83"/>
        <path id="O" d="M.83 11.197h48.757V.375H.83"/>
        <path id="Q" d="M.83 11.197h48.757V.375H.83"/>
        <path id="S" d="M.83 11.197h48.757V.375H.83v10.822z"/>
        <path id="U" d="M.83 11.197h48.757V.375H.83"/>
        <path id="W" d="M.83 11.197h48.757V.375H.83"/>
        <path id="Y" d="M.83 11.197h48.757V.375H.83"/>
        <path id="aa" d="M.83 11.197h48.757V.375H.83"/>
        <path id="ac" d="M.83 11.197h48.757V.375H.83"/>
        <path id="ae" d="M.83 11.197h48.757V.375H.83"/>
        <path id="ag" d="M.83 11.197h48.757V.375H.83"/>
        <path id="ai" d="M.83 11.197h48.757V.375H.83"/>
        <path id="ak" d="M.83 11.197h48.757V.375H.83"/>
        <path id="am" d="M.83 11.197h48.757V.375H.83"/>
        <path id="ao" d="M.83 11.197h48.757V.375H.83"/>
        <path id="aq" d="M.83 11.197h48.757V.375H.83"/>
        <path id="as" d="M.83 11.197h48.757V.375H.83"/>
        <path id="au" d="M.83 11.197h48.757V.375H.83"/>
        <path id="aw" d="M.83 11.197h48.757V.375H.83"/>
        <path id="ay" d="M.83 11.197h48.757V.375H.83v10.822z"/>
        <path id="aA" d="M.83 11.257h48.757V.435H.83v10.822z"/>
        <path id="aC" d="M.83 11.257h48.757V.435H.83v10.822z"/>
        <path id="aE" d="M.83 11.257h48.757V.435H.83"/>
        <path id="aG" d="M.83 11.257h48.757V.435H.83"/>
        <path id="aI" d="M.83 11.257h48.757V.435H.83v10.822z"/>
        <path id="aK" d="M.83 11.257h48.757V.435H.83"/>
        <path id="aM" d="M.83 11.257h48.757V.435H.83"/>
        <path id="aO" d="M.83 11.257h48.757V.435H.83"/>
        <path id="aQ" d="M.83 11.257h48.757V.435H.83"/>
        <path id="aS" d="M.83 11.257h48.757V.435H.83v10.822z"/>
        <path id="aU" d="M.83 11.257h48.757V.435H.83"/>
        <path id="aW" d="M.83 11.257h48.757V.435H.83"/>
        <path id="aY" d="M.83 11.257h48.757V.435H.83"/>
        <path id="ba" d="M.83 11.257h48.757V.435H.83"/>
        <path id="bc" d="M.83 11.257h48.757V.435H.83"/>
        <path id="be" d="M.83 11.257h48.757V.435H.83"/>
        <path id="bg" d="M.83 11.257h48.757V.435H.83"/>
        <path id="bi" d="M.83 11.257h48.757V.435H.83"/>
        <path id="bk" d="M.83 11.257h48.757V.435H.83"/>
        <path id="bm" d="M.83 11.257h48.757V.435H.83"/>
        <path id="bo" d="M.83 11.257h48.757V.435H.83v10.822z"/>
        <path id="bq" d="M.83 11.257h48.757V.435H.83"/>
        <path id="bs" d="M.83 11.257h48.757V.435H.83"/>
        <path id="bu" d="M.83 11.257h48.757V.435H.83"/>
        <path id="bw" d="M.83 11.257h48.757V.435H.83"/>
        <path id="by" d="M.83 11.257h48.757V.435H.83"/>
        <path id="bA" d="M.83 11.257h48.757V.435H.83"/>
        <path id="bC" d="M.83 11.257h48.757V.435H.83"/>
        <path id="bE" d="M.83 11.257h48.757V.435H.83"/>
        <path id="bG" d="M.83 11.257h48.757V.435H.83"/>
        <path id="bI" d="M.83 11.257h48.757V.435H.83"/>
        <path id="bK" d="M.83 11.257h48.757V.435H.83"/>
        <path id="bM" d="M.83 11.257h48.757V.435H.83"/>
        <path id="bO" d="M.83 11.257h48.757V.435H.83"/>
        <path id="bQ" d="M.83 11.257h48.757V.435H.83"/>
        <path id="bS" d="M.83 11.257h48.757V.435H.83"/>
        <path id="bU" d="M.83 11.257h48.757V.435H.83v10.822z"/>
        <path id="bW" d="M.83 11.257h48.757V.435H.83"/>
        <path id="bY" d="M.83 11.257h48.757V.435H.83"/>
        <path id="ca" d="M.83 11.257h48.757V.435H.83"/>
        <path id="cc" d="M.83 11.257h48.757V.435H.83v10.822z"/>
        <path id="ce" d="M.83 11.257h48.757V.435H.83v10.822z"/>
        <path id="cg" d="M.83 11.257h48.757V.435H.83v10.822z"/>
        <path id="ci" d="M.83 11.257h48.757V.435H.83v10.822z"/>
        <path id="ck" d="M.83 11.257h48.757V.435H.83"/>
        <path id="cm" d="M.83 11.257h48.757V.435H.83"/>
        <path id="co" d="M.83 11.257h48.757V.435H.83"/>
        <path id="cq" d="M.83 11.257h48.757V.435H.83"/>
        <path id="cs" d="M.83 11.257h48.757V.435H.83v10.822z"/>
        <path id="cu" d="M53 .65C23.775.65 0 24.056 0 52.825 0 81.595 23.775 105 53 105s53-23.405 53-52.175C106 24.055 82.225.65 53 .65"/>
        <path id="cw" d="M53 .65C23.775.65 0 24.056 0 52.825 0 81.595 23.775 105 53 105s53-23.405 53-52.175C106 24.055 82.225.65 53 .65"/>
        <path id="cy" d="M53 .65C23.775.65 0 24.056 0 52.825 0 81.595 23.775 105 53 105s53-23.405 53-52.175C106 24.055 82.225.65 53 .65"/>
        <path id="cA" d="M53 .65C23.775.65 0 24.056 0 52.825 0 81.595 23.775 105 53 105s53-23.405 53-52.175C106 24.055 82.225.65 53 .65z"/>
        <path id="cC" d="M53 .65C23.775.65 0 24.056 0 52.825 0 81.595 23.775 105 53 105s53-23.405 53-52.175C106 24.055 82.225.65 53 .65z"/>
    </defs>
    <g fill="none" fill-rule="evenodd">
        <path d="M53 105C23.775 105 0 81.595 0 52.825 0 24.055 23.775.65 53 .65s53 23.406 53 52.175C106 81.595 82.225 105 53 105" fill="#F4DA80"/>
        <g>
            <mask id="b" fill="#fff">
                <use xlink:href="#a"/>
            </mask>
            <path d="M124.505 75.152V35.816c0-.554-.45-1.003-1.003-1.003H17.418c-.555 0-1.003.45-1.003 1.003v39.336h108.09z" fill="#484F59" mask="url(#b)"/>
            <mask id="d" fill="#fff">
                <use xlink:href="#c"/>
            </mask>
            <path d="M30.544 77.758h88.832V36.664H30.544v41.094z" fill="#67A471" mask="url(#d)"/>
            <path d="M74.28 62.134c-1.62 0-3.1-.524-4.15-1.102l-.748 2.926c.95.527 2.574.996 4.247 1.075v2.37H76.1v-2.57c2.88-.476 4.422-2.373 4.422-4.598 0-2.27-1.17-3.646-4.146-4.695-2.146-.778-3.024-1.326-3.024-2.126 0-.703.527-1.424 2.153-1.424 1.796 0 2.972.577 3.596.874l.754-2.822c-.875-.4-2.004-.773-3.648-.827v-2.198h-2.453v2.374c-2.68.496-4.223 2.224-4.223 4.446 0 2.424 1.818 3.68 4.5 4.576 1.87.623 2.674 1.22 2.674 2.174 0 .975-.98 1.548-2.428 1.548" fill="#96B98F" mask="url(#d)"/>
            <path d="M103.522 60.863a3.65 3.65 0 0 0 0-7.3 3.653 3.653 0 0 0-3.652 3.647 3.657 3.657 0 0 0 3.652 3.653" fill="#96B98F" mask="url(#d)"/>
            <path d="M46.39 60.863a3.653 3.653 0 0 0 3.647-3.653 3.648 3.648 0 0 0-3.648-3.648 3.654 3.654 0 0 0-3.653 3.648 3.66 3.66 0 0 0 3.652 3.653" fill="#96B98F" mask="url(#d)"/>
            <path d="M46.39 51.71c3.035 0 5.5 2.467 5.5 5.5a5.51 5.51 0 0 1-5.5 5.506c-3.034 0-5.5-2.473-5.5-5.506 0-3.033 2.466-5.5 5.5-5.5m28.56-7.72c7.31 0 13.23 5.92 13.23 13.22 0 7.308-5.92 13.223-13.23 13.223-7.298 0-13.216-5.915-13.216-13.223 0-7.3 5.918-13.22 13.217-13.22m28.573 7.72a5.504 5.504 0 0 1 5.496 5.5c0 3.033-2.467 5.506-5.497 5.506-3.032 0-5.5-2.473-5.5-5.506 0-3.033 2.468-5.5 5.5-5.5M34.636 69.995c2.057-.283 4.05 1.465 4.05 3.604l-.03.274c-.01.25.08.5.253.682.175.183.42.287.67.287h70.755c.256 0 .485-.227.66-.415.176-.19.252-.56.23-.818a3.658 3.658 0 0 1 3.656-3.65c.138 0 .266.02.54.054a.903.903 0 0 0 .727-.223c.2-.175.31-.426.31-.692V45.323a.93.93 0 0 0-.317-.7.91.91 0 0 0-.743-.21c-2.114.304-4.17-1.41-4.17-3.59l-.892-.06.92-.198a.93.93 0 0 0-.244-.696.933.933 0 0 0-.675-.295H39.58c-.25 0-.48.24-.656.423-.173.183-.25.567-.238.817 0 2.188-2.08 3.902-4.17 3.597a.905.905 0 0 0-.74.21.924.924 0 0 0-.32.7V69.1c0 .267.18.513.38.688.204.174.537.244.8.21" fill="#96B98F" mask="url(#d)"/>
            <path d="M20.48 73.32h88.836V32.224H20.48V73.32z" fill="#7AC286" mask="url(#d)"/>
            <path d="M64.22 57.695c-1.62 0-3.1-.524-4.154-1.102l-.745 2.926c.953.526 2.575.995 4.25 1.074v2.372h2.47v-2.573c2.878-.475 4.423-2.372 4.423-4.597 0-2.27-1.17-3.646-4.147-4.696-2.145-.776-3.022-1.326-3.022-2.125 0-.704.525-1.423 2.154-1.423 1.794 0 2.968.576 3.594.873l.752-2.822c-.876-.4-2.002-.774-3.648-.828V42.58h-2.452v2.37c-2.677.498-4.222 2.225-4.222 4.447 0 2.425 1.82 3.68 4.498 4.576 1.87.622 2.675 1.222 2.675 2.173 0 .976-.978 1.55-2.426 1.55" fill="#AFD7A6" mask="url(#d)"/>
            <path d="M93.46 56.424a3.65 3.65 0 0 0 0-7.3 3.652 3.652 0 0 0-3.652 3.646 3.657 3.657 0 0 0 3.652 3.654" fill="#AFD7A6" mask="url(#d)"/>
            <path d="M36.325 56.424a3.65 3.65 0 1 0 .004-7.302 3.65 3.65 0 0 0-.004 7.302" fill="#AFD7A6" mask="url(#d)"/>
            <path d="M36.325 47.27a5.505 5.505 0 0 1 5.504 5.5 5.51 5.51 0 0 1-5.505 5.506c-3.03 0-5.498-2.473-5.498-5.506 0-3.032 2.468-5.5 5.498-5.5m28.563-7.72c7.31 0 13.228 5.92 13.228 13.22 0 7.31-5.918 13.224-13.228 13.224-7.297 0-13.215-5.914-13.215-13.224 0-7.3 5.918-13.22 13.215-13.22m28.572 7.72a5.504 5.504 0 0 1 5.497 5.5c0 3.033-2.466 5.506-5.497 5.506-3.032 0-5.5-2.473-5.5-5.506 0-3.032 2.468-5.5 5.5-5.5M24.574 65.557c2.058-.282 4.048 1.464 4.048 3.605l-.027.275c-.012.25.078.5.25.682.178.183.42.287.67.287h70.758c.256 0 .484-.228.66-.415.174-.193.25-.562.23-.82a3.657 3.657 0 0 1 3.656-3.65c.136 0 .264.02.536.056a.92.92 0 0 0 1.04-.917V40.883a.922.922 0 0 0-.32-.7.912.912 0 0 0-.743-.21c-2.113.305-4.17-1.41-4.17-3.59l-.89-.057.92-.2a.934.934 0 0 0-.244-.695.94.94 0 0 0-.677-.295H29.516c-.25 0-.478.24-.653.425-.176.182-.25.565-.24.816 0 2.19-2.078 3.902-4.168 3.596a.918.918 0 0 0-1.06.91V64.66c0 .265.18.512.38.686.203.175.534.245.8.21" fill="#AFD7A6" mask="url(#d)"/>
            <path d="M16.415 41.916V81.25c0 .555.448 1.004 1.003 1.004h106.084c.554 0 1.003-.45 1.003-1.004V41.916H16.415z" fill="#30363D" mask="url(#d)"/>
            <path d="M68.587 78.843H19.83V63.377h48.757v15.466z" fill="#5C6572" mask="url(#d)"/>
            <path d="M68.587 63.16H19.83v-9.962h48.757v9.96z" fill="#484F59" mask="url(#d)"/>
        </g>
        <g transform="translate(19 42)">
            <mask id="f" fill="#fff">
                <use xlink:href="#e"/>
            </mask>
            <path d="M47.852 29.086a2.327 2.327 0 0 1-2.32 2.318H5.017a2.328 2.328 0 0 1-2.32-2.318V5.502a2.328 2.328 0 0 1 2.32-2.32h40.517a2.327 2.327 0 0 1 2.32 2.32v23.584z" fill="#E5E8EC" mask="url(#f)"/>
            <mask id="h" fill="#fff">
                <use xlink:href="#g"/>
            </mask>
            <path d="M47.852 28.844a2.327 2.327 0 0 1-2.32 2.32H5.017a2.328 2.328 0 0 1-2.32-2.32V5.26a2.327 2.327 0 0 1 2.32-2.32h40.517a2.327 2.327 0 0 1 2.32 2.32v23.584z" fill="#01BACC" mask="url(#h)"/>
            <mask id="j" fill="#fff">
                <use xlink:href="#i"/>
            </mask>
            <path d="M22.182 6.988c-.003.144-.102.18-.183.24-.14-.092-.346-.115-.594-.096.154-.2.582-.114.776-.144m-.318 2.325c-.122-.087 0-.32.135-.29-.022.12-.124.16-.136.29m-.458.194c.09 0 .056-.132.182-.098.17.06.266.203.504.193.156-.116-.22-.214-.093-.29.066.025.117.07.182.096.036-.167-.05-.205-.09-.293.377-.02.25-.508.187-.773a.92.92 0 0 1 .406-.048c-.01-.214-.245-.192-.364-.29.142.022.1-.15.273-.098.032-.147-.078-.142-.046-.292.162.027.112-.17.275-.143.114-.042.393.093.366-.098.044-.176-.196-.05-.23-.146-.104-.014-.084-.17-.226-.144-.2-.03-.412.175-.505.096.027-.244.402-.123.456-.34-.095-.14-.295-.168-.55-.145-.148-.055-.33-.13-.412 0-.04-.07-.146-.07-.227-.098-.185.13-.635-.023-.823.097-.212.005-.466-.038-.552.097-.004.107.126.314.043.338-.328-.054-.515.034-.82-.046-.46.066-.675.382-1.146.436-.045.175.204.038.18.195-.132.116-.377.112-.503.24-.11-.062-.26-.053-.32.145.148-.042.14.076.228.096 0-.128.23-.128.23 0 .11-.03.31-.216.32.05-.195.02-.47-.048-.596.048.04.182.216.222.367.29.14.035.087-.134.23-.097.14.095.28.187.547.145-.036.215.033.32.094.436-.016.112-.074.183-.046.34.183.094.212-.223.32-.048.027.173-.137.146-.274.145.037.216.35.148.41.338-.102.083-.228.142-.32.244.13.06-.142.097-.09.24.324.233.073.786.318 1.113h.323c.13.007.077.208.227.194.045-.098.08-.207.184-.244-.054-.366.228-.37.184-.725.116-.005.066-.19.18-.192.176.097.176-.115.37 0 .072-.068.144-.138.23-.193.22-.06.318-.246.548-.292.018-.175.405-.216.275-.387-.093.11-.286-.082-.41-.096" fill="#01C6DA" mask="url(#j)"/>
            <path d="M16.686 8.585c.023.025-.032.064-.047.05-.025-.026.033-.063.046-.05m-.96-.87v.29c.14-.035.166.05.27.047.023-.22.298-.426.46-.336.07.2-.236.005-.226.144.135.072-.158.087-.14.192.12-.028.165.02.14.145-.108 0-.138-.083-.277-.045.007.135-.153.093-.092.288.276-.037.473-.066.596.145-.364.084-.597-.192-.824-.096-.035.23.28.092.278.292.345-.053.81.214.915-.147.12.014.194-.018.182-.146.035-.133-.215.034-.182-.098h.32c0-.258.28-.222.228-.532.238-.01.26-.242.554-.195.055-.117.143-.197.317-.192.058-.12-.102-.237 0-.244.193-.094.474.048.552-.242 0-.08-.13-.027-.138-.096-.75.106-1.773-.142-2.567.194-.06.29.198.242.23.436-.3.024-.208-.364-.547-.293-.017.067-.07.09-.046.194-.076.004-.16-.007-.14.098-.04.153.117.1.14.194" fill="#01C6DA"/>
            <path d="M26.992 7.616c.023-.136.24-.07.183-.288a8.182 8.182 0 0 0-1.192-.1c0 .088.012.153.047.196.288.1.526.252.962.192" fill="#01C6DA"/>
            <path d="M25.207 7.86c-.007.118-.087.15 0 .242.19-.01.194-.216.41-.195-.01.215-.22.215-.225.436.075.065.15.128.32.096-.022.153.096.155.227.145.04-.183.08-.364.137-.533.122.13.192.316.502.244.04-.37-.24-.393-.363-.58-.017.11-.124-.06-.187-.052-.113.01-.188-.023-.225-.096.106-.13-.038-.284-.23-.24-.136.076.073.25-.047.287-.1-.228-.536-.455-.552 0 .023.142.2.115.23.245" fill="#01C6DA"/>
            <path d="M29.83 7.522c0-.307-.425-.203-.41.047.156.15.242-.07.41-.048" fill="#01C6DA"/>
            <path d="M32.4 7.81c.36-.063.738.17.82-.145-.106-.187-.524-.266-.775-.143-.104.005-.023.203-.046.29" fill="#01C6DA"/>
            <mask id="l" fill="#fff">
                <use xlink:href="#k"/>
            </mask>
            <path d="M36.567 14.979c.064-.094.1-.216.275-.193.002.073-.022.183.043.19-.067.147-.2-.04-.318.002m-2.063-6.104c-.023-.025.034-.063.047-.05.025.028-.034.063-.046.05m-.137.097c-.025-.026.034-.062.045-.045.024.02-.03.058-.045.044m-.14.052c-.02-.026.035-.065.05-.05.024.024-.036.06-.05.05m-2.836.87c-.09-.02-.197-.017-.183-.146-.138-.01.04-.2 0 0 .032.077.223-.01.184.146m-3.39.774c-.023-.025.033-.06.046-.048.022.026-.035.065-.045.048m-.045 6.008c-.024-.024.033-.063.046-.05.024.025-.033.063-.045.05M27.13 9.7c-.024-.026.035-.06.044-.05.025.027-.03.063-.043.05m-.367 1.89c-.004-.15.16-.12.276-.147 0 .152-.14.145-.277.146m-.504-.34c.085.1.207.165.366.193v.486c-.104-.02.025-.287-.183-.195-.103.167-.037.508-.184.63-.153.014-.265-.024-.367 0-.127.027-.156.14-.275.144.013-.06-.132-.168-.137-.05-.106-.014-.106-.132 0-.146a.74.74 0 0 1-.183-.485c.23.02.14.68.55.485.105-.197.174-.43.274-.63-.014-.113-.053-.2-.09-.292.025-.456.353-.596.502-.917.056-.007.083.01.094.046-.038.335-.408.312-.367.73m15.39-.534c.108-.018.086-.168.228-.146.24.006.208.3.505.24.06-.085-.042-.243.045-.385-.12-.06-.3-.32-.41-.098.014-.113-.008-.187-.047-.242-.247-.095-.38-.31-.776-.242-.052-.09-.178-.104-.23-.196-.298.043-.364-.164-.688-.098-.063.143.127.25 0 .293-.133-.023-.11-.21-.23-.243-.132.153-.38.014-.643.098-.165-.114-.15-.418-.5-.338-.065.01-.016.145-.094.145a5.374 5.374 0 0 1-.55-.29c-.02.043-.04.085-.09.096.056-.19-.11-.146-.232-.146.112-.114-.05-.108-.09-.194-.22.085-.203-.027-.412-.045-.015.063-.115.037-.182.044-.046.09.136.165 0 .196-.395-.066-.895.086-1.24 0-.116-.03-.157-.177-.27-.144-.214.05-.355-.05-.51-.095-.05-.025-.122.007-.18-.002-.114-.026-.2-.158-.458-.102.02-.123.137-.145.137-.287-.062-.144-.213-.198-.273-.342-.14.064-.35.05-.55.05-.115-.04-.096-.22-.276-.195-.108.05-.147.168-.136.34-.23-.08-.148.168-.323.146-.087-.02-.035-.19-.182-.147-.12.132-.283.215-.548.19-.082.065-.124.166-.274.15-.065.06-.022.236-.14.24-.094.03-.317-.078-.27.097 0 .178.265.07.226.29-.17-.05-.214-.226-.46-.192 0 .128.026.286-.093.29-.052-.058-.052-.17-.042-.29-.18-.04-.076.212-.273.146-.073-.088-.064-.26-.278-.197-.13.205-.302.36-.46.533-.295.024-.272-.088-.592-.098-.075.24.236.075.18.293-.19-.046-.395.025-.685 0-.208.09-.32.275-.55.338v-.29c-.113.007-.222.008-.275-.048.012.27.002.515-.276.483.016.18-.166.15-.275.195-.112.065.083.146-.045.196-.267.053-.283-.354-.274-.438.213.002.447-.023.594.046.124-.303-.256-.457-.548-.482-.073-.12-.197-.18-.365-.196a.92.92 0 0 0-.23-.29l-.414.002c-.123.09-.243.197-.367.288-.02-.07-.06.02-.14 0-.162.184-.367.322-.545.486-.055.22-.148.4-.278.532-.007-.055-.082-.04-.136-.048v.192c-.29.02-.322.31-.412.536.09.112.106.308.09.53.043.133.29.053.37.146-.1.144-.186.196-.186.34.098-.023.087.067.092.145-.163.002-.265.074-.412.095-.04.086-.127.123-.09.29-.264-.082-.106.28-.322.244.01.054-.01.083-.05.095-.198-.022-.24.13-.363.196-.113.027-.235.04-.228.193.058.066.196.048.317.05-.02.216.213.162.185.386-.046.063-.046.18-.14.19-.212-.114-.402.046-.685.002-.046.162.103.528-.094.535.035.14.14.208.094.434.214-.046.28.066.413.098.17-.09.195-.09.366 0 .104-.197.262-.338.23-.678.2-.063.165-.372.412-.39.192.123.27-.033.46-.046-.13.188-.067.49 0 .726.29-.027.107-.274.135-.53-.046-.005-.058-.088 0-.098v.097c.095.01.09.125.138.192.223.006.36.098.413.292-.008.104-.114.1-.23.095-.006.168.16.152.23.242-.024-.22.124-.258.228-.338.026-.11-.086-.07-.09-.148.084-.152.154.162.23 0-.124-.257-.694-.3-.55-.677.138.22.396.324.55.532.025.038.066.15.09.195.034.06.11.115.093.19v.29c.06.07.2.05.32.052.078-.17-.082-.408.046-.584h.136c-.05.19-.007.18-.046.385.104-.013.063.144.14.2.164.12.47.082.594-.002.134.07-.12.252.09.242.188.037.01-.312.23-.242v.29c-.133.083-.042.41-.23.436-.333-.13-.75-.175-1.192-.193-.13.037-.11.24-.228.292-.21-.23-.626-.242-.823-.484.036-.167-.053-.207-.09-.292.107-.014.104-.13.043-.192a1.47 1.47 0 0 0-.685.145c-.373-.027-.697.005-.87.192-.04-.1-.135-.15-.274-.146-.042.17-.206.206-.32.292-.127.228-.08.524-.186.726-.066.127-.313.258-.413.386-.007.287-.112.465-.226.633v1.258c.157.188.293.4.364.677.21.134.352.338.64.387.185-.046.404-.058.642-.047.094-.078.09-.26.277-.242.082.01.026.165.094.192.21-.03.29.08.455.098.077-.044.116-.135.275-.1.046.377-.098.55-.093.875.13.25.354.44.277.776.12.163.128.444.185.678-.115.22-.09.58-.184.822.196.198.34.45.414.777v.435c.203.252.198.723.412.968.44-.032.658-.3 1.053-.386a.927.927 0 0 1 .407-.582c-.02-.188.085-.236.047-.434.08-.047.12-.138.277-.1.004-.56.19-.924.55-1.114a4.52 4.52 0 0 0 0-1.354c.096-.19.176-.395.228-.63.108-.08.2-.175.32-.244.22-.333.416-.69.644-1.015.035-.18.096-.428-.05-.534-.194-.028-.182.16-.36.146h-.415c-.022-.334-.25-.448-.414-.63.042-.32-.27-.26-.182-.63-.08-.11-.22-.155-.274-.293.043-.142-.067-.373 0-.387.108.082.232.338.182.436.193.204.32.47.505.68.11.2.09.504.32.678.32-.113.546-.33.916-.39.062-.03.006-.186.09-.192.2-.034.282-.186.46-.244-.035-.212.134-.215.137-.384-.078-.177-.315-.186-.276-.486-.172-.023-.292.014-.365.096-.04-.183-.208-.232-.184-.484-.146.014-.13-.15-.226-.195.068-.023.116-.07.184-.096.252.166.175.682.64.628.018.095.13.09.092.243.22.026.252-.147.46-.14.044.027.044.106.137.095.316-.052.396.16.59.24-.075-.018-.084.038-.087.1.05.09.208.064.275.142-.024.152.082.17.04.34.143.162.203.404.278.63.098.093.19.186.232.338v.29c.057.07.197.05.318.05.06-.31.226-.505.183-.92l.183-.002v-.192c.173.072.088-.133.23-.096-.016-.223.166-.244.228-.39a.853.853 0 0 1 .413-.19c.104.13.104.373.278.437.013.113-.087.102-.05.24.052.156.364.034.46.144-.06.104.024.145-.047.294a.36.36 0 0 1 .232.288c-.018.09-.133.088-.092.244.014.145.142.172.092.39.22.198.428.418.686.58.013-.322-.217-.384-.228-.68-.127-.095-.248-.19-.323-.34.023-.156-.06-.418.09-.434.104.137.173.303.37.34.038.042.05.106.042.19.447-.063.554-.48.505-1.064-.058-.047-.17-.047-.228-.096.058-.214-.22-.198-.093-.34.135-.136.12.16.32.098.033-.207.267-.207.505-.195.145-.235.34-.415.413-.73.074.015.075-.043.134-.044.08-.196-.01-.56.14-.676-.097-.047-.14-.146-.14-.296-.076-.06-.174-.1-.182-.24-.018-.117.084-.107.048-.242.094.014.143-.01.134-.1.133-.06-.205-.29.094-.29.053.155.21.196.276.34-.044.258.086.329.23.388.274-.21-.01-.744.137-1.114.096-.09.235-.14.367-.194.106-.226.2-.466.364-.63.062-.39-.104-.79 0-1.066-.063.28.106.312.138.486.01.3.024.59.23.677.085-.088-.036-.123 0-.29.126-.006.093.08.183 0 .007-.153-.122-.165-.09-.34-.166-.034-.207-.197-.277-.338-.017-.174.017-.405-.136-.438-.093.012-.01.216-.137.195-.075-.357-.388.222-.507-.146.032-.114.117-.167.184-.243.054-.152.037-.377.187-.436.103.12.08-.07.224-.046.217.03.416.127.69.097-.016.08.035.09.087.095.064-.066.205-.044.324-.05.025-.15-.08-.17-.044-.337.092-.012.09-.13.183-.146.093.016.09.133.182.146-.02-.105.138-.266.182-.146-.145.31-.362.553-.412.97.03.13.133.184.185.29.02.185.053.36.183.435.113-.122.18-.293.32-.388-.042-.24.146-.205.05-.386.012-.098.12-.097.132-.194-.066-.058-.203-.042-.182-.194.047-.425.345-.332.688-.29.067-.074.062-.226.14-.29.267-.02.467-.152.638-.146 0-.208-.227-.177-.227-.385" fill="#01C6DA" mask="url(#l)"/>
            <mask id="n" fill="#fff">
                <use xlink:href="#m"/>
            </mask>
            <path d="M12.15 16.286c.108.016.104.15.184.194-.06.122-.222-.05-.185-.194zm-.046-.098c.01-.054.045-.024.045 0-.007.058-.046.032-.046 0zm.964-6.97c-.026-.028.03-.064.044-.05.023.025-.033.06-.044.05zm1.42-.1c.143-.02.16.09.32.05 0 .193-.18.2-.32.24v-.29zm.18-.24c.142.047-.05.13-.044.193-.14-.046.02-.165.045-.193zm3.53 3.776c.023.027-.033.063-.05.05-.02-.027.036-.065.05-.05zm2.107 8.04c-.08-.09-.135.022-.227.05-.074-.167-.25-.222-.414-.293h-.32c-.082-.14-.39-.04-.413-.24-.12 0-.27.028-.273-.097.132-.226-.135-.845-.55-.63a.55.55 0 0 1-.276-.436c-.238-.072-.408-.212-.642-.29-.06.02-.07.084-.135.097-.062-.174-.286-.183-.322-.386-.145-.044-.094.123-.182.144-.107-.034-.122-.16-.228-.193-.04.082-.085.166-.23.143-.07.202-.254.28-.364.437.01-.16-.058-.234-.186-.243-.118.05-.17.175-.32.194-.11-.235.046-.46 0-.775-.086-.17-.388-.102-.55-.193.044-.21.176-.327.137-.628a1.21 1.21 0 0 1-.457 0c-.084.103-.045.34-.183.385-.614.033-.23-.83-.367-1.21.163-.042.258-.146.412-.193.25-.023.31.155.548.143-.002-.068-.01-.135.047-.143.22.01.514-.062.55.143-.02.28.1.413.318.44-.053-.252-.03-.328 0-.488-.048-.072-.128-.118-.135-.244a.73.73 0 0 1 .595-.58c.04-.14.04-.148 0-.29.107.014.175-.01.23-.05-.112-.265.15-.206.09-.53.155-.066.3-.136.46-.195.023-.153-.14-.11-.09-.29.166-.147.42-.2.642-.29.03.132-.094.096-.094.192.182-.08.378-.148.504-.29-.11-.075-.338-.03-.322-.242.027-.134.176-.134.276-.192.02-.118-.083-.104-.046-.243.224.16.48-.235.64-.145-.103.26-.322.4-.41.677.17.035.197-.08.365-.048.005.074-.02.183.044.194.048-.12.178.066.324 0-.025-.11-.09-.247 0-.34-.167-.016-.21-.166-.276-.29.015-.3.015-.327 0-.63-.087-.09-.114-.004-.23 0 .007-.23-.212-.23-.23-.435.037-.04.05-.11.05-.194-.18-.104-.114-.464-.37-.485-.022.072.055.253-.045.245-.096-.03-.3.06-.32-.05V11.2c-.245.116-.2-.113-.41-.145-.123.134-.104-.058-.232-.048-.11-.02-.1.088-.23.047.07.482-.122.752-.047 1.114-.075.014-.227-.136-.273 0 .046.14.153.03.185.096-.16.107-.163.377-.23.586-.104-.152-.126-.388-.18-.586-.096-.095-.093.023-.184.05-.04-.14-.07-.053-.186-.05a1.15 1.15 0 0 0-.502-.337c.073-.243-.16-.156-.142-.34.103.02.09-.07.096-.147.15-.082.214-.254.366-.338.1-.17.17-.37.414-.386.002-.09-.057-.105-.046-.197.307-.064.48-.104.682-.194-.008-.19 0-.358.048-.484-.054-.072-.173-.077-.227-.145.178-.016.336 0 .408.098.086-.148.22.054.368 0-.063.245.21.133.182.34-.044.355-.542.23-.594.58.076.114.268.105.46.094.284.137.396.455.777.485-.1-.25.08-.242.047-.532-.02-.125-.137-.146-.14-.288.176.01.224.15.37.19-.014-.125-.02-.24.136-.19-.032-.15.048-.18.045-.293-.123.034-.086-.1-.14-.145-.152-.028-.27-.096-.41-.146.013-.1.126-.095.14-.193-.06-.115-.204-.143-.186-.338h-.41c.02-.154-.125-.128-.138-.245-.194-.026-.304.037-.46.05.03-.298-.36-.204-.413-.05.02-.18-.033-.282-.18-.29-.236.154-.51.65-.23.922.07.026.236-.056.23.048-.05.14-.145.232-.23.34-.117-.12.098-.105.05-.292-.157-.11-.31-.23-.37-.437-.173.022-.145-.167-.364-.097.015.115-.087.104-.047.24.154.067.097.452 0 .536-.07-.044-.102-.122-.092-.244-.23-.035-.23.18-.414.193-.172-.076-.358-.138-.457-.29.203-.036.275.063.457.048.1-.102-.022-.14 0-.29.254-.057.355-.273.595-.34-.086-.15-.068-.266-.09-.385h-.688c-.103.134-.33.134-.37.334-.023-.07-.066-.12-.09-.188-.12-.005-.286.04-.228-.147.338.072.744-.178 1.053-.294 0 .223.393.167.46.05-.032-.11-.044-.247-.09-.342-.272.037-.404.224-.69.242v-.288c-.252-.092-.295.228-.137.288-.264.035-.41-.05-.64-.047.066.25-.213.134-.228.29.112.063.14-.024.18.05-.03.063-.098.09-.18.094-.076-.277-.44-.25-.782-.242-.022.234-.14.368-.276.486-.007.153.12.164.094.34.227.013.34-.093.502-.145-.096.262.25.058.275.193.034.132-.216-.035-.183.095 0 .262.5-.01.413.34.17-.11.226-.078.412 0h.045c-.013-.06.132-.166.14-.047-.01.056-.075.053-.14.048.013.12.197.275 0 .34-.052-.01-.036-.09-.045-.145-.407-.04-.613-.29-1.1-.244-.14-.047-.143-.236-.32-.243-.02.138-.142.17-.273.195a.35.35 0 0 0-.047-.245c-.175.013-.175.206-.366.196-.173.034-.217-.06-.365-.05-.05.014-.03.098-.092.098-.046 0-.037-.06-.046-.097-.11.018-.173.078-.32.05-.367-.243-1.073-.127-1.465-.34-.342.156-.788.202-1.007.24-.107.19.082.194.134.34.174-.02.288.02.322.147-.187-.066-.165.086-.23.146-.085-.043-.126-.127-.227-.146-.176.188-.596.118-.737.34.253-.01.345.152.37.387.24-.093.423.013.64-.052-.225.428-1.18.084-1.1.826.15.116.187.13.138.387.082.006.093-.06.182-.05.002.08-.024.187.045.196.062-.155.02.198.138.145.058-.19.26-.23.412-.097-.198.164-.267.46-.5.582-.213.07-.283.283-.55.29.038.154-.073.15-.09.242.206.028.284-.086.5-.047.05-.14.195-.182.366-.195.174-.334.473-.535.735-.775h.09c.05-.045.016-.175.137-.144.005-.03.01-.057.046-.048-.002.03-.005.06-.046.05.022.215-.123.254-.182.385.378.045.466-.212.78-.242.02-.216-.024-.364-.045-.534.208.047.22-.12.41-.096.127.096.23.207.32.34.292.098.54.24.502.68.224-.033.013-.27.187-.292.01.41-.016.852.137 1.114-.14.126-.05.18 0 .34 0 .096-.127.06-.093.193-.02.53-.05.89 0 1.404.124.08.204.204.32.29.125.188.117.52.273.678-.05.01-.037.088-.043.146.19.074.235.3.32.484.14-.037.132.085.272.047.007-.207-.09-.162-.09-.434-.027 0-.05-.042 0-.05v.05c.097-.024.083.068.09.143.144.11.267.237.366.387-.033.34.088.52.184.727.377.1.6.35 1.053.24.055.126.115.236.184.34.173-.037.22.06.367.05.043.116.134.18.23.24v.147c.264.03.318.278.55.34.047-.065.043-.18.136-.193.017.174.093.29.135.433 0 .097-.122.064-.087.195.02.252-.148.298-.185.486-.088.338.186.522 0 .68.08.09.226.113.323.193-.04.068-.15.068-.23.097-.033.39.167.53.413.63.017.116-.087.105-.05.24.173.145.234.4.504.438.085.215.23.37.23.677-.047.064-.043.177-.088.24.057.032.082.105.088.194-.126.22.054.472 0 .776-.248.156-.133.698-.23 1.017.07.134.19-.085.23.048.042.24-.158.225-.23.34-.055.157.148.037.092.194-.087.118.05.236-.048.387.046.33.202.5.098.776.132.113.12.386.273.485-.008.088.053.103.044.195.114.024.188.09.272.144.172-.03.473.08.503-.1a.404.404 0 0 1-.273-.192c.034-.164-.185-.062-.14-.24-.015-.214.135-.25.14-.438.12-.007.177-.068.184-.193.022-.17-.16-.118-.137-.29.124-.15.31-.628 0-.678.306.08.297-.17.365-.34.248.018.33-.136.505-.195.032-.225-.074-.31-.094-.483h.368c.004-.048.056-.038.09-.05.027-.118.042-.25.187-.242-.017-.274.17-.332.273-.484v-.338c.087-.086.143-.205.227-.292.22-.068.22-.068.415-.145.02-.308.242-.58.09-.92.07-.038.1-.12.09-.242.077.017.083-.044.14-.047.015-.16.135-.21.183-.337.122-.126-.005-.235.134-.29-.03-.15.047-.18.047-.294.004-.18-.047-.308-.09-.435z" fill="#01C6DA" mask="url(#n)"/>
            <path d="M29.65 9.603c-.065-.224-.28-.285-.23-.63.325-.03.444-.272.688-.388.29.032.434-.086.46-.336h-.23c-.013.036-.002.094-.047.094-.344.04-.6.174-.87.29.024.25-.222.22-.185.483-.056.104-.17.143-.182.292.148.1.29.21.457.29.02-.06.06-.1.14-.097" fill="#01C6DA"/>
            <path d="M37.3 8.732c.11-.08.163-.213.277-.292-.175-.02-.213-.223-.37-.19-.02 0-.04.11-.092.094h-.272c-.064.353.326.232.457.388" fill="#01C6DA"/>
            <path d="M22.686 10.91c.004-.123.17-.076.23-.145.05-.246-.104-.278-.09-.482-.2.065-.27-.032-.46.046-.123-.03-.116-.204-.274-.193.054.234-.184.162-.184.34.128.037.12-.07.228-.05-.024.117-.176.103-.137.292.23-.067.18.165.322.19.037-.1.318-.05.364 0" fill="#01C6DA"/>
            <mask id="p" fill="#fff">
                <use xlink:href="#o"/>
            </mask>
            <path d="M16.408 10.91c-.18-.052-.06-.123-.18-.242-.137.036-.136-.083-.275-.048-.065.093-.023.297-.227.244 0 .17.15.194.32.193-.016-.38.31.157.362-.146" fill="#01C6DA" mask="url(#p)"/>
            <mask id="r" fill="#fff">
                <use xlink:href="#q"/>
            </mask>
            <path d="M24.477 12.654c-.064-.05-.143-.08-.186-.145.056-.287-.305-.333-.137-.582-.063-.05-.14-.08-.185-.147.067-.038.145-.07.14-.19-.17-.017-.258.054-.367.094.035.266-.07.376-.045.63.11.072.168.077.227.098.02.172-.154.265-.227.193-.037.218.032.323.093.437-.082.044-.247-.003-.232.145a3.27 3.27 0 0 1 .735-.05c.038-.207.014-.343.188-.483" fill="#01C6DA" mask="url(#r)"/>
            <mask id="t" fill="#fff">
                <use xlink:href="#s"/>
            </mask>
            <path d="M23.233 12.85c.106-.055.28-.034.37-.1-.05-.2-.01-.214 0-.435h-.23c0 .216-.103.06-.183.146.006.14-.024.317.043.39" fill="#01C6DA" mask="url(#t)"/>
            <mask id="v" fill="#fff">
                <use xlink:href="#u"/>
            </mask>
            <path d="M38.948 14.252c.086.006.032.16.137.147.103-.123.086-.364.274-.388-.24-.037-.39-.17-.64-.195.03.23-.05.332-.047.535.126.13.115-.127.275-.1" fill="#01C6DA" mask="url(#v)"/>
            <mask id="x" fill="#fff">
                <use xlink:href="#w"/>
            </mask>
            <path d="M37.895 15.754c-.01.17.107.208.184.29.03-.177.14-.27.273-.34.06 0 .102.024.136.05.143-.186.447-.205.594-.39-.006-.344-.1-.603-.09-.965h-.184c.056.225-.022.334.046.578-.034.01-.052.04-.047.1-.163.072-.245.13-.413.287-.16.09-.453.037-.46.292-.018.133.25-.037.233.097h-.275z" fill="#01C6DA" mask="url(#x)"/>
            <mask id="z" fill="#fff">
                <use xlink:href="#y"/>
            </mask>
            <path d="M26.72 15.366c.01.135.15.04.273.146.032-.18-.073-.21-.23-.193.01.038-.018.044-.043.046" fill="#01C6DA" mask="url(#z)"/>
            <mask id="B" fill="#fff">
                <use xlink:href="#A"/>
            </mask>
            <path d="M36.934 17.015a.467.467 0 0 1 .134.29c.193-.012.176-.24.186-.437-.114-.107-.272.035-.32.147" fill="#01C6DA" mask="url(#B)"/>
            <mask id="D" fill="#fff">
                <use xlink:href="#C"/>
            </mask>
            <path d="M15.727 16.868v.194h.183c-.008-.122-.07-.187-.183-.194" fill="#01C6DA" mask="url(#D)"/>
            <mask id="F" fill="#fff">
                <use xlink:href="#E"/>
            </mask>
            <path d="M16.23 17.11a.337.337 0 0 0-.05-.242h-.136c-.015.165.014.277.186.24" fill="#01C6DA" mask="url(#F)"/>
            <mask id="H" fill="#fff">
                <use xlink:href="#G"/>
            </mask>
            <path d="M16.271 17.062l.002.242c.098.02.123-.032.184-.05-.003-.122-.066-.188-.184-.192" fill="#01C6DA" mask="url(#H)"/>
            <mask id="J" fill="#fff">
                <use xlink:href="#I"/>
            </mask>
            <path d="M16.182 17.837c.165-.028.222.055.325.097 0-.14.186-.09.318-.097-.067-.322-.318-.277-.595-.292.032-.13-.094-.096-.094-.19-.1-.057-.25-.06-.275-.197h-.683c-.02.093-.1.122-.094.245.187.02.184-.16.415-.1.192.04.21.26.412.292.107.03.33-.062.362.048-.166.005-.112.07-.09.194" fill="#01C6DA" mask="url(#J)"/>
            <mask id="L" fill="#fff">
                <use xlink:href="#K"/>
            </mask>
            <path d="M16.64 17.304c-.014-.067-.113-.04-.184-.05-.096.18.235.22.183.05" fill="#01C6DA" mask="url(#L)"/>
            <mask id="N" fill="#fff">
                <use xlink:href="#M"/>
            </mask>
            <path d="M37.115 17.837c.07.117.165.214.275.29.06-.15.214-.193.187-.436-.126-.175-.467-.095-.462.147" fill="#01C6DA" mask="url(#N)"/>
            <mask id="P" fill="#fff">
                <use xlink:href="#O"/>
            </mask>
            <path d="M36.016 17.982c.13-.024.13-.187.183-.29-.042-.04-.104-.054-.184-.05-.085.19-.06.042 0 .34" fill="#01C6DA" mask="url(#P)"/>
            <mask id="R" fill="#fff">
                <use xlink:href="#Q"/>
            </mask>
            <path d="M15.676 17.738v.196c.155-.05.158.015.32-.05.035-.193-.17-.137-.32-.146" fill="#01C6DA" mask="url(#R)"/>
            <mask id="T" fill="#fff">
                <use xlink:href="#S"/>
            </mask>
            <path d="M16.916 17.934c.16.012.316.01.273-.196h-.274v.196z" fill="#01C6DA" mask="url(#T)"/>
            <mask id="V" fill="#fff">
                <use xlink:href="#U"/>
            </mask>
            <path d="M21.724 17.934c0 .097-.123.06-.09.192h.183c.012-.11-.013-.182-.093-.192" fill="#01C6DA" mask="url(#V)"/>
            <g>
                <mask id="X" fill="#fff">
                    <use xlink:href="#W"/>
                </mask>
                <path d="M37.483 18.71c.096.104.128-.026.273 0-.015.11-.097.207.047.24.064-.142.194-.215.412-.194.043-.22-.147-.2-.23-.288.012-.16-.054-.235-.182-.244-.063.06-.045.212-.047.34-.152-.084-.197.027-.273.145" fill="#01C6DA" mask="url(#X)"/>
            </g>
            <g>
                <mask id="Z" fill="#fff">
                    <use xlink:href="#Y"/>
                </mask>
                <path d="M32.946 18.854c.066.286-.174.346 0 .483.145.025.123-.13.23-.145-.038-.152-.132-.247-.23-.338" fill="#01C6DA" mask="url(#Z)"/>
            </g>
            <g>
                <mask id="ab" fill="#fff">
                    <use xlink:href="#aa"/>
                </mask>
                <path d="M35.97 20.162c.046.195.245.225.23.484.297-.073.253.216.548.144-.01-.11.132-.053.138-.144-.035-.01-.09-.002-.09-.05.152-.065.074-.37.232-.434-.107-.158.036-.322-.05-.437.08-.044.16-.09.138-.24-.11-.094-.2-.208-.412-.196-.043.506-.652.408-.734.872" fill="#01C6DA" mask="url(#ab)"/>
            </g>
            <g>
                <mask id="ad" fill="#fff">
                    <use xlink:href="#ac"/>
                </mask>
                <path d="M35.1 19.822c-.067-.113-.215-.19-.183-.338-.125.033-.09-.094-.183-.094.006.21-.112-.01-.23.044 0 .566.646.45.552 1.116.226.025.288.343.503.24.105-.184-.097-.396-.09-.628-.14-.1-.305-.237-.37-.34" fill="#01C6DA" mask="url(#ad)"/>
            </g>
            <g>
                <mask id="af" fill="#fff">
                    <use xlink:href="#ae"/>
                </mask>
                <path d="M37.667 20.21c-.01-.215-.29-.147-.367-.29-.237.2-.4.738-.046.918-.01-.137.01-.246.09-.29.102.093.107.247.277.147-.023-.202-.178-.268-.183-.484.06.062.168.062.23 0" fill="#01C6DA" mask="url(#af)"/>
            </g>
            <g>
                <mask id="ah" fill="#fff">
                    <use xlink:href="#ag"/>
                </mask>
                <path d="M38.673 20.015c-.15-.1-.516-.08-.503.147.156.103.492.055.503-.147" fill="#01C6DA" mask="url(#ah)"/>
            </g>
            <g>
                <mask id="aj" fill="#fff">
                    <use xlink:href="#ai"/>
                </mask>
                <path d="M39.178 20.21h-.32c-.042.07-.068.154-.185.147-.142.036-.086-.137-.227-.1.012.127-.18.04-.136.193.004.11.11-.06.224 0 .207.176.473.28.644.488v.288c.245-.157.318.1.503.147.163-.006.11-.24.32-.193.112.063.23.367.413.193-.095-.044-.14-.144-.136-.29-.12-.117-.29-.18-.367-.34v-.147c-.353-.013-.448-.298-.732-.385" fill="#01C6DA" mask="url(#aj)"/>
            </g>
            <g>
                <mask id="al" fill="#fff">
                    <use xlink:href="#ak"/>
                </mask>
                <path d="M36.748 21.326c.026-.175-.158-.12-.136-.292-.375.01-.64-.103-.918-.196-.04.087-.127.127-.088.29.436.006.645.257 1.142.198" fill="#01C6DA" mask="url(#al)"/>
            </g>
            <g>
                <mask id="an" fill="#fff">
                    <use xlink:href="#am"/>
                </mask>
                <path d="M40.138 23.213c.02-.23-.078-.334-.044-.583-.09-.032-.106-.146-.183-.193-.015-.37-.327-.428-.275-.87-.085.008-.1-.056-.182-.05-.117.2.048.7-.14.823-.18.064-.092-.16-.274-.098-.01-.135-.217-.058-.183-.24-.024-.154.225-.018.182-.19-.16-.19-.63-.052-.87-.15-.08.03.003.23-.09.24-.17.033-.323.08-.46.148-.058.146-.015.403-.183.437-.11-.114-.226.006-.37 0-.085.033.014.27-.088.29-.096-.027-.09-.147-.183-.05-.114.122-.06.422-.23.486-.104.07-.306.032-.368.144.05.217.16.484.047.727.087.036.12.13.136.242.026.22-.082.3-.048.532.138-.012.144.11.278.098.19-.087.303-.258.64-.194.163-.216.485-.264.87-.242.132.1.216.257.275.436.18-.09.124.113.32 0 0 .128.018.276-.045.338.293.18.466.19.918.196.116-.088.198-.21.365-.246-.018-.246.22-.217.183-.482.16-.012.12-.23.275-.242-.05-.17.08-.275.093-.436.024-.295-.09-.598-.137-.87-.118-.065-.19.142-.232 0" fill="#01C6DA" mask="url(#an)"/>
            </g>
            <g>
                <mask id="ap" fill="#fff">
                    <use xlink:href="#ao"/>
                </mask>
                <path d="M29.468 21.664c-.083.14-.152.293-.185.485-.2.047-.3.195-.41.338-.038.167.066.187.044.34-.043.1-.073.212-.138.288.098.22-.036.413.137.582.148.008.194-.086.366-.05.1-.216.06-.31.185-.532v-.242c.008-.054.05-.074.09-.097-.084-.213.086-.413.094-.776-.17.005.004-.36-.184-.336" fill="#01C6DA" mask="url(#ap)"/>
            </g>
            <g>
                <mask id="ar" fill="#fff">
                    <use xlink:href="#aq"/>
                </mask>
                <path d="M42.658 24.956c.01-.137.005-.265-.137-.24v.384c-.035.142-.217.13-.183.34.308-.045.106.145.09.29.29-.015.302-.33.416-.532.068-.072.19-.087.226-.194-.11-.15-.195-.027-.412-.048" fill="#01C6DA" mask="url(#ar)"/>
            </g>
            <g>
                <mask id="at" fill="#fff">
                    <use xlink:href="#as"/>
                </mask>
                <path d="M42.154 25.538c-.04.102-.14.143-.136.29-.082-.005-.144.01-.185.05-.078.095-.107.24-.228.287-.19.077-.244.29-.322.487.15-.08.25-.025.41 0 .046-.117.185-.128.14-.34h.185c.012-.276.358-.2.366-.484-.018-.162-.137-.21-.23-.29" fill="#01C6DA" mask="url(#at)"/>
            </g>
            <g>
                <mask id="av" fill="#fff">
                    <use xlink:href="#au"/>
                </mask>
                <path d="M39.04 25.68c-.053.076.15.294.183.438.223-.022.368-.128.32-.437-.198.04-.422-.06-.504 0" fill="#01C6DA" mask="url(#av)"/>
            </g>
            <g>
                <mask id="ax" fill="#fff">
                    <use xlink:href="#aw"/>
                </mask>
                <path d="M18.288 27.185h.185c.032-.193-.19-.16-.185 0" fill="#01C6DA" mask="url(#ax)"/>
            </g>
            <path d="M43.32 10.774a3.117 3.117 0 0 0 3.115-3.112 3.117 3.117 0 0 0-3.11-3.118l-3.85-.005A3.12 3.12 0 0 0 36.36 7.65a3.12 3.12 0 0 0 3.11 3.118l3.85.004z" fill="#E5E8EC"/>
            <path d="M39.695 5.412c-1.24-.002-2.244 1.017-2.25 2.27 0 .606.232 1.178.653 1.607.423.43.987.667 1.584.667l.002.218v-.217c1.24 0 2.246-1.016 2.246-2.267.005-1.253-1-2.275-2.235-2.278m-.01 4.982h-.003a2.656 2.656 0 0 1-1.893-.798 2.723 2.723 0 0 1-.783-1.917c.006-1.494 1.21-2.706 2.68-2.706 1.485.004 2.685 1.223 2.684 2.72-.004 1.49-1.208 2.7-2.686 2.7" fill="#01BACC"/>
            <path d="M43.26 5.42c-1.236 0-2.243 1.017-2.248 2.267 0 1.254 1.004 2.276 2.237 2.277l.002.22.002-.22c1.236.004 2.244-1.015 2.245-2.267.004-1.253-1-2.276-2.24-2.276m-.008 4.982h-.003c-1.477-.004-2.675-1.222-2.675-2.715.006-1.494 1.21-2.708 2.684-2.705 1.483.002 2.682 1.22 2.68 2.715-.006 1.495-1.21 2.707-2.688 2.705" fill="#01BACC"/>
            <path d="M39.695 5.48c-.336 0-.808.838-.812 2.203-.002 1.047.277 1.8.556 2.078.084.088.164.127.242.127h.002c.337 0 .81-.836.814-2.2.005-1.365-.467-2.204-.803-2.206m-.01 4.844h-.005c-.193 0-.383-.087-.55-.254-.424-.426-.687-1.34-.685-2.39.005-1.502.544-2.636 1.25-2.636.71.004 1.243 1.138 1.24 2.643-.004 1.506-.54 2.638-1.25 2.637" fill="#01BACC"/>
            <path d="M42.15 7.91l-4.925-.013v-.44l4.926.016v.436z" fill="#01BACC"/>
            <path d="M41.744 6.745l-4.102-.01v-.438l4.104.01-.002.438z" fill="#01BACC"/>
            <path d="M41.738 9.07l-4.103-.01v-.44l4.104.013-.002.437z" fill="#01BACC"/>
            <mask id="az" fill="#fff">
                <use xlink:href="#ay"/>
            </mask>
            <path d="M34.482 9.044H17.767V6.697h16.715v2.347z" fill="#E5E8EC" mask="url(#az)"/>
            <path d="M7.57 15.242a.762.762 0 0 1-.763-.763V9.837c0-.42.34-.763.762-.763h5.106c.422 0 .764.342.764.763v4.64a.763.763 0 0 1-.764.764H7.57z" fill="#484F59" mask="url(#az)"/>
            <path d="M12.677 9.182h-.97v1.3h1.628v-.644a.66.66 0 0 0-.658-.656" fill="#F4DA80" mask="url(#az)"/>
            <path d="M9.273 12.88v-.74h-2.36v1.4h1.704a.658.658 0 0 0 .656-.66" fill="#F4DA80" mask="url(#az)"/>
            <path d="M8.617 10.61H6.913v1.4h2.36v-.742a.658.658 0 0 0-.656-.658" fill="#F4DA80" mask="url(#az)"/>
            <path d="M9.4 11.218h1.518a.788.788 0 0 1 .662-.726v-1.31H8.723v1.308a.787.787 0 0 1 .676.728" fill="#F4DA80" mask="url(#az)"/>
            <path d="M10.916 11.346H9.4v1.515h1.516v-1.514z" fill="#F4DA80" mask="url(#az)"/>
            <path d="M10.925 12.986h-1.53a.79.79 0 0 1-.67.672v1.478h2.855v-1.48a.78.78 0 0 1-.655-.67" fill="#F4DA80" mask="url(#az)"/>
            <path d="M11.042 12.88c0 .364.295.66.66.66h1.633v-1.4h-2.293v.74z" fill="#F4DA80" mask="url(#az)"/>
            <path d="M11.708 10.61h-.006a.66.66 0 0 0-.66.658v.742h2.293v-1.4h-1.627z" fill="#F4DA80" mask="url(#az)"/>
            <path d="M8.596 9.182H7.57a.657.657 0 0 0-.657.656v.643h1.683V9.183z" fill="#F4DA80" mask="url(#az)"/>
            <path d="M6.913 14.48c0 .36.294.656.656.656h1.026v-1.47H6.913v.813z" fill="#F4DA80" mask="url(#az)"/>
            <path d="M11.708 15.136h.97a.66.66 0 0 0 .657-.657v-.816h-1.627v1.472z" fill="#F4DA80" mask="url(#az)"/>
            <path d="M15.378 24.862l-.002-.853 14.005.005v.85l-14.002-.003z" fill="#E5E8EC" mask="url(#az)"/>
            <path d="M18.202 22.264l-.002-.426 8.352.003v.428l-8.35-.004z" fill="#E5E8EC" mask="url(#az)"/>
            <path d="M6.144 21.1v-.426h2.52v.425h-2.52z" fill="#E5E8EC" mask="url(#az)"/>
            <path d="M6.144 28.86v-.854l19.931.01.003.85-19.933-.007z" fill="#E5E8EC" mask="url(#az)"/>
            <path d="M16.271 19.448l.002-.853h8.834l.002.852H16.27z" fill="#E5E8EC" mask="url(#az)"/>
            <path d="M6.144 19.448v-.854h8.83l.002.853H6.144z" fill="#E5E8EC" mask="url(#az)"/>
            <path d="M26.4 19.448v-.854h8.832l.003.853H26.4z" fill="#E5E8EC" mask="url(#az)"/>
            <path d="M36.528 19.447v-.853h8.836l.003.85-8.84.003z" fill="#E5E8EC" mask="url(#az)"/>
        </g>
        <g transform="translate(19 52)">
            <mask id="aB" fill="#fff">
                <use xlink:href="#aA"/>
            </mask>
            <path d="M2.695 5.323a2.326 2.326 0 0 1 2.32-2.32h40.518a2.327 2.327 0 0 1 2.32 2.32v23.583a2.327 2.327 0 0 1-2.32 2.32H5.015a2.327 2.327 0 0 1-2.32-2.32V5.323z" fill="#E5E8EC" mask="url(#aB)"/>
            <mask id="aD" fill="#fff">
                <use xlink:href="#aC"/>
            </mask>
            <path d="M2.695 5.564a2.327 2.327 0 0 1 2.32-2.32h40.518a2.327 2.327 0 0 1 2.32 2.32v23.583a2.327 2.327 0 0 1-2.32 2.32H5.015a2.327 2.327 0 0 1-2.32-2.32V5.564z" fill="#FF876C" mask="url(#aD)"/>
            <mask id="aF" fill="#fff">
                <use xlink:href="#aE"/>
            </mask>
            <path d="M22.182 6.833c-.005.144-.104.18-.184.242-.14-.094-.348-.115-.594-.096.153-.2.584-.117.778-.147m-.318 2.325c-.124-.085 0-.317.134-.29-.023.12-.122.162-.134.29m-.46.196c.09 0 .055-.13.182-.1.17.062.266.206.504.196.158-.117-.22-.215-.092-.29.068.024.117.072.184.095.034-.168-.053-.205-.092-.292.377-.02.253-.507.187-.773a.915.915 0 0 1 .41-.047c-.014-.215-.248-.194-.367-.292.142.024.1-.146.273-.096.032-.147-.078-.142-.046-.292.163.027.113-.172.278-.146.112-.037.39.096.364-.093.042-.178-.198-.05-.232-.147-.105-.015-.084-.167-.226-.145-.2-.028-.412.175-.506.1.03-.247.403-.125.46-.34-.095-.142-.297-.17-.55-.147-.148-.056-.332-.128-.414 0-.04-.072-.145-.07-.226-.1-.185.133-.635-.02-.825.1-.21.005-.463-.038-.548.098-.004.106.124.316.043.34-.33-.057-.518.032-.82-.05-.463.067-.675.385-1.15.437-.043.176.207.04.185.197-.134.114-.38.112-.503.24-.112-.063-.26-.054-.32.145.145-.043.14.074.228.093-.003-.127.23-.127.23 0 .11-.027.31-.213.32.052-.198.02-.472-.05-.598.047.043.18.216.223.37.29.14.035.084-.133.227-.097.14.095.28.188.548.146-.037.216.033.322.094.438-.016.112-.072.18-.046.337.183.093.212-.222.32-.05.027.175-.137.15-.274.15.036.215.35.146.41.338-.102.08-.228.14-.32.24.13.066-.143.1-.09.244.326.234.073.786.318 1.113h.323c.132.007.08.206.227.193.048-.098.08-.208.185-.244-.056-.367.225-.37.182-.726.118-.002.066-.188.183-.194.175.1.175-.114.368 0 .07-.066.143-.136.23-.19.22-.062.318-.247.547-.293.017-.175.406-.216.275-.387-.093.11-.285-.083-.41-.096" fill="#E67A61" mask="url(#aF)"/>
            <path d="M16.683 8.43c.024.027-.03.066-.044.05-.027-.024.03-.06.043-.05m-.958-.866v.287c.138-.033.164.052.27.05.022-.222.3-.43.46-.336.068.2-.237.005-.227.142.137.073-.158.087-.14.193.118-.03.165.02.14.143-.11.002-.137-.08-.275-.047.005.138-.155.096-.094.29.274-.036.47-.067.594.145-.363.084-.597-.19-.822-.094-.037.232.278.094.275.292.346-.054.81.213.917-.147.12.016.193-.017.18-.144.034-.133-.214.035-.18-.097h.32c0-.26.278-.224.226-.534.24-.008.262-.24.555-.194.057-.118.143-.197.317-.195.058-.12-.102-.234 0-.24.192-.094.474.048.552-.243 0-.08-.13-.027-.14-.096-.748.106-1.77-.142-2.567.192-.058.294.198.245.23.437-.296.025-.206-.36-.547-.29-.015.065-.07.092-.045.192-.074.004-.16-.008-.14.097-.038.155.12.102.14.197" fill="#E67A61"/>
            <path d="M26.99 7.46c.024-.132.24-.067.185-.287a8.4 8.4 0 0 0-1.193-.098c-.002.086.01.152.045.194.29.1.527.25.962.19" fill="#E67A61"/>
            <path d="M25.205 7.706c-.007.118-.087.15 0 .244.188-.01.194-.22.41-.196-.01.216-.222.215-.226.436.075.066.153.126.32.096-.022.152.095.156.226.145.042-.18.08-.363.14-.53.12.127.19.314.503.243.038-.37-.242-.392-.366-.58-.015.113-.124-.06-.187-.05-.112.007-.188-.027-.224-.098.106-.128-.04-.284-.23-.24-.135.076.07.25-.048.287-.097-.227-.535-.456-.55 0 .022.142.198.116.23.244" fill="#E67A61"/>
            <path d="M29.83 7.367c-.003-.307-.428-.202-.412.048.155.154.242-.068.41-.048" fill="#E67A61"/>
            <path d="M32.398 7.657c.358-.065.738.167.82-.145-.106-.187-.524-.266-.775-.145-.1.006-.02.204-.045.29" fill="#E67A61"/>
            <mask id="aH" fill="#fff">
                <use xlink:href="#aG"/>
            </mask>
            <path d="M36.565 14.825c.066-.092.1-.214.275-.19.002.072-.022.182.043.19-.067.146-.2-.04-.318 0m-2.063-6.102c-.023-.024.034-.062.046-.05.025.027-.034.062-.046.05m-.135.096c-.027-.026.032-.062.043-.048.024.024-.03.063-.043.047m-.142.05c-.02-.025.037-.064.05-.05.024.026-.036.062-.05.05m-2.836.87c-.09-.02-.198-.016-.185-.146-.137-.01.043-.202 0 0 .03.078.225-.01.184.146m-3.39.774c-.025-.024.03-.06.044-.047.02.026-.033.062-.045.047m-.047 6.008c-.025-.025.032-.064.046-.05.022.025-.035.063-.047.05m-.824-6.975c-.026-.027.033-.063.044-.05.023.026-.034.064-.045.05m-.37 1.887c0-.145.163-.12.277-.145.002.152-.14.144-.276.144m-.5-.338c.085.1.204.168.363.193v.484c-.1-.018.026-.285-.18-.193-.105.168-.04.51-.184.63-.154.016-.267-.023-.37 0-.127.028-.155.142-.274.147.015-.06-.132-.17-.137-.05-.106-.014-.106-.13 0-.145a.724.724 0 0 1-.183-.484c.228.02.14.68.55.484.102-.198.172-.43.274-.63-.018-.112-.055-.2-.093-.292.028-.456.352-.596.505-.92.054-.006.08.013.09.05-.036.333-.406.31-.363.726m15.39-.532c.107-.017.086-.168.227-.144.24.006.207.3.504.24.06-.087-.04-.244.046-.388-.12-.057-.3-.316-.41-.095a.34.34 0 0 0-.045-.243c-.25-.093-.382-.31-.78-.24-.05-.093-.177-.105-.23-.197-.296.043-.362-.165-.687-.097-.062.143.128.25 0 .293-.133-.02-.108-.21-.228-.243-.133.15-.38.014-.645.097-.164-.113-.15-.418-.5-.34-.065.012-.016.147-.093.147a6.034 6.034 0 0 1-.55-.287c-.02.04-.04.08-.09.092.057-.192-.11-.146-.23-.146.113-.115-.05-.11-.088-.195-.224.085-.207-.028-.414-.048-.017.065-.117.04-.184.047-.046.09.135.163 0 .194-.395-.066-.896.086-1.237 0-.117-.03-.16-.178-.275-.145-.212.052-.353-.05-.505-.098-.054-.018-.125.01-.182 0-.115-.025-.2-.155-.457-.1.018-.122.135-.144.137-.287-.065-.143-.215-.197-.275-.342-.14.066-.352.052-.55.052-.115-.04-.096-.22-.276-.196-.106.05-.145.167-.136.34-.228-.08-.146.168-.324.145-.086-.02-.034-.19-.18-.146-.12.13-.284.216-.55.19-.08.065-.123.166-.274.148-.064.06-.02.237-.14.24-.094.032-.317-.076-.272.1 0 .176.266.07.23.29-.17-.05-.214-.227-.46-.194 0 .127.024.286-.093.29-.054-.056-.054-.173-.044-.29-.18-.04-.076.21-.275.145-.073-.087-.066-.26-.277-.196-.13.205-.303.358-.46.533-.295.023-.272-.09-.592-.097-.075.24.238.073.18.293-.19-.05-.395.023-.685 0-.205.086-.317.275-.55.337v-.29c-.112.007-.22.008-.274-.047.012.27.002.516-.276.484.016.18-.167.144-.273.192-.114.064.08.145-.047.194-.267.057-.284-.352-.274-.435.213 0 .447-.024.594.047.123-.305-.256-.46-.548-.484-.074-.12-.195-.182-.366-.196a.896.896 0 0 0-.23-.29h-.413c-.124.093-.244.198-.364.29-.022-.07-.06.02-.14 0-.164.185-.37.322-.548.487-.054.22-.145.397-.275.53-.01-.057-.084-.04-.138-.047v.192c-.29.018-.322.306-.415.534.093.113.106.31.093.53.043.13.29.053.367.147-.1.144-.185.198-.185.34.098-.023.087.07.09.147-.16.002-.263.075-.41.094-.04.09-.128.126-.092.293-.262-.083-.104.28-.32.242.01.057-.01.085-.047.097-.2-.023-.242.13-.365.195-.114.027-.235.04-.226.193.058.066.194.048.315.05-.02.217.213.162.187.386-.048.064-.046.18-.142.192-.212-.115-.4.046-.683 0-.048.162.1.53-.094.536.033.14.14.208.094.434.212-.047.277.063.41.098.174-.093.195-.093.367 0 .104-.197.262-.34.23-.68.2-.06.167-.37.41-.388.194.123.274-.032.46-.046-.13.187-.065.49 0 .725.29-.027.11-.275.136-.53-.045-.004-.058-.088 0-.098v.096c.096.012.093.127.14.192.22.006.358.1.41.292-.008.105-.114.102-.228.095-.007.17.16.153.228.243-.022-.22.124-.257.23-.338.025-.11-.088-.07-.093-.146.085-.152.153.162.232 0-.127-.257-.696-.3-.55-.678.136.222.392.327.55.532.025.037.064.153.088.196.035.06.112.115.094.19v.292c.057.065.2.047.32.05.077-.167-.082-.407.045-.582h.14c-.054.19-.01.18-.05.385.105-.018.064.14.14.196.167.12.47.083.595 0 .136.068-.12.25.09.242.19.035.01-.314.23-.242v.288c-.133.086-.04.41-.23.435-.333-.128-.75-.174-1.19-.192-.13.037-.11.238-.23.29-.21-.228-.626-.242-.823-.483.034-.168-.053-.207-.092-.292.106-.014.105-.13.045-.193a1.47 1.47 0 0 0-.688.146c-.372-.025-.694.005-.87.194-.04-.102-.135-.15-.274-.147-.04.17-.202.205-.32.292-.125.226-.077.523-.184.724-.066.127-.31.26-.41.388-.01.284-.116.46-.23.63v1.26c.158.187.295.397.368.676.208.133.35.338.64.388.185-.047.402-.06.64-.048.096-.08.09-.262.277-.244.083.01.027.165.094.194.21-.03.29.08.455.098.077-.044.117-.135.275-.098.046.374-.098.546-.094.872.133.25.356.438.278.777.12.16.128.443.184.678-.112.22-.088.584-.184.824.196.196.34.447.414.774v.436c.204.25.198.723.41.97.442-.034.662-.3 1.054-.388a.93.93 0 0 1 .41-.582c-.022-.187.084-.236.045-.436.083-.044.12-.135.28-.097.002-.558.19-.925.55-1.112a4.668 4.668 0 0 0 0-1.356c.093-.186.176-.394.226-.63.108-.078.2-.174.32-.243.22-.335.416-.692.644-1.016.035-.182.096-.43-.048-.535-.194-.03-.184.16-.363.145h-.415c-.022-.332-.25-.446-.414-.63.042-.318-.27-.26-.18-.63-.08-.11-.222-.153-.276-.29.042-.145-.065-.377 0-.387.108.083.232.338.182.436.193.202.32.468.505.68.11.2.094.502.323.675.32-.113.544-.328.914-.39.063-.028.01-.184.09-.192.2-.033.283-.185.46-.243-.032-.21.135-.215.137-.385-.077-.176-.314-.186-.275-.486-.174-.022-.294.013-.367.096-.037-.183-.206-.232-.184-.484-.148.014-.13-.147-.226-.193.066-.025.114-.07.182-.097.25.166.175.683.64.63.02.094.13.09.092.243.223.022.253-.152.458-.146.048.03.048.11.14.097.315-.05.395.16.592.242-.077-.017-.085.037-.09.098.047.092.21.064.275.145-.024.15.082.17.043.34.14.16.2.403.275.627.098.094.192.188.233.34v.292c.057.066.197.046.318.046.062-.308.227-.502.186-.92h.183v-.193c.17.07.088-.133.227-.095-.013-.223.17-.244.23-.39a.88.88 0 0 1 .412-.192c.102.132.102.373.276.437.015.114-.085.103-.05.24.052.157.363.035.46.144-.062.104.025.146-.047.292.118.05.203.14.23.29-.018.093-.133.088-.092.244.014.147.14.172.092.39.22.198.427.417.685.58.013-.32-.216-.384-.226-.68-.13-.093-.25-.19-.324-.34.022-.157-.06-.416.09-.434.102.138.172.304.37.34.036.043.048.107.042.19.447-.06.556-.48.507-1.064-.06-.046-.17-.046-.23-.095.06-.215-.22-.2-.093-.342.137-.133.12.16.323.1.032-.208.265-.207.502-.194.146-.234.34-.413.413-.727.074.013.077-.045.136-.048.08-.196-.01-.56.14-.677-.098-.045-.14-.145-.14-.294-.077-.06-.177-.097-.183-.24-.02-.116.086-.106.047-.242.094.015.144-.008.136-.1.132-.06-.204-.288.095-.288.05.155.21.195.276.34-.046.255.084.328.23.388.272-.212-.01-.745.135-1.114.1-.092.236-.14.368-.196.106-.225.202-.464.364-.628.064-.39-.104-.792 0-1.067-.063.277.105.31.138.486.01.298.024.587.23.675.085-.085-.037-.122 0-.288.126-.006.093.08.185 0 .005-.154-.124-.165-.092-.34-.166-.034-.207-.198-.275-.34-.017-.173.015-.402-.136-.435-.096.012-.013.214-.137.195-.078-.357-.39.222-.51-.147.033-.112.118-.165.187-.24.052-.156.035-.383.184-.44.105.12.083-.07.226-.047.217.033.416.127.688.098-.014.084.037.093.09.098.062-.068.203-.046.324-.05.022-.154-.082-.17-.046-.34.092-.012.09-.127.182-.143.093.016.092.13.183.144-.02-.106.138-.266.182-.145-.145.31-.362.552-.412.97.033.13.132.183.184.288.02.187.056.363.184.436.114-.122.183-.294.323-.39-.044-.24.143-.203.047-.386.01-.097.12-.095.135-.193-.068-.057-.205-.042-.182-.192.044-.426.343-.333.685-.292.07-.074.06-.225.14-.29.268-.02.467-.154.64-.145 0-.206-.227-.176-.227-.386" fill="#E67A61" mask="url(#aH)"/>
            <mask id="aJ" fill="#fff">
                <use xlink:href="#aI"/>
            </mask>
            <path d="M12.148 16.132c.11.017.104.15.184.193-.057.124-.224-.05-.184-.193zm-.043-.097c.008-.055.043-.026.043 0-.006.055-.043.028-.043 0zm.96-6.97c-.022-.03.032-.066.045-.05.024.022-.03.06-.043.05zm1.42-.102c.145-.02.163.09.32.05 0 .192-.178.2-.32.24v-.29zm.183-.24c.14.047-.05.13-.045.195-.14-.05.02-.165.045-.196zm3.527 3.777c.024.027-.032.062-.046.05-.023-.027.033-.065.046-.05zm2.108 8.04c-.08-.09-.134.022-.227.05-.075-.168-.252-.222-.413-.294h-.32c-.082-.14-.39-.042-.413-.24-.122 0-.27.026-.276-.097.136-.227-.134-.845-.547-.63a.558.558 0 0 1-.277-.438c-.24-.07-.41-.213-.644-.29-.058.02-.07.086-.134.098-.063-.174-.287-.183-.322-.388-.146-.043-.096.125-.183.146-.105-.034-.12-.162-.23-.194-.04.085-.084.168-.23.144-.07.203-.253.282-.362.437.008-.16-.06-.233-.186-.243-.12.053-.17.176-.322.194-.11-.235.046-.46 0-.776-.085-.168-.39-.102-.55-.193.045-.21.18-.326.138-.628-.22.027-.234.027-.457 0-.085.104-.046.34-.184.385-.614.034-.232-.83-.37-1.21.165-.04.26-.146.415-.193.25-.022.31.155.55.143-.005-.067-.01-.134.046-.143.22.012.516-.06.55.143-.02.282.103.412.32.44-.053-.25-.03-.327 0-.487-.052-.073-.13-.118-.137-.243a.734.734 0 0 1 .594-.582c.04-.14.04-.148 0-.288a.3.3 0 0 0 .23-.05c-.114-.266.148-.208.09-.532.154-.065.3-.135.46-.194.023-.153-.14-.11-.09-.292.165-.146.42-.198.64-.29.034.133-.093.097-.093.193.185-.08.38-.148.506-.29-.11-.074-.338-.03-.32-.24.024-.136.174-.136.273-.193.02-.12-.082-.106-.045-.244.22.16.48-.234.637-.145-.102.26-.322.4-.41.676.17.037.198-.08.367-.043.004.072-.02.183.043.19.048-.12.178.068.323 0-.022-.11-.09-.246 0-.338-.166-.016-.21-.166-.275-.29a4.43 4.43 0 0 0 0-.632c-.086-.09-.114-.002-.23 0 .008-.23-.21-.228-.226-.433.034-.043.047-.11.044-.196-.177-.103-.11-.462-.367-.485-.023.073.057.253-.045.245-.095-.028-.302.06-.32-.05v-.483c-.245.117-.2-.112-.412-.144-.12.132-.1-.057-.23-.047-.11-.02-.1.086-.23.047.07.482-.122.752-.044 1.114-.08.013-.232-.137-.276 0 .044.136.15.03.183.096-.16.106-.162.374-.23.583-.102-.15-.124-.387-.18-.583-.094-.096-.09.02-.182.05-.043-.142-.07-.053-.186-.05a1.136 1.136 0 0 0-.5-.34c.07-.24-.165-.154-.143-.34.1.024.088-.067.092-.144.152-.083.216-.255.367-.34.102-.17.17-.37.413-.386.003-.086-.056-.103-.045-.195.307-.065.48-.105.684-.194-.012-.19-.002-.358.044-.483-.053-.073-.172-.078-.227-.147.18-.016.337 0 .412.096.084-.147.218.057.363 0-.06.247.212.136.183.34-.044.355-.54.232-.593.582.075.113.265.105.46.094.28.136.395.454.776.487-.102-.252.078-.245.047-.533-.02-.126-.14-.146-.14-.292.175.012.223.154.37.194-.015-.127-.018-.242.134-.194-.03-.148.05-.176.047-.29-.123.033-.086-.1-.137-.145-.155-.03-.275-.096-.413-.146.015-.1.126-.095.14-.194-.06-.115-.203-.144-.186-.34h-.41c.022-.153-.125-.126-.138-.243-.194-.026-.303.036-.46.05.03-.3-.357-.205-.412-.05.02-.18-.035-.283-.183-.29-.235.153-.51.648-.23.92.07.027.238-.054.23.05-.05.14-.142.233-.23.34-.114-.12.1-.106.05-.29-.155-.11-.306-.23-.368-.44-.175.025-.146-.166-.366-.095.018.116-.088.106-.047.242.155.066.098.45 0 .533-.068-.042-.1-.12-.088-.24-.234-.037-.234.178-.417.192-.172-.078-.358-.138-.457-.292.204-.036.274.065.457.05.1-.1-.022-.14 0-.29.252-.056.354-.273.595-.34-.085-.15-.068-.266-.09-.385h-.688c-.1.135-.33.135-.368.335-.022-.07-.065-.12-.09-.19-.122-.003-.287.044-.23-.145.34.072.744-.178 1.053-.293 0 .224.393.167.46.05-.033-.112-.042-.247-.09-.343-.272.04-.404.225-.69.243v-.29c-.25-.09-.294.23-.136.29-.265.037-.412-.05-.64-.046.066.25-.215.133-.23.29.112.06.14-.025.18.047-.028.065-.098.092-.18.095-.074-.276-.438-.25-.78-.242-.023.235-.14.37-.277.488-.005.15.12.162.094.336.226.015.34-.09.502-.143-.098.263.25.058.274.194.032.13-.216-.035-.184.096 0 .262.503-.01.415.34.17-.11.224-.078.41 0h.045c-.013-.06.133-.17.14-.047-.01.055-.074.052-.14.046.013.12.197.273 0 .34-.052-.01-.037-.09-.046-.147-.405-.038-.612-.288-1.098-.24-.14-.048-.145-.237-.32-.244-.02.137-.143.17-.274.192a.34.34 0 0 0-.047-.242c-.175.01-.175.206-.364.193-.177.037-.22-.056-.367-.047-.05.01-.03.096-.09.096-.048 0-.037-.06-.048-.096-.108.016-.173.076-.32.047-.367-.24-1.073-.126-1.465-.34-.34.16-.788.204-1.007.243-.106.19.083.193.135.342.175-.024.288.018.323.145-.187-.068-.165.086-.23.145-.085-.043-.126-.126-.227-.145-.175.188-.593.118-.734.337.25-.007.34.155.365.39.245-.093.424.013.643-.052-.224.427-1.178.083-1.1.825.15.117.186.132.135.387.083.007.096-.06.184-.05.002.08-.025.186.045.197.064-.155.02.197.138.145.056-.19.26-.23.412-.098-.2.164-.27.458-.5.58-.215.072-.284.284-.553.292.038.155-.073.15-.093.242.212.028.286-.085.503-.047.053-.14.194-.18.368-.194.17-.333.47-.536.733-.774h.095c.046-.047.012-.177.135-.145.002-.03.008-.06.044-.05-.002.03-.004.06-.043.05.02.215-.126.255-.184.386.377.045.47-.213.78-.24.02-.22-.024-.366-.046-.536.21.046.222-.12.41-.097.128.094.232.207.322.34.29.098.54.24.503.68.22-.033.01-.27.188-.292.01.41-.016.852.136 1.114-.143.126-.052.18-.002.34 0 .095-.125.06-.093.193-.02.53-.05.888 0 1.404.123.08.204.205.323.29.123.188.114.52.27.678-.05.008-.036.088-.04.146.188.072.23.3.317.484.14-.036.134.084.27.047.01-.206-.085-.16-.085-.433-.03 0-.053-.043 0-.05v.05c.095-.026.08.067.085.142.15.11.27.24.37.39-.034.34.087.52.183.727.377.1.6.347 1.053.24.056.126.117.237.185.342.173-.04.22.058.367.046.043.118.133.183.23.243v.146c.264.03.317.278.55.34.048-.065.046-.182.137-.193.018.174.092.29.136.434 0 .096-.126.064-.09.194.02.25-.148.3-.183.486-.09.337.184.522 0 .678.08.092.223.115.322.196-.04.068-.15.067-.23.096-.034.388.167.53.412.63.018.115-.085.105-.05.24.175.143.235.4.508.438.084.215.23.368.228.677-.047.063-.044.178-.088.243.056.03.08.103.088.193-.125.218.055.472 0 .776-.25.157-.134.698-.23 1.017.07.133.19-.086.23.047.04.24-.16.224-.23.34-.055.156.146.037.09.193-.084.118.052.237-.044.387.043.33.198.498.095.775.134.114.12.386.273.485-.008.086.053.102.046.193.113.025.186.092.27.145.172-.03.473.08.503-.1a.408.408 0 0 1-.27-.19c.032-.166-.187-.062-.142-.243-.012-.212.136-.248.14-.436.12-.006.177-.07.184-.193.022-.172-.162-.118-.14-.29.127-.15.313-.63 0-.68.307.082.297-.168.366-.338.247.017.33-.135.505-.193.034-.227-.072-.31-.09-.484h.367c.003-.048.056-.04.093-.05.023-.118.038-.247.184-.242-.018-.273.17-.332.273-.485v-.336c.087-.087.142-.204.227-.29.218-.07.218-.07.415-.147.017-.31.24-.58.088-.92.07-.04.1-.122.094-.243.073.016.08-.044.137-.047.015-.16.136-.214.18-.338.123-.127-.004-.235.136-.293-.03-.148.05-.176.05-.292 0-.18-.05-.306-.093-.435z" fill="#E67A61" mask="url(#aJ)"/>
            <path d="M29.65 9.45c-.065-.223-.282-.285-.232-.63.324-.03.443-.273.688-.39.288.033.436-.085.46-.335h-.23c-.01.038-.002.095-.048.095-.344.04-.6.175-.87.29.023.25-.222.22-.185.484-.054.103-.17.144-.18.29.145.103.288.213.455.293.02-.063.06-.1.14-.097" fill="#E67A61"/>
            <path d="M37.297 8.578c.11-.077.166-.213.277-.292-.175-.023-.212-.22-.368-.19-.02.002-.043.11-.093.094h-.272c-.06.352.327.233.457.388" fill="#E67A61"/>
            <path d="M22.686 10.757c.004-.125.17-.077.227-.145.05-.247-.104-.28-.088-.484-.203.066-.27-.03-.458.048-.127-.03-.117-.204-.277-.193.056.235-.184.162-.184.337.13.04.12-.066.23-.048-.026.118-.178.104-.14.292.23-.065.18.166.324.193.037-.102.318-.05.366 0" fill="#E67A61"/>
            <mask id="aL" fill="#fff">
                <use xlink:href="#aK"/>
            </mask>
            <path d="M16.408 10.757c-.18-.053-.062-.124-.18-.243-.14.035-.137-.084-.276-.048-.065.093-.024.297-.228.244.002.17.15.195.32.193-.016-.38.31.157.364-.146" fill="#E67A61" mask="url(#aL)"/>
            <mask id="aN" fill="#fff">
                <use xlink:href="#aM"/>
            </mask>
            <path d="M24.475 12.5c-.065-.05-.143-.08-.187-.143.06-.287-.304-.333-.135-.583-.064-.05-.142-.077-.187-.146.068-.042.148-.072.14-.194-.168-.014-.257.055-.367.097.033.264-.073.377-.047.633.11.07.17.075.23.095.018.173-.156.266-.23.193-.037.22.033.325.093.44-.082.042-.247-.004-.232.143a3.28 3.28 0 0 1 .734-.048c.038-.208.014-.345.187-.484" fill="#E67A61" mask="url(#aN)"/>
            <mask id="aP" fill="#fff">
                <use xlink:href="#aO"/>
            </mask>
            <path d="M23.233 12.696c.104-.053.28-.034.368-.1-.05-.202-.01-.212 0-.434h-.228c-.002.216-.104.06-.184.146.006.14-.024.316.045.388" fill="#E67A61" mask="url(#aP)"/>
            <mask id="aR" fill="#fff">
                <use xlink:href="#aQ"/>
            </mask>
            <path d="M38.946 14.098c.088.007.032.16.14.148.1-.123.083-.364.27-.388-.237-.036-.39-.17-.638-.194.033.23-.05.332-.047.534.126.13.116-.127.276-.1" fill="#E67A61" mask="url(#aR)"/>
            <mask id="aT" fill="#fff">
                <use xlink:href="#aS"/>
            </mask>
            <path d="M37.894 15.6c-.01.17.107.21.184.29.03-.176.14-.27.275-.34.06 0 .1.025.134.05.145-.185.45-.204.598-.388-.008-.345-.102-.604-.09-.966h-.187c.056.226-.02.335.047.58-.034.01-.052.04-.047.098-.163.074-.245.13-.412.288-.16.088-.453.037-.46.292-.02.134.252-.037.232.096h-.274z" fill="#E67A61" mask="url(#aT)"/>
            <mask id="aV" fill="#fff">
                <use xlink:href="#aU"/>
            </mask>
            <path d="M26.716 15.212c.014.135.152.04.273.147.032-.18-.07-.214-.228-.195.01.04-.017.045-.046.047" fill="#E67A61" mask="url(#aV)"/>
            <mask id="aX" fill="#fff">
                <use xlink:href="#aW"/>
            </mask>
            <path d="M36.93 16.86a.474.474 0 0 1 .137.292c.192-.014.176-.24.185-.44-.115-.105-.273.037-.32.148" fill="#E67A61" mask="url(#aX)"/>
            <mask id="aZ" fill="#fff">
                <use xlink:href="#aY"/>
            </mask>
            <path d="M15.725 16.713v.195h.182c-.005-.12-.066-.187-.182-.195" fill="#E67A61" mask="url(#aZ)"/>
            <mask id="bb" fill="#fff">
                <use xlink:href="#ba"/>
            </mask>
            <path d="M16.227 16.956a.336.336 0 0 0-.05-.242h-.134c-.014.166.012.278.184.242" fill="#E67A61" mask="url(#bb)"/>
            <mask id="bd" fill="#fff">
                <use xlink:href="#bc"/>
            </mask>
            <path d="M16.27 16.91v.242c.1.018.123-.034.184-.05-.005-.123-.064-.19-.184-.193" fill="#E67A61" mask="url(#bd)"/>
            <mask id="bf" fill="#fff">
                <use xlink:href="#be"/>
            </mask>
            <path d="M16.18 17.684c.164-.027.223.056.325.098.002-.14.188-.09.32-.098-.07-.32-.32-.277-.597-.292.034-.132-.094-.098-.094-.192-.1-.056-.25-.057-.275-.195h-.686c-.02.093-.1.123-.093.243.187.02.187-.16.415-.096.193.038.214.257.412.29.11.03.33-.062.363.047-.164.005-.112.07-.09.194" fill="#E67A61" mask="url(#bf)"/>
            <mask id="bh" fill="#fff">
                <use xlink:href="#bg"/>
            </mask>
            <path d="M16.64 17.152c-.016-.067-.117-.04-.186-.05-.094.18.234.218.185.05" fill="#E67A61" mask="url(#bh)"/>
            <mask id="bj" fill="#fff">
                <use xlink:href="#bi"/>
            </mask>
            <path d="M37.113 17.684a.974.974 0 0 0 .274.29c.06-.15.215-.192.187-.436-.125-.175-.466-.097-.46.146" fill="#E67A61" mask="url(#bj)"/>
            <mask id="bl" fill="#fff">
                <use xlink:href="#bk"/>
            </mask>
            <path d="M36.016 17.828c.127-.027.127-.187.18-.29-.038-.037-.103-.05-.18-.05-.087.19-.06.043 0 .34" fill="#E67A61" mask="url(#bl)"/>
            <mask id="bn" fill="#fff">
                <use xlink:href="#bm"/>
            </mask>
            <path d="M15.676 17.585v.196c.155-.05.158.015.318-.048.035-.194-.17-.14-.318-.147" fill="#E67A61" mask="url(#bn)"/>
            <g>
                <mask id="bp" fill="#fff">
                    <use xlink:href="#bo"/>
                </mask>
                <path d="M16.913 17.78c.163.012.316.01.273-.195h-.273v.196z" fill="#E67A61" mask="url(#bp)"/>
            </g>
            <g>
                <mask id="br" fill="#fff">
                    <use xlink:href="#bq"/>
                </mask>
                <path d="M21.722 17.78c0 .096-.123.062-.088.193h.18c.014-.11-.01-.182-.092-.192" fill="#E67A61" mask="url(#br)"/>
            </g>
            <g>
                <mask id="bt" fill="#fff">
                    <use xlink:href="#bs"/>
                </mask>
                <path d="M37.481 18.555c.098.105.13-.024.275 0-.015.114-.098.21.046.242.068-.14.196-.216.414-.195.043-.22-.145-.2-.23-.29.014-.156-.055-.234-.183-.24-.063.062-.043.21-.045.337-.153-.083-.198.03-.274.145" fill="#E67A61" mask="url(#bt)"/>
            </g>
            <g>
                <mask id="bv" fill="#fff">
                    <use xlink:href="#bu"/>
                </mask>
                <path d="M32.946 18.7c.064.287-.174.348 0 .484.143.025.12-.13.227-.145-.037-.153-.132-.248-.227-.34" fill="#E67A61" mask="url(#bv)"/>
            </g>
            <g>
                <mask id="bx" fill="#fff">
                    <use xlink:href="#bw"/>
                </mask>
                <path d="M35.968 20.01c.048.194.244.225.23.484.295-.074.252.217.55.143-.012-.112.13-.053.136-.143-.033-.013-.09-.003-.09-.052.15-.066.075-.37.23-.433-.106-.16.038-.324-.047-.438.08-.044.158-.09.136-.24-.11-.094-.2-.21-.412-.197-.042.506-.65.408-.732.874" fill="#E67A61" mask="url(#bx)"/>
            </g>
            <g>
                <mask id="bz" fill="#fff">
                    <use xlink:href="#by"/>
                </mask>
                <path d="M35.097 19.668c-.066-.113-.212-.19-.18-.337-.125.035-.092-.095-.183-.095.004.21-.114-.008-.23.044 0 .567.644.45.55 1.114.226.027.29.346.502.244.107-.186-.095-.398-.088-.63-.14-.1-.306-.238-.37-.34" fill="#E67A61" mask="url(#bz)"/>
            </g>
            <g>
                <mask id="bB" fill="#fff">
                    <use xlink:href="#bA"/>
                </mask>
                <path d="M37.665 20.056c-.01-.214-.29-.148-.368-.29-.236.2-.4.738-.045.918-.01-.138.01-.246.092-.29.1.094.105.246.274.146-.023-.2-.178-.266-.182-.484.058.063.167.063.23 0" fill="#E67A61" mask="url(#bB)"/>
            </g>
            <g>
                <mask id="bD" fill="#fff">
                    <use xlink:href="#bC"/>
                </mask>
                <path d="M38.67 19.862c-.148-.098-.515-.08-.502.147.156.102.49.053.503-.148" fill="#E67A61" mask="url(#bD)"/>
            </g>
            <g>
                <mask id="bF" fill="#fff">
                    <use xlink:href="#bE"/>
                </mask>
                <path d="M39.178 20.056h-.323c-.04.07-.067.155-.184.146-.142.036-.083-.136-.224-.098.01.127-.18.038-.14.192.008.11.113-.06.226 0 .206.174.472.28.646.487v.29c.243-.158.315.1.503.146.16-.008.108-.24.32-.194.11.065.23.366.413.193-.095-.046-.14-.144-.14-.29-.118-.117-.287-.18-.366-.34v-.148c-.352-.013-.448-.297-.73-.386" fill="#E67A61" mask="url(#bF)"/>
            </g>
            <g>
                <mask id="bH" fill="#fff">
                    <use xlink:href="#bG"/>
                </mask>
                <path d="M36.748 21.17c.022-.172-.16-.12-.137-.29-.373.01-.638-.102-.918-.196-.04.086-.127.125-.09.29.436.006.647.255 1.146.196" fill="#E67A61" mask="url(#bH)"/>
            </g>
            <g>
                <mask id="bJ" fill="#fff">
                    <use xlink:href="#bI"/>
                </mask>
                <path d="M40.136 23.06c.02-.23-.078-.335-.044-.583-.09-.032-.106-.144-.185-.193-.014-.37-.326-.43-.272-.87-.087.01-.103-.056-.185-.052-.117.2.048.703-.14.826-.178.064-.09-.16-.273-.098-.006-.136-.214-.058-.182-.242-.022-.153.225-.018.182-.192-.158-.187-.628-.05-.87-.146-.077.03.003.23-.09.24-.17.033-.322.08-.46.147-.057.146-.014.404-.18.438-.112-.116-.23.007-.37 0-.088.03.012.27-.09.29-.095-.028-.088-.148-.182-.05-.115.123-.06.42-.23.485-.102.07-.306.032-.368.144.05.216.16.485.048.728.086.034.12.13.136.24.027.223-.08.303-.046.533.14-.012.145.11.278.1.19-.088.302-.26.64-.196.162-.216.484-.265.87-.243.13.103.215.257.274.438.18-.092.123.11.323 0-.004.127.014.274-.05.338.293.18.466.19.92.193.114-.087.198-.21.363-.244-.02-.248.22-.218.183-.483.16-.012.12-.23.277-.243-.052-.172.078-.273.09-.435.025-.295-.088-.6-.137-.872-.114-.065-.19.142-.23 0" fill="#E67A61" mask="url(#bJ)"/>
            </g>
            <g>
                <mask id="bL" fill="#fff">
                    <use xlink:href="#bK"/>
                </mask>
                <path d="M29.466 21.51a1.39 1.39 0 0 0-.185.485c-.198.047-.3.195-.41.34-.037.165.067.186.045.337-.04.102-.074.215-.138.29.1.22-.033.413.138.582.15.008.194-.087.366-.05.1-.215.062-.31.186-.53v-.243c.008-.055.05-.075.09-.096-.082-.214.085-.415.094-.776-.17.002.003-.36-.184-.34" fill="#E67A61" mask="url(#bL)"/>
            </g>
            <g>
                <mask id="bN" fill="#fff">
                    <use xlink:href="#bM"/>
                </mask>
                <path d="M42.656 24.804c.01-.14.004-.267-.137-.242v.386c-.035.14-.22.126-.185.34.308-.048.106.144.092.29.29-.016.3-.332.413-.533.07-.073.19-.086.227-.194-.11-.148-.194-.028-.41-.046" fill="#E67A61" mask="url(#bN)"/>
            </g>
            <g>
                <mask id="bP" fill="#fff">
                    <use xlink:href="#bO"/>
                </mask>
                <path d="M42.15 25.384c-.038.103-.135.143-.134.29-.08-.003-.142.01-.185.048-.077.098-.106.243-.226.29-.19.077-.246.29-.323.487.152-.08.25-.027.414 0 .044-.118.184-.13.137-.342h.186c.012-.276.36-.198.365-.484-.014-.16-.136-.208-.23-.29" fill="#E67A61" mask="url(#bP)"/>
            </g>
            <g>
                <mask id="bR" fill="#fff">
                    <use xlink:href="#bQ"/>
                </mask>
                <path d="M39.037 25.528c-.052.075.15.292.184.437.224-.022.37-.128.322-.437-.2.038-.423-.058-.505 0" fill="#E67A61" mask="url(#bR)"/>
            </g>
            <g>
                <mask id="bT" fill="#fff">
                    <use xlink:href="#bS"/>
                </mask>
                <path d="M18.286 27.03h.185c.033-.19-.19-.16-.184 0" fill="#E67A61" mask="url(#bT)"/>
            </g>
            <g>
                <mask id="bV" fill="#fff">
                    <use xlink:href="#bU"/>
                </mask>
                <path d="M37.98 19.608a3.118 3.118 0 0 0-3.114 3.112 3.117 3.117 0 0 0 3.11 3.118l3.85.005a3.123 3.123 0 0 0 3.117-3.112 3.12 3.12 0 0 0-3.11-3.118l-3.853-.004z" fill="#E5E8EC" mask="url(#bV)"/>
            </g>
            <g>
                <mask id="bX" fill="#fff">
                    <use xlink:href="#bW"/>
                </mask>
                <path d="M41.605 24.97c1.24.003 2.245-1.016 2.252-2.268 0-.606-.233-1.178-.654-1.61a2.21 2.21 0 0 0-1.584-.666l-.002-.22v.22c-1.24-.002-2.248 1.016-2.248 2.267-.003 1.252 1 2.276 2.236 2.277m.01-4.98h.004c.714 0 1.387.284 1.892.796.505.513.782 1.195.782 1.916-.006 1.494-1.208 2.708-2.68 2.707-1.486-.004-2.685-1.225-2.683-2.722.007-1.49 1.21-2.7 2.688-2.7" fill="#01BACC" mask="url(#bX)"/>
            </g>
            <g>
                <mask id="bZ" fill="#fff">
                    <use xlink:href="#bY"/>
                </mask>
                <path d="M38.04 24.96c1.237.003 2.244-1.014 2.25-2.266 0-1.253-1.004-2.276-2.24-2.277v-.22l-.003.22c-1.236-.002-2.243 1.015-2.247 2.265-.003 1.255 1.002 2.278 2.24 2.28m.01-4.983c1.478.004 2.678 1.22 2.677 2.714-.007 1.494-1.21 2.707-2.685 2.706-1.483-.004-2.68-1.222-2.68-2.718.006-1.49 1.21-2.705 2.687-2.703" fill="#01BACC" mask="url(#bZ)"/>
            </g>
            <g>
                <mask id="cb" fill="#fff">
                    <use xlink:href="#ca"/>
                </mask>
                <path d="M41.605 24.9c.336 0 .81-.836.815-2.2 0-1.048-.28-1.8-.56-2.08-.082-.085-.163-.125-.24-.125h-.002c-.34 0-.812.838-.814 2.2-.007 1.365.465 2.203.8 2.205m.014-4.842l.002-.003c.194 0 .384.09.55.258.425.426.688 1.342.685 2.387-.005 1.504-.543 2.638-1.25 2.638-.71-.003-1.242-1.138-1.24-2.643.005-1.504.542-2.64 1.252-2.637" fill="#01BACC" mask="url(#cb)"/>
            </g>
            <g>
                <mask id="cd" fill="#fff">
                    <use xlink:href="#cc"/>
                </mask>
                <path d="M39.15 22.474l4.925.012v.438l-4.926-.013v-.436z" fill="#01BACC" mask="url(#cd)"/>
            </g>
            <g>
                <mask id="cf" fill="#fff">
                    <use xlink:href="#ce"/>
                </mask>
                <path d="M39.557 23.64l4.103.007v.437l-4.105-.01.002-.434z" fill="#01BACC" mask="url(#cf)"/>
            </g>
            <g>
                <mask id="ch" fill="#fff">
                    <use xlink:href="#cg"/>
                </mask>
                <path d="M39.563 21.312l4.102.01v.438l-4.103-.01.002-.438z" fill="#01BACC" mask="url(#ch)"/>
            </g>
            <g>
                <mask id="cj" fill="#fff">
                    <use xlink:href="#ci"/>
                </mask>
                <path d="M42.977 19.166c.423 0 .765.343.765.764v4.64c0 .42-.342.764-.765.764h-5.105a.767.767 0 0 1-.765-.764v-4.64c0-.42.345-.764.765-.764h5.105z" fill="#484F59" mask="url(#cj)"/>
            </g>
            <g>
                <mask id="cl" fill="#fff">
                    <use xlink:href="#ck"/>
                </mask>
                <path d="M37.872 25.23h.968v-1.304h-1.627v.645c0 .362.297.66.66.66" fill="#F4DA80" mask="url(#cl)"/>
            </g>
            <g>
                <mask id="cn" fill="#fff">
                    <use xlink:href="#cm"/>
                </mask>
                <path d="M41.274 21.53v.74h2.363v-1.398H41.93a.656.656 0 0 0-.656.657" fill="#F4DA80" mask="url(#cn)"/>
            </g>
            <g>
                <mask id="cp" fill="#fff">
                    <use xlink:href="#co"/>
                </mask>
                <path d="M41.93 23.8h1.708v-1.402h-2.363v.743c0 .364.294.66.656.66" fill="#F4DA80" mask="url(#cp)"/>
            </g>
            <g>
                <mask id="cr" fill="#fff">
                    <use xlink:href="#cq"/>
                </mask>
                <path d="M41.15 23.19h-1.52a.785.785 0 0 1-.66.727v1.312h2.854v-1.31a.786.786 0 0 1-.675-.73" fill="#F4DA80" mask="url(#cr)"/>
            </g>
            <mask id="ct" fill="#fff">
                <use xlink:href="#cs"/>
            </mask>
            <path d="M39.633 23.063h1.513V21.55h-1.513v1.513z" fill="#F4DA80" mask="url(#ct)"/>
            <path d="M39.624 21.422h1.53a.785.785 0 0 1 .67-.67v-1.48H38.97v1.482c.34.054.61.325.654.668" fill="#F4DA80" mask="url(#ct)"/>
            <path d="M39.505 21.53a.657.657 0 0 0-.656-.658h-1.637v1.4h2.292v-.743z" fill="#F4DA80" mask="url(#ct)"/>
            <path d="M38.84 23.8h.01c.36 0 .655-.296.655-.66V22.4h-2.292v1.4h1.627z" fill="#F4DA80" mask="url(#ct)"/>
            <path d="M41.952 25.23h1.024a.66.66 0 0 0 .66-.66v-.644h-1.684v1.303z" fill="#F4DA80" mask="url(#ct)"/>
            <path d="M43.638 19.93a.662.662 0 0 0-.66-.658h-1.025v1.472h1.685v-.814z" fill="#F4DA80" mask="url(#ct)"/>
            <path d="M38.84 19.272h-.968a.66.66 0 0 0-.66.658v.814h1.628v-1.472z" fill="#F4DA80" mask="url(#ct)"/>
            <path d="M44.404 7.77v.854L30.4 8.62v-.852l14.004.002z" fill="#E5E8EC" mask="url(#ct)"/>
            <path d="M44.404 5.55v.854l-19.932-.01-.002-.852 19.934.008z" fill="#E5E8EC" mask="url(#ct)"/>
        </g>
        <g>
            <mask id="cv" fill="#fff">
                <use xlink:href="#cu"/>
            </mask>
            <path d="M89.19 51.682a7.504 7.504 0 0 1-15.007 0 7.503 7.503 0 0 1 7.503-7.502 7.503 7.503 0 0 1 7.504 7.502" fill="#F4DA80" mask="url(#cv)"/>
            <mask id="cx" fill="#fff">
                <use xlink:href="#cw"/>
            </mask>
            <path d="M88.96 51.682a7.274 7.274 0 0 1-14.547 0 7.273 7.273 0 0 1 7.274-7.273 7.272 7.272 0 0 1 7.274 7.272" fill="#F0CA67" mask="url(#cx)"/>
            <mask id="cz" fill="#fff">
                <use xlink:href="#cy"/>
            </mask>
            <path d="M87.416 51.682a5.726 5.726 0 0 1-5.73 5.725 5.726 5.726 0 0 1 0-11.453 5.728 5.728 0 0 1 5.73 5.728" fill="#F4DA80" mask="url(#cz)"/>
            <mask id="cB" fill="#fff">
                <use xlink:href="#cA"/>
            </mask>
            <path d="M83.14 53.066a.85.85 0 0 0-.324-.697 1.543 1.543 0 0 0-.355-.215 4.758 4.758 0 0 0-.434-.167l-.158 2.353c.203-.02.385-.063.543-.134a1.15 1.15 0 0 0 .648-.656c.055-.148.083-.307.083-.484zm-2.618-3.135a.89.89 0 0 0 .08.396.93.93 0 0 0 .222.295c.094.086.203.16.33.223.127.06.265.12.41.172l.143-2.13c-.206.018-.383.06-.53.122-.15.063-.273.142-.368.234a.897.897 0 0 0-.217.322.977.977 0 0 0-.07.37zm.763 5.114a2.904 2.904 0 0 1-1.85-.865l.25-.388a.224.224 0 0 1 .095-.083.257.257 0 0 1 .128-.036c.06 0 .128.03.203.09.077.06.17.128.28.205.11.076.24.15.396.226.15.07.334.117.546.145l.176-2.507a7.58 7.58 0 0 1-.647-.223 2.252 2.252 0 0 1-.574-.327 1.49 1.49 0 0 1-.404-.507c-.102-.202-.153-.457-.153-.764a1.766 1.766 0 0 1 .526-1.258c.17-.172.383-.31.634-.42a2.18 2.18 0 0 1 .867-.164l.047-.688a.286.286 0 0 1 .072-.16.212.212 0 0 1 .164-.07h.313l-.066.934c.332.04.614.127.854.256.24.13.456.284.643.466l-.205.31c-.062.097-.133.143-.213.143a.32.32 0 0 1-.165-.06c-.063-.035-.14-.085-.234-.136a4.025 4.025 0 0 0-.314-.154 1.61 1.61 0 0 0-.41-.11l-.16 2.282c.227.072.45.146.673.228.22.082.418.188.594.32.173.128.32.29.424.484.112.194.167.436.167.726 0 .283-.05.55-.142.802a1.984 1.984 0 0 1-.414.657c-.18.19-.403.342-.666.46-.262.12-.56.18-.9.18l-.055.842a.26.26 0 0 1-.073.16.21.21 0 0 1-.16.067h-.315l.07-1.066z" fill="#F0CA67" mask="url(#cB)"/>
            <mask id="cD" fill="#fff">
                <use xlink:href="#cC"/>
            </mask>
            <path d="M121.08 78.843H72.323V48.658h48.757v30.185z" fill="#5C6572" mask="url(#cD)"/>
            <path d="M74.1 48.856h45.205v28.212H74.1V48.856z" fill="#484F59" mask="url(#cD)"/>
            <path d="M91.967 47.475v14.403c0 .98.796 1.775 1.776 1.775h5.918c.982 0 1.777-.795 1.777-1.775V47.475h-9.47z" fill="#5C6572" mask="url(#cD)"/>
            <path d="M93.743 47.475h5.918v14.403h-5.917V47.475z" fill="#484F59" mask="url(#cD)"/>
            <path d="M98.355 59.016a1.678 1.678 0 0 1-3.356 0c0-.926.75-1.674 1.675-1.674.928 0 1.68.748 1.68 1.674" fill="#B7BEC0" mask="url(#cD)"/>
            <path d="M95 59.016c0 .273.07.524.186.75.228.117.48.186.75.186.928 0 1.678-.748 1.678-1.676 0-.272-.072-.524-.186-.75a1.648 1.648 0 0 0-.752-.184c-.925 0-1.676.748-1.676 1.674" fill="#CDD5D7" mask="url(#cD)"/>
        </g>
    </g>
</svg>
