<svg width="146" height="147" viewBox="0 0 146 147" xmlns="http://www.w3.org/2000/svg">
    <title>
        illustartion
    </title>
    <g fill="none" fill-rule="evenodd">
        <path d="M138.702 92.995V30.732a2.933 2.933 0 0 0-2.93-2.93H34.66a2.932 2.932 0 0 0-2.928 2.93v62.263h106.968" fill="#3F464E"/>
        <path d="M31.522 93.113v9.002a3.14 3.14 0 0 0 3.14 3.14h101.11a3.142 3.142 0 0 0 3.14-3.14v-9.002H31.523" fill="#EAEDF0"/>
        <path d="M103.713 118.516s-.778-.382-1.672-.72c-.953-.36-2.1-.808-2.775-1.13-1.183-.57-1.284-.943-1.726-2.88-.486-2.116-.94-6.583-1.12-8.53h-22.4c-.185 1.947-.637 6.414-1.12 8.53-.443 1.937-.54 2.31-1.728 2.88-.668.318-1.797.762-2.744 1.12-.908.34-1.65.604-1.65.604s-.72.4.437.458h36.01c1.086.02.488-.332.488-.332" fill="#EAEDF0"/>
        <path d="M96.654 107.608c-.1-.927-.182-1.758-.238-2.353h-22.4c-.054.595-.137 1.426-.235 2.353h22.874" fill="#D6DDDF"/>
        <path d="M50.947 92.995H73.21l40.693-65.192H91.64L50.948 92.995" fill="#5A626C"/>
        <path d="M79.568 92.995h8.126l40.693-65.192h-8.125L79.568 92.995" fill="#5A626C"/>
        <path d="M36.703 32.826h97.027v54.636H36.703V32.826z" fill="#FF9B7F"/>
        <path d="M54.4 87.462h22.26l34.106-54.636H88.504L54.4 87.462" fill="#FFB4A0"/>
        <path d="M91.15 87.462l34.1-54.636h-8.124L83.022 87.462h8.128" fill="#FFB4A0"/>
        <g>
            <path d="M56.247 135.19H33.542a.5.5 0 0 1-.5-.5v-22.705a.5.5 0 0 1 .5-.5h11.265a.5.5 0 0 1 0 1H34.042v21.705h21.705v-10.768a.5.5 0 0 1 1 0v11.268a.5.5 0 0 1-.5.5" fill="#C4CACB"/>
            <path d="M56.247 118.65a.5.5 0 0 1-.5-.5v-5.66l-5.662-.002a.5.5 0 0 1 0-1l6.16.002a.5.5 0 0 1 .5.5l.002 6.16a.5.5 0 0 1-.5.5" fill="#C4CACB"/>
            <path d="M46.487 122.248a.5.5 0 0 1-.354-.853l8.92-8.92a.5.5 0 0 1 .707 0 .5.5 0 0 1 0 .708l-8.92 8.92a.498.498 0 0 1-.353.145" fill="#C4CACB"/>
            <path d="M60.422 134.19h10.32v-10.32H60.42v10.32zm10.82 1H59.92a.5.5 0 0 1-.5-.5v-11.32a.5.5 0 0 1 .5-.5h11.32a.5.5 0 0 1 .5.5v11.32a.5.5 0 0 1-.5.5z" fill="#00CFE1"/>
            <path d="M60.422 145.823h7.175v-7.174h-7.175v7.173zm7.675 1h-8.175a.5.5 0 0 1-.5-.5v-8.174a.5.5 0 0 1 .5-.5h8.175a.5.5 0 0 1 .5.5v8.173a.5.5 0 0 1-.5.5z" fill="#C4CACB"/>
            <path d="M51.933 142.464h3.816v-3.815h-3.817v3.814zm4.316 1h-4.817a.5.5 0 0 1-.5-.5v-4.815a.5.5 0 0 1 .5-.5h4.816a.5.5 0 0 1 .5.5v4.814a.5.5 0 0 1-.5.5z" fill="#FF9B7F"/>
        </g>
        <g>
            <path d="M139.604 117.6c0 1.21-.977 2.192-2.18 2.192h-36.615a2.184 2.184 0 0 1-2.178-2.19V63.924a2.18 2.18 0 0 1 2.177-2.19h36.613c1.204 0 2.18.98 2.18 2.19V117.6" fill="#6C7686"/>
            <path d="M100.81 119.458c-1.02 0-1.847-.83-1.847-1.857V63.926c0-1.022.828-1.856 1.846-1.856h36.613c1.02 0 1.85.833 1.85 1.855V117.6c0 1.027-.83 1.858-1.85 1.858H100.81" fill="#3F464E"/>
            <path d="M119.484 64.327a.367.367 0 0 1-.37.367.37.37 0 1 1 .37-.367" fill="#6C7686"/>
            <path d="M121.03 117.39a.41.41 0 0 1-.41.412h-3.008a.41.41 0 0 1-.407-.41v-.825c0-.226.184-.415.407-.415h3.008c.227 0 .41.19.41.415v.824" fill="#6C7686"/>
            <path d="M101.295 66.508h35.646v47.83h-35.645V66.51z" fill="#00C5D6"/>
            <path d="M101.295 81.748v15.31l18.694-30.55h-9.37l-9.325 15.24" fill="#00CFE1"/>
            <path d="M101.295 105.546l23.885-39.038h-3.564l-20.32 33.215v5.823" fill="#00CFE1"/>
            <path d="M145.537 117.23c0 1.41-1.145 2.562-2.544 2.562h-15.21c-1.4 0-2.544-1.152-2.544-2.56V80.99c0-1.408 1.143-2.56 2.543-2.56h15.21c1.4 0 2.544 1.152 2.544 2.56v36.24" fill="#59626C"/>
            <path d="M128.176 119.398a2.562 2.562 0 0 1-2.548-2.56v-35.45a2.562 2.562 0 0 1 2.548-2.56H142.6a2.56 2.56 0 0 1 2.548 2.56v35.45a2.56 2.56 0 0 1-2.548 2.56h-14.424" fill="#3F464E"/>
            <path d="M132.97 80.96c0 .19-.153.347-.343.347a.346.346 0 0 1 0-.692c.19 0 .344.157.344.346" fill="#6C7686"/>
            <path d="M135.575 79.765a.22.22 0 0 1-.223.22l-.22-.22c0-.124.1-.224.22-.224.125 0 .223.1.223.225" fill="#6C7686"/>
            <path d="M136.708 80.927l-.16.164h-2.352l-.164-.163.164-.162h2.352l.16.162" fill="#6C7686"/>
            <path d="M136.79 117.592a.29.29 0 0 1-.29.295h-2.157a.292.292 0 0 1-.294-.295v-.59c0-.164.13-.298.293-.298h2.156c.16 0 .29.134.29.3v.588" fill="#6C7686"/>
            <path d="M125.124 83.3h.48v1.576h-.48V83.3z" fill="#3F464E"/>
            <path d="M125.124 86.35h.48v2.664h-.48V86.35z" fill="#3F464E"/>
            <path d="M125.124 89.627h.48v2.536h-.48v-2.536z" fill="#3F464E"/>
            <path d="M126.46 83.13h17.82v31.803h-17.82V83.13z" fill="#F4D27A"/>
            <path d="M126.46 93.35v10.275l12.544-20.496h-6.288l-6.256 10.22" fill="#F7E092"/>
            <path d="M126.46 109.317l16.025-26.188h-2.39l-13.635 22.28v3.907" fill="#F7E092"/>
        </g>
        <g>
            <path d="M30.974.298c17.114 0 30.982 13.866 30.982 30.98 0 7.64-2.78 14.628-7.374 20.034L61.802 65 48.67 56.676a30.775 30.775 0 0 1-17.696 5.578C13.868 62.254 0 48.386 0 31.278 0 14.164 13.868.298 30.974.298" fill="#F4D27A"/>
            <path d="M30.974.298l.312.008v61.942l-.312.006C13.868 62.254 0 48.386 0 31.278 0 14.164 13.868.298 30.974.298" fill="#F7E092"/>
            <path d="M28.204 52.67v-4.98c-3.516-.162-6.922-1.156-8.914-2.256l1.574-6.132c2.196 1.2 5.286 2.308 8.7 2.308 3.044 0 5.084-1.212 5.084-3.248 0-1.998-1.676-3.262-5.612-4.568-5.606-1.888-9.432-4.506-9.432-9.592 0-4.668 3.252-8.286 8.856-9.326V9.888h5.138v4.614c3.464.108 5.822.892 7.66 1.73l-1.576 5.924c-1.314-.628-3.768-1.836-7.55-1.836-3.402 0-4.508 1.52-4.508 2.986 0 1.678 1.838 2.832 6.346 4.46 6.232 2.2 8.696 5.086 8.696 9.856 0 4.662-3.246 8.652-9.278 9.646v5.402h-5.184" fill="#FFF"/>
            <path d="M33.97 27.766c-1.328-.48-2.416-.914-3.3-1.336v7.958c2.768 1.112 3.978 2.278 3.978 3.974 0 1.778-1.554 2.926-3.978 3.188v11.12h2.718v-5.402c6.032-.994 9.278-4.984 9.278-9.646 0-4.77-2.464-7.656-8.696-9.856" fill="#EAEDF0"/>
        </g>
    </g>
</svg>
