<svg xmlns="http://www.w3.org/2000/svg" width="136.251" height="137" viewBox="0 0 136.251 137">
    <title>
        illustration2
    </title>
    <path d="M68.125 0a68.314 68.314 0 0 1 68.125 68.5A68.314 68.314 0 0 1 68.125 137 68.314 68.314 0 0 1 0 68.5 68.314 68.314 0 0 1 68.124 0z" fill="none"/>
    <path d="M33.014 109.525A14.754 14.754 0 1 1 47.687 94.69v.08a14.738 14.738 0 0 1-14.673 14.755zm0-28.83A14 14 0 1 0 46.94 94.77v-.075a13.985 13.985 0 0 0-13.926-14z" fill="#b6c1cd"/>
    <path d="M74.14 37a13 13 0 1 1 12.928-13.07V24a12.986 12.986 0 0 1-12.93 13zm0-25.4A12.337 12.337 0 1 0 86.407 24v-.07a12.322 12.322 0 0 0-12.27-12.33z" fill="#b6c1cd"/>
    <path fill="#b6c1cd" d="M43.192 84.5l25.752-18.047.432.617-25.752 18.048z"/>
    <path fill="#b6c1cd" d="M67.264 66.058l41.78-23.757.374.656-41.78 23.757z"/>
    <path fill="#b6c1cc" d="M69.117 67.584l.713-.23 10.635 32.875-.713.23z"/>
    <path fill="#b6c1cc" d="M67.29 66.85l.064-.747 45.607 3.84-.062.746z"/>
    <ellipse cx="32.864" cy="94.545" rx="11.754" ry="11.818" fill="#fec45d"/>
    <path d="M41.024 44.337a7.98 7.98 0 1 1 7.936-8.022v.043a7.96 7.96 0 0 1-7.936 7.98zm0-15.13a7.226 7.226 0 1 0 7.187 7.265v-.04a7.307 7.307 0 0 0-7.186-7.225z" fill="#b6c1cc"/>
    <path d="M13.25 77.382a2.032 2.032 0 1 1 2.02-2.043v.01a2.018 2.018 0 0 1-2 2.032h-.02zm0-3.387a1.28 1.28 0 1 0 1.244 1.244 1.28 1.28 0 0 0-1.244-1.245z" fill="#b6c1cc"/>
    <path d="M116.112 95.3a2.032 2.032 0 1 1 2.02-2.043v.01a2.018 2.018 0 0 1-2 2.033h-.016zm0-3.312a1.265 1.265 0 0 0-1.273 1.257v.023a1.273 1.273 0 0 0 2.544.07v-.07a1.265 1.265 0 0 0-1.25-1.28h-.022z" fill="#b6c1cc"/>
    <path d="M16.768 52.015a4.366 4.366 0 1 1 4.342-4.39v.024a4.357 4.357 0 0 1-4.342 4.365zm0-7.98a3.613 3.613 0 1 0 3.593 3.634v-.02a3.557 3.557 0 0 0-3.5-3.614h-.092z" fill="#b6c1cc"/>
    <path d="M112.22 44.788a4.366 4.366 0 1 1 4.34-4.39v.024a4.357 4.357 0 0 1-4.34 4.366zm0-7.98a3.613 3.613 0 1 0 3.592 3.634v-.02a3.654 3.654 0 0 0-3.593-3.613z" fill="#b6c1cc"/>
    <path fill="#b6c1cd" d="M45.988 41.775l.515-.544 6.175 5.85-.515.544z"/>
    <path fill="#b6c1cd" d="M71.758 43.827l.653-7.158.75.068-.652 7.157z"/>
    <g fill="#484f59">
        <path d="M40.65 34.175h.75v4.516h-.75z"/>
        <path d="M38.778 35.98h4.492v.754h-4.492z"/>
        <path d="M41.024 42.907a6.44 6.44 0 0 1-4.567-1.882 6.57 6.57 0 0 1 0-9.184 6.476 6.476 0 1 1 9.133 9.185 6.57 6.57 0 0 1-4.567 1.882zm0-12.27a5.77 5.77 0 0 0-4.043 1.656 5.84 5.84 0 0 0 0 8.13 5.733 5.733 0 0 0 8.086-8.13 5.9 5.9 0 0 0-4.043-1.656z"/>
    </g>
    <g fill="#484f59">
        <path d="M29.72 58.79h.75v4.44h-.75z"/>
        <path d="M27.848 60.596h4.492v.753h-4.492z"/>
    </g>
    <g fill="#484f59">
        <path d="M66.627 108.245h.75v4.44h-.75z"/>
        <path d="M64.756 110.127h4.417v.753h-4.417z"/>
    </g>
    <path d="M55.4 51.714A19.906 19.906 0 1 0 83.182 80.23q.184-.18.363-.364a19.986 19.986 0 0 0-14.074-34.024A19.34 19.34 0 0 0 55.4 51.714z" fill="#22d0a9"/>
    <path d="M76.15 85.877s-.288-.143-.62-.268a15 15 0 0 1-1.028-.422 1.11 1.11 0 0 1-.64-1.07c-.18-.786-.348-2.446-.415-3.17h-8.3c-.068.724-.236 2.384-.415 3.17a1.108 1.108 0 0 1-.64 1.07c-.247.12-.667.283-1.018.416-.336.127-.61.225-.61.225s-.265.148.162.17H75.97c.4.007.18-.123.18-.123" fill="#eaedf0"/>
    <path d="M86.69 48.326a24.517 24.517 0 1 0-17.218 42A24.1 24.1 0 0 0 86.766 83.1a24.72 24.72 0 0 0-.075-34.777zm-3.218 31.54A19.465 19.465 0 0 1 69.4 85.738a19.992 19.992 0 1 1 14.073-5.87z" fill="#30363d"/>
    <path d="M60.414 81.523a19.338 19.338 0 0 1 0-27.25 18.79 18.79 0 0 1 13.55-5.645 18.475 18.475 0 0 1 5.764.9 19.057 19.057 0 0 0-10.33-3.008 19.223 19.223 0 0 0-19.166 19.27 19.442 19.442 0 0 0 5.615 13.625 18.655 18.655 0 0 0 7.786 4.742 22.336 22.336 0 0 1-3.22-2.635z" fill="#fff" opacity=".2" style="isolation:isolate"/>
    <path d="M69.4 86.867a21.152 21.152 0 0 1 0-42.3V42.53h-.078A22.823 22.823 0 0 0 53 49.38a23.234 23.234 0 0 0 16.32 39.6l.08-2.108z" fill="#474f59"/>
    <path d="M60.414 81.523a19.338 19.338 0 0 1 0-27.25 18.79 18.79 0 0 1 13.55-5.645 18.475 18.475 0 0 1 5.764.9 19.057 19.057 0 0 0-10.33-3.008 19.223 19.223 0 0 0-19.166 19.27 19.442 19.442 0 0 0 5.615 13.625 18.655 18.655 0 0 0 7.786 4.742 22.336 22.336 0 0 1-3.22-2.635z" fill="#fff" opacity=".2" style="isolation:isolate"/>
    <ellipse cx="116.722" cy="70.457" rx="12.278" ry="12.345" fill="#f4da80"/>
    <circle cx="80.4" cy="104" r="10" fill="#ff876c"/>
    <circle cx="74.4" cy="24" r="10" fill="#ff876c"/>
    <path fill="#8b572a" d="M66.4 19h16v15h-16z"/>
    <path d="M68.124 30.164A1.313 1.313 0 0 1 69.357 28h10.518c1.375 0 1.806.882.96 1.976l-.813 1.048A5.76 5.76 0 0 1 75.992 33h-3.72a4.8 4.8 0 0 1-3.757-2.164z" fill="#452d17"/>
    <path d="M67.924 29a.525.525 0 0 1-.524-.526v-8.858a.525.525 0 0 1 .523-.527H80.75a.525.525 0 0 1 .525.525v8.857a.525.525 0 0 1-.523.527H67.924" fill="#d6dddf"/>
    <path d="M67.48 19.616a.446.446 0 0 1 .444-.447H80.75a.446.446 0 0 1 .446.446v8.857a.446.446 0 0 1-.445.447H67.925a.446.446 0 0 1-.444-.447v-8.857" fill="#eaedf0"/>
    <path d="M80.656 24.133a.09.09 0 1 1 .088-.09.09.09 0 0 1-.088.09" fill="#6c7686"/>
    <path d="M67.974 24.507a.1.1 0 0 1-.1-.1v-.726a.1.1 0 0 1 .1-.1h.2a.1.1 0 0 1 .1.1v.728a.1.1 0 0 1-.1.1h-.2" fill="#d6dddf"/>
    <path d="M68.7 28.482v-8.764l11.432-.01v8.763l-11.432.01" fill="#01bacc"/>
    <path d="M68.73 24.248v-2.26l3.615-2.248h3.63l-7.245 4.508" fill="#fff" fill-opacity=".2"/>
    <path d="M68.73 25.5v-.86l7.877-4.9h1.38L68.73 25.5" fill="#fff" fill-opacity=".2"/>
    <g>
        <ellipse cx="74.395" cy="20.162" rx="2.995" ry="3.011" fill="#f4da80"/>
        <ellipse cx="74.395" cy="20.162" rx="2.92" ry="2.936" fill="#f0ca67"/>
        <ellipse cx="74.395" cy="20.162" rx="2.321" ry="2.334" fill="#f4da80"/>
        <path d="M74.245 21.516a1.06 1.06 0 0 1-.45-.15 1.034 1.034 0 0 1-.3-.227l.076-.152h.23l.074.075c.075 0 .075.075.15.075s.15.075.225.075l.074-.98c-.075 0-.15-.074-.225-.074a.69.69 0 0 1-.375-.377.365.365 0 0 1-.075-.3.572.572 0 0 1 .075-.3.69.69 0 0 1 .374-.376.56.56 0 0 1 .373-.075v-.377h.226v.376c.15 0 .224.076.373.076a.4.4 0 0 0 .225.15l-.075.152a.073.073 0 0 1-.07.075h-.085a.073.073 0 0 1-.075-.07.26.26 0 0 0-.15-.076.15.15 0 0 1-.15-.075l-.075.9a1.69 1.69 0 0 0 .3.075.69.69 0 0 1 .374.376.643.643 0 0 1 0 .6c-.075.075-.075.226-.15.3a.388.388 0 0 1-.3.15.558.558 0 0 1-.374.076v.45h-.223v-.374zm-.3-2.108v.15c0 .076.075.076.075.152.075 0 .075.075.15.075s.075.075.15.075l.075-.828a.274.274 0 0 0-.225.075c-.075 0-.075.075-.15.075s-.075.075-.075.15v.076zm1.048 1.28v-.15c0-.075-.075-.075-.075-.15-.075 0-.075-.076-.15-.076s-.075-.075-.15-.075l-.075.98a.274.274 0 0 0 .225-.076.26.26 0 0 0 .15-.074.15.15 0 0 0 .075-.15v-.228z" fill="#f0ca67"/>
    </g>
    <g>
        <path d="M79.86 21.742l-1.572-.527-1.5-.527.45 1.58.523 1.582.525-1.13.823.83.524-.453-.823-.828z" fill="#30363d"/>
        <path d="M78.287 21.215l-1.5-.527v.075l2.545 2.56.3-.227-.823-.828 1.047-.527z" fill="#484f59"/>
        <g fill="#f7f8fc">
            <path d="M76.416 20.086c-.075 0-.075-.075 0 0l-.075-.98c0-.074 0-.074.076-.074s.075 0 .075.075l-.074.98z"/>
            <path d="M75.892 20.312l-.823-.452s-.076-.075 0-.075c0 0 .074-.075.074 0l.823.452-.075.075z"/>
            <path d="M75.143 21.29c-.075-.074-.075-.15 0-.15l.823-.452h.075v.075l-.9.527z"/>
            <path d="M76.416 22.043l-.075-.98c0-.074 0-.074.076-.074s.075 0 .075.074l-.074.98z"/>
            <path d="M76.865 20.312c-.075-.075-.075-.15 0-.15l.823-.453h.075v.074l-.9.527z"/>
        </g>
    </g>
    <g>
        <path d="M37.13 102.75a1.155 1.155 0 0 1-1.122 1.13h-6.663a1.155 1.155 0 0 1-1.123-1.13V86.867a1.155 1.155 0 0 1 1.123-1.13h6.663a1.155 1.155 0 0 1 1.123 1.13v15.883z" fill="#474f59"/>
        <path d="M29.5 103.653a1.155 1.155 0 0 1-1.124-1.13V87.02a1.155 1.155 0 0 1 1.123-1.13h6.29a1.155 1.155 0 0 1 1.122 1.13v15.506a1.155 1.155 0 0 1-1.123 1.13H29.5z" fill="#30363d"/>
        <g fill="#596273">
            <circle cx="31.442" cy="86.867" r=".15"/>
            <circle cx="32.639" cy="86.34" r=".075"/>
            <path d="M33.238 86.867l-1.123.075c-.075 0-.075 0-.075-.075s0-.075.075-.075l1.123.075z"/>
        </g>
        <path d="M33.313 102.9a.16.16 0 0 1-.15.15h-.973a.16.16 0 0 1-.15-.15v-.226a.16.16 0 0 1 .15-.15h.973a.16.16 0 0 1 .15.15v.226z" fill="#596273"/>
        <path d="M28.372 88.6h-.15v-.68h.15v.68z" fill="#30363d"/>
        <path d="M28.372 90.4h-.15v-1.2h.15v1.2z" fill="#30363d"/>
        <path d="M28.372 91.76h-.15v-1.13h.15v1.13z" fill="#30363d"/>
        <path fill="#01bacc" d="M28.747 87.846h7.786v13.926h-7.786z"/>
        <path d="M28.746 92.287V96.8l5.54-8.958h-2.77z" fill="#01c6da"/>
        <path d="M28.746 99.287l7.037-11.442h-1.047l-5.99 9.71v1.73z" fill="#01c6da"/>
        <g>
            <ellipse cx="32.639" cy="94.244" rx="2.995" ry="3.011" fill="#f4da80"/>
            <ellipse cx="32.639" cy="94.244" rx="2.92" ry="2.936" fill="#f0ca67"/>
            <ellipse cx="32.639" cy="94.244" rx="2.321" ry="2.334" fill="#f4da80"/>
            <path d="M32.49 95.6a1.06 1.06 0 0 1-.45-.15 1.034 1.034 0 0 1-.3-.227l.076-.15h.224l.075.074c.075 0 .075.075.15.075s.15.075.225.075l.075-.98c-.075 0-.15-.074-.225-.074a.69.69 0 0 1-.374-.376.365.365 0 0 1-.075-.3.572.572 0 0 1 .076-.3.69.69 0 0 1 .374-.376.56.56 0 0 1 .374-.074v-.38h.225v.377c.15 0 .224.075.373.075a.4.4 0 0 0 .225.15l-.075.152a.073.073 0 0 1-.07.075h-.08a.073.073 0 0 1-.075-.07.26.26 0 0 0-.15-.076.15.15 0 0 1-.15-.076l-.075.9a1.69 1.69 0 0 0 .3.075.69.69 0 0 1 .374.375.643.643 0 0 1 0 .6c-.075.075-.075.226-.15.3a.388.388 0 0 1-.3.15.558.558 0 0 1-.374.076v.453h-.223V95.6zm-.3-2.108v.15c0 .076.075.076.075.152.075 0 .075.075.15.075s.075.074.15.074l.075-.828a.274.274 0 0 0-.225.075c-.075 0-.075.076-.15.076s-.075.075-.075.15v.076zm1.048 1.28v-.152c0-.075-.075-.075-.075-.15-.075 0-.075-.076-.15-.076s-.075-.075-.15-.075l-.075.978a.274.274 0 0 0 .225-.075.26.26 0 0 0 .15-.075.15.15 0 0 0 .075-.148v-.23z" fill="#f0ca67"/>
        </g>
        <g>
            <path d="M38.03 95.825l-1.5-.527-1.572-.527.524 1.582.524 1.58.526-1.132.823.828.444-.448-.824-.828z" fill="#30363d"/>
            <path d="M36.532 95.3l-1.572-.527v.075l2.62 2.56.22-.228-.823-.828 1.048-.527z" fill="#484f59"/>
            <g fill="#f7f8fc">
                <path d="M34.586 94.17l-.075-.98c0-.075 0-.075.076-.075s.075 0 .075.075l-.074.98c.075-.076.075 0 0 0z"/>
                <path d="M34.137 94.394l-.823-.452s-.075-.075 0-.075c0 0 .075-.075.075 0l.822.452-.075.074z"/>
                <path d="M33.313 95.373c-.075-.075-.075-.15 0-.15l.823-.453h.075v.075l-.9.527z"/>
                <path d="M34.586 96.126l-.075-.98c0-.074 0-.074.076-.074s.075 0 .075.075l-.074.98z"/>
                <path d="M35.035 94.394c-.075-.075-.075-.15 0-.15l.823-.453h.075v.076l-.9.527z"/>
            </g>
        </g>
    </g>
    <g>
        <path d="M126.38 75.35V64.36a.513.513 0 0 0-.5-.527h-17.693a.513.513 0 0 0-.524.5V75.35h18.716z" fill="#30363d"/>
        <path d="M107.59 75.35v1.58a.513.513 0 0 0 .5.528h17.69a.513.513 0 0 0 .525-.5V75.35H107.59z" fill="#e5e8ec"/>
        <path d="M120.24 79.866l-.3-.15a2.487 2.487 0 0 1-.45-.227c-.224-.076-.224-.152-.3-.528s-.15-1.13-.224-1.5h-3.893a5.242 5.242 0 0 1-.225 1.5.542.542 0 0 1-.3.527l-.45.225a.743.743 0 0 1-.3.075s-.15.075.076.075h6.29c.15.075.074 0 .074 0z" fill="#e5e8ec"/>
        <path d="M118.968 77.91a.96.96 0 0 0-.075-.453H115a1.33 1.33 0 0 1-.076.452h4.043z" fill="#cdd5d7"/>
        <path d="M110.957 75.35h3.893l7.187-11.442h-3.968z" fill="#484f59"/>
        <path d="M115.973 75.35h1.426l7.11-11.442h-1.42z" fill="#484f59"/>
        <path fill="#f7f8fc" d="M108.487 64.812h16.994v9.635h-16.993z"/>
        <path d="M111.556 74.37h3.893l5.988-9.56h-3.893z" fill="#fff"/>
        <path d="M118 74.37l5.988-9.56h-1.422l-5.99 9.56H118z" fill="#fff"/>
        <g>
            <ellipse cx="116.947" cy="69.403" rx="2.995" ry="3.011" fill="#f4da80"/>
            <ellipse cx="116.947" cy="69.403" rx="2.92" ry="2.936" fill="#f0ca67"/>
            <ellipse cx="116.947" cy="69.403" rx="2.321" ry="2.334" fill="#f4da80"/>
            <path d="M116.8 70.758a1.06 1.06 0 0 1-.45-.15 1.034 1.034 0 0 1-.3-.227l.075-.15h.225l.075.075c.075 0 .075.075.15.075s.15.075.225.075l.075-.98c-.075 0-.15-.074-.225-.074a.69.69 0 0 1-.374-.375.365.365 0 0 1-.075-.3.572.572 0 0 1 .076-.3.69.69 0 0 1 .374-.376.56.56 0 0 1 .374-.076V67.6h.225v.376c.15 0 .224.075.373.075a.4.4 0 0 0 .225.152l-.075.15a.073.073 0 0 1-.07.076h-.084a.073.073 0 0 1-.076-.07.26.26 0 0 0-.15-.076.15.15 0 0 1-.15-.075l-.075.9a1.69 1.69 0 0 0 .3.075.69.69 0 0 1 .373.376.643.643 0 0 1 0 .6c-.075.075-.075.226-.15.3a.388.388 0 0 1-.3.15.558.558 0 0 1-.374.076v.452h-.22v-.378zm-.3-2.108v.15c0 .075.074.075.074.15.075 0 .075.076.15.076s.075.075.15.075l.075-.827a.274.274 0 0 0-.226.075c-.075 0-.075.075-.15.075s-.075.075-.075.15v.076zm1.047 1.28v-.15c0-.075-.075-.075-.075-.15-.075 0-.075-.076-.15-.076s-.075-.075-.15-.075l-.075.978a.274.274 0 0 0 .225-.075.26.26 0 0 0 .15-.075.15.15 0 0 0 .075-.15v-.228z" fill="#f0ca67"/>
        </g>
        <g>
            <path d="M122.41 70.984l-1.57-.527-1.5-.527.448 1.58.524 1.582.524-1.13.823.83.523-.453-.823-.83z" fill="#30363d"/>
            <path d="M120.84 70.457l-1.5-.527V70l2.544 2.56.3-.227-.823-.828 1.05-.527z" fill="#484f59"/>
            <g fill="#f7f8fc">
                <path d="M118.968 69.328c-.075 0-.075-.075 0 0l-.075-.98c0-.074 0-.074.075-.074s.075 0 .075.075l-.075.978z"/>
                <path d="M118.444 69.554l-.824-.454s-.075-.075 0-.075c0 0 .075-.075.075 0l.823.452-.075.075z"/>
                <path d="M117.7 70.532c-.076-.075-.076-.15 0-.15l.822-.453h.077V70l-.9.527z"/>
                <path d="M118.968 71.285l-.075-.98c0-.074 0-.074.075-.074s.075 0 .075.076l-.075.98z"/>
                <path d="M119.417 69.554c-.075-.075-.075-.15 0-.15l.823-.453h.075v.076l-.9.527z"/>
            </g>
        </g>
    </g>
    <g>
        <path d="M84.8 110.82a.49.49 0 0 1-.5.537H76a.49.49 0 0 1-.5-.536V97.858a.49.49 0 0 1 .5-.536h8.3a.49.49 0 0 1 .5.537v12.964z" fill="#596273"/>
        <path d="M76 111.25a.446.446 0 0 1-.4-.43V97.858a.446.446 0 0 1 .4-.43h8.3a.446.446 0 0 1 .4.43v12.964a.446.446 0 0 1-.4.43H76z" fill="#30363d"/>
        <ellipse cx="80.1" cy="97.964" rx=".1" ry=".107" fill="#596273"/>
        <path d="M80.6 110.714c0 .107-.1.107 0 0l-.8.107c-.1 0-.1 0-.1-.106v-.214c0-.107 0-.107.1-.107h.7c.1 0 .1 0 .1.107v.214z" fill="#596273"/>
        <path fill="#01bacc" d="M76.1 98.5h8.1v11.57h-8.1z"/>
        <g fill="#01c6da">
            <path d="M76.1 102.143v3.643l4.2-7.286h-2.1z"/>
            <path d="M76.1 107.82l5.4-9.32h-.8l-4.6 7.93v1.392z"/>
        </g>
        <g>
            <ellipse cx="80.4" cy="104.179" rx="2.6" ry="2.786" fill="#f4da80"/>
            <ellipse cx="80.4" cy="104.179" rx="2.5" ry="2.679" fill="#f0ca67"/>
            <ellipse cx="80.4" cy="104.179" rx="2" ry="2.143" fill="#f4da80"/>
            <path d="M80.3 105.464a.57.57 0 0 1-.4-.107c-.1-.107-.2-.107-.3-.214l.1-.107h.1a.1.1 0 0 1 .1.1v.007l.1.107h.2l.1-.964a.2.2 0 0 1-.2-.107c-.1 0-.1-.108-.2-.108s-.1-.107-.1-.214-.1-.214-.1-.32v-.215c0-.107.1-.107.1-.214a.2.2 0 0 1 .2-.11c.1 0 .2-.107.3-.107v-.32h.2v.32a.352.352 0 0 1 .3.107.223.223 0 0 1 .2.214l-.1.107h-.3a.1.1 0 0 1-.1-.1v-.006h-.1l-.1.857a.343.343 0 0 1 .2.108c.1 0 .1.107.2.107s.1.107.1.214.1.213.1.32v.32a.383.383 0 0 1-.1.215l-.2.214c-.1 0-.2.106-.3.106v.424h-.2l.2-.643zm-.3-1.93v.108a.1.1 0 0 0 .092.107h.007l.1.106a.1.1 0 0 1 .1.1v-.743h-.2c-.1 0-.1 0-.1.107l-.1.107a.1.1 0 0 1 .1.1v.007zm.9 1.18v-.107a.1.1 0 0 0-.094-.107H80.8l-.1-.107a.1.1 0 0 1-.1-.1v-.007l-.1.857h.2a.1.1 0 0 0 .1-.1v-.007l.1-.107v-.215z" fill="#f0ca67"/>
        </g>
        <g>
            <path d="M85.7 106.32l-1.3-.428-1.3-.536.4 1.5.4 1.393.5-.965.7.75.4-.43-.7-.75z" fill="#30363d"/>
            <path d="M84.4 105.893l-1.3-.536v.107l2.2 2.357.2-.213-.7-.75.9-.536z" fill="#484f59"/>
            <g fill="#f7f8fc">
                <path d="M82.7 104.82l-.1-.963a.1.1 0 0 1 .092-.107h.007a.1.1 0 0 1 .1.1v.007l-.1.964c.1-.106.1 0 0 0z"/>
                <path d="M82.3 105.036l-.7-.43v-.106h.1l.7.43-.1.106z"/>
                <path d="M81.6 106c-.1-.107-.1-.107 0-.107l.7-.43h.1v.108l-.8.43z"/>
                <path d="M82.7 106.643l-.1-.964a.1.1 0 0 1 .092-.108h.007a.1.1 0 0 1 .1.1v.007l-.1.963z"/>
                <path d="M83.1 105.036c-.1-.107-.1-.107 0-.107l.7-.43h.1v.107l-.8.43z"/>
            </g>
        </g>
    </g>
    <g>
        <path d="M89.115 76.393V53.257a1.09 1.09 0 0 0-1.086-1.09H50.563a1.09 1.09 0 0 0-1.086 1.09v23.136h39.637" fill="#3f464e"/>
        <path d="M49.4 76.437v3.345a1.166 1.166 0 0 0 1.163 1.167H88.03a1.166 1.166 0 0 0 1.163-1.168v-3.345H49.4" fill="#eaedf0"/>
        <path d="M73.534 81.823a72.84 72.84 0 0 1-.088-.873h-8.3c-.02.22-.05.53-.088.873h8.477" fill="#d6dddf"/>
        <path d="M51.32 54.035h35.952v20.3H51.32v-20.3z" fill="#eaedf0"/>
        <path d="M66.126 74.337h-8.25l12.638-20.3h8.25l-12.64 20.3" fill="#ebeef1"/>
        <path d="M71.5 74.337h-3.017l12.637-20.3h3.012L71.5 74.337" fill="#ebeef1"/>
        <path d="M62.94 62.563h.153c.028-.164-.16-.137-.152 0" fill="#d6dddf"/>
        <path d="M62.94 62.563h.153c.028-.164-.16-.137-.152 0" fill="#eaedf0"/>
        <path d="M55.045 54H82.13v20.4H55.046V54z" fill="#eaedf0"/>
        <path d="M51.4 54h35.87v1.95H51.4V54z" fill="#d6dddf"/>
        <path d="M70.632 54.49H86.7v.975H70.63v-.975z" fill="#fff"/>
        <path d="M56.47 54.977a.39.39 0 1 1-.39-.39.39.39 0 0 1 .39.39" fill="#535b66"/>
        <path d="M53.892 54.977a.39.39 0 1 1-.39-.39.39.39 0 0 1 .39.39" fill="#ff9b7f"/>
        <path d="M55.138 54.963a.39.39 0 1 1-.39-.39.39.39 0 0 1 .39.39" fill="#00c5d6"/>
        <path d="M56.84 58.222h9.01v9.037h-9.01V58.22z" fill="#00cfe1"/>
        <path d="M58.36 68.694h3.44v3.453h-3.44v-3.453z" fill="#c4cacb"/>
        <path d="M62.613 68.694h3.443v3.453h-3.443v-3.453z" fill="#c4cacb"/>
        <path d="M66.866 68.694h3.443v3.453h-3.444v-3.453z" fill="#c4cacb"/>
        <path d="M71.12 68.694h3.443v3.453H71.12v-3.453z" fill="#c4cacb"/>
        <path d="M75.373 68.694h3.444v3.453h-3.444v-3.453z" fill="#c4cacb"/>
        <path d="M67.31 58.222h8.06v.8h-8.06v-.8z" fill="#ff9b7f"/>
        <path d="M67.31 60.3h12.535v.8H67.31v-.8z" fill="#c4cacb"/>
        <path d="M67.31 61.73h12.535v.8H67.31v-.8z" fill="#c4cacb"/>
        <path d="M67.31 63.166h8.954v.8H67.31v-.8z" fill="#c4cacb"/>
        <path d="M67.31 64.907h6.52v2.232h-6.52v-2.233z" fill="#ff9b7f"/>
        <path d="M68.5 65.774h4.133v.5H68.5v-.5z" fill="#f9fafd"/>
        <path d="M56.84 70.42l.29-.28.288-.278v1.116l-.29-.278-.288-.28" fill="#a7a7a7"/>
        <path d="M80.426 70.42l-.29.28-.288.28V69.86l.29.28.288.278" fill="#a7a7a7"/>
    </g>
</svg>
