<svg width="247" height="31" viewBox="0 0 247 31" xmlns="http://www.w3.org/2000/svg" xmlns:xlink="http://www.w3.org/1999/xlink">
    <title>
        Group
    </title>
    <defs>
        <rect id="a" width="50" height="30" rx="2"/>
        <path id="b" d="M12.058 30H48c1.105 0 2-.904 2-1.997V16.85S36.6 25.933 12.058 30z"/>
    </defs>
    <g fill="none" fill-rule="evenodd">
        <g transform="translate(197)">
            <use fill="#FFF" xlink:href="#a"/>
            <use fill="#E7772F" xlink:href="#b"/>
        </g>
        <path d="M206.144 14.91c-.375.322-.853.462-1.617.462h-.317v-3.83h.317c.764 0 1.224.13 1.617.468.407.348.65.885.65 1.44 0 .56-.243 1.115-.65 1.46zm-1.38-4.35h-1.735v5.794h1.723c.918 0 1.58-.21 2.16-.67a2.86 2.86 0 0 0 1.1-2.225c0-1.71-1.336-2.9-3.25-2.9z" fill="#1A1918"/>
        <path d="M208.557 10.56h1.176v5.794h-1.176V10.56z" fill="#1A1918"/>
        <path d="M212.622 12.78c-.71-.248-.917-.414-.917-.727 0-.364.37-.64.88-.64.354 0 .645.136.955.466l.615-.772a2.705 2.705 0 0 0-1.777-.643c-1.072 0-1.888.713-1.888 1.656 0 .802.38 1.208 1.487 1.594.463.154.7.26.818.33.236.146.353.355.353.597 0 .472-.39.82-.917.82-.56 0-1.015-.27-1.287-.775l-.76.705c.543.763 1.195 1.104 2.094 1.104 1.225 0 2.09-.785 2.09-1.904 0-.92-.402-1.34-1.745-1.81" fill="#1A1918"/>
        <path d="M214.737 13.46c0 1.702 1.397 3.022 3.196 3.022.507 0 .942-.095 1.477-.337v-1.33c-.473.454-.888.633-1.426.633-1.188 0-2.03-.823-2.03-1.997 0-1.11.87-1.988 1.98-1.988.56 0 .986.19 1.476.652v-1.33c-.517-.25-.942-.354-1.453-.354-1.79 0-3.22 1.346-3.22 3.03" fill="#1A1918"/>
        <path d="M228.974 14.45l-1.614-3.89h-1.287l2.566 5.94h.632l2.616-5.94h-1.277l-1.636 3.89" fill="#1A1918"/>
        <path d="M232.424 16.354h3.347v-.982h-2.165V13.81h2.084v-.983h-2.085v-1.285h2.166v-.98h-3.346v5.792" fill="#1A1918"/>
        <path d="M238.077 13.225h-.343v-1.752h.362c.738 0 1.133.296 1.133.86 0 .58-.396.892-1.153.892zm2.368-.955c0-1.084-.778-1.71-2.14-1.71h-1.754v5.794h1.184v-2.33h.154l1.63 2.33h1.453l-1.903-2.442c.89-.174 1.378-.755 1.378-1.642z" fill="#1A1918"/>
        <path d="M226.24 13.472c0 1.668-1.413 3.02-3.156 3.02s-3.156-1.352-3.156-3.02c0-1.667 1.413-3.02 3.156-3.02s3.155 1.353 3.155 3.02" fill="#E7772F"/>
        <g transform="translate(147)">
            <rect fill="#FFF" width="50" height="30" rx="2"/>
            <path d="M42.204 17.333h-1.767c-.176 0-.293.006-.392.073-.102.065-.142.163-.142.29 0 .153.087.257.212.302.102.035.212.046.374.046l.524.014c.53.013.884.104 1.1.325.04.03.063.066.09.1v-1.15zm0 2.666c-.236.342-.695.516-1.316.516h-1.87v-.867h1.863c.186 0 .315-.025.393-.1a.355.355 0 0 0 .115-.265.332.332 0 0 0-.12-.267c-.07-.062-.17-.09-.34-.09-.91-.03-2.046.028-2.046-1.252 0-.586.374-1.204 1.39-1.204h1.932v-.804H40.41c-.542 0-.935.13-1.213.33v-.33h-2.654c-.424 0-.922.105-1.157.33v-.33h-4.74v.33c-.376-.27-1.012-.33-1.306-.33h-3.125v.33c-.298-.288-.962-.33-1.366-.33h-3.5l-.8.863-.75-.862h-5.223v5.642h5.126l.825-.877.777.877 3.16.003v-1.327h.31c.42.006.914-.01 1.35-.2v1.524h2.607v-1.47h.126c.16 0 .176.006.176.166v1.304h7.918c.502 0 1.028-.128 1.32-.36v.36h2.51c.523 0 1.033-.073 1.422-.26V20zm-3.867-1.617c.19.195.29.44.29.857 0 .87-.545 1.276-1.522 1.276h-1.888v-.867h1.88c.184 0 .314-.025.396-.1a.358.358 0 0 0 .114-.265.347.347 0 0 0-.118-.267c-.075-.062-.177-.09-.346-.09-.906-.03-2.042.028-2.042-1.252 0-.586.37-1.204 1.386-1.204h1.943v.86h-1.777c-.176 0-.29.008-.388.074-.106.066-.146.163-.146.29 0 .154.09.257.21.302.104.036.214.046.38.046l.52.014c.527.013.888.104 1.107.325zm-8.746-.25c-.128.077-.29.084-.477.084h-1.178v-.908h1.194c.17 0 .344.002.46.072.127.065.202.19.202.363a.436.436 0 0 1-.2.39zm.587.504c.215.08.392.222.474.34.138.197.158.38.162.737v.802h-.973v-.506c0-.243.022-.603-.158-.79-.14-.146-.357-.18-.71-.18h-1.037v1.476h-.974v-4.044h2.24c.49 0 .847.022 1.165.19.306.185.5.438.5.9-.002.645-.433.974-.688 1.075zm1.224-2.165h3.236v.837h-2.27v.734h2.215v.825h-2.214v.803l2.27.004v.84H31.4V16.47zm-6.54 1.866h-1.25v-1.03h1.263c.35 0 .593.143.593.496 0 .35-.232.534-.605.534zm-2.216 1.81l-1.49-1.647 1.49-1.594v3.242zm-3.844-.475h-2.383v-.804h2.128v-.826h-2.128v-.735h2.43l1.06 1.177-1.107 1.186zm7.706-1.87c0 1.125-.84 1.357-1.688 1.357h-1.21v1.356h-1.883l-1.194-1.34-1.24 1.34h-3.838v-4.044h3.898l1.193 1.326 1.233-1.326h3.097c.77 0 1.633.213 1.633 1.332z" fill="#0072CE"/>
            <path d="M10.827 11.812l-.663-1.612-.66 1.612h1.323zm14.615-.642c-.133.08-.29.084-.48.084h-1.177v-.898h1.194c.168 0 .344.007.458.073.126.057.204.183.204.356 0 .177-.074.32-.2.384zm8.4.642l-.67-1.612-.668 1.612h1.338zm-15.658 1.745h-.994l-.003-3.167-1.406 3.167h-.85l-1.41-3.17v3.17h-1.97l-.373-.902H9.16l-.377.902H7.73l1.736-4.043h1.44l1.65 3.828V9.514h1.58l1.27 2.742 1.164-2.742h1.614v4.043zm3.96 0h-3.238V9.514h3.238v.842h-2.268v.728h2.214v.83h-2.214v.806h2.268v.837zm4.566-2.954c0 .644-.432.977-.683 1.077.212.08.393.223.48.34.136.202.16.38.16.742v.795h-.978l-.005-.51c0-.243.024-.593-.153-.788-.14-.143-.357-.174-.706-.174h-1.04v1.47h-.97V9.515h2.23c.495 0 .86.013 1.173.193.306.18.49.445.49.896zm1.55 2.954h-.988V9.514h.99v4.043zm11.474 0H38.36l-1.836-3.035v3.035H34.55l-.377-.902H32.16l-.367.902H30.66c-.472 0-1.07-.104-1.406-.448-.34-.344-.518-.81-.518-1.544 0-.6.106-1.148.522-1.58.314-.323.804-.472 1.472-.472h.94v.866h-.92c-.354 0-.554.052-.746.24-.165.17-.28.492-.28.915 0 .433.088.746.268.95.15.16.42.208.675.208h.436l1.366-3.18h1.45l1.642 3.825V9.514h1.476l1.704 2.816V9.514h.992v4.043zM7.72 14.35h1.655l.374-.897h.835l.372.898h3.258v-.686l.29.69H16.2l.29-.7v.697h8.1l-.005-1.473h.156c.11.003.14.014.14.194v1.28h4.19v-.342c.337.18.863.343 1.554.343h1.762l.377-.897h.836l.368.898h3.395V13.5l.515.853h2.72V8.713h-2.692v.666l-.377-.666h-2.764v.666l-.347-.666h-3.733c-.625 0-1.174.087-1.618.33v-.33h-2.576v.33c-.282-.25-.667-.33-1.095-.33h-9.41l-.632 1.456-.648-1.456h-2.964v.666l-.326-.666H8.893l-1.174 2.68v2.96z" fill="#0072CE"/>
        </g>
        <g transform="translate(97)">
            <rect fill="#FFF" width="50" height="30" rx="2"/>
            <path d="M28.064 15.243c0 5.39-4.368 9.757-9.757 9.757-5.39 0-9.758-4.368-9.758-9.757 0-5.39 4.368-9.758 9.757-9.758 5.39 0 9.757 4.37 9.757 9.758" fill="#C00"/>
            <path d="M31.407 5.485a9.723 9.723 0 0 0-7.536 3.56h1.973c.27.327.517.67.744 1.032h-3.46a9.803 9.803 0 0 0-.562 1.034h4.584c.155.335.293.68.412 1.034h-5.41c-.113.336-.208.68-.283 1.032h5.975a9.83 9.83 0 0 1-.283 5.166h-5.41c.12.354.257.7.413 1.034h4.584c-.17.356-.356.7-.564 1.033h-3.46c.227.36.476.704.745 1.032h1.972a9.75 9.75 0 0 1-.985 1.033A9.722 9.722 0 0 0 31.407 25c5.39 0 9.757-4.368 9.757-9.757 0-5.39-4.368-9.758-9.757-9.758" fill="#F90"/>
            <path d="M16.028 16.31a1.822 1.822 0 0 0-.236-.016c-.6 0-.904.206-.904.613 0 .25.148.41.38.41.43 0 .742-.41.76-1.006zm.77 1.794h-.877l.02-.417c-.267.33-.624.487-1.11.487-.573 0-.967-.448-.967-1.1 0-.98.685-1.55 1.86-1.55.12 0 .274.01.432.03a.994.994 0 0 0 .04-.26c0-.268-.183-.368-.678-.368a3.532 3.532 0 0 0-1.12.182l.146-.905c.527-.156.875-.213 1.267-.213.91 0 1.392.408 1.39 1.18.003.207-.032.46-.085.797-.092.583-.29 1.833-.316 2.137z" fill="#006"/>
            <path d="M13.42 18.104h-1.06l.608-3.804-1.356 3.804h-.72l-.09-3.783-.638 3.784h-.992l.828-4.95h1.524l.092 2.77.93-2.77h1.693l-.82 4.95" fill="#006"/>
            <path d="M32.716 16.31a1.814 1.814 0 0 0-.236-.016c-.6 0-.904.206-.904.613 0 .25.147.41.38.41.43 0 .742-.41.76-1.006zm.77 1.794h-.877l.02-.417c-.27.33-.626.487-1.11.487-.575 0-.97-.448-.97-1.1 0-.98.686-1.55 1.86-1.55.12 0 .275.01.433.03a.988.988 0 0 0 .04-.26c0-.268-.183-.368-.678-.368a3.54 3.54 0 0 0-1.122.182c.012-.067.148-.905.148-.905.528-.156.877-.213 1.268-.213.91 0 1.392.408 1.39 1.18.002.207-.032.46-.085.797-.092.583-.29 1.833-.316 2.137z" fill="#006"/>
            <path d="M21.507 18.043c-.29.092-.516.13-.76.13-.543 0-.838-.31-.838-.883-.01-.178.076-.646.144-1.073.06-.376.46-2.747.46-2.747h1.052l-.123.61h.636l-.145.967h-.638c-.122.765-.296 1.72-.298 1.845 0 .208.11.298.36.298.122 0 .216-.012.287-.038l-.14.89" fill="#006"/>
            <path d="M24.735 18.01a3.58 3.58 0 0 1-1.08.164c-1.18-.002-1.794-.617-1.794-1.796 0-1.375.783-2.388 1.844-2.388.868 0 1.423.567 1.423 1.456 0 .295-.038.583-.13.99H22.9c-.07.584.303.827.916.827.376 0 .716-.078 1.094-.253l-.175 1zm-.592-2.385c.006-.084.112-.72-.49-.72-.335 0-.575.257-.673.72h1.163z" fill="#006"/>
            <path d="M17.434 15.352c0 .51.247.86.807 1.124.43.202.496.26.496.444 0 .25-.19.364-.608.364-.316 0-.61-.05-.95-.16l-.145.93c.24.053.456.102 1.103.12 1.117 0 1.633-.426 1.633-1.345 0-.554-.216-.88-.747-1.123-.444-.204-.495-.25-.495-.437 0-.218.176-.33.518-.33.208 0 .492.023.76.06l.152-.932a7.152 7.152 0 0 0-.932-.078c-1.185 0-1.596.618-1.592 1.362" fill="#006"/>
            <path d="M29.887 14.096c.294 0 .57.076.947.267l.173-1.074c-.156-.062-.702-.42-1.164-.42-.71 0-1.31.352-1.73.932-.615-.204-.868.208-1.178.618l-.275.064c.02-.135.04-.27.034-.405h-.973c-.132 1.246-.367 2.507-.552 3.754l-.048.27h1.06a68.74 68.74 0 0 0 .332-2.383l.4-.22c.06-.222.245-.297.62-.288a4.51 4.51 0 0 0-.076.825c0 1.317.712 2.137 1.852 2.137.294 0 .546-.04.936-.145l.186-1.13c-.35.174-.64.255-.9.255-.615 0-.988-.455-.988-1.206 0-1.09.554-1.854 1.345-1.854" fill="#006"/>
            <path d="M38.856 13.155l-.236 1.43c-.29-.38-.6-.657-1.01-.657-.535 0-1.022.405-1.34 1.002-.444-.092-.903-.25-.903-.25v.005a5.96 5.96 0 0 0 .047-.606h-.973c-.132 1.246-.367 2.507-.55 3.754l-.05.27h1.06c.143-.928.252-1.7.333-2.312.362-.328.544-.613.91-.594a3.45 3.45 0 0 0-.258 1.306c0 1.006.51 1.67 1.28 1.67.388 0 .686-.134.976-.444l-.05.374h1.003l.807-4.95h-1.044zm-1.325 4.02c-.36 0-.542-.268-.542-.794 0-.79.34-1.35.82-1.35.365 0 .563.276.563.787 0 .798-.346 1.358-.84 1.358z" fill="#006"/>
            <path d="M13.725 17.81h-1.06l.608-3.804-1.355 3.805h-.723l-.09-3.782-.637 3.783h-.99l.827-4.948h1.523l.043 3.063 1.03-3.063h1.644l-.82 4.95" fill="#FFF"/>
            <path d="M16.333 16.018a1.76 1.76 0 0 0-.236-.017c-.6 0-.904.207-.904.614 0 .25.148.41.38.41.43 0 .742-.41.76-1.006zm.77 1.793h-.877l.02-.416c-.268.33-.625.487-1.11.487-.574 0-.968-.448-.968-1.1 0-.98.685-1.55 1.86-1.55.12 0 .274.01.432.03a1 1 0 0 0 .04-.26c0-.267-.183-.366-.678-.366a3.52 3.52 0 0 0-1.122.18c.012-.067.147-.905.147-.905.528-.156.876-.214 1.268-.214.91 0 1.392.41 1.39 1.18.002.207-.032.463-.085.798-.092.582-.29 1.833-.316 2.137z" fill="#FFF"/>
            <path d="M31.312 12.995l-.174 1.074c-.378-.19-.652-.268-.946-.268-.79 0-1.346.764-1.346 1.855 0 .75.373 1.204.99 1.204.26 0 .548-.08.9-.252l-.187 1.127c-.39.107-.644.146-.937.146-1.14 0-1.85-.82-1.85-2.136 0-1.77.98-3.006 2.385-3.006.462 0 1.008.196 1.164.257" fill="#FFF"/>
            <path d="M33.02 16.018a1.748 1.748 0 0 0-.235-.017c-.6 0-.904.207-.904.614 0 .25.15.41.38.41.432 0 .743-.41.76-1.006zm.772 1.793h-.878l.02-.416c-.268.33-.625.487-1.11.487-.575 0-.968-.448-.968-1.1 0-.98.684-1.55 1.86-1.55.12 0 .274.01.43.03a.994.994 0 0 0 .043-.26c0-.267-.185-.366-.68-.366a3.52 3.52 0 0 0-1.122.18l.147-.905c.528-.156.876-.214 1.268-.214.91 0 1.392.41 1.39 1.18.003.207-.032.463-.085.798-.092.582-.29 1.833-.316 2.137z" fill="#FFF"/>
            <path d="M21.81 17.75c-.288.09-.515.13-.76.13-.54 0-.837-.31-.837-.883-.007-.18.078-.646.146-1.073.06-.377.458-2.747.458-2.747h1.053l-.122.61h.54l-.144.966h-.542c-.122.766-.297 1.72-.3 1.846 0 .207.112.297.364.297.12 0 .214-.012.286-.038l-.14.89" fill="#FFF"/>
            <path d="M25.04 17.718c-.362.11-.71.163-1.08.163-1.18 0-1.794-.616-1.794-1.795 0-1.376.782-2.39 1.843-2.39.867 0 1.422.568 1.422 1.458 0 .295-.04.583-.13.99h-2.097c-.07.584.303.827.915.827.377 0 .717-.078 1.095-.254l-.175 1.002zm-.592-2.387c.006-.083.112-.718-.49-.718-.335 0-.575.257-.673.72h1.163z" fill="#FFF"/>
            <path d="M17.74 15.058c0 .51.246.86.806 1.124.43.202.495.262.495.445 0 .25-.188.364-.607.364-.316 0-.61-.048-.95-.158l-.145.93c.24.052.456.1 1.102.12 1.118 0 1.634-.427 1.634-1.347 0-.553-.216-.877-.746-1.12-.444-.205-.495-.25-.495-.44 0-.216.176-.328.518-.328.21 0 .493.023.762.06l.15-.932a7.21 7.21 0 0 0-.93-.08c-1.187 0-1.597.62-1.593 1.363" fill="#FFF"/>
            <path d="M39.398 17.81h-1.002l.05-.374c-.29.31-.588.445-.977.445-.77 0-1.28-.663-1.28-1.67 0-1.338.79-2.467 1.724-2.467.41 0 .722.168 1.01.55l.236-1.43h1.045l-.807 4.948zm-1.563-.93c.494 0 .84-.558.84-1.355 0-.512-.197-.79-.56-.79-.48 0-.822.56-.822 1.353 0 .526.182.793.542.793z" fill="#FFF"/>
            <path d="M34.746 13.786c-.133 1.246-.368 2.507-.553 3.754l-.048.27h1.06c.38-2.46.47-2.94 1.064-2.88.094-.505.27-.946.4-1.168-.442-.093-.69.158-1.015.634.026-.206.073-.406.064-.61h-.974" fill="#FFF"/>
            <path d="M26.026 13.786c-.133 1.246-.37 2.507-.553 3.754l-.048.27h1.06c.38-2.46.47-2.94 1.063-2.88.095-.505.272-.946.403-1.168-.442-.093-.69.158-1.015.634.026-.206.073-.406.064-.61h-.974" fill="#FFF"/>
        </g>
        <g transform="translate(48)">
            <rect fill="#FFF" width="50" height="30" rx="2"/>
            <path d="M20.745 19.773l1.537-9.537h2.458l-1.537 9.537h-2.458" fill="#26337A"/>
            <path d="M32.116 10.47c-.485-.19-1.25-.4-2.202-.4-2.43 0-4.14 1.295-4.154 3.148-.015 1.37 1.22 2.135 2.152 2.59.958.468 1.28.767 1.276 1.184-.007.64-.764.932-1.47.932-.985 0-1.507-.144-2.316-.5l-.316-.152-.343 2.134c.573.266 1.635.497 2.737.51 2.583 0 4.26-1.28 4.28-3.26.01-1.086-.646-1.91-2.064-2.59-.86-.442-1.386-.735-1.38-1.183 0-.396.445-.82 1.408-.82a4.31 4.31 0 0 1 1.84.366l.22.108.332-2.068" fill="#26337A"/>
            <path d="M35.39 16.392l.978-2.666c-.015.026.202-.552.326-.91l.166.823.57 2.752h-2.04zm3.03-6.146h-1.9c-.588 0-1.03.17-1.287.79l-3.65 8.74h2.582s.42-1.175.517-1.433l3.147.005c.073.333.298 1.43.298 1.43h2.28l-1.988-9.532z" fill="#26337A"/>
            <path d="M18.683 10.244l-2.405 6.502-.258-1.32c-.448-1.524-1.843-3.175-3.404-4.002l2.2 8.34h2.602l3.87-9.52h-2.605" fill="#26337A"/>
            <path d="M14.045 10.238h-3.963l-.032.197c3.083.79 5.124 2.697 5.97 4.99l-.86-4.382c-.15-.605-.58-.784-1.115-.805" fill="#ED982D"/>
        </g>
        <g transform="matrix(1 0 0 -1 0 31)">
            <rect fill="#FFF" x=".095" y=".078" width="50.495" height="30.492" rx="2"/>
            <path d="M31.07 17.152c-.135-.897-.816-.897-1.474-.897h-.374l.263 1.674c.015.1.102.175.204.175h.17c.448 0 .87 0 1.09-.257.13-.154.17-.382.12-.696m-.286 2.34h-2.482a.346.346 0 0 1-.34-.294l-1.004-6.404a.208.208 0 0 1 .205-.24h1.273c.12 0 .22.086.238.204l.285 1.816c.025.17.17.293.34.293h.785c1.634 0 2.578.796 2.824 2.374.11.69.003 1.233-.317 1.613-.353.417-.98.638-1.81.638" fill="#0079C1"/>
            <path d="M13.37 17.152c-.134-.897-.815-.897-1.473-.897h-.374l.263 1.674c.015.1.102.175.204.175h.172c.448 0 .87 0 1.09-.257.13-.154.17-.382.12-.696m-.287 2.34h-2.48a.346.346 0 0 1-.342-.294L9.26 12.794a.208.208 0 0 1 .204-.24h1.185c.168 0 .312.124.34.292l.27 1.728c.026.17.17.293.34.293h.786c1.634 0 2.578.796 2.824 2.374.11.69.004 1.233-.316 1.613-.353.417-.98.638-1.81.638" fill="#00457C"/>
            <path d="M18.846 14.853c-.115-.683-.654-1.142-1.34-1.142-.346 0-.622.112-.8.324-.175.21-.24.507-.185.84.107.677.655 1.15 1.332 1.15.338 0 .612-.112.792-.326.182-.214.254-.514.202-.845m1.656 2.328h-1.188a.207.207 0 0 1-.205-.175l-.053-.334-.083.122c-.257.375-.83.5-1.404.5-1.312 0-2.434-1-2.652-2.404-.114-.7.048-1.37.442-1.838.363-.43.88-.608 1.497-.608 1.058 0 1.645.684 1.645.684l-.053-.332a.208.208 0 0 1 .203-.24h1.07c.17 0 .314.123.34.292l.643 4.094a.208.208 0 0 1-.204.24" fill="#00457C"/>
            <path d="M36.545 14.853c-.115-.683-.654-1.142-1.34-1.142-.346 0-.622.112-.8.324-.175.21-.24.507-.185.84.106.677.654 1.15 1.33 1.15.34 0 .613-.112.793-.326.182-.214.254-.514.202-.845M38.2 17.18h-1.187a.207.207 0 0 1-.205-.175l-.052-.334-.083.122c-.257.375-.83.5-1.404.5-1.313 0-2.435-1-2.653-2.404-.114-.7.048-1.37.442-1.838.362-.43.88-.608 1.496-.608 1.058 0 1.645.684 1.645.684l-.052-.332a.208.208 0 0 1 .204-.24h1.07c.17 0 .314.123.34.292l.643 4.094a.208.208 0 0 1-.204.24" fill="#0079C1"/>
            <path d="M26.83 17.18h-1.194a.343.343 0 0 1-.285-.152l-1.647-2.442-.698 2.347a.346.346 0 0 1-.33.248H21.5a.208.208 0 0 1-.195-.275l1.315-3.885-1.237-1.756a.208.208 0 0 1 .17-.33h1.192c.113 0 .22.057.284.15l3.97 5.77a.208.208 0 0 1-.17.327" fill="#00457C"/>
            <path d="M39.6 19.315l-1.017-6.52a.208.208 0 0 1 .204-.242h1.025c.17 0 .314.125.34.293l1.004 6.404a.208.208 0 0 1-.204.24h-1.146a.207.207 0 0 1-.205-.175" fill="#0079C1"/>
        </g>
    </g>
</svg>
